<?xml version="1.0" encoding="UTF-8" standalone="no"?>
<!DOCTYPE svg PUBLIC "-//W3C//DTD SVG 1.1//EN"
 "http://www.w3.org/Graphics/SVG/1.1/DTD/svg11.dtd">
<!-- Generated by graphviz version 2.28.0 (20111028.1807)
 -->
<!-- Title: An overview of the Avail&#39;s metatypes. Pages: 1 -->
<svg width="1227pt" height="548pt"
 viewBox="0.00 0.00 1227.00 548.00" xmlns="http://www.w3.org/2000/svg" xmlns:xlink="http://www.w3.org/1999/xlink">
<g id="graph1" class="graph" transform="scale(1 1) rotate(0) translate(4 544)">
<title>An overview of the Avail&#39;s metatypes.</title>
<polygon fill="white" stroke="white" points="-4,5 -4,-544 1224,-544 1224,5 -4,5"/>
<!-- ⊤ -->
<g id="node1" class="node"><title>⊤</title>
<a xlink:href="/about-avail/documentation/type-system/types-top" xlink:title="⊤" target="_top">
<text text-anchor="middle" x="54" y="-518" font-family="Consolas" font-size="8.00" fill="#0000a0">⊤</text>
</a>
</g>
<!-- any -->
<g id="node2" class="node"><title>any</title>
<a xlink:href="/about-avail/documentation/type-system/types-any" xlink:title="any" target="_top">
<text text-anchor="middle" x="54" y="-446.684" font-family="Consolas" font-size="8.00" fill="#0000a0">any</text>
</a>
</g>
<!-- ⊤&#45;&#45;any -->
<g id="edge3" class="edge"><title>⊤&#45;&#45;any</title>
<path fill="none" stroke="black" d="M54,-503.697C54,-492.846 54,-478.917 54,-468.104"/>
</g>
<!-- nontype -->
<g id="node3" class="node"><title>nontype</title>
<a xlink:href="/about-avail/documentation/type-system/types-nontype" xlink:title="nontype" target="_top">
<text text-anchor="middle" x="27" y="-302.684" font-family="Consolas" font-size="8.00" fill="#0000a0">nontype</text>
</a>
</g>
<!-- any&#45;&#45;nontype -->
<g id="edge4" class="edge"><title>any&#45;&#45;nontype</title>
<path fill="none" stroke="black" d="M48.9649,-431.93C46.0494,-421.599 42.4779,-408.121 40,-396 34.9335,-371.216 31.0734,-342.159 28.9218,-324.162"/>
</g>
<!-- type -->
<g id="node4" class="node"><title>type</title>
<a xlink:href="/about-avail/documentation/type-system/types-type" xlink:title="type = {⊤}ᵀ" target="_top">
<ellipse fill="#e2e8ff" stroke="#e2e8ff" cx="78" cy="-378" rx="37.5" ry="18"/>
<text text-anchor="middle" x="78" y="-374.684" font-family="Consolas" font-size="8.00" fill="#0000a0">type = {⊤}ᵀ</text>
</a>
</g>
<!-- any&#45;&#45;type -->
<g id="edge5" class="edge"><title>any&#45;&#45;type</title>
<path fill="none" stroke="black" d="M59.9326,-431.697C63.6527,-420.846 68.4286,-406.917 72.1357,-396.104"/>
</g>
<!-- ⊥ -->
<g id="node27" class="node"><title>⊥</title>
<a xlink:href="/about-avail/documentation/type-system/types-bottom" xlink:title="⊥" target="_top">
<text text-anchor="middle" x="286" y="-14" font-family="Consolas" font-size="8.00" fill="#0000a0">⊥</text>
</a>
</g>
<!-- nontype&#45;&#45;⊥ -->
<g id="edge53" class="edge"><title>nontype&#45;&#45;⊥</title>
<path fill="none" stroke="#e5e5e5" stroke-dasharray="5,2" d="M22.2091,-287.817C14.5284,-256.424 3.07528,-188.903 32,-144 84.0325,-63.2239 204.725,-32.9213 258.865,-23.1101"/>
</g>
<!-- any meta -->
<g id="node5" class="node"><title>any meta</title>
<text text-anchor="middle" x="82" y="-302.684" font-family="Consolas" font-size="8.00" fill="#0000a0">{any}ᵀ</text>
</g>
<!-- type&#45;&#45;any meta -->
<g id="edge7" class="edge"><title>type&#45;&#45;any meta</title>
<path fill="none" stroke="black" d="M78.9888,-359.697C79.6088,-348.846 80.4048,-334.917 81.0226,-324.104"/>
</g>
<!-- meta -->
<g id="node13" class="node"><title>meta</title>
<text text-anchor="middle" x="79" y="-230.684" font-family="Consolas" font-size="8.00" fill="#0000a0">{type}ᵀ = {{⊤}ᵀ}ᵀ</text>
</g>
<!-- any meta&#45;&#45;meta -->
<g id="edge10" class="edge"><title>any meta&#45;&#45;meta</title>
<path fill="none" stroke="black" d="M81.2584,-287.697C80.7934,-276.846 80.1964,-262.917 79.733,-252.104"/>
</g>
<!-- nontype meta -->
<g id="node19" class="node"><title>nontype meta</title>
<text text-anchor="middle" x="654" y="-230.684" font-family="Consolas" font-size="8.00" fill="#0000a0">{nontype}ᵀ</text>
</g>
<!-- any meta&#45;&#45;nontype meta -->
<g id="edge11" class="edge"><title>any meta&#45;&#45;nontype meta</title>
<path fill="none" stroke="black" d="M109.204,-301.671C204.784,-289.974 524.792,-250.812 624.248,-238.641"/>
</g>
<!-- atom meta -->
<g id="node6" class="node"><title>atom meta</title>
<text text-anchor="middle" x="59" y="-158.684" font-family="Consolas" font-size="8.00" fill="#0000a0">{atom}ᵀ</text>
</g>
<!-- ⊥ meta -->
<g id="node26" class="node"><title>⊥ meta</title>
<text text-anchor="middle" x="545" y="-86.6836" font-family="Consolas" font-size="8.00" fill="#0000a0">{⊥}ᵀ</text>
</g>
<!-- atom meta&#45;&#45;⊥ meta -->
<g id="edge34" class="edge"><title>atom meta&#45;&#45;⊥ meta</title>
<path fill="none" stroke="#d0d0d0" stroke-dasharray="5,2" d="M86.1278,-145.384C87.4192,-144.876 88.7135,-144.41 90,-144 246.267,-94.1531 446.075,-90.2239 517.833,-90.5793"/>
</g>
<!-- character meta -->
<g id="node7" class="node"><title>character meta</title>
<text text-anchor="middle" x="121" y="-158.684" font-family="Consolas" font-size="8.00" fill="#0000a0">{character}ᵀ</text>
</g>
<!-- character meta&#45;&#45;⊥ meta -->
<g id="edge35" class="edge"><title>character meta&#45;&#45;⊥ meta</title>
<path fill="none" stroke="#d0d0d0" stroke-dasharray="5,2" d="M155.22,-145.168C156.486,-144.749 157.749,-144.358 159,-144 290.046,-106.522 453.94,-95.2068 517.783,-92.0877"/>
</g>
<!-- continuation meta -->
<g id="node8" class="node"><title>continuation meta</title>
<text text-anchor="middle" x="197" y="-158.684" font-family="Consolas" font-size="8.00" fill="#0000a0">{continuation}ᵀ</text>
</g>
<!-- continuation meta&#45;&#45;⊥ meta -->
<g id="edge36" class="edge"><title>continuation meta&#45;&#45;⊥ meta</title>
<path fill="none" stroke="#d0d0d0" stroke-dasharray="5,2" d="M237.658,-144.969C238.78,-144.63 239.895,-144.307 241,-144 341.15,-116.212 464.091,-100.104 517.767,-93.9307"/>
</g>
<!-- fiber meta -->
<g id="node9" class="node"><title>fiber meta</title>
<text text-anchor="middle" x="266" y="-158.684" font-family="Consolas" font-size="8.00" fill="#0000a0">{fiber}ᵀ</text>
</g>
<!-- fiber meta&#45;&#45;⊥ meta -->
<g id="edge37" class="edge"><title>fiber meta&#45;&#45;⊥ meta</title>
<path fill="none" stroke="#d0d0d0" stroke-dasharray="5,2" d="M293.18,-145.535C294.457,-144.986 295.734,-144.471 297,-144 374.374,-115.223 471.445,-100.168 517.853,-94.1721"/>
</g>
<!-- function meta -->
<g id="node10" class="node"><title>function meta</title>
<text text-anchor="middle" x="326" y="-158.684" font-family="Consolas" font-size="8.00" fill="#0000a0">{function}ᵀ</text>
</g>
<!-- function meta&#45;&#45;⊥ meta -->
<g id="edge38" class="edge"><title>function meta&#45;&#45;⊥ meta</title>
<path fill="none" stroke="#d0d0d0" stroke-dasharray="5,2" d="M358.474,-145.381C359.658,-144.902 360.836,-144.44 362,-144 416.142,-123.526 481.778,-106.277 517.892,-97.411"/>
</g>
<!-- function implementation meta -->
<g id="node11" class="node"><title>function implementation meta</title>
<text text-anchor="middle" x="424" y="-158.684" font-family="Consolas" font-size="8.00" fill="#0000a0">{function implementation}ᵀ</text>
</g>
<!-- function implementation meta&#45;&#45;⊥ meta -->
<g id="edge39" class="edge"><title>function implementation meta&#45;&#45;⊥ meta</title>
<path fill="none" stroke="#d0d0d0" stroke-dasharray="5,2" d="M453.6,-143.876C473.19,-132.543 498.689,-117.792 517.775,-106.75"/>
</g>
<!-- map meta -->
<g id="node12" class="node"><title>map meta</title>
<text text-anchor="middle" x="517" y="-158.684" font-family="Consolas" font-size="8.00" fill="#0000a0">{map}ᵀ</text>
</g>
<!-- map meta&#45;&#45;⊥ meta -->
<g id="edge40" class="edge"><title>map meta&#45;&#45;⊥ meta</title>
<path fill="none" stroke="#d0d0d0" stroke-dasharray="5,2" d="M523.921,-143.697C528.261,-132.846 533.833,-118.917 538.158,-108.104"/>
</g>
<!-- meta&#45;&#45;⊥ meta -->
<g id="edge41" class="edge"><title>meta&#45;&#45;⊥ meta</title>
<path fill="none" stroke="#d0d0d0" stroke-dasharray="5,2" d="M59.7551,-215.961C40.3232,-196.74 15.7266,-165.38 35,-144 67.5958,-107.841 416.866,-94.7789 517.819,-91.7432"/>
</g>
<!-- method meta -->
<g id="node14" class="node"><title>method meta</title>
<text text-anchor="middle" x="573" y="-158.684" font-family="Consolas" font-size="8.00" fill="#0000a0">{method}ᵀ</text>
</g>
<!-- method meta&#45;&#45;⊥ meta -->
<g id="edge42" class="edge"><title>method meta&#45;&#45;⊥ meta</title>
<path fill="none" stroke="#d0d0d0" stroke-dasharray="5,2" d="M566.079,-143.697C561.739,-132.846 556.167,-118.917 551.842,-108.104"/>
</g>
<!-- method definition meta -->
<g id="node15" class="node"><title>method definition meta</title>
<text text-anchor="middle" x="654" y="-158.684" font-family="Consolas" font-size="8.00" fill="#0000a0">{method definition}ᵀ</text>
</g>
<!-- method definition meta&#45;&#45;⊥ meta -->
<g id="edge43" class="edge"><title>method definition meta&#45;&#45;⊥ meta</title>
<path fill="none" stroke="#d0d0d0" stroke-dasharray="5,2" d="M627.336,-143.876C610.445,-133.029 588.678,-119.05 571.767,-108.19"/>
</g>
<!-- module meta -->
<g id="node16" class="node"><title>module meta</title>
<text text-anchor="middle" x="735" y="-158.684" font-family="Consolas" font-size="8.00" fill="#0000a0">{module}ᵀ</text>
</g>
<!-- module meta&#45;&#45;⊥ meta -->
<g id="edge44" class="edge"><title>module meta&#45;&#45;⊥ meta</title>
<path fill="none" stroke="#d0d0d0" stroke-dasharray="5,2" d="M707.562,-146.055C706.03,-145.336 704.503,-144.646 703,-144 658.211,-124.747 603.932,-107.877 572.06,-98.5947"/>
</g>
<!-- number meta -->
<g id="node17" class="node"><title>number meta</title>
<text text-anchor="middle" x="792" y="-158.684" font-family="Consolas" font-size="8.00" fill="#0000a0">{number}ᵀ</text>
</g>
<!-- object meta -->
<g id="node18" class="node"><title>object meta</title>
<text text-anchor="middle" x="849" y="-158.684" font-family="Consolas" font-size="8.00" fill="#0000a0">{object}ᵀ</text>
</g>
<!-- object meta&#45;&#45;⊥ meta -->
<g id="edge45" class="edge"><title>object meta&#45;&#45;⊥ meta</title>
<path fill="none" stroke="#d0d0d0" stroke-dasharray="5,2" d="M821.657,-145.813C820.1,-145.157 818.542,-144.546 817,-144 730.608,-113.402 622.173,-98.9941 572.34,-93.6242"/>
</g>
<!-- nontype meta&#45;&#45;atom meta -->
<g id="edge14" class="edge"><title>nontype meta&#45;&#45;atom meta</title>
<path fill="none" stroke="black" d="M624.432,-231.804C523.252,-227.466 191.545,-211.15 90,-180 88.709,-179.604 87.4109,-179.15 86.1166,-178.652"/>
</g>
<!-- nontype meta&#45;&#45;character meta -->
<g id="edge15" class="edge"><title>nontype meta&#45;&#45;character meta</title>
<path fill="none" stroke="black" d="M624.399,-233.035C546.668,-232.444 330.89,-226.402 159,-180 157.744,-179.661 156.477,-179.286 155.206,-178.881"/>
</g>
<!-- nontype meta&#45;&#45;continuation meta -->
<g id="edge16" class="edge"><title>nontype meta&#45;&#45;continuation meta</title>
<path fill="none" stroke="black" d="M624.506,-231.654C556.124,-228.008 381.85,-215.69 241,-180 239.889,-179.718 238.767,-179.417 237.64,-179.098"/>
</g>
<!-- nontype meta&#45;&#45;fiber meta -->
<g id="edge17" class="edge"><title>nontype meta&#45;&#45;fiber meta</title>
<path fill="none" stroke="black" d="M624.496,-232.123C562.335,-229.526 413.995,-219.355 297,-180 295.72,-179.569 294.431,-179.087 293.144,-178.566"/>
</g>
<!-- nontype meta&#45;&#45;function meta -->
<g id="edge18" class="edge"><title>nontype meta&#45;&#45;function meta</title>
<path fill="none" stroke="black" d="M624.37,-230.21C570.91,-224.61 455.216,-209.897 362,-180 360.815,-179.62 359.619,-179.209 358.419,-178.774"/>
</g>
<!-- nontype meta&#45;&#45;function implementation meta -->
<g id="edge19" class="edge"><title>nontype meta&#45;&#45;function implementation meta</title>
<path fill="none" stroke="black" d="M624.402,-223.992C588.004,-212.914 525.458,-193.878 479.901,-180.013"/>
</g>
<!-- nontype meta&#45;&#45;map meta -->
<g id="edge20" class="edge"><title>nontype meta&#45;&#45;map meta</title>
<path fill="none" stroke="black" d="M624.148,-218.45C602.824,-207.966 573.515,-193.369 548,-180 546.695,-179.316 545.362,-178.611 544.019,-177.895"/>
</g>
<!-- nontype meta&#45;&#45;method meta -->
<g id="edge21" class="edge"><title>nontype meta&#45;&#45;method meta</title>
<path fill="none" stroke="black" d="M633.978,-215.697C621.422,-204.846 605.304,-190.917 592.792,-180.104"/>
</g>
<!-- nontype meta&#45;&#45;method definition meta -->
<g id="edge22" class="edge"><title>nontype meta&#45;&#45;method definition meta</title>
<path fill="none" stroke="black" d="M654,-215.697C654,-204.846 654,-190.917 654,-180.104"/>
</g>
<!-- nontype meta&#45;&#45;module meta -->
<g id="edge23" class="edge"><title>nontype meta&#45;&#45;module meta</title>
<path fill="none" stroke="black" d="M674.022,-215.697C686.578,-204.846 702.696,-190.917 715.208,-180.104"/>
</g>
<!-- nontype meta&#45;&#45;number meta -->
<g id="edge24" class="edge"><title>nontype meta&#45;&#45;number meta</title>
<path fill="none" stroke="black" d="M683.798,-218.346C705.096,-207.812 734.397,-193.199 760,-180 761.566,-179.193 763.172,-178.359 764.79,-177.514"/>
</g>
<!-- nontype meta&#45;&#45;object meta -->
<g id="edge25" class="edge"><title>nontype meta&#45;&#45;object meta</title>
<path fill="none" stroke="black" d="M683.713,-225.026C716.823,-215.754 771.666,-199.239 817,-180 818.506,-179.361 820.036,-178.676 821.569,-177.962"/>
</g>
<!-- phrase meta -->
<g id="node20" class="node"><title>phrase meta</title>
<text text-anchor="middle" x="906" y="-158.684" font-family="Consolas" font-size="8.00" fill="#0000a0">{phrase}ᵀ</text>
</g>
<!-- nontype meta&#45;&#45;phrase meta -->
<g id="edge26" class="edge"><title>nontype meta&#45;&#45;phrase meta</title>
<path fill="none" stroke="black" d="M683.53,-228.327C726.429,-220.998 808.059,-204.999 874,-180 875.529,-179.42 877.078,-178.783 878.627,-178.105"/>
</g>
<!-- pojo meta -->
<g id="node21" class="node"><title>pojo meta</title>
<text text-anchor="middle" x="962" y="-158.684" font-family="Consolas" font-size="8.00" fill="#0000a0">{pojo}ᵀ</text>
</g>
<!-- nontype meta&#45;&#45;pojo meta -->
<g id="edge27" class="edge"><title>nontype meta&#45;&#45;pojo meta</title>
<path fill="none" stroke="black" d="M683.505,-230.405C735.019,-225.211 844.154,-211.242 931,-180 932.271,-179.543 933.552,-179.039 934.832,-178.499"/>
</g>
<!-- token meta -->
<g id="node22" class="node"><title>token meta</title>
<text text-anchor="middle" x="1017" y="-158.684" font-family="Consolas" font-size="8.00" fill="#0000a0">{token}ᵀ</text>
</g>
<!-- nontype meta&#45;&#45;token meta -->
<g id="edge28" class="edge"><title>nontype meta&#45;&#45;token meta</title>
<path fill="none" stroke="black" d="M683.68,-231.662C742.751,-228.267 878.597,-216.783 986,-180 987.278,-179.562 988.564,-179.075 989.85,-178.548"/>
</g>
<!-- tuple meta -->
<g id="node23" class="node"><title>tuple meta</title>
<text text-anchor="middle" x="1072" y="-158.684" font-family="Consolas" font-size="8.00" fill="#0000a0">{tuple}ᵀ</text>
</g>
<!-- nontype meta&#45;&#45;tuple meta -->
<g id="edge29" class="edge"><title>nontype meta&#45;&#45;tuple meta</title>
<path fill="none" stroke="black" d="M683.955,-232.579C750.084,-230.865 912.851,-222.304 1041,-180 1042.28,-179.577 1043.57,-179.101 1044.86,-178.584"/>
</g>
<!-- set meta -->
<g id="node24" class="node"><title>set meta</title>
<text text-anchor="middle" x="1127" y="-158.684" font-family="Consolas" font-size="8.00" fill="#0000a0">{set}ᵀ</text>
</g>
<!-- nontype meta&#45;&#45;set meta -->
<g id="edge30" class="edge"><title>nontype meta&#45;&#45;set meta</title>
<path fill="none" stroke="black" d="M683.514,-233.289C755.745,-233.186 946.427,-227.99 1096,-180 1097.29,-179.587 1098.58,-179.12 1099.87,-178.611"/>
</g>
<!-- variable meta -->
<g id="node25" class="node"><title>variable meta</title>
<text text-anchor="middle" x="1187" y="-158.684" font-family="Consolas" font-size="8.00" fill="#0000a0">{variable}ᵀ</text>
</g>
<!-- nontype meta&#45;&#45;variable meta -->
<g id="edge31" class="edge"><title>nontype meta&#45;&#45;variable meta</title>
<path fill="none" stroke="black" d="M683.492,-233.254C761.428,-233.205 978.691,-228.377 1151,-180 1152.2,-179.664 1153.41,-179.291 1154.61,-178.888"/>
</g>
<!-- phrase meta&#45;&#45;⊥ meta -->
<g id="edge46" class="edge"><title>phrase meta&#45;&#45;⊥ meta</title>
<path fill="none" stroke="#d0d0d0" stroke-dasharray="5,2" d="M878.678,-145.752C877.116,-145.111 875.551,-144.521 874,-144 765.958,-107.712 629.373,-95.8882 572.154,-92.3655"/>
</g>
<!-- pojo meta&#45;&#45;⊥ meta -->
<g id="edge47" class="edge"><title>pojo meta&#45;&#45;⊥ meta</title>
<path fill="none" stroke="#d0d0d0" stroke-dasharray="5,2" d="M934.861,-145.417C933.573,-144.9 932.282,-144.424 931,-144 801.578,-101.25 636.752,-92.9623 572.437,-91.3709"/>
</g>
<!-- token meta&#45;&#45;⊥ meta -->
<g id="edge48" class="edge"><title>token meta&#45;&#45;⊥ meta</title>
<path fill="none" stroke="#d0d0d0" stroke-dasharray="5,2" d="M989.87,-145.39C988.579,-144.88 987.286,-144.413 986,-144 835.115,-95.5665 642.298,-90.7392 572.098,-90.7194"/>
</g>
<!-- set meta&#45;&#45;⊥ meta -->
<g id="edge49" class="edge"><title>set meta&#45;&#45;⊥ meta</title>
<path fill="none" stroke="#d0d0d0" stroke-dasharray="5,2" d="M1099.88,-145.351C1098.59,-144.852 1097.29,-144.397 1096,-144 996.234,-113.275 668.979,-96.5292 572.194,-92.1635"/>
</g>
<!-- variable meta&#45;&#45;⊥ meta -->
<g id="edge50" class="edge"><title>variable meta&#45;&#45;⊥ meta</title>
<path fill="none" stroke="#d0d0d0" stroke-dasharray="5,2" d="M1154.62,-145.083C1153.41,-144.688 1152.2,-144.325 1151,-144 1039.37,-113.8 675.245,-96.4836 572.322,-92.1088"/>
</g>
<!-- ⊥ meta&#45;&#45;⊥ -->
<g id="edge54" class="edge"><title>⊥ meta&#45;&#45;⊥</title>
<path fill="none" stroke="#e5e5e5" stroke-dasharray="5,2" d="M517.772,-81.6411C468.029,-68.197 363.013,-39.8142 313.252,-26.3654"/>
</g>
</g>
</svg>
