<?xml version="1.0" encoding="UTF-8" standalone="no"?>
<!DOCTYPE svg PUBLIC "-//W3C//DTD SVG 1.1//EN"
 "http://www.w3.org/Graphics/SVG/1.1/DTD/svg11.dtd">
<!-- Generated by graphviz version 2.28.0 (20111028.1807)
 -->
<!-- Title: Type lattice: focus on character. Pages: 1 -->
<svg width="422pt" height="314pt"
 viewBox="0.00 0.00 422.00 314.00" xmlns="http://www.w3.org/2000/svg" xmlns:xlink="http://www.w3.org/1999/xlink">
<g id="graph1" class="graph" transform="scale(1 1) rotate(0) translate(4 310)">
<title>Type lattice: focus on character.</title>
<polygon fill="white" stroke="white" points="-4,5 -4,-310 419,-310 419,5 -4,5"/>
<!-- ⊤ -->
<g id="node1" class="node"><title>⊤</title>
<a xlink:href="/about-avail/documentation/type-system/types-top" xlink:title="⊤" target="_top">
<text text-anchor="middle" x="207" y="-283" font-family="Consolas" font-size="10.00" fill="#0000a0">⊤</text>
</a>
</g>
<!-- any -->
<g id="node2" class="node"><title>any</title>
<a xlink:href="/about-avail/documentation/type-system/types-any" xlink:title="any" target="_top">
<text text-anchor="middle" x="207" y="-229.854" font-family="Consolas" font-size="10.00" fill="#0000a0">any</text>
</a>
</g>
<!-- ⊤&#45;&#45;any -->
<g id="edge2" class="edge"><title>⊤&#45;&#45;any</title>
<path fill="none" stroke="black" d="M207,-269.973C207,-264.286 207,-257.946 207,-252.243"/>
</g>
<!-- nontype -->
<g id="node3" class="node"><title>nontype</title>
<a xlink:href="/about-avail/documentation/type-system/types-nontype" xlink:title="nontype" target="_top">
<text text-anchor="middle" x="207" y="-175.854" font-family="Consolas" font-size="10.00" fill="#0000a0">nontype</text>
</a>
</g>
<!-- any&#45;&#45;nontype -->
<g id="edge3" class="edge"><title>any&#45;&#45;nontype</title>
<path fill="none" stroke="black" d="M207,-215.973C207,-210.286 207,-203.946 207,-198.243"/>
</g>
<!-- character -->
<g id="node4" class="node"><title>character</title>
<a xlink:href="/about-avail/documentation/type-system/types-character" xlink:title="character" target="_top">
<ellipse fill="#e2e8ff" stroke="#e2e8ff" cx="207" cy="-126" rx="39.1885" ry="18"/>
<text text-anchor="middle" x="207" y="-121.854" font-family="Consolas" font-size="10.00" fill="#0000a0">character</text>
</a>
</g>
<!-- nontype&#45;&#45;character -->
<g id="edge4" class="edge"><title>nontype&#45;&#45;character</title>
<path fill="none" stroke="black" d="M207,-161.973C207,-156.286 207,-149.946 207,-144.243"/>
</g>
<!-- ¢+ type -->
<g id="node6" class="node"><title>¢+ type</title>
<text text-anchor="middle" x="99" y="-67.8545" font-family="Consolas" font-size="10.00" fill="#0000a0">{¢+}ᵀ</text>
</g>
<!-- character&#45;&#45;¢+ type -->
<g id="edge8" class="edge"><title>character&#45;&#45;¢+ type</title>
<path fill="none" stroke="black" d="M180.856,-112.412C164.25,-104.417 142.805,-94.0914 126.031,-86.0149"/>
</g>
<!-- ¢3 type -->
<g id="node7" class="node"><title>¢3 type</title>
<text text-anchor="middle" x="171" y="-67.8545" font-family="Consolas" font-size="10.00" fill="#0000a0">{¢3}ᵀ</text>
</g>
<!-- character&#45;&#45;¢3 type -->
<g id="edge9" class="edge"><title>character&#45;&#45;¢3 type</title>
<path fill="none" stroke="black" d="M195.609,-108.547C191.572,-102.715 187.019,-96.1389 182.937,-90.243"/>
</g>
<!-- ¢a type -->
<g id="node8" class="node"><title>¢a type</title>
<text text-anchor="middle" x="243" y="-67.8545" font-family="Consolas" font-size="10.00" fill="#0000a0">{¢a}ᵀ</text>
</g>
<!-- character&#45;&#45;¢a type -->
<g id="edge10" class="edge"><title>character&#45;&#45;¢a type</title>
<path fill="none" stroke="black" d="M218.391,-108.547C222.428,-102.715 226.981,-96.1389 231.063,-90.243"/>
</g>
<!-- ¢A type -->
<g id="node9" class="node"><title>¢A type</title>
<text text-anchor="middle" x="315" y="-67.8545" font-family="Consolas" font-size="10.00" fill="#0000a0">{¢A}ᵀ</text>
</g>
<!-- character&#45;&#45;¢A type -->
<g id="edge11" class="edge"><title>character&#45;&#45;¢A type</title>
<path fill="none" stroke="black" d="M233.144,-112.412C249.75,-104.417 271.195,-94.0914 287.969,-86.0149"/>
</g>
<!-- …1 -->
<g id="node5" class="node"><title>…1</title>
</g>
<!-- …1&#45;&#45;¢+ type -->
<g id="edge13" class="edge"><title>…1&#45;&#45;¢+ type</title>
<path fill="none" stroke="#707070" stroke-dasharray="1,5" d="M54.2812,-72C60.104,-72 65.9268,-72 71.7495,-72"/>
</g>
<!-- ¢+ type&#45;&#45;¢3 type -->
<g id="edge15" class="edge"><title>¢+ type&#45;&#45;¢3 type</title>
<path fill="none" stroke="#707070" stroke-dasharray="1,5" d="M126.281,-72C132.104,-72 137.927,-72 143.75,-72"/>
</g>
<!-- ⊥ -->
<g id="node11" class="node"><title>⊥</title>
<a xlink:href="/about-avail/documentation/type-system/types-bottom" xlink:title="⊥" target="_top">
<text text-anchor="middle" x="207" y="-13" font-family="Consolas" font-size="10.00" fill="#0000a0">⊥</text>
</a>
</g>
<!-- ¢+ type&#45;&#45;⊥ -->
<g id="edge24" class="edge"><title>¢+ type&#45;&#45;⊥</title>
<path fill="none" stroke="#000000" d="M126.253,-57.8782C142.625,-49.9954 163.385,-39.9997 179.756,-32.1176"/>
</g>
<!-- ¢3 type&#45;&#45;¢a type -->
<g id="edge17" class="edge"><title>¢3 type&#45;&#45;¢a type</title>
<path fill="none" stroke="#707070" stroke-dasharray="1,5" d="M198.281,-72C204.104,-72 209.927,-72 215.75,-72"/>
</g>
<!-- ¢3 type&#45;&#45;⊥ -->
<g id="edge25" class="edge"><title>¢3 type&#45;&#45;⊥</title>
<path fill="none" stroke="#000000" d="M182.788,-53.9733C186.725,-48.2862 191.114,-41.9464 195.063,-36.243"/>
</g>
<!-- ¢a type&#45;&#45;¢A type -->
<g id="edge19" class="edge"><title>¢a type&#45;&#45;¢A type</title>
<path fill="none" stroke="#707070" stroke-dasharray="1,5" d="M270.281,-72C276.104,-72 281.927,-72 287.75,-72"/>
</g>
<!-- ¢a type&#45;&#45;⊥ -->
<g id="edge26" class="edge"><title>¢a type&#45;&#45;⊥</title>
<path fill="none" stroke="#000000" d="M231.212,-53.9733C227.275,-48.2862 222.886,-41.9464 218.937,-36.243"/>
</g>
<!-- …2 -->
<g id="node10" class="node"><title>…2</title>
</g>
<!-- ¢A type&#45;&#45;…2 -->
<g id="edge21" class="edge"><title>¢A type&#45;&#45;…2</title>
<path fill="none" stroke="#707070" stroke-dasharray="1,5" d="M342.281,-72C348.104,-72 353.927,-72 359.75,-72"/>
</g>
<!-- ¢A type&#45;&#45;⊥ -->
<g id="edge27" class="edge"><title>¢A type&#45;&#45;⊥</title>
<path fill="none" stroke="#000000" d="M287.747,-57.8782C271.375,-49.9954 250.615,-39.9997 234.244,-32.1176"/>
</g>
</g>
</svg>
