<?xml version="1.0" encoding="UTF-8" standalone="no"?>
<!DOCTYPE svg PUBLIC "-//W3C//DTD SVG 1.1//EN"
 "http://www.w3.org/Graphics/SVG/1.1/DTD/svg11.dtd">
<!-- Generated by graphviz version 2.28.0 (20111028.1807)
 -->
<!-- Title: Type lattice: focus on extended integer. Pages: 1 -->
<svg width="488pt" height="638pt"
 viewBox="0.00 0.00 488.00 638.00" xmlns="http://www.w3.org/2000/svg" xmlns:xlink="http://www.w3.org/1999/xlink">
<g id="graph1" class="graph" transform="scale(1 1) rotate(0) translate(4 634)">
<title>Type lattice: focus on extended integer.</title>
<polygon fill="white" stroke="white" points="-4,5 -4,-634 485,-634 485,5 -4,5"/>
<!-- ⊤ -->
<g id="node1" class="node"><title>⊤</title>
<a xlink:href="/about-avail/documentation/type-system/types-top.html" xlink:title="⊤" target="_top">
<text text-anchor="middle" x="172" y="-607" font-family="Consolas" font-size="10.00" fill="#0000a0">⊤</text>
</a>
</g>
<!-- any -->
<g id="node2" class="node"><title>any</title>
<a xlink:href="/about-avail/documentation/type-system/types-any.html" xlink:title="any" target="_top">
<text text-anchor="middle" x="172" y="-553.854" font-family="Consolas" font-size="10.00" fill="#0000a0">any</text>
</a>
</g>
<!-- ⊤&#45;&#45;any -->
<g id="edge2" class="edge"><title>⊤&#45;&#45;any</title>
<path fill="none" stroke="black" d="M172,-593.973C172,-588.286 172,-581.946 172,-576.243"/>
</g>
<!-- nontype -->
<g id="node3" class="node"><title>nontype</title>
<a xlink:href="/about-avail/documentation/type-system/types-nontype.html" xlink:title="nontype" target="_top">
<text text-anchor="middle" x="172" y="-499.854" font-family="Consolas" font-size="10.00" fill="#0000a0">nontype</text>
</a>
</g>
<!-- any&#45;&#45;nontype -->
<g id="edge3" class="edge"><title>any&#45;&#45;nontype</title>
<path fill="none" stroke="black" d="M172,-539.973C172,-534.286 172,-527.946 172,-522.243"/>
</g>
<!-- number -->
<g id="node4" class="node"><title>number</title>
<a xlink:href="/about-avail/documentation/type-system/types-number.html" xlink:title="number" target="_top">
<text text-anchor="middle" x="172" y="-445.854" font-family="Consolas" font-size="10.00" fill="#0000a0">number</text>
</a>
</g>
<!-- nontype&#45;&#45;number -->
<g id="edge4" class="edge"><title>nontype&#45;&#45;number</title>
<path fill="none" stroke="black" d="M172,-485.973C172,-480.286 172,-473.946 172,-468.243"/>
</g>
<!-- extended integer -->
<g id="node5" class="node"><title>extended integer</title>
<a xlink:href="/about-avail/documentation/type-system/types-extended-integer.html" xlink:title="extended integer = [&#45;∞..∞]" target="_top">
<ellipse fill="#e2e8ff" stroke="#e2e8ff" cx="172" cy="-396" rx="94.4577" ry="18"/>
<text text-anchor="middle" x="172" y="-391.854" font-family="Consolas" font-size="10.00" fill="#0000a0">extended integer = [&#45;∞..∞]</text>
</a>
</g>
<!-- number&#45;&#45;extended integer -->
<g id="edge5" class="edge"><title>number&#45;&#45;extended integer</title>
<path fill="none" stroke="black" d="M172,-431.973C172,-426.286 172,-419.946 172,-414.243"/>
</g>
<!-- &#45;∞ type -->
<g id="node6" class="node"><title>&#45;∞ type</title>
<text text-anchor="middle" x="64" y="-337.854" font-family="Consolas" font-size="10.00" fill="#0000a0">{&#45;∞}ᵀ</text>
</g>
<!-- extended integer&#45;&#45;&#45;∞ type -->
<g id="edge8" class="edge"><title>extended integer&#45;&#45;&#45;∞ type</title>
<path fill="none" stroke="#d0d0d0" stroke-dasharray="5,2" d="M139.01,-379.116C123.75,-371.768 105.837,-363.144 91.3446,-356.166"/>
</g>
<!-- integer -->
<g id="node7" class="node"><title>integer</title>
<text text-anchor="middle" x="172" y="-337.854" font-family="Consolas" font-size="10.00" fill="#0000a0">integer = (&#45;∞..∞)</text>
</g>
<!-- extended integer&#45;&#45;integer -->
<g id="edge9" class="edge"><title>extended integer&#45;&#45;integer</title>
<path fill="none" stroke="#d0d0d0" stroke-dasharray="5,2" d="M172,-377.973C172,-372.286 172,-365.946 172,-360.243"/>
</g>
<!-- ∞ type -->
<g id="node8" class="node"><title>∞ type</title>
<text text-anchor="middle" x="385" y="-337.854" font-family="Consolas" font-size="10.00" fill="#0000a0">{∞}ᵀ</text>
</g>
<!-- extended integer&#45;&#45;∞ type -->
<g id="edge10" class="edge"><title>extended integer&#45;&#45;∞ type</title>
<path fill="none" stroke="#d0d0d0" stroke-dasharray="5,2" d="M227.685,-381.406C269.594,-371.174 325.215,-357.595 357.856,-349.627"/>
</g>
<!-- &#45;∞ type&#45;&#45;integer -->
<g id="edge12" class="edge"><title>&#45;∞ type&#45;&#45;integer</title>
<path fill="none" stroke="#707070" stroke-dasharray="1,5" d="M91.4219,-342C100.13,-342 108.839,-342 117.547,-342"/>
</g>
<!-- ⊥ -->
<g id="node17" class="node"><title>⊥</title>
<a xlink:href="/about-avail/documentation/type-system/types-bottom.html" xlink:title="⊥" target="_top">
<text text-anchor="middle" x="213" y="-13" font-family="Consolas" font-size="10.00" fill="#0000a0">⊥</text>
</a>
</g>
<!-- &#45;∞ type&#45;&#45;⊥ -->
<g id="edge65" class="edge"><title>&#45;∞ type&#45;&#45;⊥</title>
<path fill="none" stroke="black" d="M36.5783,-324.215C30.0197,-319.078 23.5951,-312.928 19,-306 0.945132,-278.777 0,-267.666 0,-235 0,-235 0,-235 0,-125 0,-43.0091 128.062,-24.4377 185.59,-20.2315"/>
</g>
<!-- integer&#45;&#45;∞ type -->
<g id="edge13" class="edge"><title>integer&#45;&#45;∞ type</title>
<path fill="none" stroke="#707070" stroke-dasharray="1,5" d="M226.498,-342C270.251,-342 314.004,-342 357.757,-342"/>
</g>
<!-- nonpositive integer -->
<g id="node9" class="node"><title>nonpositive integer</title>
<a xlink:href="/about-avail/documentation/type-system/types-extended-integer#types-nonpositive-integer.html" xlink:title="nonpositive integer = (&#45;∞..0]" target="_top">
<text text-anchor="middle" x="116" y="-283.854" font-family="Consolas" font-size="10.00" fill="#0000a0">nonpositive integer = (&#45;∞..0]</text>
</a>
</g>
<!-- integer&#45;&#45;nonpositive integer -->
<g id="edge16" class="edge"><title>integer&#45;&#45;nonpositive integer</title>
<path fill="none" stroke="#d0d0d0" stroke-dasharray="5,2" d="M153.664,-323.973C147.539,-318.286 140.711,-311.946 134.569,-306.243"/>
</g>
<!-- whole number -->
<g id="node11" class="node"><title>whole number</title>
<a xlink:href="/about-avail/documentation/type-system/types-extended-integer#types-whole-number.html" xlink:title="whole number = [0..∞)" target="_top">
<text text-anchor="middle" x="287" y="-283.854" font-family="Consolas" font-size="10.00" fill="#0000a0">whole number = [0..∞)</text>
</a>
</g>
<!-- integer&#45;&#45;whole number -->
<g id="edge17" class="edge"><title>integer&#45;&#45;whole number</title>
<path fill="none" stroke="#d0d0d0" stroke-dasharray="5,2" d="M209.655,-323.973C222.363,-318.227 236.545,-311.814 249.26,-306.065"/>
</g>
<!-- ∞ type&#45;&#45;⊥ -->
<g id="edge66" class="edge"><title>∞ type&#45;&#45;⊥</title>
<path fill="none" stroke="black" d="M412.223,-325.958C440.296,-308.218 480,-275.898 480,-235 480,-235 480,-235 480,-125 480,-82.5166 453.202,-74.5155 416,-54 359.16,-22.6547 280.878,-18.163 240.129,-18.2033"/>
</g>
<!-- negative integer -->
<g id="node10" class="node"><title>negative integer</title>
<a xlink:href="/about-avail/documentation/type-system/types-extended-integer#types-negative-integer.html" xlink:title="negative integer = (&#45;∞..&#45;1]" target="_top">
<text text-anchor="middle" x="111" y="-229.854" font-family="Consolas" font-size="10.00" fill="#0000a0">negative integer = (&#45;∞..&#45;1]</text>
</a>
</g>
<!-- nonpositive integer&#45;&#45;negative integer -->
<g id="edge21" class="edge"><title>nonpositive integer&#45;&#45;negative integer</title>
<path fill="none" stroke="black" d="M114.363,-269.973C113.816,-264.286 113.206,-257.946 112.658,-252.243"/>
</g>
<!-- nonpositive integer&#45;&#45;whole number -->
<g id="edge19" class="edge"><title>nonpositive integer&#45;&#45;whole number</title>
<path fill="none" stroke="#707070" stroke-dasharray="1,5" d="M203.504,-288C209.483,-288 215.463,-288 221.443,-288"/>
</g>
<!-- natural number -->
<g id="node12" class="node"><title>natural number</title>
<a xlink:href="/about-avail/documentation/type-system/types-extended-integer#types-natural-number.html" xlink:title="natural number = [1..∞)" target="_top">
<text text-anchor="middle" x="285" y="-229.854" font-family="Consolas" font-size="10.00" fill="#0000a0">natural number = [1..∞)</text>
</a>
</g>
<!-- negative integer&#45;&#45;natural number -->
<g id="edge26" class="edge"><title>negative integer&#45;&#45;natural number</title>
<path fill="none" stroke="#707070" stroke-dasharray="1,5" d="M193.242,-234C200.052,-234 206.862,-234 213.673,-234"/>
</g>
<!-- negative integer&#45;&#45;⊥ -->
<g id="edge59" class="edge"><title>negative integer&#45;&#45;⊥</title>
<path fill="none" stroke="#d0d0d0" stroke-dasharray="5,2" d="M95.4223,-215.649C91.5862,-210.349 88.0054,-204.258 86,-198 66.1528,-136.068 66.6755,-100.639 112,-54 131.529,-33.9041 163.16,-25.338 185.821,-21.6919"/>
</g>
<!-- whole number&#45;&#45;natural number -->
<g id="edge23" class="edge"><title>whole number&#45;&#45;natural number</title>
<path fill="none" stroke="black" d="M286.345,-269.973C286.126,-264.286 285.883,-257.946 285.663,-252.243"/>
</g>
<!-- [1..6] -->
<g id="node31" class="node"><title>[1..6]</title>
<text text-anchor="middle" x="203" y="-175.854" font-family="Consolas" font-size="10.00" fill="#0000a0">[1..6]</text>
</g>
<!-- natural number&#45;&#45;[1..6] -->
<g id="edge29" class="edge"><title>natural number&#45;&#45;[1..6]</title>
<path fill="none" stroke="#d0d0d0" stroke-dasharray="5,2" d="M258.15,-215.973C249.089,-210.227 238.976,-203.814 229.91,-198.065"/>
</g>
<!-- [2..11] -->
<g id="node32" class="node"><title>[2..11]</title>
<text text-anchor="middle" x="275" y="-175.854" font-family="Consolas" font-size="10.00" fill="#0000a0">[2..11]</text>
</g>
<!-- natural number&#45;&#45;[2..11] -->
<g id="edge30" class="edge"><title>natural number&#45;&#45;[2..11]</title>
<path fill="none" stroke="#d0d0d0" stroke-dasharray="5,2" d="M281.726,-215.973C280.632,-210.286 279.413,-203.946 278.316,-198.243"/>
</g>
<!-- [42..49] -->
<g id="node33" class="node"><title>[42..49]</title>
<text text-anchor="middle" x="350" y="-175.854" font-family="Consolas" font-size="10.00" fill="#0000a0">[42..49]</text>
</g>
<!-- natural number&#45;&#45;[42..49] -->
<g id="edge31" class="edge"><title>natural number&#45;&#45;[42..49]</title>
<path fill="none" stroke="#d0d0d0" stroke-dasharray="5,2" d="M306.283,-215.973C313.392,-210.286 321.317,-203.946 328.446,-198.243"/>
</g>
<!-- …[1..6] -->
<g id="node13" class="node"><title>…[1..6]</title>
</g>
<!-- …[1..6]&#45;&#45;[1..6] -->
<g id="edge34" class="edge"><title>…[1..6]&#45;&#45;[1..6]</title>
<path fill="none" stroke="#707070" stroke-dasharray="1,5" d="M149.211,-180C158.036,-180 166.86,-180 175.685,-180"/>
</g>
<!-- [42..49]… -->
<g id="node14" class="node"><title>[42..49]…</title>
</g>
<!-- …[2..5] -->
<g id="node15" class="node"><title>…[2..5]</title>
</g>
<!-- [2..5] -->
<g id="node37" class="node"><title>[2..5]</title>
<text text-anchor="middle" x="213" y="-121.854" font-family="Consolas" font-size="10.00" fill="#0000a0">[2..5]</text>
</g>
<!-- …[2..5]&#45;&#45;[2..5] -->
<g id="edge46" class="edge"><title>…[2..5]&#45;&#45;[2..5]</title>
<path fill="none" stroke="#707070" stroke-dasharray="1,5" d="M168.281,-126C174.104,-126 179.927,-126 185.75,-126"/>
</g>
<!-- [7..9]… -->
<g id="node16" class="node"><title>[7..9]…</title>
</g>
<!-- [1..6]&#45;&#45;⊥ -->
<g id="edge60" class="edge"><title>[1..6]&#45;&#45;⊥</title>
<path fill="none" stroke="#d0d0d0" stroke-dasharray="5,2" d="M175.927,-168.603C170.032,-166.387 163.817,-164.086 158,-162 134.583,-153.603 119.489,-164.222 105,-144 95.6813,-130.994 98.2579,-122.51 105,-108 121.381,-72.7459 159.473,-46.7938 185.739,-32.2873"/>
</g>
<!-- [1..6]&#45;&#45;[2..11] -->
<g id="edge35" class="edge"><title>[1..6]&#45;&#45;[2..11]</title>
<path fill="none" stroke="#707070" stroke-dasharray="1,5" d="M230.281,-180C236.104,-180 241.927,-180 247.75,-180"/>
</g>
<!-- [1..6]&#45;&#45;[2..5] -->
<g id="edge39" class="edge"><title>[1..6]&#45;&#45;[2..5]</title>
<path fill="none" stroke="#d0d0d0" stroke-dasharray="5,2" d="M206.274,-161.973C207.368,-156.286 208.587,-149.946 209.684,-144.243"/>
</g>
<!-- [2..11]&#45;&#45;[42..49] -->
<g id="edge36" class="edge"><title>[2..11]&#45;&#45;[42..49]</title>
<path fill="none" stroke="#707070" stroke-dasharray="1,5" d="M302.246,-180C308.215,-180 314.185,-180 320.154,-180"/>
</g>
<!-- [2..11]&#45;&#45;[2..5] -->
<g id="edge42" class="edge"><title>[2..11]&#45;&#45;[2..5]</title>
<path fill="none" stroke="#d0d0d0" stroke-dasharray="5,2" d="M254.699,-161.973C247.918,-156.286 240.359,-149.946 233.559,-144.243"/>
</g>
<!-- [7..9] -->
<g id="node40" class="node"><title>[7..9]</title>
<text text-anchor="middle" x="285" y="-121.854" font-family="Consolas" font-size="10.00" fill="#0000a0">[7..9]</text>
</g>
<!-- [2..11]&#45;&#45;[7..9] -->
<g id="edge43" class="edge"><title>[2..11]&#45;&#45;[7..9]</title>
<path fill="none" stroke="#d0d0d0" stroke-dasharray="5,2" d="M278.274,-161.973C279.368,-156.286 280.587,-149.946 281.684,-144.243"/>
</g>
<!-- [42..49]&#45;&#45;[42..49]… -->
<g id="edge37" class="edge"><title>[42..49]&#45;&#45;[42..49]…</title>
<path fill="none" stroke="#707070" stroke-dasharray="1,5" d="M379.59,-180C385.621,-180 391.652,-180 397.683,-180"/>
</g>
<!-- [42..49]&#45;&#45;⊥ -->
<g id="edge61" class="edge"><title>[42..49]&#45;&#45;⊥</title>
<path fill="none" stroke="#d0d0d0" stroke-dasharray="5,2" d="M378.338,-161.979C384.254,-156.98 389.694,-150.955 393,-144 410.175,-107.875 418.442,-84.8658 393,-54 373.966,-30.9084 285.813,-22.8569 240.325,-20.2087"/>
</g>
<!-- [2..5]&#45;&#45;⊥ -->
<g id="edge62" class="edge"><title>[2..5]&#45;&#45;⊥</title>
<path fill="none" stroke="#d0d0d0" stroke-dasharray="5,2" d="M189.943,-107.966C184.705,-102.832 179.85,-96.745 177,-90 170.773,-75.2614 170.773,-68.7386 177,-54 179.85,-47.255 184.705,-41.1682 189.943,-36.0337"/>
</g>
<!-- [2..5]&#45;&#45;[7..9] -->
<g id="edge47" class="edge"><title>[2..5]&#45;&#45;[7..9]</title>
<path fill="none" stroke="#707070" stroke-dasharray="1,5" d="M240.281,-126C246.104,-126 251.927,-126 257.75,-126"/>
</g>
<!-- [7..9]&#45;&#45;[7..9]… -->
<g id="edge48" class="edge"><title>[7..9]&#45;&#45;[7..9]…</title>
<path fill="none" stroke="#707070" stroke-dasharray="1,5" d="M312.281,-126C318.104,-126 323.927,-126 329.75,-126"/>
</g>
<!-- {7}ᵀ -->
<g id="node45" class="node"><title>{7}ᵀ</title>
<text text-anchor="middle" x="213" y="-67.8545" font-family="Consolas" font-size="10.00" fill="#0000a0">{7}ᵀ</text>
</g>
<!-- [7..9]&#45;&#45;{7}ᵀ -->
<g id="edge51" class="edge"><title>[7..9]&#45;&#45;{7}ᵀ</title>
<path fill="none" stroke="#d0d0d0" stroke-dasharray="5,2" d="M261.425,-107.973C253.55,-102.286 244.772,-95.9464 236.875,-90.243"/>
</g>
<!-- {8}ᵀ -->
<g id="node46" class="node"><title>{8}ᵀ</title>
<text text-anchor="middle" x="285" y="-67.8545" font-family="Consolas" font-size="10.00" fill="#0000a0">{8}ᵀ</text>
</g>
<!-- [7..9]&#45;&#45;{8}ᵀ -->
<g id="edge52" class="edge"><title>[7..9]&#45;&#45;{8}ᵀ</title>
<path fill="none" stroke="#d0d0d0" stroke-dasharray="5,2" d="M285,-107.973C285,-102.286 285,-95.9464 285,-90.243"/>
</g>
<!-- {9}ᵀ -->
<g id="node47" class="node"><title>{9}ᵀ</title>
<text text-anchor="middle" x="357" y="-67.8545" font-family="Consolas" font-size="10.00" fill="#0000a0">{9}ᵀ</text>
</g>
<!-- [7..9]&#45;&#45;{9}ᵀ -->
<g id="edge53" class="edge"><title>[7..9]&#45;&#45;{9}ᵀ</title>
<path fill="none" stroke="#d0d0d0" stroke-dasharray="5,2" d="M308.575,-107.973C316.45,-102.286 325.228,-95.9464 333.125,-90.243"/>
</g>
<!-- {7}ᵀ&#45;&#45;⊥ -->
<g id="edge67" class="edge"><title>{7}ᵀ&#45;&#45;⊥</title>
<path fill="none" stroke="black" d="M213,-53.9733C213,-48.2862 213,-41.9464 213,-36.243"/>
</g>
<!-- {7}ᵀ&#45;&#45;{8}ᵀ -->
<g id="edge55" class="edge"><title>{7}ᵀ&#45;&#45;{8}ᵀ</title>
<path fill="none" stroke="#707070" stroke-dasharray="1,5" d="M240.281,-72C246.104,-72 251.927,-72 257.75,-72"/>
</g>
<!-- {8}ᵀ&#45;&#45;⊥ -->
<g id="edge68" class="edge"><title>{8}ᵀ&#45;&#45;⊥</title>
<path fill="none" stroke="black" d="M261.425,-53.9733C253.55,-48.2862 244.772,-41.9464 236.875,-36.243"/>
</g>
<!-- {8}ᵀ&#45;&#45;{9}ᵀ -->
<g id="edge56" class="edge"><title>{8}ᵀ&#45;&#45;{9}ᵀ</title>
<path fill="none" stroke="#707070" stroke-dasharray="1,5" d="M312.281,-72C318.104,-72 323.927,-72 329.75,-72"/>
</g>
<!-- {9}ᵀ&#45;&#45;⊥ -->
<g id="edge69" class="edge"><title>{9}ᵀ&#45;&#45;⊥</title>
<path fill="none" stroke="black" d="M329.642,-57.639C326.746,-56.3578 323.827,-55.1204 321,-54 294.064,-43.3261 262.452,-33.37 240.415,-26.8269"/>
</g>
</g>
</svg>
