<?xml version="1.0" encoding="UTF-8" standalone="no"?>
<!DOCTYPE svg PUBLIC "-//W3C//DTD SVG 1.1//EN"
 "http://www.w3.org/Graphics/SVG/1.1/DTD/svg11.dtd">
<!-- Generated by graphviz version 2.28.0 (20111028.1807)
 -->
<!-- Title: An overview of the Avail type system. Pages: 1 -->
<svg width="1050pt" height="332pt"
 viewBox="0.00 0.00 1050.45 332.00" xmlns="http://www.w3.org/2000/svg" xmlns:xlink="http://www.w3.org/1999/xlink">
<g id="graph1" class="graph" transform="scale(1 1) rotate(0) translate(4 328)">
<title>An overview of the Avail type system.</title>
<polygon fill="white" stroke="white" points="-4,5 -4,-328 1047.45,-328 1047.45,5 -4,5"/>
<!-- ⊤ -->
<g id="node1" class="node"><title>⊤</title>
<a xlink:href="/about-avail/documentation/type-system/types-top.html" xlink:title="⊤" target="_top">
<text text-anchor="middle" x="699" y="-302" font-family="Consolas" font-size="8.00" fill="#0000a0">⊤</text>
</a>
</g>
<!-- any -->
<g id="node2" class="node"><title>any</title>
<a xlink:href="/about-avail/documentation/type-system/types-any.html" xlink:title="any" target="_top">
<text text-anchor="middle" x="699" y="-230.684" font-family="Consolas" font-size="8.00" fill="#0000a0">any</text>
</a>
</g>
<!-- ⊤&#45;&#45;any -->
<g id="edge3" class="edge"><title>⊤&#45;&#45;any</title>
<path fill="none" stroke="black" d="M699,-287.697C699,-276.846 699,-262.917 699,-252.104"/>
</g>
<!-- nontype -->
<g id="node3" class="node"><title>nontype</title>
<a xlink:href="/about-avail/documentation/type-system/types-nontype.html" xlink:title="nontype" target="_top">
<text text-anchor="middle" x="568" y="-158.684" font-family="Consolas" font-size="8.00" fill="#0000a0">nontype</text>
</a>
</g>
<!-- any&#45;&#45;nontype -->
<g id="edge4" class="edge"><title>any&#45;&#45;nontype</title>
<path fill="none" stroke="black" d="M671.857,-218.496C649.374,-206.482 617.582,-189.494 595.109,-177.485"/>
</g>
<!-- type -->
<g id="node4" class="node"><title>type</title>
<a xlink:href="/about-avail/documentation/type-system/types-type.html" xlink:title="type" target="_top">
<text text-anchor="middle" x="830" y="-158.684" font-family="Consolas" font-size="8.00" fill="#0000a0">type</text>
</a>
</g>
<!-- any&#45;&#45;type -->
<g id="edge5" class="edge"><title>any&#45;&#45;type</title>
<path fill="none" stroke="black" d="M726.143,-218.496C748.626,-206.482 780.418,-189.494 802.891,-177.485"/>
</g>
<!-- atom -->
<g id="node5" class="node"><title>atom</title>
<a xlink:href="/about-avail/documentation/type-system/types-atom.html" xlink:title="atom" target="_top">
<text text-anchor="middle" x="27" y="-86.6836" font-family="Consolas" font-size="8.00" fill="#0000a0">atom</text>
</a>
</g>
<!-- nontype&#45;&#45;atom -->
<g id="edge8" class="edge"><title>nontype&#45;&#45;atom</title>
<path fill="none" stroke="black" d="M540.941,-159.604C449.061,-154.642 149.666,-136.615 58,-108 56.711,-107.598 55.4145,-107.139 54.1215,-106.636"/>
</g>
<!-- character -->
<g id="node6" class="node"><title>character</title>
<a xlink:href="/about-avail/documentation/type-system/types-character.html" xlink:title="character" target="_top">
<text text-anchor="middle" x="83" y="-86.6836" font-family="Consolas" font-size="8.00" fill="#0000a0">character</text>
</a>
</g>
<!-- nontype&#45;&#45;character -->
<g id="edge9" class="edge"><title>nontype&#45;&#45;character</title>
<path fill="none" stroke="black" d="M540.892,-161.411C469.291,-161.742 269.922,-157.759 114,-108 112.83,-107.627 111.655,-107.208 110.48,-106.753"/>
</g>
<!-- continuation -->
<g id="node7" class="node"><title>continuation</title>
<a xlink:href="/about-avail/documentation/type-system/types-continuation.html" xlink:title="continuation" target="_top">
<text text-anchor="middle" x="146" y="-86.6836" font-family="Consolas" font-size="8.00" fill="#0000a0">continuation</text>
</a>
</g>
<!-- nontype&#45;&#45;continuation -->
<g id="edge10" class="edge"><title>nontype&#45;&#45;continuation</title>
<path fill="none" stroke="black" d="M540.924,-159.893C477.411,-156.732 314.366,-145.333 184,-108 182.749,-107.642 181.487,-107.25 180.22,-106.831"/>
</g>
<!-- fiber -->
<g id="node8" class="node"><title>fiber</title>
<a xlink:href="/about-avail/documentation/type-system/types-fiber.html" xlink:title="fiber" target="_top">
<text text-anchor="middle" x="208" y="-86.6836" font-family="Consolas" font-size="8.00" fill="#0000a0">fiber</text>
</a>
</g>
<!-- nontype&#45;&#45;fiber -->
<g id="edge11" class="edge"><title>nontype&#45;&#45;fiber</title>
<path fill="none" stroke="black" d="M540.807,-159.749C483.515,-156.442 346.799,-145.004 239,-108 237.723,-107.562 236.436,-107.073 235.151,-106.546"/>
</g>
<!-- function -->
<g id="node9" class="node"><title>function</title>
<a xlink:href="/about-avail/documentation/type-system/types-function.html" xlink:title="function" target="_top">
<text text-anchor="middle" x="263" y="-86.6836" font-family="Consolas" font-size="8.00" fill="#0000a0">function</text>
</a>
</g>
<!-- nontype&#45;&#45;function -->
<g id="edge12" class="edge"><title>nontype&#45;&#45;function</title>
<path fill="none" stroke="black" d="M540.812,-158.56C490.727,-153.455 381.047,-139.414 294,-108 292.73,-107.542 291.449,-107.036 290.169,-106.496"/>
</g>
<!-- function implementation -->
<g id="node10" class="node"><title>function implementation</title>
<a xlink:href="/about-avail/documentation/type-system/types-function-implementation.html" xlink:title="function\nimplementation" target="_top">
<text text-anchor="middle" x="330" y="-91.3672" font-family="Consolas" font-size="8.00" fill="#0000a0">function</text>
<text text-anchor="middle" x="330" y="-82" font-family="Consolas" font-size="8.00" fill="#0000a0">implementation</text>
</a>
</g>
<!-- nontype&#45;&#45;function implementation -->
<g id="edge13" class="edge"><title>nontype&#45;&#45;function implementation</title>
<path fill="none" stroke="black" d="M540.743,-154.731C502.598,-145.708 431.306,-127.94 372,-108 370.807,-107.599 369.599,-107.182 368.383,-106.751"/>
</g>
<!-- map -->
<g id="node11" class="node"><title>map</title>
<a xlink:href="/about-avail/documentation/type-system/types-map.html" xlink:title="map" target="_top">
<text text-anchor="middle" x="397" y="-86.6836" font-family="Consolas" font-size="8.00" fill="#0000a0">map</text>
</a>
</g>
<!-- nontype&#45;&#45;map -->
<g id="edge14" class="edge"><title>nontype&#45;&#45;map</title>
<path fill="none" stroke="black" d="M540.965,-152.027C512.428,-142.264 466.357,-125.672 428,-108 426.774,-107.435 425.529,-106.841 424.278,-106.229"/>
</g>
<!-- method -->
<g id="node12" class="node"><title>method</title>
<a xlink:href="/about-avail/documentation/type-system/types-method.html" xlink:title="method" target="_top">
<text text-anchor="middle" x="452" y="-86.6836" font-family="Consolas" font-size="8.00" fill="#0000a0">method</text>
</a>
</g>
<!-- nontype&#45;&#45;method -->
<g id="edge15" class="edge"><title>nontype&#45;&#45;method</title>
<path fill="none" stroke="black" d="M540.803,-144.588C522.187,-133.354 497.606,-118.521 479.026,-107.309"/>
</g>
<!-- method definition -->
<g id="node13" class="node"><title>method definition</title>
<a xlink:href="/about-avail/documentation/type-system/types-method-definition.html" xlink:title="method\ndefinition" target="_top">
<text text-anchor="middle" x="510" y="-91.3672" font-family="Consolas" font-size="8.00" fill="#0000a0">method</text>
<text text-anchor="middle" x="510" y="-82" font-family="Consolas" font-size="8.00" fill="#0000a0">definition</text>
</a>
</g>
<!-- nontype&#45;&#45;method definition -->
<g id="edge16" class="edge"><title>nontype&#45;&#45;method definition</title>
<path fill="none" stroke="black" d="M553.663,-143.697C544.673,-132.846 533.131,-118.917 524.172,-108.104"/>
</g>
<!-- module -->
<g id="node14" class="node"><title>module</title>
<a xlink:href="/about-avail/documentation/type-system/types-module.html" xlink:title="module" target="_top">
<text text-anchor="middle" x="568" y="-86.6836" font-family="Consolas" font-size="8.00" fill="#0000a0">module</text>
</a>
</g>
<!-- nontype&#45;&#45;module -->
<g id="edge17" class="edge"><title>nontype&#45;&#45;module</title>
<path fill="none" stroke="black" d="M568,-143.697C568,-132.846 568,-118.917 568,-108.104"/>
</g>
<!-- number -->
<g id="node15" class="node"><title>number</title>
<a xlink:href="/about-avail/documentation/type-system/types-number.html" xlink:title="number" target="_top">
<text text-anchor="middle" x="623" y="-86.6836" font-family="Consolas" font-size="8.00" fill="#0000a0">number</text>
</a>
</g>
<!-- nontype&#45;&#45;number -->
<g id="edge18" class="edge"><title>nontype&#45;&#45;number</title>
<path fill="none" stroke="black" d="M581.596,-143.697C590.121,-132.846 601.065,-118.917 609.561,-108.104"/>
</g>
<!-- object -->
<g id="node16" class="node"><title>object</title>
<a xlink:href="/about-avail/documentation/type-system/types-object.html" xlink:title="object" target="_top">
<text text-anchor="middle" x="678" y="-86.6836" font-family="Consolas" font-size="8.00" fill="#0000a0">object</text>
</a>
</g>
<!-- nontype&#45;&#45;object -->
<g id="edge19" class="edge"><title>nontype&#45;&#45;object</title>
<path fill="none" stroke="black" d="M594.909,-143.876C611.955,-133.029 633.922,-119.05 650.988,-108.19"/>
</g>
<!-- phrase -->
<g id="node17" class="node"><title>phrase</title>
<a xlink:href="/about-avail/documentation/type-system/types-phrase.html" xlink:title="phrase" target="_top">
<text text-anchor="middle" x="733" y="-86.6836" font-family="Consolas" font-size="8.00" fill="#0000a0">phrase</text>
</a>
</g>
<!-- nontype&#45;&#45;phrase -->
<g id="edge20" class="edge"><title>nontype&#45;&#45;phrase</title>
<path fill="none" stroke="black" d="M595.114,-151.41C622.484,-141.466 665.77,-125.018 702,-108 703.222,-107.426 704.463,-106.825 705.711,-106.206"/>
</g>
<!-- pojo -->
<g id="node18" class="node"><title>pojo</title>
<a xlink:href="/about-avail/documentation/type-system/types-pojo.html" xlink:title="pojo" target="_top">
<text text-anchor="middle" x="788" y="-86.6836" font-family="Consolas" font-size="8.00" fill="#0000a0">pojo</text>
</a>
</g>
<!-- nontype&#45;&#45;pojo -->
<g id="edge21" class="edge"><title>nontype&#45;&#45;pojo</title>
<path fill="none" stroke="black" d="M595.249,-155.417C632.572,-147.31 701.312,-130.729 757,-108 758.25,-107.49 759.515,-106.942 760.781,-106.366"/>
</g>
<!-- token -->
<g id="node19" class="node"><title>token</title>
<a xlink:href="/about-avail/documentation/type-system/types-token.html" xlink:title="token" target="_top">
<text text-anchor="middle" x="843" y="-86.6836" font-family="Consolas" font-size="8.00" fill="#0000a0">token</text>
</a>
</g>
<!-- nontype&#45;&#45;token -->
<g id="edge22" class="edge"><title>nontype&#45;&#45;token</title>
<path fill="none" stroke="black" d="M595.074,-157.711C640.874,-151.581 736.07,-136.385 812,-108 813.265,-107.527 814.541,-107.01 815.818,-106.46"/>
</g>
<!-- tuple -->
<g id="node20" class="node"><title>tuple</title>
<a xlink:href="/about-avail/documentation/type-system/types-tuple.html" xlink:title="tuple" target="_top">
<text text-anchor="middle" x="898" y="-86.6836" font-family="Consolas" font-size="8.00" fill="#0000a0">tuple</text>
</a>
</g>
<!-- nontype&#45;&#45;tuple -->
<g id="edge23" class="edge"><title>nontype&#45;&#45;tuple</title>
<path fill="none" stroke="black" d="M595.143,-159.156C648.563,-154.888 770.53,-141.965 867,-108 868.274,-107.552 869.557,-107.055 870.84,-106.521"/>
</g>
<!-- set -->
<g id="node21" class="node"><title>set</title>
<a xlink:href="/about-avail/documentation/type-system/types-set.html" xlink:title="set" target="_top">
<text text-anchor="middle" x="953" y="-86.6836" font-family="Consolas" font-size="8.00" fill="#0000a0">set</text>
</a>
</g>
<!-- nontype&#45;&#45;set -->
<g id="edge24" class="edge"><title>nontype&#45;&#45;set</title>
<path fill="none" stroke="black" d="M595.405,-160.162C655.906,-157.616 804.813,-147.5 922,-108 923.28,-107.569 924.568,-107.086 925.855,-106.564"/>
</g>
<!-- variable -->
<g id="node22" class="node"><title>variable</title>
<a xlink:href="/about-avail/documentation/type-system/types-variable.html" xlink:title="variable" target="_top">
<text text-anchor="middle" x="1008" y="-86.6836" font-family="Consolas" font-size="8.00" fill="#0000a0">variable</text>
</a>
</g>
<!-- nontype&#45;&#45;variable -->
<g id="edge25" class="edge"><title>nontype&#45;&#45;variable</title>
<path fill="none" stroke="black" d="M595.095,-158.81C674.451,-152.189 905.269,-131.392 977,-108 978.284,-107.581 979.576,-107.109 980.865,-106.596"/>
</g>
<!-- ⊥ -->
<g id="node23" class="node"><title>⊥</title>
<a xlink:href="/about-avail/documentation/type-system/types-bottom.html" xlink:title="⊥" target="_top">
<text text-anchor="middle" x="568" y="-14" font-family="Consolas" font-size="8.00" fill="#0000a0">⊥</text>
</a>
</g>
<!-- type&#45;&#45;⊥ -->
<g id="edge28" class="edge"><title>type&#45;&#45;⊥</title>
<path fill="none" stroke="#d0d0d0" stroke-dasharray="5,2" d="M857.084,-158.79C923.307,-152.427 1084.3,-130.619 1032,-72 1002.75,-39.2179 690.404,-23.9538 595.314,-20.0438"/>
</g>
<!-- atom&#45;&#45;⊥ -->
<g id="edge29" class="edge"><title>atom&#45;&#45;⊥</title>
<path fill="none" stroke="#d0d0d0" stroke-dasharray="5,2" d="M54.1215,-73.3637C55.4145,-72.8612 56.711,-72.4024 58,-72 149.666,-43.3853 449.061,-25.3579 540.941,-20.3964"/>
</g>
<!-- character&#45;&#45;⊥ -->
<g id="edge30" class="edge"><title>character&#45;&#45;⊥</title>
<path fill="none" stroke="#d0d0d0" stroke-dasharray="5,2" d="M110.48,-73.2466C111.655,-72.7919 112.83,-72.3732 114,-72 269.922,-22.2414 469.291,-18.2582 540.892,-18.5893"/>
</g>
<!-- continuation&#45;&#45;⊥ -->
<g id="edge31" class="edge"><title>continuation&#45;&#45;⊥</title>
<path fill="none" stroke="#d0d0d0" stroke-dasharray="5,2" d="M180.22,-73.169C181.487,-72.75 182.749,-72.3582 184,-72 314.366,-34.6665 477.411,-23.2684 540.924,-20.1074"/>
</g>
<!-- fiber&#45;&#45;⊥ -->
<g id="edge32" class="edge"><title>fiber&#45;&#45;⊥</title>
<path fill="none" stroke="#d0d0d0" stroke-dasharray="5,2" d="M235.151,-73.454C236.436,-72.927 237.723,-72.4384 239,-72 346.799,-34.9963 483.515,-23.5581 540.807,-20.2514"/>
</g>
<!-- function&#45;&#45;⊥ -->
<g id="edge33" class="edge"><title>function&#45;&#45;⊥</title>
<path fill="none" stroke="#d0d0d0" stroke-dasharray="5,2" d="M290.169,-73.504C291.449,-72.9635 292.73,-72.4584 294,-72 381.047,-40.5862 490.727,-26.5449 540.812,-21.4398"/>
</g>
<!-- function implementation&#45;&#45;⊥ -->
<g id="edge34" class="edge"><title>function implementation&#45;&#45;⊥</title>
<path fill="none" stroke="#d0d0d0" stroke-dasharray="5,2" d="M368.383,-73.2485C369.599,-72.8185 370.807,-72.4011 372,-72 431.306,-52.0599 502.598,-34.2915 540.743,-25.2694"/>
</g>
<!-- map&#45;&#45;⊥ -->
<g id="edge35" class="edge"><title>map&#45;&#45;⊥</title>
<path fill="none" stroke="#d0d0d0" stroke-dasharray="5,2" d="M424.278,-73.7715C425.529,-73.1586 426.774,-72.5651 428,-72 466.357,-54.3275 512.428,-37.7356 540.965,-27.9732"/>
</g>
<!-- method&#45;&#45;⊥ -->
<g id="edge36" class="edge"><title>method&#45;&#45;⊥</title>
<path fill="none" stroke="#d0d0d0" stroke-dasharray="5,2" d="M479.197,-72.5881C497.813,-61.3541 522.394,-46.521 540.974,-35.3091"/>
</g>
<!-- method definition&#45;&#45;⊥ -->
<g id="edge37" class="edge"><title>method definition&#45;&#45;⊥</title>
<path fill="none" stroke="#d0d0d0" stroke-dasharray="5,2" d="M524.337,-71.6966C533.327,-60.8463 544.869,-46.9167 553.828,-36.1043"/>
</g>
<!-- module&#45;&#45;⊥ -->
<g id="edge38" class="edge"><title>module&#45;&#45;⊥</title>
<path fill="none" stroke="#d0d0d0" stroke-dasharray="5,2" d="M568,-71.6966C568,-60.8463 568,-46.9167 568,-36.1043"/>
</g>
<!-- number&#45;&#45;⊥ -->
<g id="edge39" class="edge"><title>number&#45;&#45;⊥</title>
<path fill="none" stroke="#d0d0d0" stroke-dasharray="5,2" d="M609.404,-71.6966C600.879,-60.8463 589.935,-46.9167 581.439,-36.1043"/>
</g>
<!-- object&#45;&#45;⊥ -->
<g id="edge40" class="edge"><title>object&#45;&#45;⊥</title>
<path fill="none" stroke="#d0d0d0" stroke-dasharray="5,2" d="M651.091,-71.8761C634.045,-61.0287 612.078,-47.0498 595.012,-36.1898"/>
</g>
<!-- phrase&#45;&#45;⊥ -->
<g id="edge41" class="edge"><title>phrase&#45;&#45;⊥</title>
<path fill="none" stroke="#d0d0d0" stroke-dasharray="5,2" d="M705.711,-73.7941C704.463,-73.1751 703.222,-72.5741 702,-72 665.77,-54.9823 622.484,-38.5336 595.114,-28.5902"/>
</g>
<!-- pojo&#45;&#45;⊥ -->
<g id="edge42" class="edge"><title>pojo&#45;&#45;⊥</title>
<path fill="none" stroke="#d0d0d0" stroke-dasharray="5,2" d="M760.781,-73.6341C759.515,-73.0584 758.25,-72.5103 757,-72 701.312,-49.2714 632.572,-32.6901 595.249,-24.5835"/>
</g>
<!-- token&#45;&#45;⊥ -->
<g id="edge43" class="edge"><title>token&#45;&#45;⊥</title>
<path fill="none" stroke="#d0d0d0" stroke-dasharray="5,2" d="M815.818,-73.5403C814.541,-72.99 813.265,-72.4729 812,-72 736.07,-43.6148 640.874,-28.4186 595.074,-22.289"/>
</g>
<!-- tuple&#45;&#45;⊥ -->
<g id="edge44" class="edge"><title>tuple&#45;&#45;⊥</title>
<path fill="none" stroke="#d0d0d0" stroke-dasharray="5,2" d="M870.84,-73.4791C869.557,-72.9454 868.274,-72.4484 867,-72 770.53,-38.0355 648.563,-25.1116 595.143,-20.8438"/>
</g>
<!-- set&#45;&#45;⊥ -->
<g id="edge45" class="edge"><title>set&#45;&#45;⊥</title>
<path fill="none" stroke="#d0d0d0" stroke-dasharray="5,2" d="M925.855,-73.4362C924.568,-72.9141 923.28,-72.4313 922,-72 804.813,-32.4999 655.906,-22.3841 595.405,-19.8377"/>
</g>
<!-- variable&#45;&#45;⊥ -->
<g id="edge46" class="edge"><title>variable&#45;&#45;⊥</title>
<path fill="none" stroke="#d0d0d0" stroke-dasharray="5,2" d="M980.865,-73.4045C979.576,-72.8909 978.284,-72.4187 977,-72 838.473,-26.8249 661.735,-19.9804 595.071,-19.073"/>
</g>
</g>
</svg>
