<?xml version="1.0" encoding="UTF-8" standalone="no"?>
<!DOCTYPE svg PUBLIC "-//W3C//DTD SVG 1.1//EN"
 "http://www.w3.org/Graphics/SVG/1.1/DTD/svg11.dtd">
<!-- Generated by graphviz version 2.28.0 (20111028.1807)
 -->
<!-- Title: Type lattice: focus on set. Pages: 1 -->
<svg width="518pt" height="476pt"
 viewBox="0.00 0.00 518.00 476.00" xmlns="http://www.w3.org/2000/svg" xmlns:xlink="http://www.w3.org/1999/xlink">
<g id="graph1" class="graph" transform="scale(1 1) rotate(0) translate(4 472)">
<title>Type lattice: focus on set.</title>
<polygon fill="white" stroke="white" points="-4,5 -4,-472 515,-472 515,5 -4,5"/>
<!-- ⊤ -->
<g id="node1" class="node"><title>⊤</title>
<a xlink:href="/about-avail/documentation/type-system/types-top" xlink:title="⊤" target="_top">
<text text-anchor="middle" x="367" y="-445" font-family="Consolas" font-size="10.00" fill="#0000a0">⊤</text>
</a>
</g>
<!-- any -->
<g id="node2" class="node"><title>any</title>
<a xlink:href="/about-avail/documentation/type-system/types-any" xlink:title="any" target="_top">
<text text-anchor="middle" x="367" y="-391.854" font-family="Consolas" font-size="10.00" fill="#0000a0">any</text>
</a>
</g>
<!-- ⊤&#45;&#45;any -->
<g id="edge2" class="edge"><title>⊤&#45;&#45;any</title>
<path fill="none" stroke="black" d="M367,-431.973C367,-426.286 367,-419.946 367,-414.243"/>
</g>
<!-- nontype -->
<g id="node3" class="node"><title>nontype</title>
<a xlink:href="/about-avail/documentation/type-system/types-nontype" xlink:title="nontype" target="_top">
<text text-anchor="middle" x="367" y="-337.854" font-family="Consolas" font-size="10.00" fill="#0000a0">nontype</text>
</a>
</g>
<!-- any&#45;&#45;nontype -->
<g id="edge3" class="edge"><title>any&#45;&#45;nontype</title>
<path fill="none" stroke="black" d="M367,-377.973C367,-372.286 367,-365.946 367,-360.243"/>
</g>
<!-- set -->
<g id="node4" class="node"><title>set</title>
<a xlink:href="/about-avail/documentation/type-system/types-set" xlink:title="set = {any|}" target="_top">
<ellipse fill="#e2e8ff" stroke="#e2e8ff" cx="367" cy="-288" rx="48.4713" ry="18"/>
<text text-anchor="middle" x="367" y="-283.854" font-family="Consolas" font-size="10.00" fill="#0000a0">set = {any|}</text>
</a>
</g>
<!-- nontype&#45;&#45;set -->
<g id="edge4" class="edge"><title>nontype&#45;&#45;set</title>
<path fill="none" stroke="black" d="M367,-323.973C367,-318.286 367,-311.946 367,-306.243"/>
</g>
<!-- numbers -->
<g id="node6" class="node"><title>numbers</title>
<text text-anchor="middle" x="327" y="-229.854" font-family="Consolas" font-size="10.00" fill="#0000a0">{number|}</text>
</g>
<!-- set&#45;&#45;numbers -->
<g id="edge8" class="edge"><title>set&#45;&#45;numbers</title>
<path fill="none" stroke="#d0d0d0" stroke-dasharray="5,2" d="M354.344,-270.547C349.858,-264.715 344.799,-258.139 340.264,-252.243"/>
</g>
<!-- tuples -->
<g id="node7" class="node"><title>tuples</title>
<text text-anchor="middle" x="408" y="-229.854" font-family="Consolas" font-size="10.00" fill="#0000a0">{tuple|}</text>
</g>
<!-- set&#45;&#45;tuples -->
<g id="edge9" class="edge"><title>set&#45;&#45;tuples</title>
<path fill="none" stroke="#d0d0d0" stroke-dasharray="5,2" d="M379.973,-270.547C384.571,-264.715 389.756,-258.139 394.405,-252.243"/>
</g>
<!-- …numbers -->
<g id="node5" class="node"><title>…numbers</title>
</g>
<!-- …numbers&#45;&#45;numbers -->
<g id="edge11" class="edge"><title>…numbers&#45;&#45;numbers</title>
<path fill="none" stroke="#707070" stroke-dasharray="1,5" d="M276.117,-234C282.213,-234 288.308,-234 294.403,-234"/>
</g>
<!-- numbers&#45;&#45;tuples -->
<g id="edge12" class="edge"><title>numbers&#45;&#45;tuples</title>
<path fill="none" stroke="#707070" stroke-dasharray="1,5" d="M359.59,-234C365.893,-234 372.197,-234 378.5,-234"/>
</g>
<!-- integers -->
<g id="node10" class="node"><title>integers</title>
<text text-anchor="middle" x="211" y="-175.854" font-family="Consolas" font-size="10.00" fill="#0000a0">{integer|1..}</text>
</g>
<!-- numbers&#45;&#45;integers -->
<g id="edge15" class="edge"><title>numbers&#45;&#45;integers</title>
<path fill="none" stroke="#d0d0d0" stroke-dasharray="5,2" d="M294.379,-218.377C280.306,-212.068 263.751,-204.647 249.117,-198.087"/>
</g>
<!-- {⊥|0} -->
<g id="node22" class="node"><title>{⊥|0}</title>
<text text-anchor="middle" x="408" y="-175.854" font-family="Consolas" font-size="10.00" fill="#0000a0">{⊥|0}</text>
</g>
<!-- numbers&#45;&#45;{⊥|0} -->
<g id="edge18" class="edge"><title>numbers&#45;&#45;{⊥|0}</title>
<path fill="none" stroke="#d0d0d0" stroke-dasharray="5,2" d="M353.522,-215.973C362.473,-210.227 372.462,-203.814 381.418,-198.065"/>
</g>
<!-- tuples… -->
<g id="node8" class="node"><title>tuples…</title>
</g>
<!-- tuples&#45;&#45;tuples… -->
<g id="edge13" class="edge"><title>tuples&#45;&#45;tuples…</title>
<path fill="none" stroke="#707070" stroke-dasharray="1,5" d="M437.59,-234C443.621,-234 449.652,-234 455.683,-234"/>
</g>
<!-- tuples&#45;&#45;{⊥|0} -->
<g id="edge19" class="edge"><title>tuples&#45;&#45;{⊥|0}</title>
<path fill="none" stroke="#d0d0d0" stroke-dasharray="5,2" d="M408,-215.973C408,-210.286 408,-203.946 408,-198.243"/>
</g>
<!-- empty -->
<g id="node9" class="node"><title>empty</title>
<text text-anchor="middle" x="426" y="-67.8545" font-family="Consolas" font-size="10.00" fill="#0000a0">{∅}ᵀ</text>
</g>
<!-- ⊥ -->
<g id="node13" class="node"><title>⊥</title>
<a xlink:href="/about-avail/documentation/type-system/types-bottom" xlink:title="⊥" target="_top">
<text text-anchor="middle" x="254" y="-13" font-family="Consolas" font-size="10.00" fill="#0000a0">⊥</text>
</a>
</g>
<!-- empty&#45;&#45;⊥ -->
<g id="edge45" class="edge"><title>empty&#45;&#45;⊥</title>
<path fill="none" stroke="black" d="M398.745,-57.8238C395.495,-56.4478 392.196,-55.1386 389,-54 352.392,-40.9604 308.623,-30.5138 281.061,-24.5343"/>
</g>
<!-- integers… -->
<g id="node12" class="node"><title>integers…</title>
</g>
<!-- integers&#45;&#45;integers… -->
<g id="edge25" class="edge"><title>integers&#45;&#45;integers…</title>
<path fill="none" stroke="#707070" stroke-dasharray="1,5" d="M254.699,-180C268.776,-180 282.853,-180 296.929,-180"/>
</g>
<!-- {[1..10]|2..3} -->
<g id="node28" class="node"><title>{[1..10]|2..3}</title>
<text text-anchor="middle" x="254" y="-121.854" font-family="Consolas" font-size="10.00" fill="#0000a0">{[1..10]|2..3}</text>
</g>
<!-- integers&#45;&#45;{[1..10]|2..3} -->
<g id="edge28" class="edge"><title>integers&#45;&#45;{[1..10]|2..3}</title>
<path fill="none" stroke="#d0d0d0" stroke-dasharray="5,2" d="M225.08,-161.973C229.783,-156.286 235.025,-149.946 239.741,-144.243"/>
</g>
<!-- {{1, 2, 3, 4}}ᵀ -->
<g id="node32" class="node"><title>{{1, 2, 3, 4}}ᵀ</title>
<text text-anchor="middle" x="49" y="-67.8545" font-family="Consolas" font-size="10.00" fill="#0000a0">{{1, 2, 3, 4}}ᵀ</text>
</g>
<!-- integers&#45;&#45;{{1, 2, 3, 4}}ᵀ -->
<g id="edge32" class="edge"><title>integers&#45;&#45;{{1, 2, 3, 4}}ᵀ</title>
<path fill="none" stroke="#d0d0d0" stroke-dasharray="5,2" d="M184.972,-161.969C154.83,-142.247 105.46,-109.943 75.2321,-90.1642"/>
</g>
<!-- {{20, 10}}ᵀ -->
<g id="node33" class="node"><title>{{20, 10}}ᵀ</title>
<text text-anchor="middle" x="154" y="-67.8545" font-family="Consolas" font-size="10.00" fill="#0000a0">{{20, 10}}ᵀ</text>
</g>
<!-- integers&#45;&#45;{{20, 10}}ᵀ -->
<g id="edge33" class="edge"><title>integers&#45;&#45;{{20, 10}}ᵀ</title>
<path fill="none" stroke="#d0d0d0" stroke-dasharray="5,2" d="M201.842,-161.969C191.268,-142.306 173.969,-110.135 163.325,-90.3406"/>
</g>
<!-- …integers -->
<g id="node11" class="node"><title>…integers</title>
</g>
<!-- …integers&#45;&#45;integers -->
<g id="edge24" class="edge"><title>…integers&#45;&#45;integers</title>
<path fill="none" stroke="#707070" stroke-dasharray="1,5" d="M149.117,-180C155.241,-180 161.365,-180 167.489,-180"/>
</g>
<!-- {⊥|0}&#45;&#45;empty -->
<g id="edge21" class="edge"><title>{⊥|0}&#45;&#45;empty</title>
<path fill="none" stroke="black" d="M410.892,-161.969C414.231,-142.306 419.694,-110.135 423.055,-90.3406"/>
</g>
<!-- {{1, 2}}ᵀ -->
<g id="node30" class="node"><title>{{1, 2}}ᵀ</title>
<text text-anchor="middle" x="348" y="-67.8545" font-family="Consolas" font-size="10.00" fill="#0000a0">{{1, 2}}ᵀ</text>
</g>
<!-- {[1..10]|2..3}&#45;&#45;{{1, 2}}ᵀ -->
<g id="edge36" class="edge"><title>{[1..10]|2..3}&#45;&#45;{{1, 2}}ᵀ</title>
<path fill="none" stroke="#d0d0d0" stroke-dasharray="5,2" d="M284.779,-107.973C295.167,-102.227 306.759,-95.8142 317.152,-90.065"/>
</g>
<!-- {{10, 8, 3}}ᵀ -->
<g id="node31" class="node"><title>{{10, 8, 3}}ᵀ</title>
<text text-anchor="middle" x="254" y="-67.8545" font-family="Consolas" font-size="10.00" fill="#0000a0">{{10, 8, 3}}ᵀ</text>
</g>
<!-- {[1..10]|2..3}&#45;&#45;{{10, 8, 3}}ᵀ -->
<g id="edge37" class="edge"><title>{[1..10]|2..3}&#45;&#45;{{10, 8, 3}}ᵀ</title>
<path fill="none" stroke="#d0d0d0" stroke-dasharray="5,2" d="M254,-107.973C254,-102.286 254,-95.9464 254,-90.243"/>
</g>
<!-- {{1, 2}}ᵀ&#45;&#45;⊥ -->
<g id="edge40" class="edge"><title>{{1, 2}}ᵀ&#45;&#45;⊥</title>
<path fill="none" stroke="black" d="M317.221,-53.9733C305.548,-47.5161 292.354,-40.2173 281.051,-33.9643"/>
</g>
<!-- {{10, 8, 3}}ᵀ&#45;&#45;⊥ -->
<g id="edge41" class="edge"><title>{{10, 8, 3}}ᵀ&#45;&#45;⊥</title>
<path fill="none" stroke="black" d="M254,-53.9733C254,-48.2862 254,-41.9464 254,-36.243"/>
</g>
<!-- {{1, 2, 3, 4}}ᵀ&#45;&#45;⊥ -->
<g id="edge42" class="edge"><title>{{1, 2, 3, 4}}ᵀ&#45;&#45;⊥</title>
<path fill="none" stroke="black" d="M98.3127,-56.3592C101.248,-55.5459 104.16,-54.7537 107,-54 148.584,-42.963 197.218,-31.7031 226.802,-25.0356"/>
</g>
<!-- {{20, 10}}ᵀ&#45;&#45;⊥ -->
<g id="edge43" class="edge"><title>{{20, 10}}ᵀ&#45;&#45;⊥</title>
<path fill="none" stroke="black" d="M186.744,-53.9733C199.731,-47.2199 214.489,-39.546 226.864,-33.1105"/>
</g>
</g>
</svg>
