<?xml version="1.0" encoding="UTF-8" standalone="no"?>
<!DOCTYPE svg PUBLIC "-//W3C//DTD SVG 1.1//EN"
 "http://www.w3.org/Graphics/SVG/1.1/DTD/svg11.dtd">
<!-- Generated by graphviz version 2.28.0 (20111028.1807)
 -->
<!-- Title: An overview of the Avail type system. Pages: 1 -->
<svg width="1054pt" height="332pt"
 viewBox="0.00 0.00 1054.45 332.00" xmlns="http://www.w3.org/2000/svg" xmlns:xlink="http://www.w3.org/1999/xlink">
<g id="graph1" class="graph" transform="scale(1 1) rotate(0) translate(4 328)">
<title>An overview of the Avail type system.</title>
<polygon fill="white" stroke="white" points="-4,5 -4,-328 1051.45,-328 1051.45,5 -4,5"/>
<!-- ⊤ -->
<g id="node1" class="node"><title>⊤</title>
<a xlink:href="/content/types-top" xlink:title="⊤" target="_top">
<text text-anchor="middle" x="703" y="-302" font-family="Consolas" font-size="8.00" fill="#0000a0">⊤</text>
</a>
</g>
<!-- any -->
<g id="node2" class="node"><title>any</title>
<a xlink:href="/content/types-any" xlink:title="any" target="_top">
<text text-anchor="middle" x="703" y="-230.684" font-family="Consolas" font-size="8.00" fill="#0000a0">any</text>
</a>
</g>
<!-- ⊤&#45;&#45;any -->
<g id="edge3" class="edge"><title>⊤&#45;&#45;any</title>
<path fill="none" stroke="black" d="M703,-287.697C703,-276.846 703,-262.917 703,-252.104"/>
</g>
<!-- nontype -->
<g id="node3" class="node"><title>nontype</title>
<a xlink:href="/content/types-nontype" xlink:title="nontype" target="_top">
<text text-anchor="middle" x="572" y="-158.684" font-family="Consolas" font-size="8.00" fill="#0000a0">nontype</text>
</a>
</g>
<!-- any&#45;&#45;nontype -->
<g id="edge4" class="edge"><title>any&#45;&#45;nontype</title>
<path fill="none" stroke="black" d="M675.857,-218.496C653.374,-206.482 621.582,-189.494 599.109,-177.485"/>
</g>
<!-- type -->
<g id="node4" class="node"><title>type</title>
<a xlink:href="/content/types-type" xlink:title="type" target="_top">
<text text-anchor="middle" x="834" y="-158.684" font-family="Consolas" font-size="8.00" fill="#0000a0">type</text>
</a>
</g>
<!-- any&#45;&#45;type -->
<g id="edge5" class="edge"><title>any&#45;&#45;type</title>
<path fill="none" stroke="black" d="M730.143,-218.496C752.626,-206.482 784.418,-189.494 806.891,-177.485"/>
</g>
<!-- atom -->
<g id="node5" class="node"><title>atom</title>
<a xlink:href="/content/types-atom" xlink:title="atom" target="_top">
<text text-anchor="middle" x="27" y="-86.6836" font-family="Consolas" font-size="8.00" fill="#0000a0">atom</text>
</a>
</g>
<!-- nontype&#45;&#45;atom -->
<g id="edge8" class="edge"><title>nontype&#45;&#45;atom</title>
<path fill="none" stroke="black" d="M544.729,-159.617C452.129,-154.7 150.389,-136.8 58,-108 56.7108,-107.598 55.4143,-107.14 54.1211,-106.638"/>
</g>
<!-- character -->
<g id="node6" class="node"><title>character</title>
<a xlink:href="/content/types-character" xlink:title="character" target="_top">
<text text-anchor="middle" x="83" y="-86.6836" font-family="Consolas" font-size="8.00" fill="#0000a0">character</text>
</a>
</g>
<!-- nontype&#45;&#45;character -->
<g id="edge9" class="edge"><title>nontype&#45;&#45;character</title>
<path fill="none" stroke="black" d="M544.916,-161.449C472.912,-161.888 271.493,-158.173 114,-108 112.83,-107.627 111.654,-107.209 110.48,-106.755"/>
</g>
<!-- continuation -->
<g id="node7" class="node"><title>continuation</title>
<a xlink:href="/content/types-continuation" xlink:title="continuation" target="_top">
<text text-anchor="middle" x="146" y="-86.6836" font-family="Consolas" font-size="8.00" fill="#0000a0">continuation</text>
</a>
</g>
<!-- nontype&#45;&#45;continuation -->
<g id="edge10" class="edge"><title>nontype&#45;&#45;continuation</title>
<path fill="none" stroke="black" d="M544.642,-159.932C480.468,-156.855 315.726,-145.623 184,-108 182.749,-107.643 181.486,-107.252 180.219,-106.833"/>
</g>
<!-- fiber -->
<g id="node8" class="node"><title>fiber</title>
<a xlink:href="/content/types-fiber" xlink:title="fiber" target="_top">
<text text-anchor="middle" x="208" y="-86.6836" font-family="Consolas" font-size="8.00" fill="#0000a0">fiber</text>
</a>
</g>
<!-- nontype&#45;&#45;fiber -->
<g id="edge11" class="edge"><title>nontype&#45;&#45;fiber</title>
<path fill="none" stroke="black" d="M544.917,-159.826C487.192,-156.654 348.389,-145.434 239,-108 237.722,-107.563 236.435,-107.075 235.15,-106.549"/>
</g>
<!-- function -->
<g id="node9" class="node"><title>function</title>
<a xlink:href="/content/types-function" xlink:title="function" target="_top">
<text text-anchor="middle" x="263" y="-86.6836" font-family="Consolas" font-size="8.00" fill="#0000a0">function</text>
</a>
</g>
<!-- nontype&#45;&#45;function -->
<g id="edge12" class="edge"><title>nontype&#45;&#45;function</title>
<path fill="none" stroke="black" d="M544.813,-158.662C494.18,-153.692 382.546,-139.821 294,-108 292.729,-107.543 291.448,-107.04 290.167,-106.5"/>
</g>
<!-- function implementation -->
<g id="node10" class="node"><title>function implementation</title>
<a xlink:href="/content/types-function-implementation" xlink:title="function\nimplementation" target="_top">
<text text-anchor="middle" x="330" y="-91.3672" font-family="Consolas" font-size="8.00" fill="#0000a0">function</text>
<text text-anchor="middle" x="330" y="-82" font-family="Consolas" font-size="8.00" fill="#0000a0">implementation</text>
</a>
</g>
<!-- nontype&#45;&#45;function implementation -->
<g id="edge13" class="edge"><title>nontype&#45;&#45;function implementation</title>
<path fill="none" stroke="black" d="M544.833,-154.945C506.064,-146.047 432.827,-128.281 372,-108 370.806,-107.602 369.597,-107.187 368.38,-106.759"/>
</g>
<!-- map -->
<g id="node11" class="node"><title>map</title>
<a xlink:href="/content/types-map" xlink:title="map" target="_top">
<text text-anchor="middle" x="397" y="-86.6836" font-family="Consolas" font-size="8.00" fill="#0000a0">map</text>
</a>
</g>
<!-- nontype&#45;&#45;map -->
<g id="edge14" class="edge"><title>nontype&#45;&#45;map</title>
<path fill="none" stroke="black" d="M544.981,-152.397C515.678,-142.76 467.764,-126.099 428,-108 426.771,-107.441 425.524,-106.852 424.272,-106.243"/>
</g>
<!-- method -->
<g id="node12" class="node"><title>method</title>
<a xlink:href="/content/types-method" xlink:title="method" target="_top">
<text text-anchor="middle" x="452" y="-86.6836" font-family="Consolas" font-size="8.00" fill="#0000a0">method</text>
</a>
</g>
<!-- nontype&#45;&#45;method -->
<g id="edge15" class="edge"><title>nontype&#45;&#45;method</title>
<path fill="none" stroke="black" d="M544.77,-145.116C525.131,-133.66 498.736,-118.263 479.122,-106.821"/>
</g>
<!-- method definition -->
<g id="node13" class="node"><title>method definition</title>
<a xlink:href="/content/types-method-site" xlink:title="method\ndeclaration" target="_top">
<text text-anchor="middle" x="512" y="-91.3672" font-family="Consolas" font-size="8.00" fill="#0000a0">method</text>
<text text-anchor="middle" x="512" y="-82" font-family="Consolas" font-size="8.00" fill="#0000a0">declaration</text>
</a>
</g>
<!-- nontype&#45;&#45;method definition -->
<g id="edge16" class="edge"><title>nontype&#45;&#45;method definition</title>
<path fill="none" stroke="black" d="M557.169,-143.697C547.868,-132.846 535.929,-118.917 526.661,-108.104"/>
</g>
<!-- module -->
<g id="node14" class="node"><title>module</title>
<a xlink:href="/content/types-module" xlink:title="module" target="_top">
<text text-anchor="middle" x="572" y="-86.6836" font-family="Consolas" font-size="8.00" fill="#0000a0">module</text>
</a>
</g>
<!-- nontype&#45;&#45;module -->
<g id="edge17" class="edge"><title>nontype&#45;&#45;module</title>
<path fill="none" stroke="black" d="M572,-143.697C572,-132.846 572,-118.917 572,-108.104"/>
</g>
<!-- number -->
<g id="node15" class="node"><title>number</title>
<a xlink:href="/content/types-number" xlink:title="number" target="_top">
<text text-anchor="middle" x="627" y="-86.6836" font-family="Consolas" font-size="8.00" fill="#0000a0">number</text>
</a>
</g>
<!-- nontype&#45;&#45;number -->
<g id="edge18" class="edge"><title>nontype&#45;&#45;number</title>
<path fill="none" stroke="black" d="M585.596,-143.697C594.121,-132.846 605.065,-118.917 613.561,-108.104"/>
</g>
<!-- object -->
<g id="node16" class="node"><title>object</title>
<a xlink:href="/content/types-object" xlink:title="object" target="_top">
<text text-anchor="middle" x="682" y="-86.6836" font-family="Consolas" font-size="8.00" fill="#0000a0">object</text>
</a>
</g>
<!-- nontype&#45;&#45;object -->
<g id="edge19" class="edge"><title>nontype&#45;&#45;object</title>
<path fill="none" stroke="black" d="M598.909,-143.876C615.955,-133.029 637.922,-119.05 654.988,-108.19"/>
</g>
<!-- phrase -->
<g id="node17" class="node"><title>phrase</title>
<a xlink:href="/content/types-phrase" xlink:title="phrase" target="_top">
<text text-anchor="middle" x="737" y="-86.6836" font-family="Consolas" font-size="8.00" fill="#0000a0">phrase</text>
</a>
</g>
<!-- nontype&#45;&#45;phrase -->
<g id="edge20" class="edge"><title>nontype&#45;&#45;phrase</title>
<path fill="none" stroke="black" d="M599.114,-151.41C626.484,-141.466 669.77,-125.018 706,-108 707.222,-107.426 708.463,-106.825 709.711,-106.206"/>
</g>
<!-- pojo -->
<g id="node18" class="node"><title>pojo</title>
<a xlink:href="/content/types-pojo" xlink:title="pojo" target="_top">
<text text-anchor="middle" x="792" y="-86.6836" font-family="Consolas" font-size="8.00" fill="#0000a0">pojo</text>
</a>
</g>
<!-- nontype&#45;&#45;pojo -->
<g id="edge21" class="edge"><title>nontype&#45;&#45;pojo</title>
<path fill="none" stroke="black" d="M599.249,-155.417C636.572,-147.31 705.312,-130.729 761,-108 762.25,-107.49 763.515,-106.942 764.781,-106.366"/>
</g>
<!-- token -->
<g id="node19" class="node"><title>token</title>
<a xlink:href="/content/types-token" xlink:title="token" target="_top">
<text text-anchor="middle" x="847" y="-86.6836" font-family="Consolas" font-size="8.00" fill="#0000a0">token</text>
</a>
</g>
<!-- nontype&#45;&#45;token -->
<g id="edge22" class="edge"><title>nontype&#45;&#45;token</title>
<path fill="none" stroke="black" d="M599.074,-157.711C644.874,-151.581 740.07,-136.385 816,-108 817.265,-107.527 818.541,-107.01 819.818,-106.46"/>
</g>
<!-- tuple -->
<g id="node20" class="node"><title>tuple</title>
<a xlink:href="/content/types-tuple" xlink:title="tuple" target="_top">
<text text-anchor="middle" x="902" y="-86.6836" font-family="Consolas" font-size="8.00" fill="#0000a0">tuple</text>
</a>
</g>
<!-- nontype&#45;&#45;tuple -->
<g id="edge23" class="edge"><title>nontype&#45;&#45;tuple</title>
<path fill="none" stroke="black" d="M599.143,-159.156C652.563,-154.888 774.53,-141.965 871,-108 872.274,-107.552 873.557,-107.055 874.84,-106.521"/>
</g>
<!-- set -->
<g id="node21" class="node"><title>set</title>
<a xlink:href="/content/types-set" xlink:title="set" target="_top">
<text text-anchor="middle" x="957" y="-86.6836" font-family="Consolas" font-size="8.00" fill="#0000a0">set</text>
</a>
</g>
<!-- nontype&#45;&#45;set -->
<g id="edge24" class="edge"><title>nontype&#45;&#45;set</title>
<path fill="none" stroke="black" d="M599.405,-160.162C659.906,-157.616 808.813,-147.5 926,-108 927.28,-107.569 928.568,-107.086 929.855,-106.564"/>
</g>
<!-- variable -->
<g id="node22" class="node"><title>variable</title>
<a xlink:href="/content/types-variable" xlink:title="variable" target="_top">
<text text-anchor="middle" x="1012" y="-86.6836" font-family="Consolas" font-size="8.00" fill="#0000a0">variable</text>
</a>
</g>
<!-- nontype&#45;&#45;variable -->
<g id="edge25" class="edge"><title>nontype&#45;&#45;variable</title>
<path fill="none" stroke="black" d="M599.095,-158.81C678.451,-152.189 909.269,-131.392 981,-108 982.284,-107.581 983.576,-107.109 984.865,-106.596"/>
</g>
<!-- ⊥ -->
<g id="node23" class="node"><title>⊥</title>
<a xlink:href="/content/types-bottom" xlink:title="⊥" target="_top">
<text text-anchor="middle" x="572" y="-14" font-family="Consolas" font-size="8.00" fill="#0000a0">⊥</text>
</a>
</g>
<!-- type&#45;&#45;⊥ -->
<g id="edge28" class="edge"><title>type&#45;&#45;⊥</title>
<path fill="none" stroke="#d0d0d0" stroke-dasharray="5,2" d="M861.084,-158.79C927.307,-152.427 1088.3,-130.619 1036,-72 1006.75,-39.2179 694.404,-23.9538 599.314,-20.0438"/>
</g>
<!-- atom&#45;&#45;⊥ -->
<g id="edge29" class="edge"><title>atom&#45;&#45;⊥</title>
<path fill="none" stroke="#d0d0d0" stroke-dasharray="5,2" d="M54.1211,-73.3624C55.4143,-72.8602 56.7108,-72.4019 58,-72 150.389,-43.2002 452.129,-25.2997 544.729,-20.3827"/>
</g>
<!-- character&#45;&#45;⊥ -->
<g id="edge30" class="edge"><title>character&#45;&#45;⊥</title>
<path fill="none" stroke="#d0d0d0" stroke-dasharray="5,2" d="M110.48,-73.2451C111.654,-72.7908 112.83,-72.3726 114,-72 271.493,-21.8272 472.912,-18.1118 544.916,-18.5508"/>
</g>
<!-- continuation&#45;&#45;⊥ -->
<g id="edge31" class="edge"><title>continuation&#45;&#45;⊥</title>
<path fill="none" stroke="#d0d0d0" stroke-dasharray="5,2" d="M180.219,-73.1667C181.486,-72.7484 182.749,-72.3573 184,-72 315.726,-34.3768 480.468,-23.1451 544.642,-20.068"/>
</g>
<!-- fiber&#45;&#45;⊥ -->
<g id="edge32" class="edge"><title>fiber&#45;&#45;⊥</title>
<path fill="none" stroke="#d0d0d0" stroke-dasharray="5,2" d="M235.15,-73.451C236.435,-72.9248 237.722,-72.4372 239,-72 348.389,-34.5658 487.192,-23.3464 544.917,-20.1736"/>
</g>
<!-- function&#45;&#45;⊥ -->
<g id="edge33" class="edge"><title>function&#45;&#45;⊥</title>
<path fill="none" stroke="#d0d0d0" stroke-dasharray="5,2" d="M290.167,-73.4998C291.448,-72.9604 292.729,-72.4567 294,-72 382.546,-40.1795 494.18,-26.308 544.813,-21.3381"/>
</g>
<!-- function implementation&#45;&#45;⊥ -->
<g id="edge34" class="edge"><title>function implementation&#45;&#45;⊥</title>
<path fill="none" stroke="#d0d0d0" stroke-dasharray="5,2" d="M368.38,-73.2406C369.597,-72.8128 370.806,-72.3981 372,-72 432.827,-51.7194 506.064,-33.9532 544.833,-25.055"/>
</g>
<!-- map&#45;&#45;⊥ -->
<g id="edge35" class="edge"><title>map&#45;&#45;⊥</title>
<path fill="none" stroke="#d0d0d0" stroke-dasharray="5,2" d="M424.272,-73.7573C425.524,-73.1482 426.771,-72.5594 428,-72 467.764,-53.9012 515.678,-37.2403 544.981,-27.6027"/>
</g>
<!-- method&#45;&#45;⊥ -->
<g id="edge36" class="edge"><title>method&#45;&#45;⊥</title>
<path fill="none" stroke="#d0d0d0" stroke-dasharray="5,2" d="M479.23,-73.1159C498.869,-61.66 525.264,-46.2627 544.878,-34.8212"/>
</g>
<!-- method definition&#45;&#45;⊥ -->
<g id="edge37" class="edge"><title>method definition&#45;&#45;⊥</title>
<path fill="none" stroke="#d0d0d0" stroke-dasharray="5,2" d="M526.831,-71.6966C536.132,-60.8463 548.071,-46.9167 557.339,-36.1043"/>
</g>
<!-- module&#45;&#45;⊥ -->
<g id="edge38" class="edge"><title>module&#45;&#45;⊥</title>
<path fill="none" stroke="#d0d0d0" stroke-dasharray="5,2" d="M572,-71.6966C572,-60.8463 572,-46.9167 572,-36.1043"/>
</g>
<!-- number&#45;&#45;⊥ -->
<g id="edge39" class="edge"><title>number&#45;&#45;⊥</title>
<path fill="none" stroke="#d0d0d0" stroke-dasharray="5,2" d="M613.404,-71.6966C604.879,-60.8463 593.935,-46.9167 585.439,-36.1043"/>
</g>
<!-- object&#45;&#45;⊥ -->
<g id="edge40" class="edge"><title>object&#45;&#45;⊥</title>
<path fill="none" stroke="#d0d0d0" stroke-dasharray="5,2" d="M655.091,-71.8761C638.045,-61.0287 616.078,-47.0498 599.012,-36.1898"/>
</g>
<!-- phrase&#45;&#45;⊥ -->
<g id="edge41" class="edge"><title>phrase&#45;&#45;⊥</title>
<path fill="none" stroke="#d0d0d0" stroke-dasharray="5,2" d="M709.711,-73.7941C708.463,-73.1751 707.222,-72.5741 706,-72 669.77,-54.9823 626.484,-38.5336 599.114,-28.5902"/>
</g>
<!-- pojo&#45;&#45;⊥ -->
<g id="edge42" class="edge"><title>pojo&#45;&#45;⊥</title>
<path fill="none" stroke="#d0d0d0" stroke-dasharray="5,2" d="M764.781,-73.6341C763.515,-73.0584 762.25,-72.5103 761,-72 705.312,-49.2714 636.572,-32.6901 599.249,-24.5835"/>
</g>
<!-- token&#45;&#45;⊥ -->
<g id="edge43" class="edge"><title>token&#45;&#45;⊥</title>
<path fill="none" stroke="#d0d0d0" stroke-dasharray="5,2" d="M819.818,-73.5403C818.541,-72.99 817.265,-72.4729 816,-72 740.07,-43.6148 644.874,-28.4186 599.074,-22.289"/>
</g>
<!-- tuple&#45;&#45;⊥ -->
<g id="edge44" class="edge"><title>tuple&#45;&#45;⊥</title>
<path fill="none" stroke="#d0d0d0" stroke-dasharray="5,2" d="M874.84,-73.4791C873.557,-72.9454 872.274,-72.4484 871,-72 774.53,-38.0355 652.563,-25.1116 599.143,-20.8438"/>
</g>
<!-- set&#45;&#45;⊥ -->
<g id="edge45" class="edge"><title>set&#45;&#45;⊥</title>
<path fill="none" stroke="#d0d0d0" stroke-dasharray="5,2" d="M929.855,-73.4362C928.568,-72.9141 927.28,-72.4313 926,-72 808.813,-32.4999 659.906,-22.3841 599.405,-19.8377"/>
</g>
<!-- variable&#45;&#45;⊥ -->
<g id="edge46" class="edge"><title>variable&#45;&#45;⊥</title>
<path fill="none" stroke="#d0d0d0" stroke-dasharray="5,2" d="M984.865,-73.4045C983.576,-72.8909 982.284,-72.4187 981,-72 842.473,-26.8249 665.735,-19.9804 599.071,-19.073"/>
</g>
</g>
</svg>
