<?xml version="1.0" encoding="UTF-8" standalone="no"?>
<!DOCTYPE svg PUBLIC "-//W3C//DTD SVG 1.1//EN"
 "http://www.w3.org/Graphics/SVG/1.1/DTD/svg11.dtd">
<!-- Generated by graphviz version 2.28.0 (20111028.1807)
 -->
<!-- Title: Avail type system Pages: 1 -->
<svg width="501pt" height="692pt"
 viewBox="0.00 0.00 500.58 692.00" xmlns="http://www.w3.org/2000/svg" xmlns:xlink="http://www.w3.org/1999/xlink">
<g id="graph1" class="graph" transform="scale(1 1) rotate(0) translate(4 688)">
<title>Avail type system</title>
<polygon fill="white" stroke="white" points="-4,5 -4,-688 497.584,-688 497.584,5 -4,5"/>
<!-- ⊤ -->
<g id="node1" class="node"><title>⊤</title>
<a xlink:href="/content/types-top" xlink:title="⊤" target="_top">
<text text-anchor="middle" x="178" y="-661" font-family="Consolas" font-size="10.00" fill="#0000a0">⊤</text>
</a>
</g>
<!-- any -->
<g id="node2" class="node"><title>any</title>
<a xlink:href="/content/types-any" xlink:title="any" target="_top">
<text text-anchor="middle" x="178" y="-607.854" font-family="Consolas" font-size="10.00" fill="#0000a0">any</text>
</a>
</g>
<!-- ⊤&#45;&#45;any -->
<g id="edge2" class="edge"><title>⊤&#45;&#45;any</title>
<path fill="none" stroke="black" d="M178,-647.973C178,-642.286 178,-635.946 178,-630.243"/>
</g>
<!-- nontype -->
<g id="node3" class="node"><title>nontype</title>
<a xlink:href="/content/types-nontype" xlink:title="nontype" target="_top">
<text text-anchor="middle" x="178" y="-553.854" font-family="Consolas" font-size="10.00" fill="#0000a0">nontype</text>
</a>
</g>
<!-- any&#45;&#45;nontype -->
<g id="edge3" class="edge"><title>any&#45;&#45;nontype</title>
<path fill="none" stroke="black" d="M178,-593.973C178,-588.286 178,-581.946 178,-576.243"/>
</g>
<!-- phrase -->
<g id="node4" class="node"><title>phrase</title>
<a xlink:href="/content/types-phrase" xlink:title="phrase = phrase⇒⊤" target="_top">
<ellipse fill="#e2e8ff" stroke="#e2e8ff" cx="178" cy="-504" rx="78.3339" ry="18"/>
<text text-anchor="middle" x="178" y="-502.187" font-family="Consolas" font-size="10.00" fill="#0000a0">phrase = phrase⇒⊤</text>
</a>
</g>
<!-- nontype&#45;&#45;phrase -->
<g id="edge4" class="edge"><title>nontype&#45;&#45;phrase</title>
<path fill="none" stroke="black" d="M178,-539.973C178,-534.286 178,-527.946 178,-522.243"/>
</g>
<!-- declaration phrase -->
<g id="node5" class="node"><title>declaration phrase</title>
<a xlink:href="/content/types-declaration-phrase" xlink:title="declaration phrase" target="_top">
<text text-anchor="middle" x="178" y="-445.854" font-family="Consolas" font-size="10.00" fill="#0000a0">declaration phrase</text>
</a>
</g>
<!-- phrase&#45;&#45;declaration phrase -->
<g id="edge7" class="edge"><title>phrase&#45;&#45;declaration phrase</title>
<path fill="none" stroke="black" d="M178,-485.973C178,-480.286 178,-473.946 178,-468.243"/>
</g>
<!-- expression phrase -->
<g id="node6" class="node"><title>expression phrase</title>
<a xlink:href="/content/types-expression-phrase" xlink:title="expression phrase" target="_top">
<text text-anchor="middle" x="377" y="-445.854" font-family="Consolas" font-size="10.00" fill="#0000a0">expression phrase</text>
</a>
</g>
<!-- phrase&#45;&#45;expression phrase -->
<g id="edge8" class="edge"><title>phrase&#45;&#45;expression phrase</title>
<path fill="none" stroke="black" d="M227.703,-490.012C256.483,-482.492 292.753,-473.014 322.337,-465.284"/>
</g>
<!-- sequence phrase -->
<g id="node7" class="node"><title>sequence phrase</title>
<a xlink:href="/content/types-sequence-phrase" xlink:title="sequence phrase" target="_top">
<text text-anchor="middle" x="49" y="-445.854" font-family="Consolas" font-size="10.00" fill="#0000a0">sequence phrase</text>
</a>
</g>
<!-- phrase&#45;&#45;sequence phrase -->
<g id="edge9" class="edge"><title>phrase&#45;&#45;sequence phrase</title>
<path fill="none" stroke="black" d="M141.034,-488.099C125.548,-481.856 107.455,-474.563 91.4293,-468.103"/>
</g>
<!-- argument phrase -->
<g id="node8" class="node"><title>argument phrase</title>
<a xlink:href="/content/types-argument-phrase" xlink:title="argument\nphrase" target="_top">
<text text-anchor="middle" x="107" y="-397.709" font-family="Consolas" font-size="10.00" fill="#0000a0">argument</text>
<text text-anchor="middle" x="107" y="-386" font-family="Consolas" font-size="10.00" fill="#0000a0">phrase</text>
</a>
</g>
<!-- declaration phrase&#45;&#45;argument phrase -->
<g id="edge12" class="edge"><title>declaration phrase&#45;&#45;argument phrase</title>
<path fill="none" stroke="black" d="M154.752,-431.973C146.987,-426.286 138.331,-419.946 130.543,-414.243"/>
</g>
<!-- label phrase -->
<g id="node9" class="node"><title>label phrase</title>
<a xlink:href="/content/types-label-phrase" xlink:title="label\nphrase" target="_top">
<text text-anchor="middle" x="114" y="-343.709" font-family="Consolas" font-size="10.00" fill="#0000a0">label</text>
<text text-anchor="middle" x="114" y="-332" font-family="Consolas" font-size="10.00" fill="#0000a0">phrase</text>
</a>
</g>
<!-- declaration phrase&#45;&#45;label phrase -->
<g id="edge13" class="edge"><title>declaration phrase&#45;&#45;label phrase</title>
<path fill="none" stroke="black" d="M168.119,-431.975C164.856,-426.282 161.235,-419.888 158,-414 149.289,-398.144 148.502,-393.396 139,-378 135.314,-372.027 130.964,-365.721 126.935,-360.133"/>
</g>
<!-- local constant phrase -->
<g id="node10" class="node"><title>local constant phrase</title>
<a xlink:href="/content/types-local-constant-phrase" xlink:title="local constant\nphrase" target="_top">
<text text-anchor="middle" x="121" y="-289.709" font-family="Consolas" font-size="10.00" fill="#0000a0">local constant</text>
<text text-anchor="middle" x="121" y="-278" font-family="Consolas" font-size="10.00" fill="#0000a0">phrase</text>
</a>
</g>
<!-- declaration phrase&#45;&#45;local constant phrase -->
<g id="edge14" class="edge"><title>declaration phrase&#45;&#45;local constant phrase</title>
<path fill="none" stroke="black" d="M175.112,-431.838C170.574,-407.191 160.543,-360.701 144,-324 141.251,-317.902 137.508,-311.666 133.839,-306.18"/>
</g>
<!-- local variable phrase -->
<g id="node11" class="node"><title>local variable phrase</title>
<a xlink:href="/content/types-local-variable-phrase" xlink:title="local variable\nphrase" target="_top">
<text text-anchor="middle" x="136" y="-235.709" font-family="Consolas" font-size="10.00" fill="#0000a0">local variable</text>
<text text-anchor="middle" x="136" y="-224" font-family="Consolas" font-size="10.00" fill="#0000a0">phrase</text>
</a>
</g>
<!-- declaration phrase&#45;&#45;local variable phrase -->
<g id="edge15" class="edge"><title>declaration phrase&#45;&#45;local variable phrase</title>
<path fill="none" stroke="black" d="M181.111,-431.827C186.266,-398.866 193.809,-325.114 170,-270 167.178,-263.467 162.547,-257.454 157.599,-252.321"/>
</g>
<!-- module constant phrase -->
<g id="node12" class="node"><title>module constant phrase</title>
<a xlink:href="/content/types-module-constant-phrase" xlink:title="module constant\nphrase" target="_top">
<text text-anchor="middle" x="154" y="-181.709" font-family="Consolas" font-size="10.00" fill="#0000a0">module constant</text>
<text text-anchor="middle" x="154" y="-170" font-family="Consolas" font-size="10.00" fill="#0000a0">phrase</text>
</a>
</g>
<!-- declaration phrase&#45;&#45;module constant phrase -->
<g id="edge16" class="edge"><title>declaration phrase&#45;&#45;module constant phrase</title>
<path fill="none" stroke="black" d="M181.941,-431.847C186.385,-410.973 193,-374.596 193,-343 193,-343 193,-343 193,-287 193,-255.245 197.906,-245.014 185,-216 182.097,-209.473 177.527,-203.298 172.778,-198.004"/>
</g>
<!-- module variable phrase -->
<g id="node13" class="node"><title>module variable phrase</title>
<a xlink:href="/content/types-module-variable-phrase" xlink:title="module variable\nphrase" target="_top">
<text text-anchor="middle" x="169" y="-127.709" font-family="Consolas" font-size="10.00" fill="#0000a0">module variable</text>
<text text-anchor="middle" x="169" y="-116" font-family="Consolas" font-size="10.00" fill="#0000a0">phrase</text>
</a>
</g>
<!-- declaration phrase&#45;&#45;module variable phrase -->
<g id="edge17" class="edge"><title>declaration phrase&#45;&#45;module variable phrase</title>
<path fill="none" stroke="black" d="M187.647,-431.974C198.311,-411.52 214,-375.845 214,-343 214,-343 214,-343 214,-233 214,-201.245 220.174,-190.416 206,-162 202.685,-155.353 197.561,-149.3 192.174,-144.167"/>
</g>
<!-- primitive failure reason phrase -->
<g id="node14" class="node"><title>primitive failure reason phrase</title>
<a xlink:href="/content/types-primitive-failure-reason-phrase" xlink:title="primitive failure reason\nphrase" target="_top">
<text text-anchor="middle" x="209" y="-73.709" font-family="Consolas" font-size="10.00" fill="#0000a0">primitive failure reason</text>
<text text-anchor="middle" x="209" y="-62" font-family="Consolas" font-size="10.00" fill="#0000a0">phrase</text>
</a>
</g>
<!-- declaration phrase&#45;&#45;primitive failure reason phrase -->
<g id="edge18" class="edge"><title>declaration phrase&#45;&#45;primitive failure reason phrase</title>
<path fill="none" stroke="black" d="M195.143,-431.918C199.829,-426.532 204.559,-420.328 208,-414 223.722,-385.092 229,-375.907 229,-343 229,-343 229,-343 229,-179 229,-147.245 227.969,-138.981 221,-108 219.675,-102.109 217.705,-95.8253 215.743,-90.2315"/>
</g>
<!-- assignment phrase -->
<g id="node15" class="node"><title>assignment phrase</title>
<a xlink:href="/content/types-assignment-phrase" xlink:title="assignment\nphrase" target="_top">
<text text-anchor="middle" x="309" y="-397.709" font-family="Consolas" font-size="10.00" fill="#0000a0">assignment</text>
<text text-anchor="middle" x="309" y="-386" font-family="Consolas" font-size="10.00" fill="#0000a0">phrase</text>
</a>
</g>
<!-- expression phrase&#45;&#45;assignment phrase -->
<g id="edge28" class="edge"><title>expression phrase&#45;&#45;assignment phrase</title>
<path fill="none" stroke="black" d="M354.734,-431.973C347.297,-426.286 339.007,-419.946 331.549,-414.243"/>
</g>
<!-- block phrase -->
<g id="node16" class="node"><title>block phrase</title>
<a xlink:href="/content/types-block-phrase" xlink:title="block\nphrase" target="_top">
<text text-anchor="middle" x="332" y="-343.709" font-family="Consolas" font-size="10.00" fill="#0000a0">block</text>
<text text-anchor="middle" x="332" y="-332" font-family="Consolas" font-size="10.00" fill="#0000a0">phrase</text>
</a>
</g>
<!-- expression phrase&#45;&#45;block phrase -->
<g id="edge29" class="edge"><title>expression phrase&#45;&#45;block phrase</title>
<path fill="none" stroke="black" d="M369.75,-431.773C363.689,-417.388 354.807,-396.346 347,-378 344.515,-372.16 341.784,-365.778 339.342,-360.082"/>
</g>
<!-- list phrase -->
<g id="node17" class="node"><title>list phrase</title>
<a xlink:href="/content/types-list-phrase" xlink:title="list\nphrase" target="_top">
<text text-anchor="middle" x="347" y="-289.709" font-family="Consolas" font-size="10.00" fill="#0000a0">list</text>
<text text-anchor="middle" x="347" y="-278" font-family="Consolas" font-size="10.00" fill="#0000a0">phrase</text>
</a>
</g>
<!-- expression phrase&#45;&#45;list phrase -->
<g id="edge30" class="edge"><title>expression phrase&#45;&#45;list phrase</title>
<path fill="none" stroke="black" d="M376.479,-431.724C375.396,-407.33 372.083,-361.576 362,-324 360.389,-317.998 357.939,-311.685 355.483,-306.098"/>
</g>
<!-- literal phrase -->
<g id="node18" class="node"><title>literal phrase</title>
<a xlink:href="/content/types-literal-phrase" xlink:title="literal\nphrase" target="_top">
<text text-anchor="middle" x="362" y="-235.709" font-family="Consolas" font-size="10.00" fill="#0000a0">literal</text>
<text text-anchor="middle" x="362" y="-224" font-family="Consolas" font-size="10.00" fill="#0000a0">phrase</text>
</a>
</g>
<!-- expression phrase&#45;&#45;literal phrase -->
<g id="edge31" class="edge"><title>expression phrase&#45;&#45;literal phrase</title>
<path fill="none" stroke="black" d="M379.249,-431.99C382.998,-399.912 388.997,-328.448 377,-270 375.777,-264.042 373.496,-257.846 371.075,-252.353"/>
</g>
<!-- send phrase -->
<g id="node19" class="node"><title>send phrase</title>
<a xlink:href="/content/types-send-phrase" xlink:title="send\nphrase" target="_top">
<text text-anchor="middle" x="379" y="-181.709" font-family="Consolas" font-size="10.00" fill="#0000a0">send</text>
<text text-anchor="middle" x="379" y="-170" font-family="Consolas" font-size="10.00" fill="#0000a0">phrase</text>
</a>
</g>
<!-- expression phrase&#45;&#45;send phrase -->
<g id="edge32" class="edge"><title>expression phrase&#45;&#45;send phrase</title>
<path fill="none" stroke="black" d="M383.043,-431.988C389.857,-411.252 400,-375.013 400,-343 400,-343 400,-343 400,-287 400,-255.245 399.361,-246.89 392,-216 390.588,-210.073 388.46,-203.78 386.332,-198.188"/>
</g>
<!-- variable reference phrase -->
<g id="node20" class="node"><title>variable reference phrase</title>
<a xlink:href="/content/types-variable-reference-phrase" xlink:title="variable reference\nphrase" target="_top">
<text text-anchor="middle" x="422" y="-127.709" font-family="Consolas" font-size="10.00" fill="#0000a0">variable reference</text>
<text text-anchor="middle" x="422" y="-116" font-family="Consolas" font-size="10.00" fill="#0000a0">phrase</text>
</a>
</g>
<!-- expression phrase&#45;&#45;variable reference phrase -->
<g id="edge33" class="edge"><title>expression phrase&#45;&#45;variable reference phrase</title>
<path fill="none" stroke="black" d="M388.632,-431.681C391.977,-426.189 395.416,-419.985 398,-414 410.993,-383.901 418,-375.784 418,-343 418,-343 418,-343 418,-233 418,-201.693 419.764,-165.222 420.949,-144.251"/>
</g>
<!-- variable use phrase -->
<g id="node21" class="node"><title>variable use phrase</title>
<a xlink:href="/content/types-variable-use-phrase" xlink:title="variable use\nphrase" target="_top">
<text text-anchor="middle" x="422" y="-73.709" font-family="Consolas" font-size="10.00" fill="#0000a0">variable use</text>
<text text-anchor="middle" x="422" y="-62" font-family="Consolas" font-size="10.00" fill="#0000a0">phrase</text>
</a>
</g>
<!-- expression phrase&#45;&#45;variable use phrase -->
<g id="edge34" class="edge"><title>expression phrase&#45;&#45;variable use phrase</title>
<path fill="none" stroke="black" d="M415.888,-431.99C448.575,-414.757 490,-384.693 490,-343 490,-343 490,-343 490,-179 490,-147.245 499.335,-134.606 482,-108 477.194,-100.624 470.25,-94.6088 462.779,-89.7778"/>
</g>
<!-- ⊥ -->
<g id="node22" class="node"><title>⊥</title>
<a xlink:href="/content/types-bottom" xlink:title="⊥" target="_top">
<text text-anchor="middle" x="209" y="-13" font-family="Consolas" font-size="10.00" fill="#0000a0">⊥</text>
</a>
</g>
<!-- sequence phrase&#45;&#45;⊥ -->
<g id="edge51" class="edge"><title>sequence phrase&#45;&#45;⊥</title>
<path fill="none" stroke="#d0d0d0" stroke-dasharray="5,2" d="M45.0589,-431.847C40.6147,-410.973 34,-374.596 34,-343 34,-343 34,-343 34,-125 34,-92.9199 24.6781,-77.0406 47,-54 65.3696,-35.0389 140.64,-25.2774 181.8,-21.2692"/>
</g>
<!-- argument phrase&#45;&#45;label phrase -->
<!-- argument phrase&#45;&#45;⊥ -->
<g id="edge52" class="edge"><title>argument phrase&#45;&#45;⊥</title>
<path fill="none" stroke="#d0d0d0" stroke-dasharray="5,2" d="M90.5347,-377.82C73.3873,-358.055 49,-323.823 49,-289 49,-289 49,-289 49,-125 49,-92.9199 39.9209,-77.2733 62,-54 78.205,-36.9185 143.956,-26.5837 181.806,-21.9323"/>
</g>
<!-- label phrase&#45;&#45;local constant phrase -->
<!-- label phrase&#45;&#45;⊥ -->
<g id="edge53" class="edge"><title>label phrase&#45;&#45;⊥</title>
<path fill="none" stroke="#d0d0d0" stroke-dasharray="5,2" d="M87.2829,-323.969C81.327,-318.906 75.6913,-312.852 72,-306 56.9396,-278.043 64,-266.755 64,-235 64,-235 64,-235 64,-125 64,-92.9199 55.2187,-77.5523 77,-54 103.882,-24.9317 151.865,-18.8941 181.978,-18.2095"/>
</g>
<!-- local constant phrase&#45;&#45;local variable phrase -->
<!-- local constant phrase&#45;&#45;⊥ -->
<g id="edge54" class="edge"><title>local constant phrase&#45;&#45;⊥</title>
<path fill="none" stroke="#d0d0d0" stroke-dasharray="5,2" d="M100.052,-269.91C94.972,-264.698 90.1134,-258.587 87,-252 73.4295,-223.29 79,-212.755 79,-181 79,-181 79,-181 79,-125 79,-92.9199 70.5922,-77.8923 92,-54 114.638,-28.7352 154.681,-21.3795 181.531,-19.4156"/>
</g>
<!-- local variable phrase&#45;&#45;module constant phrase -->
<!-- local variable phrase&#45;&#45;⊥ -->
<g id="edge55" class="edge"><title>local variable phrase&#45;&#45;⊥</title>
<path fill="none" stroke="#d0d0d0" stroke-dasharray="5,2" d="M114.203,-215.762C109.256,-210.629 104.675,-204.594 102,-198 89.8716,-168.109 77.9824,-92.7099 107,-54 124.293,-30.9304 157.692,-22.9507 181.561,-20.2543"/>
</g>
<!-- module constant phrase&#45;&#45;module variable phrase -->
<!-- module constant phrase&#45;&#45;⊥ -->
<g id="edge56" class="edge"><title>module constant phrase&#45;&#45;⊥</title>
<path fill="none" stroke="#d0d0d0" stroke-dasharray="5,2" d="M129.931,-161.702C124.694,-156.644 119.867,-150.66 117,-144 101.102,-107.078 101.086,-85.5481 126,-54 139.569,-36.8179 163.12,-27.9612 181.677,-23.4627"/>
</g>
<!-- module variable phrase&#45;&#45;primitive failure reason phrase -->
<!-- module variable phrase&#45;&#45;⊥ -->
<g id="edge57" class="edge"><title>module variable phrase&#45;&#45;⊥</title>
<path fill="none" stroke="#d0d0d0" stroke-dasharray="5,2" d="M144.931,-107.702C139.694,-102.644 134.867,-96.6595 132,-90 125.672,-75.3044 123.338,-67.4524 132,-54 142.971,-36.9623 164.489,-28.1228 181.995,-23.5937"/>
</g>
<!-- primitive failure reason phrase&#45;&#45;⊥ -->
<g id="edge58" class="edge"><title>primitive failure reason phrase&#45;&#45;⊥</title>
<path fill="none" stroke="#d0d0d0" stroke-dasharray="5,2" d="M209,-53.9733C209,-48.2862 209,-41.9464 209,-36.243"/>
</g>
<!-- assignment phrase&#45;&#45;block phrase -->
<!-- assignment phrase&#45;&#45;⊥ -->
<g id="edge59" class="edge"><title>assignment phrase&#45;&#45;⊥</title>
<path fill="none" stroke="#d0d0d0" stroke-dasharray="5,2" d="M305.059,-377.847C300.615,-356.973 294,-320.596 294,-289 294,-289 294,-289 294,-125 294,-93.1919 303.808,-79.6519 285,-54 273.404,-38.1848 252.904,-29.3165 236.114,-24.4664"/>
</g>
<!-- block phrase&#45;&#45;list phrase -->
<!-- block phrase&#45;&#45;⊥ -->
<g id="edge60" class="edge"><title>block phrase&#45;&#45;⊥</title>
<path fill="none" stroke="#d0d0d0" stroke-dasharray="5,2" d="M323.491,-323.909C321.033,-318.322 318.589,-312.008 317,-306 308.881,-275.3 309,-266.755 309,-235 309,-235 309,-235 309,-125 309,-93.133 318.787,-78.9797 299,-54 283.802,-34.8133 256.666,-26.1274 236.152,-22.2055"/>
</g>
<!-- list phrase&#45;&#45;literal phrase -->
<!-- list phrase&#45;&#45;⊥ -->
<g id="edge61" class="edge"><title>list phrase&#45;&#45;⊥</title>
<path fill="none" stroke="#d0d0d0" stroke-dasharray="5,2" d="M338.491,-269.909C336.033,-264.322 333.589,-258.008 332,-252 323.881,-221.3 324,-212.755 324,-181 324,-181 324,-181 324,-125 324,-93.133 334.395,-78.4861 314,-54 294.939,-31.1148 260.467,-23.1114 236.234,-20.3584"/>
</g>
<!-- literal phrase&#45;&#45;send phrase -->
<!-- literal phrase&#45;&#45;⊥ -->
<g id="edge62" class="edge"><title>literal phrase&#45;&#45;⊥</title>
<path fill="none" stroke="#d0d0d0" stroke-dasharray="5,2" d="M354.147,-215.841C351.858,-210.251 349.557,-203.952 348,-198 339.832,-166.773 350.017,-78.497 329,-54 306.037,-27.2357 263.875,-20.3471 236.14,-18.8854"/>
</g>
<!-- send phrase&#45;&#45;variable reference phrase -->
<!-- send phrase&#45;&#45;⊥ -->
<g id="edge63" class="edge"><title>send phrase&#45;&#45;⊥</title>
<path fill="none" stroke="#d0d0d0" stroke-dasharray="5,2" d="M369.627,-161.921C366.857,-156.335 364.026,-150.018 362,-144 348.983,-105.34 372.021,-83.6445 344,-54 316.141,-24.5273 266.944,-18.6387 236.258,-18.0896"/>
</g>
<!-- variable reference phrase&#45;&#45;variable use phrase -->
<!-- variable reference phrase&#45;&#45;⊥ -->
<g id="edge64" class="edge"><title>variable reference phrase&#45;&#45;⊥</title>
<path fill="none" stroke="#d0d0d0" stroke-dasharray="5,2" d="M396.648,-107.745C390.081,-102.533 383.358,-96.4622 378,-90 366.453,-76.0726 373.323,-65.0523 359,-54 323.009,-26.2283 268.672,-19.9066 236.226,-18.7934"/>
</g>
<!-- variable use phrase&#45;&#45;⊥ -->
<g id="edge65" class="edge"><title>variable use phrase&#45;&#45;⊥</title>
<path fill="none" stroke="#d0d0d0" stroke-dasharray="5,2" d="M381.353,-55.906C379.213,-55.2343 377.086,-54.5941 375,-54 326.703,-40.2462 269.105,-29.2877 236.019,-23.5019"/>
</g>
</g>
</svg>
