<?xml version="1.0" encoding="UTF-8" standalone="no"?>
<!DOCTYPE svg PUBLIC "-//W3C//DTD SVG 1.1//EN"
 "http://www.w3.org/Graphics/SVG/1.1/DTD/svg11.dtd">
<!-- Generated by graphviz version 2.36.0 (20140111.2315)
 -->
<!-- Title: Avail type system Pages: 1 -->
<svg width="426pt" height="692pt"
 viewBox="0.00 0.00 425.84 692.00" xmlns="http://www.w3.org/2000/svg" xmlns:xlink="http://www.w3.org/1999/xlink">
<g id="graph0" class="graph" transform="scale(1 1) rotate(0) translate(4 688)">
<title>Avail type system</title>
<polygon fill="white" stroke="none" points="-4,4 -4,-688 421.844,-688 421.844,4 -4,4"/>
<!-- ⊤ -->
<g id="node1" class="node"><title>⊤</title>
<g id="a_node1"><a xlink:href="/about-avail/documentation/type-system/types-top.html" xlink:title="⊤" target="_top">
<text text-anchor="middle" x="148" y="-663" font-family="Consolas" font-size="10.00" fill="#0000a0">⊤</text>
</a>
</g>
</g>
<!-- any -->
<g id="node2" class="node"><title>any</title>
<g id="a_node2"><a xlink:href="/about-avail/documentation/type-system/types-any.html" xlink:title="any" target="_top">
<text text-anchor="middle" x="148" y="-609" font-family="Consolas" font-size="10.00" fill="#0000a0">any</text>
</a>
</g>
</g>
<!-- ⊤&#45;&#45;any -->
<g id="edge1" class="edge"><title>⊤&#45;&#45;any</title>
<path fill="none" stroke="black" d="M148,-647.973C148,-642.286 148,-635.946 148,-630.243"/>
</g>
<!-- nontype -->
<g id="node3" class="node"><title>nontype</title>
<g id="a_node3"><a xlink:href="/about-avail/documentation/type-system/types-nontype.html" xlink:title="nontype" target="_top">
<text text-anchor="middle" x="148" y="-555" font-family="Consolas" font-size="10.00" fill="#0000a0">nontype</text>
</a>
</g>
</g>
<!-- any&#45;&#45;nontype -->
<g id="edge2" class="edge"><title>any&#45;&#45;nontype</title>
<path fill="none" stroke="black" d="M148,-593.973C148,-588.286 148,-581.946 148,-576.243"/>
</g>
<!-- phrase -->
<g id="node4" class="node"><title>phrase</title>
<g id="a_node4"><a xlink:href="/about-avail/documentation/type-system/types-phrase.html" xlink:title="phrase = phrase⇒⊤" target="_top">
<ellipse fill="#e2e8ff" stroke="none" cx="148" cy="-504" rx="55.3873" ry="18"/>
<text text-anchor="middle" x="148" y="-501" font-family="Consolas" font-size="10.00" fill="#0000a0">phrase = phrase⇒⊤</text>
</a>
</g>
</g>
<!-- nontype&#45;&#45;phrase -->
<g id="edge3" class="edge"><title>nontype&#45;&#45;phrase</title>
<path fill="none" stroke="black" d="M148,-539.973C148,-534.286 148,-527.946 148,-522.243"/>
</g>
<!-- declaration phrase -->
<g id="node5" class="node"><title>declaration phrase</title>
<g id="a_node5"><a xlink:href="/about-avail/documentation/type-system/types-declaration-phrase.html" xlink:title="declaration phrase" target="_top">
<text text-anchor="middle" x="148" y="-447" font-family="Consolas" font-size="10.00" fill="#0000a0">declaration phrase</text>
</a>
</g>
</g>
<!-- phrase&#45;&#45;declaration phrase -->
<g id="edge4" class="edge"><title>phrase&#45;&#45;declaration phrase</title>
<path fill="none" stroke="black" d="M148,-485.973C148,-480.286 148,-473.946 148,-468.243"/>
</g>
<!-- expression phrase -->
<g id="node6" class="node"><title>expression phrase</title>
<g id="a_node6"><a xlink:href="/about-avail/documentation/type-system/types-expression-phrase.html" xlink:title="expression phrase" target="_top">
<text text-anchor="middle" x="329" y="-447" font-family="Consolas" font-size="10.00" fill="#0000a0">expression phrase</text>
</a>
</g>
</g>
<!-- phrase&#45;&#45;expression phrase -->
<g id="edge5" class="edge"><title>phrase&#45;&#45;expression phrase</title>
<path fill="none" stroke="black" d="M188.17,-491.46C217.019,-483.171 255.873,-472.009 285.462,-463.508"/>
</g>
<!-- sequence phrase -->
<g id="node7" class="node"><title>sequence phrase</title>
<g id="a_node7"><a xlink:href="/about-avail/documentation/type-system/types-sequence-phrase.html" xlink:title="sequence phrase" target="_top">
<text text-anchor="middle" x="40" y="-447" font-family="Consolas" font-size="10.00" fill="#0000a0">sequence phrase</text>
</a>
</g>
</g>
<!-- phrase&#45;&#45;sequence phrase -->
<g id="edge6" class="edge"><title>phrase&#45;&#45;sequence phrase</title>
<path fill="none" stroke="black" d="M118.203,-488.653C104.966,-482.28 89.2835,-474.729 75.4497,-468.068"/>
</g>
<!-- argument phrase -->
<g id="node8" class="node"><title>argument phrase</title>
<g id="a_node8"><a xlink:href="/about-avail/documentation/type-system/types-argument-phrase.html" xlink:title="argument\nphrase" target="_top">
<text text-anchor="middle" x="80" y="-399" font-family="Consolas" font-size="10.00" fill="#0000a0">argument</text>
<text text-anchor="middle" x="80" y="-387" font-family="Consolas" font-size="10.00" fill="#0000a0">phrase</text>
</a>
</g>
</g>
<!-- declaration phrase&#45;&#45;argument phrase -->
<g id="edge7" class="edge"><title>declaration phrase&#45;&#45;argument phrase</title>
<path fill="none" stroke="black" d="M125.734,-431.973C118.297,-426.286 110.007,-419.946 102.549,-414.243"/>
</g>
<!-- label phrase -->
<g id="node9" class="node"><title>label phrase</title>
<g id="a_node9"><a xlink:href="/about-avail/documentation/type-system/types-label-phrase.html" xlink:title="label\nphrase" target="_top">
<text text-anchor="middle" x="88" y="-345" font-family="Consolas" font-size="10.00" fill="#0000a0">label</text>
<text text-anchor="middle" x="88" y="-333" font-family="Consolas" font-size="10.00" fill="#0000a0">phrase</text>
</a>
</g>
</g>
<!-- declaration phrase&#45;&#45;label phrase -->
<g id="edge8" class="edge"><title>declaration phrase&#45;&#45;label phrase</title>
<path fill="none" stroke="black" d="M137.839,-431.659C134.625,-426.06 131.104,-419.8 128,-414 119.559,-398.228 118.77,-393.591 110,-378 106.692,-372.12 102.848,-365.839 99.3061,-360.245"/>
</g>
<!-- local constant phrase -->
<g id="node10" class="node"><title>local constant phrase</title>
<g id="a_node10"><a xlink:href="/about-avail/documentation/type-system/types-local-constant-phrase.html" xlink:title="local constant\nphrase" target="_top">
<text text-anchor="middle" x="101" y="-291" font-family="Consolas" font-size="10.00" fill="#0000a0">local constant</text>
<text text-anchor="middle" x="101" y="-279" font-family="Consolas" font-size="10.00" fill="#0000a0">phrase</text>
</a>
</g>
</g>
<!-- declaration phrase&#45;&#45;local constant phrase -->
<g id="edge9" class="edge"><title>declaration phrase&#45;&#45;local constant phrase</title>
<path fill="none" stroke="black" d="M145.072,-431.674C140.665,-407.223 131.392,-361.4 118,-324 115.859,-318.022 112.999,-311.715 110.235,-306.127"/>
</g>
<!-- local variable phrase -->
<g id="node11" class="node"><title>local variable phrase</title>
<g id="a_node11"><a xlink:href="/about-avail/documentation/type-system/types-local-variable-phrase.html" xlink:title="local variable\nphrase" target="_top">
<text text-anchor="middle" x="116" y="-237" font-family="Consolas" font-size="10.00" fill="#0000a0">local variable</text>
<text text-anchor="middle" x="116" y="-225" font-family="Consolas" font-size="10.00" fill="#0000a0">phrase</text>
</a>
</g>
</g>
<!-- declaration phrase&#45;&#45;local variable phrase -->
<g id="edge10" class="edge"><title>declaration phrase&#45;&#45;local variable phrase</title>
<path fill="none" stroke="black" d="M150.073,-431.679C153.34,-399.081 157.555,-326.788 139,-270 136.968,-263.78 133.521,-257.607 129.907,-252.218"/>
</g>
<!-- module constant phrase -->
<g id="node12" class="node"><title>module constant phrase</title>
<g id="a_node12"><a xlink:href="/about-avail/documentation/type-system/types-module-constant-phrase.html" xlink:title="module constant\nphrase" target="_top">
<text text-anchor="middle" x="136" y="-183" font-family="Consolas" font-size="10.00" fill="#0000a0">module constant</text>
<text text-anchor="middle" x="136" y="-171" font-family="Consolas" font-size="10.00" fill="#0000a0">phrase</text>
</a>
</g>
</g>
<!-- declaration phrase&#45;&#45;module constant phrase -->
<g id="edge11" class="edge"><title>declaration phrase&#45;&#45;module constant phrase</title>
<path fill="none" stroke="black" d="M151.941,-431.847C156.385,-410.973 163,-374.596 163,-343 163,-343 163,-343 163,-287 163,-255.192 163.417,-246.382 154,-216 152.139,-209.996 149.291,-203.787 146.405,-198.295"/>
</g>
<!-- module variable phrase -->
<g id="node13" class="node"><title>module variable phrase</title>
<g id="a_node13"><a xlink:href="/about-avail/documentation/type-system/types-module-variable-phrase.html" xlink:title="module variable\nphrase" target="_top">
<text text-anchor="middle" x="151" y="-129" font-family="Consolas" font-size="10.00" fill="#0000a0">module variable</text>
<text text-anchor="middle" x="151" y="-117" font-family="Consolas" font-size="10.00" fill="#0000a0">phrase</text>
</a>
</g>
</g>
<!-- declaration phrase&#45;&#45;module variable phrase -->
<g id="edge12" class="edge"><title>declaration phrase&#45;&#45;module variable phrase</title>
<path fill="none" stroke="black" d="M158.93,-431.749C170.773,-411.369 188,-376.045 188,-343 188,-343 188,-343 188,-233 188,-201.192 191.399,-191.292 179,-162 176.331,-155.694 172.188,-149.587 167.9,-144.289"/>
</g>
<!-- primitive failure reason phrase -->
<g id="node14" class="node"><title>primitive failure reason phrase</title>
<g id="a_node14"><a xlink:href="/about-avail/documentation/type-system/types-primitive-failure-reason-phrase.html" xlink:title="primitive failure reason\nphrase" target="_top">
<text text-anchor="middle" x="180" y="-75" font-family="Consolas" font-size="10.00" fill="#0000a0">primitive failure reason</text>
<text text-anchor="middle" x="180" y="-63" font-family="Consolas" font-size="10.00" fill="#0000a0">phrase</text>
</a>
</g>
</g>
<!-- declaration phrase&#45;&#45;primitive failure reason phrase -->
<g id="edge13" class="edge"><title>declaration phrase&#45;&#45;primitive failure reason phrase</title>
<path fill="none" stroke="black" d="M167.197,-431.765C172.239,-426.467 177.296,-420.348 181,-414 197.65,-385.467 203,-376.036 203,-343 203,-343 203,-343 203,-179 203,-147.192 201.971,-138.793 194,-108 192.458,-102.044 190.161,-95.7436 187.871,-90.154"/>
</g>
<!-- assignment phrase -->
<g id="node15" class="node"><title>assignment phrase</title>
<g id="a_node15"><a xlink:href="/about-avail/documentation/type-system/types-assignment-phrase.html" xlink:title="assignment\nphrase" target="_top">
<text text-anchor="middle" x="266" y="-399" font-family="Consolas" font-size="10.00" fill="#0000a0">assignment</text>
<text text-anchor="middle" x="266" y="-387" font-family="Consolas" font-size="10.00" fill="#0000a0">phrase</text>
</a>
</g>
</g>
<!-- expression phrase&#45;&#45;assignment phrase -->
<g id="edge20" class="edge"><title>expression phrase&#45;&#45;assignment phrase</title>
<path fill="none" stroke="black" d="M308.371,-431.973C301.481,-426.286 293.8,-419.946 286.891,-414.243"/>
</g>
<!-- block phrase -->
<g id="node16" class="node"><title>block phrase</title>
<g id="a_node16"><a xlink:href="/about-avail/documentation/type-system/types-block-phrase.html" xlink:title="block\nphrase" target="_top">
<text text-anchor="middle" x="284" y="-345" font-family="Consolas" font-size="10.00" fill="#0000a0">block</text>
<text text-anchor="middle" x="284" y="-333" font-family="Consolas" font-size="10.00" fill="#0000a0">phrase</text>
</a>
</g>
</g>
<!-- expression phrase&#45;&#45;block phrase -->
<g id="edge21" class="edge"><title>expression phrase&#45;&#45;block phrase</title>
<path fill="none" stroke="black" d="M321.75,-431.773C315.689,-417.388 306.807,-396.346 299,-378 296.515,-372.16 293.784,-365.778 291.342,-360.082"/>
</g>
<!-- list phrase -->
<g id="node17" class="node"><title>list phrase</title>
<g id="a_node17"><a xlink:href="/about-avail/documentation/type-system/types-list-phrase.html" xlink:title="list\nphrase" target="_top">
<text text-anchor="middle" x="299" y="-291" font-family="Consolas" font-size="10.00" fill="#0000a0">list</text>
<text text-anchor="middle" x="299" y="-279" font-family="Consolas" font-size="10.00" fill="#0000a0">phrase</text>
</a>
</g>
</g>
<!-- expression phrase&#45;&#45;list phrase -->
<g id="edge22" class="edge"><title>expression phrase&#45;&#45;list phrase</title>
<path fill="none" stroke="black" d="M328.479,-431.724C327.396,-407.33 324.083,-361.576 314,-324 312.389,-317.998 309.939,-311.685 307.483,-306.098"/>
</g>
<!-- literal phrase -->
<g id="node18" class="node"><title>literal phrase</title>
<g id="a_node18"><a xlink:href="/about-avail/documentation/type-system/types-literal-phrase.html" xlink:title="literal\nphrase" target="_top">
<text text-anchor="middle" x="314" y="-237" font-family="Consolas" font-size="10.00" fill="#0000a0">literal</text>
<text text-anchor="middle" x="314" y="-225" font-family="Consolas" font-size="10.00" fill="#0000a0">phrase</text>
</a>
</g>
</g>
<!-- expression phrase&#45;&#45;literal phrase -->
<g id="edge23" class="edge"><title>expression phrase&#45;&#45;literal phrase</title>
<path fill="none" stroke="black" d="M331.249,-431.99C334.998,-399.912 340.997,-328.448 329,-270 327.777,-264.042 325.496,-257.846 323.075,-252.353"/>
</g>
<!-- send phrase -->
<g id="node19" class="node"><title>send phrase</title>
<g id="a_node19"><a xlink:href="/about-avail/documentation/type-system/types-send-phrase.html" xlink:title="send\nphrase" target="_top">
<text text-anchor="middle" x="329" y="-183" font-family="Consolas" font-size="10.00" fill="#0000a0">send</text>
<text text-anchor="middle" x="329" y="-171" font-family="Consolas" font-size="10.00" fill="#0000a0">phrase</text>
</a>
</g>
</g>
<!-- expression phrase&#45;&#45;send phrase -->
<g id="edge24" class="edge"><title>expression phrase&#45;&#45;send phrase</title>
<path fill="none" stroke="black" d="M335.043,-431.988C341.857,-411.252 352,-375.013 352,-343 352,-343 352,-343 352,-287 352,-255.245 352.119,-246.7 344,-216 342.411,-209.992 339.967,-203.678 337.509,-198.091"/>
</g>
<!-- variable reference phrase -->
<g id="node20" class="node"><title>variable reference phrase</title>
<g id="a_node20"><a xlink:href="/about-avail/documentation/type-system/types-variable-reference-phrase.html" xlink:title="variable reference\nphrase" target="_top">
<text text-anchor="middle" x="361" y="-129" font-family="Consolas" font-size="10.00" fill="#0000a0">variable reference</text>
<text text-anchor="middle" x="361" y="-117" font-family="Consolas" font-size="10.00" fill="#0000a0">phrase</text>
</a>
</g>
</g>
<!-- expression phrase&#45;&#45;variable reference phrase -->
<g id="edge25" class="edge"><title>expression phrase&#45;&#45;variable reference phrase</title>
<path fill="none" stroke="black" d="M340.778,-431.743C344.13,-426.253 347.535,-420.035 350,-414 362.268,-383.961 367,-375.447 367,-343 367,-343 367,-343 367,-233 367,-201.665 364.354,-165.203 362.576,-144.241"/>
</g>
<!-- variable use phrase -->
<g id="node21" class="node"><title>variable use phrase</title>
<g id="a_node21"><a xlink:href="/about-avail/documentation/type-system/types-variable-use-phrase.html" xlink:title="variable use\nphrase" target="_top">
<text text-anchor="middle" x="364" y="-75" font-family="Consolas" font-size="10.00" fill="#0000a0">variable use</text>
<text text-anchor="middle" x="364" y="-63" font-family="Consolas" font-size="10.00" fill="#0000a0">phrase</text>
</a>
</g>
</g>
<!-- expression phrase&#45;&#45;variable use phrase -->
<g id="edge26" class="edge"><title>expression phrase&#45;&#45;variable use phrase</title>
<path fill="none" stroke="black" d="M356.05,-431.877C381.589,-413.374 416,-381.33 416,-343 416,-343 416,-343 416,-179 416,-147.245 423.378,-135.783 408,-108 404.219,-101.168 398.504,-95.188 392.433,-90.1947"/>
</g>
<!-- ⊥ -->
<g id="node22" class="node"><title>⊥</title>
<g id="a_node22"><a xlink:href="/about-avail/documentation/type-system/types-bottom.html" xlink:title="⊥" target="_top">
<text text-anchor="middle" x="180" y="-15" font-family="Consolas" font-size="10.00" fill="#0000a0">⊥</text>
</a>
</g>
</g>
<!-- sequence phrase&#45;&#45;⊥ -->
<g id="edge33" class="edge"><title>sequence phrase&#45;&#45;⊥</title>
<path fill="none" stroke="#d0d0d0" stroke-dasharray="5,2" d="M35.7962,-431.862C31.0557,-411.001 24,-374.639 24,-343 24,-343 24,-343 24,-125 24,-92.9199 14.9942,-77.3427 37,-54 52.6479,-37.4015 115.998,-26.9338 152.92,-22.1172"/>
</g>
<!-- argument phrase&#45;&#45;label phrase -->
<!-- argument phrase&#45;&#45;⊥ -->
<g id="edge34" class="edge"><title>argument phrase&#45;&#45;⊥</title>
<path fill="none" stroke="#d0d0d0" stroke-dasharray="5,2" d="M67.0957,-377.849C63.4248,-372.364 59.696,-366.122 57,-360 43.8795,-330.207 39,-321.554 39,-289 39,-289 39,-289 39,-125 39,-92.9199 30.3099,-77.6363 52,-54 77.7792,-25.9078 123.723,-19.51 152.985,-18.4973"/>
</g>
<!-- label phrase&#45;&#45;local constant phrase -->
<!-- label phrase&#45;&#45;⊥ -->
<g id="edge35" class="edge"><title>label phrase&#45;&#45;⊥</title>
<path fill="none" stroke="#d0d0d0" stroke-dasharray="5,2" d="M72.533,-323.931C68.4541,-318.545 64.4988,-312.338 62,-306 50.3524,-276.458 54,-266.755 54,-235 54,-235 54,-235 54,-125 54,-92.8368 46.5203,-77.9393 68,-54 89.4959,-30.0427 127.121,-22.3255 152.777,-19.9278"/>
</g>
<!-- local constant phrase&#45;&#45;local variable phrase -->
<!-- local constant phrase&#45;&#45;⊥ -->
<g id="edge36" class="edge"><title>local constant phrase&#45;&#45;⊥</title>
<path fill="none" stroke="#d0d0d0" stroke-dasharray="5,2" d="M86.7335,-269.774C82.9686,-264.384 79.315,-258.214 77,-252 65.9134,-222.243 69,-212.755 69,-181 69,-181 69,-181 69,-125 69,-92.6531 63.6776,-78.3244 85,-54 102.148,-34.4381 131.22,-25.7967 152.698,-21.987"/>
</g>
<!-- local variable phrase&#45;&#45;module constant phrase -->
<!-- local variable phrase&#45;&#45;⊥ -->
<g id="edge37" class="edge"><title>local variable phrase&#45;&#45;⊥</title>
<path fill="none" stroke="#d0d0d0" stroke-dasharray="5,2" d="M101.289,-215.925C97.5121,-210.54 93.963,-204.334 92,-198 81.8882,-165.373 76.5053,-84.6602 98,-54 110.529,-36.1292 134.132,-27.3266 152.809,-23.0243"/>
</g>
<!-- module constant phrase&#45;&#45;module variable phrase -->
<!-- module constant phrase&#45;&#45;⊥ -->
<g id="edge38" class="edge"><title>module constant phrase&#45;&#45;⊥</title>
<path fill="none" stroke="#d0d0d0" stroke-dasharray="5,2" d="M117.664,-161.642C113.329,-156.429 109.301,-150.384 107,-144 93.3683,-106.182 92.7163,-86.7699 116,-54 124.875,-41.5085 139.659,-33.0062 152.782,-27.5128"/>
</g>
<!-- module variable phrase&#45;&#45;primitive failure reason phrase -->
<!-- module variable phrase&#45;&#45;⊥ -->
<g id="edge39" class="edge"><title>module variable phrase&#45;&#45;⊥</title>
<path fill="none" stroke="#d0d0d0" stroke-dasharray="5,2" d="M132.664,-107.642C128.329,-102.429 124.301,-96.3843 122,-90 116.574,-74.948 114.134,-67.9332 122,-54 128.707,-42.1198 141.244,-33.8197 152.951,-28.2946"/>
</g>
<!-- primitive failure reason phrase&#45;&#45;⊥ -->
<g id="edge40" class="edge"><title>primitive failure reason phrase&#45;&#45;⊥</title>
<path fill="none" stroke="#d0d0d0" stroke-dasharray="5,2" d="M180,-53.9733C180,-48.2862 180,-41.9464 180,-36.243"/>
</g>
<!-- assignment phrase&#45;&#45;block phrase -->
<!-- assignment phrase&#45;&#45;⊥ -->
<g id="edge41" class="edge"><title>assignment phrase&#45;&#45;⊥</title>
<path fill="none" stroke="#d0d0d0" stroke-dasharray="5,2" d="M259.257,-377.769C257.295,-372.175 255.325,-365.891 254,-360 247.031,-329.019 246,-320.755 246,-289 246,-289 246,-289 246,-125 246,-93.1919 254.248,-80.7258 237,-54 229.948,-43.0721 218.156,-35.0069 207.122,-29.3912"/>
</g>
<!-- block phrase&#45;&#45;list phrase -->
<!-- block phrase&#45;&#45;⊥ -->
<g id="edge42" class="edge"><title>block phrase&#45;&#45;⊥</title>
<path fill="none" stroke="#d0d0d0" stroke-dasharray="5,2" d="M275.491,-323.909C273.033,-318.322 270.589,-312.008 269,-306 260.881,-275.3 261,-266.755 261,-235 261,-235 261,-235 261,-125 261,-93.133 269.68,-79.8176 251,-54 240.527,-39.526 222.382,-30.7265 207.057,-25.5709"/>
</g>
<!-- list phrase&#45;&#45;literal phrase -->
<!-- list phrase&#45;&#45;⊥ -->
<g id="edge43" class="edge"><title>list phrase&#45;&#45;⊥</title>
<path fill="none" stroke="#d0d0d0" stroke-dasharray="5,2" d="M290.491,-269.909C288.033,-264.322 285.589,-258.008 284,-252 275.881,-221.3 276,-212.755 276,-181 276,-181 276,-181 276,-125 276,-93.133 285.591,-79.1335 266,-54 251.829,-35.8196 226.655,-27.0292 207.193,-22.8111"/>
</g>
<!-- literal phrase&#45;&#45;send phrase -->
<!-- literal phrase&#45;&#45;⊥ -->
<g id="edge44" class="edge"><title>literal phrase&#45;&#45;⊥</title>
<path fill="none" stroke="#d0d0d0" stroke-dasharray="5,2" d="M305.535,-215.897C303.079,-210.31 300.625,-203.998 299,-198 282.131,-135.747 321.595,-104.12 281,-54 263.129,-31.9361 230.543,-23.7437 207.214,-20.7231"/>
</g>
<!-- send phrase&#45;&#45;variable reference phrase -->
<!-- send phrase&#45;&#45;⊥ -->
<g id="edge45" class="edge"><title>send phrase&#45;&#45;⊥</title>
<path fill="none" stroke="#d0d0d0" stroke-dasharray="5,2" d="M320.796,-161.821C318.355,-156.23 315.843,-149.935 314,-144 301.901,-105.044 323.433,-84.1903 296,-54 273.366,-29.0905 233.712,-21.646 207.154,-19.5655"/>
</g>
<!-- variable reference phrase&#45;&#45;variable use phrase -->
<!-- variable reference phrase&#45;&#45;⊥ -->
<g id="edge46" class="edge"><title>variable reference phrase&#45;&#45;⊥</title>
<path fill="none" stroke="#d0d0d0" stroke-dasharray="5,2" d="M343.71,-107.997C338.63,-102.518 333.29,-96.2424 329,-90 318.868,-75.2577 324.863,-65.3053 311,-54 281.08,-29.601 235.733,-22.0992 207.003,-19.8584"/>
</g>
<!-- variable use phrase&#45;&#45;⊥ -->
<g id="edge47" class="edge"><title>variable use phrase&#45;&#45;⊥</title>
<path fill="none" stroke="#d0d0d0" stroke-dasharray="5,2" d="M331.823,-56.1168C329.867,-55.3645 327.916,-54.6519 326,-54 285.408,-40.188 236.699,-29.6749 207.065,-23.9241"/>
</g>
</g>
</svg>
