<?xml version="1.0" encoding="UTF-8" standalone="no"?>
<!DOCTYPE svg PUBLIC "-//W3C//DTD SVG 1.1//EN"
 "http://www.w3.org/Graphics/SVG/1.1/DTD/svg11.dtd">
<!-- Generated by graphviz version 2.36.0 (20140111.2315)
 -->
<!-- Title: Type lattice: focus on extended integer. Pages: 1 -->
<svg width="492pt" height="692pt"
 viewBox="0.00 0.00 492.00 692.00" xmlns="http://www.w3.org/2000/svg" xmlns:xlink="http://www.w3.org/1999/xlink">
<g id="graph0" class="graph" transform="scale(1 1) rotate(0) translate(4 688)">
<title>Type lattice: focus on extended integer.</title>
<polygon fill="white" stroke="none" points="-4,4 -4,-688 488,-688 488,4 -4,4"/>
<!-- ⊤ -->
<g id="node1" class="node"><title>⊤</title>
<g id="a_node1"><a xlink:href="/about-avail/documentation/type-system/types-top.html" xlink:title="⊤" target="_top">
<text text-anchor="middle" x="198" y="-663" font-family="Consolas" font-size="10.00" fill="#0000a0">⊤</text>
</a>
</g>
</g>
<!-- any -->
<g id="node2" class="node"><title>any</title>
<g id="a_node2"><a xlink:href="/about-avail/documentation/type-system/types-any.html" xlink:title="any" target="_top">
<text text-anchor="middle" x="198" y="-609" font-family="Consolas" font-size="10.00" fill="#0000a0">any</text>
</a>
</g>
</g>
<!-- ⊤&#45;&#45;any -->
<g id="edge1" class="edge"><title>⊤&#45;&#45;any</title>
<path fill="none" stroke="black" d="M198,-647.973C198,-642.286 198,-635.946 198,-630.243"/>
</g>
<!-- nontype -->
<g id="node3" class="node"><title>nontype</title>
<g id="a_node3"><a xlink:href="/about-avail/documentation/type-system/types-nontype.html" xlink:title="nontype" target="_top">
<text text-anchor="middle" x="198" y="-555" font-family="Consolas" font-size="10.00" fill="#0000a0">nontype</text>
</a>
</g>
</g>
<!-- any&#45;&#45;nontype -->
<g id="edge2" class="edge"><title>any&#45;&#45;nontype</title>
<path fill="none" stroke="black" d="M198,-593.973C198,-588.286 198,-581.946 198,-576.243"/>
</g>
<!-- number -->
<g id="node4" class="node"><title>number</title>
<g id="a_node4"><a xlink:href="/about-avail/documentation/type-system/types-number.html" xlink:title="number" target="_top">
<text text-anchor="middle" x="198" y="-501" font-family="Consolas" font-size="10.00" fill="#0000a0">number</text>
</a>
</g>
</g>
<!-- nontype&#45;&#45;number -->
<g id="edge3" class="edge"><title>nontype&#45;&#45;number</title>
<path fill="none" stroke="black" d="M198,-539.973C198,-534.286 198,-527.946 198,-522.243"/>
</g>
<!-- extended integer -->
<g id="node5" class="node"><title>extended integer</title>
<g id="a_node5"><a xlink:href="/about-avail/documentation/type-system/types-extended-integer.html" xlink:title="extended integer = [&#45;∞..∞]" target="_top">
<ellipse fill="#e2e8ff" stroke="none" cx="198" cy="-450" rx="73.4354" ry="18"/>
<text text-anchor="middle" x="198" y="-447" font-family="Consolas" font-size="10.00" fill="#0000a0">extended integer = [&#45;∞..∞]</text>
</a>
</g>
</g>
<!-- number&#45;&#45;extended integer -->
<g id="edge4" class="edge"><title>number&#45;&#45;extended integer</title>
<path fill="none" stroke="black" d="M198,-485.973C198,-480.286 198,-473.946 198,-468.243"/>
</g>
<!-- &#45;∞ type -->
<g id="node6" class="node"><title>&#45;∞ type</title>
<text text-anchor="middle" x="89" y="-393" font-family="Consolas" font-size="10.00" fill="#0000a0">{&#45;∞}ᵀ</text>
</g>
<!-- extended integer&#45;&#45;&#45;∞ type -->
<g id="edge5" class="edge"><title>extended integer&#45;&#45;&#45;∞ type</title>
<path fill="none" stroke="#d0d0d0" stroke-dasharray="5,2" d="M165.886,-433.68C150.061,-426.13 131.188,-417.126 116.101,-409.929"/>
</g>
<!-- integer -->
<g id="node7" class="node"><title>integer</title>
<text text-anchor="middle" x="198" y="-393" font-family="Consolas" font-size="10.00" fill="#0000a0">integer = (&#45;∞..∞)</text>
</g>
<!-- extended integer&#45;&#45;integer -->
<g id="edge6" class="edge"><title>extended integer&#45;&#45;integer</title>
<path fill="none" stroke="#d0d0d0" stroke-dasharray="5,2" d="M198,-431.973C198,-426.286 198,-419.946 198,-414.243"/>
</g>
<!-- ∞ type -->
<g id="node8" class="node"><title>∞ type</title>
<text text-anchor="middle" x="417" y="-393" font-family="Consolas" font-size="10.00" fill="#0000a0">{∞}ᵀ</text>
</g>
<!-- extended integer&#45;&#45;∞ type -->
<g id="edge7" class="edge"><title>extended integer&#45;&#45;∞ type</title>
<path fill="none" stroke="#d0d0d0" stroke-dasharray="5,2" d="M248.793,-436.939C292.766,-426.499 354.67,-411.8 389.817,-403.455"/>
</g>
<!-- &#45;∞ type&#45;&#45;integer -->
<g id="edge8" class="edge"><title>&#45;∞ type&#45;&#45;integer</title>
<path fill="none" stroke="#707070" stroke-dasharray="1,5" d="M116.25,-396C129.449,-396 142.648,-396 155.848,-396"/>
</g>
<!-- ⊥ -->
<g id="node19" class="node"><title>⊥</title>
<g id="a_node19"><a xlink:href="/about-avail/documentation/type-system/types-bottom.html" xlink:title="⊥" target="_top">
<text text-anchor="middle" x="216" y="-15" font-family="Consolas" font-size="10.00" fill="#0000a0">⊥</text>
</a>
</g>
</g>
<!-- &#45;∞ type&#45;&#45;⊥ -->
<g id="edge45" class="edge"><title>&#45;∞ type&#45;&#45;⊥</title>
<path fill="none" stroke="black" d="M61.8135,-378.366C35.6402,-360.035 0,-327.927 0,-289 0,-289 0,-289 0,-125 0,-41.8734 130.521,-23.9308 188.643,-20.0618"/>
</g>
<!-- integer&#45;&#45;∞ type -->
<g id="edge9" class="edge"><title>integer&#45;&#45;∞ type</title>
<path fill="none" stroke="#707070" stroke-dasharray="1,5" d="M240.346,-396C290.145,-396 339.944,-396 389.743,-396"/>
</g>
<!-- nonpositive integer -->
<g id="node9" class="node"><title>nonpositive integer</title>
<g id="a_node9"><a xlink:href="/about-avail/documentation/type-system/types-extended-integer.html#types-nonpositive-integer" xlink:title="nonpositive integer = (&#45;∞..0]" target="_top">
<text text-anchor="middle" x="132" y="-339" font-family="Consolas" font-size="10.00" fill="#0000a0">nonpositive integer = (&#45;∞..0]</text>
</a>
</g>
</g>
<!-- integer&#45;&#45;nonpositive integer -->
<g id="edge10" class="edge"><title>integer&#45;&#45;nonpositive integer</title>
<path fill="none" stroke="#d0d0d0" stroke-dasharray="5,2" d="M176.389,-377.973C169.171,-372.286 161.124,-365.946 153.885,-360.243"/>
</g>
<!-- whole number -->
<g id="node11" class="node"><title>whole number</title>
<g id="a_node11"><a xlink:href="/about-avail/documentation/type-system/types-extended-integer.html#types-whole-number" xlink:title="whole number = [0..∞)" target="_top">
<text text-anchor="middle" x="289" y="-339" font-family="Consolas" font-size="10.00" fill="#0000a0">whole number = [0..∞)</text>
</a>
</g>
</g>
<!-- integer&#45;&#45;whole number -->
<g id="edge11" class="edge"><title>integer&#45;&#45;whole number</title>
<path fill="none" stroke="#d0d0d0" stroke-dasharray="5,2" d="M227.797,-377.973C237.853,-372.227 249.075,-365.814 259.136,-360.065"/>
</g>
<!-- ∞ type&#45;&#45;⊥ -->
<g id="edge46" class="edge"><title>∞ type&#45;&#45;⊥</title>
<path fill="none" stroke="black" d="M436.379,-377.957C456.167,-358.573 484,-324.922 484,-289 484,-289 484,-289 484,-125 484,-82.2177 456.543,-74.5151 419,-54 362.04,-22.8742 283.808,-18.2907 243.098,-18.2591"/>
</g>
<!-- negative integer -->
<g id="node10" class="node"><title>negative integer</title>
<g id="a_node10"><a xlink:href="/about-avail/documentation/type-system/types-extended-integer.html#types-negative-integer" xlink:title="negative integer = (&#45;∞..&#45;1]" target="_top">
<text text-anchor="middle" x="89" y="-285" font-family="Consolas" font-size="10.00" fill="#0000a0">negative integer = (&#45;∞..&#45;1]</text>
</a>
</g>
</g>
<!-- nonpositive integer&#45;&#45;negative integer -->
<g id="edge13" class="edge"><title>nonpositive integer&#45;&#45;negative integer</title>
<path fill="none" stroke="black" d="M117.92,-323.973C113.217,-318.286 107.975,-311.946 103.259,-306.243"/>
</g>
<!-- nonpositive integer&#45;&#45;whole number -->
<g id="edge12" class="edge"><title>nonpositive integer&#45;&#45;whole number</title>
<path fill="none" stroke="#707070" stroke-dasharray="1,5" d="M197.314,-342C209.85,-342 222.385,-342 234.92,-342"/>
</g>
<!-- natural number -->
<g id="node12" class="node"><title>natural number</title>
<g id="a_node12"><a xlink:href="/about-avail/documentation/type-system/types-extended-integer.html#types-natural-number" xlink:title="natural number = [1..∞)" target="_top">
<text text-anchor="middle" x="224" y="-285" font-family="Consolas" font-size="10.00" fill="#0000a0">natural number = [1..∞)</text>
</a>
</g>
</g>
<!-- negative integer&#45;&#45;natural number -->
<g id="edge17" class="edge"><title>negative integer&#45;&#45;natural number</title>
<path fill="none" stroke="#707070" stroke-dasharray="1,5" d="M149.381,-288C155.793,-288 162.206,-288 168.619,-288"/>
</g>
<!-- negative integer&#45;&#45;⊥ -->
<g id="edge41" class="edge"><title>negative integer&#45;&#45;⊥</title>
<path fill="none" stroke="#d0d0d0" stroke-dasharray="5,2" d="M78.6163,-269.678C67.3652,-249.23 51,-213.843 51,-181 51,-181 51,-181 51,-125 51,-60.3094 141.889,-33.2546 188.754,-23.6043"/>
</g>
<!-- whole number&#45;&#45;natural number -->
<g id="edge14" class="edge"><title>whole number&#45;&#45;natural number</title>
<path fill="none" stroke="black" d="M267.717,-323.973C260.608,-318.286 252.683,-311.946 245.554,-306.243"/>
</g>
<!-- code point -->
<g id="node13" class="node"><title>code point</title>
<g id="a_node13"><a xlink:href="/about-avail/documentation/type-system/types-extended-integer.html#types-code-point" xlink:title="code point = [0..1114111]" target="_top">
<text text-anchor="middle" x="396" y="-285" font-family="Consolas" font-size="10.00" fill="#0000a0">code point = [0..1114111]</text>
</a>
</g>
</g>
<!-- whole number&#45;&#45;code point -->
<g id="edge15" class="edge"><title>whole number&#45;&#45;code point</title>
<path fill="none" stroke="#d0d0d0" stroke-dasharray="5,2" d="M324.036,-323.973C335.86,-318.227 349.055,-311.814 360.885,-306.065"/>
</g>
<!-- byte -->
<g id="node14" class="node"><title>byte</title>
<g id="a_node14"><a xlink:href="/about-avail/documentation/type-system/types-extended-integer.html#types-byte" xlink:title="byte = [0..255]" target="_top">
<text text-anchor="middle" x="335" y="-231" font-family="Consolas" font-size="10.00" fill="#0000a0">byte = [0..255]</text>
</a>
</g>
</g>
<!-- whole number&#45;&#45;byte -->
<g id="edge16" class="edge"><title>whole number&#45;&#45;byte</title>
<path fill="none" stroke="#d0d0d0" stroke-dasharray="5,2" d="M296.391,-323.969C304.924,-304.306 318.885,-272.135 327.475,-252.341"/>
</g>
<!-- natural number&#45;&#45;code point -->
<g id="edge18" class="edge"><title>natural number&#45;&#45;code point</title>
<path fill="none" stroke="#707070" stroke-dasharray="1,5" d="M279.43,-288C298.251,-288 317.072,-288 335.893,-288"/>
</g>
<!-- [1..6] -->
<g id="node20" class="node"><title>[1..6]</title>
<text text-anchor="middle" x="193" y="-177" font-family="Consolas" font-size="10.00" fill="#0000a0">[1..6]</text>
</g>
<!-- natural number&#45;&#45;[1..6] -->
<g id="edge19" class="edge"><title>natural number&#45;&#45;[1..6]</title>
<path fill="none" stroke="#d0d0d0" stroke-dasharray="5,2" d="M219.019,-269.969C213.269,-250.306 203.86,-218.135 198.071,-198.341"/>
</g>
<!-- [2..11] -->
<g id="node21" class="node"><title>[2..11]</title>
<text text-anchor="middle" x="265" y="-177" font-family="Consolas" font-size="10.00" fill="#0000a0">[2..11]</text>
</g>
<!-- natural number&#45;&#45;[2..11] -->
<g id="edge20" class="edge"><title>natural number&#45;&#45;[2..11]</title>
<path fill="none" stroke="#d0d0d0" stroke-dasharray="5,2" d="M230.587,-269.969C238.193,-250.306 250.637,-218.135 258.293,-198.341"/>
</g>
<!-- [42..49] -->
<g id="node22" class="node"><title>[42..49]</title>
<text text-anchor="middle" x="337" y="-177" font-family="Consolas" font-size="10.00" fill="#0000a0">[42..49]</text>
</g>
<!-- natural number&#45;&#45;[42..49] -->
<g id="edge21" class="edge"><title>natural number&#45;&#45;[42..49]</title>
<path fill="none" stroke="#d0d0d0" stroke-dasharray="5,2" d="M239.29,-269.851C257.363,-249.61 285.338,-218.376 288,-216 295.019,-209.734 303.159,-203.549 310.764,-198.161"/>
</g>
<!-- code point&#45;&#45;byte -->
<g id="edge25" class="edge"><title>code point&#45;&#45;byte</title>
<path fill="none" stroke="black" d="M376.026,-269.973C369.355,-264.286 361.918,-257.946 355.227,-252.243"/>
</g>
<!-- byte&#45;&#45;[1..6] -->
<g id="edge22" class="edge"><title>byte&#45;&#45;[1..6]</title>
<path fill="none" stroke="#d0d0d0" stroke-dasharray="5,2" d="M297.81,-221.945C277.296,-215.542 251.496,-206.987 229,-198 226.176,-196.872 223.259,-195.629 220.365,-194.345"/>
</g>
<!-- byte&#45;&#45;[2..11] -->
<g id="edge23" class="edge"><title>byte&#45;&#45;[2..11]</title>
<path fill="none" stroke="#d0d0d0" stroke-dasharray="5,2" d="M312.079,-215.973C304.424,-210.286 295.889,-203.946 288.212,-198.243"/>
</g>
<!-- byte&#45;&#45;[42..49] -->
<g id="edge24" class="edge"><title>byte&#45;&#45;[42..49]</title>
<path fill="none" stroke="#d0d0d0" stroke-dasharray="5,2" d="M335.655,-215.973C335.874,-210.286 336.117,-203.946 336.337,-198.243"/>
</g>
<!-- …[1..6] -->
<g id="node15" class="node"><title>…[1..6]</title>
</g>
<!-- …[1..6]&#45;&#45;[1..6] -->
<g id="edge26" class="edge"><title>…[1..6]&#45;&#45;[1..6]</title>
<path fill="none" stroke="#707070" stroke-dasharray="1,5" d="M138.227,-180C147.355,-180 156.484,-180 165.613,-180"/>
</g>
<!-- [42..49]… -->
<g id="node16" class="node"><title>[42..49]…</title>
</g>
<!-- …[2..5] -->
<g id="node17" class="node"><title>…[2..5]</title>
</g>
<!-- [2..5] -->
<g id="node23" class="node"><title>[2..5]</title>
<text text-anchor="middle" x="216" y="-123" font-family="Consolas" font-size="10.00" fill="#0000a0">[2..5]</text>
</g>
<!-- …[2..5]&#45;&#45;[2..5] -->
<g id="edge33" class="edge"><title>…[2..5]&#45;&#45;[2..5]</title>
<path fill="none" stroke="#707070" stroke-dasharray="1,5" d="M171.281,-126C177.104,-126 182.927,-126 188.75,-126"/>
</g>
<!-- [7..9]… -->
<g id="node18" class="node"><title>[7..9]…</title>
</g>
<!-- [1..6]&#45;&#45;⊥ -->
<g id="edge42" class="edge"><title>[1..6]&#45;&#45;⊥</title>
<path fill="none" stroke="#d0d0d0" stroke-dasharray="5,2" d="M165.939,-168.691C141.721,-159.337 109.754,-146.619 108,-144 99.097,-130.706 101.258,-122.51 108,-108 124.381,-72.7459 162.473,-46.7938 188.739,-32.2873"/>
</g>
<!-- [1..6]&#45;&#45;[2..11] -->
<g id="edge27" class="edge"><title>[1..6]&#45;&#45;[2..11]</title>
<path fill="none" stroke="#707070" stroke-dasharray="1,5" d="M220.281,-180C226.104,-180 231.927,-180 237.75,-180"/>
</g>
<!-- [1..6]&#45;&#45;[2..5] -->
<g id="edge30" class="edge"><title>[1..6]&#45;&#45;[2..5]</title>
<path fill="none" stroke="#d0d0d0" stroke-dasharray="5,2" d="M200.531,-161.973C203.046,-156.286 205.851,-149.946 208.373,-144.243"/>
</g>
<!-- [2..11]&#45;&#45;[42..49] -->
<g id="edge28" class="edge"><title>[2..11]&#45;&#45;[42..49]</title>
<path fill="none" stroke="#707070" stroke-dasharray="1,5" d="M292.281,-180C298.104,-180 303.927,-180 309.75,-180"/>
</g>
<!-- [2..11]&#45;&#45;[2..5] -->
<g id="edge31" class="edge"><title>[2..11]&#45;&#45;[2..5]</title>
<path fill="none" stroke="#d0d0d0" stroke-dasharray="5,2" d="M248.956,-161.973C243.597,-156.286 237.623,-149.946 232.248,-144.243"/>
</g>
<!-- [7..9] -->
<g id="node24" class="node"><title>[7..9]</title>
<text text-anchor="middle" x="288" y="-123" font-family="Consolas" font-size="10.00" fill="#0000a0">[7..9]</text>
</g>
<!-- [2..11]&#45;&#45;[7..9] -->
<g id="edge32" class="edge"><title>[2..11]&#45;&#45;[7..9]</title>
<path fill="none" stroke="#d0d0d0" stroke-dasharray="5,2" d="M272.531,-161.973C275.046,-156.286 277.851,-149.946 280.373,-144.243"/>
</g>
<!-- [42..49]&#45;&#45;[42..49]… -->
<g id="edge29" class="edge"><title>[42..49]&#45;&#45;[42..49]…</title>
<path fill="none" stroke="#707070" stroke-dasharray="1,5" d="M364.156,-180C372.392,-180 380.627,-180 388.863,-180"/>
</g>
<!-- [42..49]&#45;&#45;⊥ -->
<g id="edge43" class="edge"><title>[42..49]&#45;&#45;⊥</title>
<path fill="none" stroke="#d0d0d0" stroke-dasharray="5,2" d="M364.194,-169.959C376.188,-164.46 389.104,-156.109 396,-144 415.795,-109.241 421.442,-84.8658 396,-54 376.966,-30.9084 288.813,-22.8569 243.325,-20.2087"/>
</g>
<!-- [2..5]&#45;&#45;⊥ -->
<g id="edge44" class="edge"><title>[2..5]&#45;&#45;⊥</title>
<path fill="none" stroke="#d0d0d0" stroke-dasharray="5,2" d="M192.943,-107.966C187.705,-102.832 182.85,-96.745 180,-90 173.773,-75.2614 173.773,-68.7386 180,-54 182.85,-47.255 187.705,-41.1682 192.943,-36.0337"/>
</g>
<!-- [2..5]&#45;&#45;[7..9] -->
<g id="edge34" class="edge"><title>[2..5]&#45;&#45;[7..9]</title>
<path fill="none" stroke="#707070" stroke-dasharray="1,5" d="M243.281,-126C249.104,-126 254.927,-126 260.75,-126"/>
</g>
<!-- [7..9]&#45;&#45;[7..9]… -->
<g id="edge35" class="edge"><title>[7..9]&#45;&#45;[7..9]…</title>
<path fill="none" stroke="#707070" stroke-dasharray="1,5" d="M315.281,-126C321.104,-126 326.927,-126 332.75,-126"/>
</g>
<!-- {7}ᵀ -->
<g id="node25" class="node"><title>{7}ᵀ</title>
<text text-anchor="middle" x="216" y="-69" font-family="Consolas" font-size="10.00" fill="#0000a0">{7}ᵀ</text>
</g>
<!-- [7..9]&#45;&#45;{7}ᵀ -->
<g id="edge36" class="edge"><title>[7..9]&#45;&#45;{7}ᵀ</title>
<path fill="none" stroke="#d0d0d0" stroke-dasharray="5,2" d="M264.425,-107.973C256.55,-102.286 247.772,-95.9464 239.875,-90.243"/>
</g>
<!-- {8}ᵀ -->
<g id="node26" class="node"><title>{8}ᵀ</title>
<text text-anchor="middle" x="288" y="-69" font-family="Consolas" font-size="10.00" fill="#0000a0">{8}ᵀ</text>
</g>
<!-- [7..9]&#45;&#45;{8}ᵀ -->
<g id="edge37" class="edge"><title>[7..9]&#45;&#45;{8}ᵀ</title>
<path fill="none" stroke="#d0d0d0" stroke-dasharray="5,2" d="M288,-107.973C288,-102.286 288,-95.9464 288,-90.243"/>
</g>
<!-- {9}ᵀ -->
<g id="node27" class="node"><title>{9}ᵀ</title>
<text text-anchor="middle" x="360" y="-69" font-family="Consolas" font-size="10.00" fill="#0000a0">{9}ᵀ</text>
</g>
<!-- [7..9]&#45;&#45;{9}ᵀ -->
<g id="edge38" class="edge"><title>[7..9]&#45;&#45;{9}ᵀ</title>
<path fill="none" stroke="#d0d0d0" stroke-dasharray="5,2" d="M311.575,-107.973C319.45,-102.286 328.228,-95.9464 336.125,-90.243"/>
</g>
<!-- {7}ᵀ&#45;&#45;⊥ -->
<g id="edge47" class="edge"><title>{7}ᵀ&#45;&#45;⊥</title>
<path fill="none" stroke="black" d="M216,-53.9733C216,-48.2862 216,-41.9464 216,-36.243"/>
</g>
<!-- {7}ᵀ&#45;&#45;{8}ᵀ -->
<g id="edge39" class="edge"><title>{7}ᵀ&#45;&#45;{8}ᵀ</title>
<path fill="none" stroke="#707070" stroke-dasharray="1,5" d="M243.281,-72C249.104,-72 254.927,-72 260.75,-72"/>
</g>
<!-- {8}ᵀ&#45;&#45;⊥ -->
<g id="edge48" class="edge"><title>{8}ᵀ&#45;&#45;⊥</title>
<path fill="none" stroke="black" d="M264.425,-53.9733C256.55,-48.2862 247.772,-41.9464 239.875,-36.243"/>
</g>
<!-- {8}ᵀ&#45;&#45;{9}ᵀ -->
<g id="edge40" class="edge"><title>{8}ᵀ&#45;&#45;{9}ᵀ</title>
<path fill="none" stroke="#707070" stroke-dasharray="1,5" d="M315.281,-72C321.104,-72 326.927,-72 332.75,-72"/>
</g>
<!-- {9}ᵀ&#45;&#45;⊥ -->
<g id="edge49" class="edge"><title>{9}ᵀ&#45;&#45;⊥</title>
<path fill="none" stroke="black" d="M332.642,-57.639C329.746,-56.3578 326.827,-55.1204 324,-54 297.064,-43.3261 265.452,-33.37 243.415,-26.8269"/>
</g>
</g>
</svg>
