<?xml version="1.0" encoding="UTF-8" standalone="no"?>
<!DOCTYPE svg PUBLIC "-//W3C//DTD SVG 1.1//EN"
 "http://www.w3.org/Graphics/SVG/1.1/DTD/svg11.dtd">
<!-- Generated by graphviz version 2.28.0 (20111028.1807)
 -->
<!-- Title: Type lattice: focus on extended integer. Pages: 1 -->
<svg width="598pt" height="692pt"
 viewBox="0.00 0.00 598.00 692.00" xmlns="http://www.w3.org/2000/svg" xmlns:xlink="http://www.w3.org/1999/xlink">
<g id="graph1" class="graph" transform="scale(1 1) rotate(0) translate(4 688)">
<title>Type lattice: focus on extended integer.</title>
<polygon fill="white" stroke="white" points="-4,5 -4,-688 595,-688 595,5 -4,5"/>
<!-- ⊤ -->
<g id="node1" class="node"><title>⊤</title>
<a xlink:href="/about-avail/documentation/type-system/types-top.html" xlink:title="⊤" target="_top">
<text text-anchor="middle" x="244" y="-661" font-family="Consolas" font-size="10.00" fill="#0000a0">⊤</text>
</a>
</g>
<!-- any -->
<g id="node2" class="node"><title>any</title>
<a xlink:href="/about-avail/documentation/type-system/types-any.html" xlink:title="any" target="_top">
<text text-anchor="middle" x="244" y="-607.854" font-family="Consolas" font-size="10.00" fill="#0000a0">any</text>
</a>
</g>
<!-- ⊤&#45;&#45;any -->
<g id="edge2" class="edge"><title>⊤&#45;&#45;any</title>
<path fill="none" stroke="black" d="M244,-647.973C244,-642.286 244,-635.946 244,-630.243"/>
</g>
<!-- nontype -->
<g id="node3" class="node"><title>nontype</title>
<a xlink:href="/about-avail/documentation/type-system/types-nontype.html" xlink:title="nontype" target="_top">
<text text-anchor="middle" x="244" y="-553.854" font-family="Consolas" font-size="10.00" fill="#0000a0">nontype</text>
</a>
</g>
<!-- any&#45;&#45;nontype -->
<g id="edge3" class="edge"><title>any&#45;&#45;nontype</title>
<path fill="none" stroke="black" d="M244,-593.973C244,-588.286 244,-581.946 244,-576.243"/>
</g>
<!-- number -->
<g id="node4" class="node"><title>number</title>
<a xlink:href="/about-avail/documentation/type-system/types-number.html" xlink:title="number" target="_top">
<text text-anchor="middle" x="244" y="-499.854" font-family="Consolas" font-size="10.00" fill="#0000a0">number</text>
</a>
</g>
<!-- nontype&#45;&#45;number -->
<g id="edge4" class="edge"><title>nontype&#45;&#45;number</title>
<path fill="none" stroke="black" d="M244,-539.973C244,-534.286 244,-527.946 244,-522.243"/>
</g>
<!-- extended integer -->
<g id="node5" class="node"><title>extended integer</title>
<a xlink:href="/about-avail/documentation/type-system/types-extended-integer.html" xlink:title="extended integer = [&#45;∞..∞]" target="_top">
<ellipse fill="#e2e8ff" stroke="#e2e8ff" cx="244" cy="-450" rx="94.4577" ry="18"/>
<text text-anchor="middle" x="244" y="-445.854" font-family="Consolas" font-size="10.00" fill="#0000a0">extended integer = [&#45;∞..∞]</text>
</a>
</g>
<!-- number&#45;&#45;extended integer -->
<g id="edge5" class="edge"><title>number&#45;&#45;extended integer</title>
<path fill="none" stroke="black" d="M244,-485.973C244,-480.286 244,-473.946 244,-468.243"/>
</g>
<!-- &#45;∞ type -->
<g id="node6" class="node"><title>&#45;∞ type</title>
<text text-anchor="middle" x="113" y="-391.854" font-family="Consolas" font-size="10.00" fill="#0000a0">{&#45;∞}ᵀ</text>
</g>
<!-- extended integer&#45;&#45;&#45;∞ type -->
<g id="edge8" class="edge"><title>extended integer&#45;&#45;&#45;∞ type</title>
<path fill="none" stroke="#d0d0d0" stroke-dasharray="5,2" d="M205.05,-433.539C184.234,-425.276 159.112,-415.304 140.375,-407.866"/>
</g>
<!-- integer -->
<g id="node7" class="node"><title>integer</title>
<text text-anchor="middle" x="244" y="-391.854" font-family="Consolas" font-size="10.00" fill="#0000a0">integer = (&#45;∞..∞)</text>
</g>
<!-- extended integer&#45;&#45;integer -->
<g id="edge9" class="edge"><title>extended integer&#45;&#45;integer</title>
<path fill="none" stroke="#d0d0d0" stroke-dasharray="5,2" d="M244,-431.973C244,-426.286 244,-419.946 244,-414.243"/>
</g>
<!-- ∞ type -->
<g id="node8" class="node"><title>∞ type</title>
<text text-anchor="middle" x="508" y="-391.854" font-family="Consolas" font-size="10.00" fill="#0000a0">{∞}ᵀ</text>
</g>
<!-- extended integer&#45;&#45;∞ type -->
<g id="edge10" class="edge"><title>extended integer&#45;&#45;∞ type</title>
<path fill="none" stroke="#d0d0d0" stroke-dasharray="5,2" d="M307.235,-436.545C362.608,-425.638 440.38,-410.319 480.956,-402.327"/>
</g>
<!-- &#45;∞ type&#45;&#45;integer -->
<g id="edge12" class="edge"><title>&#45;∞ type&#45;&#45;integer</title>
<path fill="none" stroke="#707070" stroke-dasharray="1,5" d="M140.121,-396C156.623,-396 173.124,-396 189.626,-396"/>
</g>
<!-- ⊥ -->
<g id="node19" class="node"><title>⊥</title>
<a xlink:href="/about-avail/documentation/type-system/types-bottom.html" xlink:title="⊥" target="_top">
<text text-anchor="middle" x="268" y="-13" font-family="Consolas" font-size="10.00" fill="#0000a0">⊥</text>
</a>
</g>
<!-- &#45;∞ type&#45;&#45;⊥ -->
<g id="edge76" class="edge"><title>&#45;∞ type&#45;&#45;⊥</title>
<path fill="none" stroke="black" d="M85.9337,-383.882C52.5036,-368.137 0,-335.938 0,-289 0,-289 0,-289 0,-125 0,-66.4378 56.9293,-76.492 111,-54 154.446,-35.9274 208.717,-26.4826 240.74,-22.1375"/>
</g>
<!-- integer&#45;&#45;∞ type -->
<g id="edge13" class="edge"><title>integer&#45;&#45;∞ type</title>
<path fill="none" stroke="#707070" stroke-dasharray="1,5" d="M298.398,-396C359.259,-396 420.12,-396 480.981,-396"/>
</g>
<!-- nonpositive integer -->
<g id="node9" class="node"><title>nonpositive integer</title>
<a xlink:href="/about-avail/documentation/type-system/types-extended-integer.html#types-nonpositive-integer" xlink:title="nonpositive integer = (&#45;∞..0]" target="_top">
<text text-anchor="middle" x="162" y="-337.854" font-family="Consolas" font-size="10.00" fill="#0000a0">nonpositive integer = (&#45;∞..0]</text>
</a>
</g>
<!-- integer&#45;&#45;nonpositive integer -->
<g id="edge16" class="edge"><title>integer&#45;&#45;nonpositive integer</title>
<path fill="none" stroke="#d0d0d0" stroke-dasharray="5,2" d="M217.15,-377.973C208.089,-372.227 197.976,-365.814 188.91,-360.065"/>
</g>
<!-- whole number -->
<g id="node11" class="node"><title>whole number</title>
<a xlink:href="/about-avail/documentation/type-system/types-extended-integer.html#types-whole-number" xlink:title="whole number = [0..∞)" target="_top">
<text text-anchor="middle" x="357" y="-337.854" font-family="Consolas" font-size="10.00" fill="#0000a0">whole number = [0..∞)</text>
</a>
</g>
<!-- integer&#45;&#45;whole number -->
<g id="edge17" class="edge"><title>integer&#45;&#45;whole number</title>
<path fill="none" stroke="#d0d0d0" stroke-dasharray="5,2" d="M281,-377.973C293.487,-372.227 307.423,-365.814 319.916,-360.065"/>
</g>
<!-- ∞ type&#45;&#45;⊥ -->
<g id="edge77" class="edge"><title>∞ type&#45;&#45;⊥</title>
<path fill="none" stroke="black" d="M533.048,-377.866C557.163,-359.128 590,-326.692 590,-289 590,-289 590,-289 590,-125 590,-63.1298 372.806,-31.3876 295.176,-22.0182"/>
</g>
<!-- negative integer -->
<g id="node10" class="node"><title>negative integer</title>
<a xlink:href="/about-avail/documentation/type-system/types-extended-integer.html#types-negative-integer" xlink:title="negative integer = (&#45;∞..&#45;1]" target="_top">
<text text-anchor="middle" x="110" y="-283.854" font-family="Consolas" font-size="10.00" fill="#0000a0">negative integer = (&#45;∞..&#45;1]</text>
</a>
</g>
<!-- nonpositive integer&#45;&#45;negative integer -->
<g id="edge21" class="edge"><title>nonpositive integer&#45;&#45;negative integer</title>
<path fill="none" stroke="black" d="M144.973,-323.973C139.286,-318.286 132.946,-311.946 127.243,-306.243"/>
</g>
<!-- nonpositive integer&#45;&#45;whole number -->
<g id="edge19" class="edge"><title>nonpositive integer&#45;&#45;whole number</title>
<path fill="none" stroke="#707070" stroke-dasharray="1,5" d="M249.598,-342C263.582,-342 277.567,-342 291.552,-342"/>
</g>
<!-- natural number -->
<g id="node12" class="node"><title>natural number</title>
<a xlink:href="/about-avail/documentation/type-system/types-extended-integer.html#types-natural-number" xlink:title="natural number = [1..∞)" target="_top">
<text text-anchor="middle" x="281" y="-283.854" font-family="Consolas" font-size="10.00" fill="#0000a0">natural number = [1..∞)</text>
</a>
</g>
<!-- negative integer&#45;&#45;natural number -->
<g id="edge30" class="edge"><title>negative integer&#45;&#45;natural number</title>
<path fill="none" stroke="#707070" stroke-dasharray="1,5" d="M192.16,-288C198.06,-288 203.959,-288 209.859,-288"/>
</g>
<!-- negative integer&#45;&#45;⊥ -->
<g id="edge70" class="edge"><title>negative integer&#45;&#45;⊥</title>
<path fill="none" stroke="#d0d0d0" stroke-dasharray="5,2" d="M108.161,-269.765C106.087,-248.809 103,-212.353 103,-181 103,-181 103,-181 103,-125 103,-60.3094 193.889,-33.2546 240.754,-23.6043"/>
</g>
<!-- whole number&#45;&#45;natural number -->
<g id="edge23" class="edge"><title>whole number&#45;&#45;natural number</title>
<path fill="none" stroke="black" d="M332.115,-323.973C323.716,-318.227 314.344,-311.814 305.941,-306.065"/>
</g>
<!-- code point -->
<g id="node13" class="node"><title>code point</title>
<a xlink:href="/about-avail/documentation/type-system/types-extended-integer.html#types-code-point" xlink:title="code point = [0..1114111]" target="_top">
<text text-anchor="middle" x="485" y="-283.854" font-family="Consolas" font-size="10.00" fill="#0000a0">code point = [0..1114111]</text>
</a>
</g>
<!-- whole number&#45;&#45;code point -->
<g id="edge26" class="edge"><title>whole number&#45;&#45;code point</title>
<path fill="none" stroke="#d0d0d0" stroke-dasharray="5,2" d="M398.912,-323.973C413.057,-318.227 428.842,-311.814 442.994,-306.065"/>
</g>
<!-- byte -->
<g id="node14" class="node"><title>byte</title>
<a xlink:href="/about-avail/documentation/type-system/types-extended-integer.html#types-byte" xlink:title="byte = [0..255]" target="_top">
<text text-anchor="middle" x="410" y="-229.854" font-family="Consolas" font-size="10.00" fill="#0000a0">byte = [0..255]</text>
</a>
</g>
<!-- whole number&#45;&#45;byte -->
<g id="edge27" class="edge"><title>whole number&#45;&#45;byte</title>
<path fill="none" stroke="#d0d0d0" stroke-dasharray="5,2" d="M365.515,-323.969C375.347,-304.306 391.433,-272.135 401.33,-252.341"/>
</g>
<!-- natural number&#45;&#45;code point -->
<g id="edge31" class="edge"><title>natural number&#45;&#45;code point</title>
<path fill="none" stroke="#707070" stroke-dasharray="1,5" d="M352.32,-288C371.065,-288 389.809,-288 408.554,-288"/>
</g>
<!-- [1..6] -->
<g id="node36" class="node"><title>[1..6]</title>
<text text-anchor="middle" x="258" y="-175.854" font-family="Consolas" font-size="10.00" fill="#0000a0">[1..6]</text>
</g>
<!-- natural number&#45;&#45;[1..6] -->
<g id="edge35" class="edge"><title>natural number&#45;&#45;[1..6]</title>
<path fill="none" stroke="#d0d0d0" stroke-dasharray="5,2" d="M277.305,-269.969C273.038,-250.306 266.058,-218.135 261.763,-198.341"/>
</g>
<!-- [2..11] -->
<g id="node37" class="node"><title>[2..11]</title>
<text text-anchor="middle" x="332" y="-175.854" font-family="Consolas" font-size="10.00" fill="#0000a0">[2..11]</text>
</g>
<!-- natural number&#45;&#45;[2..11] -->
<g id="edge36" class="edge"><title>natural number&#45;&#45;[2..11]</title>
<path fill="none" stroke="#d0d0d0" stroke-dasharray="5,2" d="M289.194,-269.969C298.655,-250.306 314.133,-218.135 323.657,-198.341"/>
</g>
<!-- [42..49] -->
<g id="node38" class="node"><title>[42..49]</title>
<text text-anchor="middle" x="410" y="-175.854" font-family="Consolas" font-size="10.00" fill="#0000a0">[42..49]</text>
</g>
<!-- natural number&#45;&#45;[42..49] -->
<g id="edge37" class="edge"><title>natural number&#45;&#45;[42..49]</title>
<path fill="none" stroke="#d0d0d0" stroke-dasharray="5,2" d="M300.239,-269.862C306.34,-264.273 313.045,-257.969 319,-252 334.33,-236.634 335.204,-229.747 352,-216 360.646,-208.924 370.862,-202.279 380.293,-196.721"/>
</g>
<!-- code point&#45;&#45;byte -->
<g id="edge42" class="edge"><title>code point&#45;&#45;byte</title>
<path fill="none" stroke="black" d="M460.442,-269.973C452.154,-264.227 442.905,-257.814 434.613,-252.065"/>
</g>
<!-- byte&#45;&#45;[1..6] -->
<g id="edge38" class="edge"><title>byte&#45;&#45;[1..6]</title>
<path fill="none" stroke="#d0d0d0" stroke-dasharray="5,2" d="M360.738,-219.314C340.492,-213.319 316.932,-205.862 296,-198 292.482,-196.679 288.825,-195.193 285.231,-193.663"/>
</g>
<!-- byte&#45;&#45;[2..11] -->
<g id="edge39" class="edge"><title>byte&#45;&#45;[2..11]</title>
<path fill="none" stroke="#d0d0d0" stroke-dasharray="5,2" d="M384.46,-215.973C375.84,-210.227 366.221,-203.814 357.597,-198.065"/>
</g>
<!-- byte&#45;&#45;[42..49] -->
<g id="edge40" class="edge"><title>byte&#45;&#45;[42..49]</title>
<path fill="none" stroke="#d0d0d0" stroke-dasharray="5,2" d="M410,-215.973C410,-210.286 410,-203.946 410,-198.243"/>
</g>
<!-- …[1..6] -->
<g id="node15" class="node"><title>…[1..6]</title>
</g>
<!-- …[1..6]&#45;&#45;[1..6] -->
<g id="edge45" class="edge"><title>…[1..6]&#45;&#45;[1..6]</title>
<path fill="none" stroke="#707070" stroke-dasharray="1,5" d="M210.246,-180C217.086,-180 223.926,-180 230.765,-180"/>
</g>
<!-- [42..49]… -->
<g id="node16" class="node"><title>[42..49]…</title>
</g>
<!-- …[2..5] -->
<g id="node17" class="node"><title>…[2..5]</title>
</g>
<!-- [2..5] -->
<g id="node43" class="node"><title>[2..5]</title>
<text text-anchor="middle" x="268" y="-121.854" font-family="Consolas" font-size="10.00" fill="#0000a0">[2..5]</text>
</g>
<!-- …[2..5]&#45;&#45;[2..5] -->
<g id="edge57" class="edge"><title>…[2..5]&#45;&#45;[2..5]</title>
<path fill="none" stroke="#707070" stroke-dasharray="1,5" d="M223.281,-126C229.104,-126 234.927,-126 240.75,-126"/>
</g>
<!-- [7..9]… -->
<g id="node18" class="node"><title>[7..9]…</title>
</g>
<!-- [1..6]&#45;&#45;⊥ -->
<g id="edge71" class="edge"><title>[1..6]&#45;&#45;⊥</title>
<path fill="none" stroke="#d0d0d0" stroke-dasharray="5,2" d="M230.887,-166.707C226.929,-165.051 222.88,-163.432 219,-162 193.281,-152.507 176.314,-166.033 160,-144 150.479,-131.141 153.258,-122.51 160,-108 176.381,-72.7459 214.473,-46.7938 240.739,-32.2873"/>
</g>
<!-- [1..6]&#45;&#45;[2..11] -->
<g id="edge46" class="edge"><title>[1..6]&#45;&#45;[2..11]</title>
<path fill="none" stroke="#707070" stroke-dasharray="1,5" d="M285.172,-180C291.635,-180 298.098,-180 304.562,-180"/>
</g>
<!-- [1..6]&#45;&#45;[2..5] -->
<g id="edge50" class="edge"><title>[1..6]&#45;&#45;[2..5]</title>
<path fill="none" stroke="#d0d0d0" stroke-dasharray="5,2" d="M261.274,-161.973C262.368,-156.286 263.587,-149.946 264.684,-144.243"/>
</g>
<!-- [2..11]&#45;&#45;[42..49] -->
<g id="edge47" class="edge"><title>[2..11]&#45;&#45;[42..49]</title>
<path fill="none" stroke="#707070" stroke-dasharray="1,5" d="M359.422,-180C366.403,-180 373.384,-180 380.364,-180"/>
</g>
<!-- [2..11]&#45;&#45;[2..5] -->
<g id="edge53" class="edge"><title>[2..11]&#45;&#45;[2..5]</title>
<path fill="none" stroke="#d0d0d0" stroke-dasharray="5,2" d="M311.044,-161.973C304.045,-156.286 296.242,-149.946 289.222,-144.243"/>
</g>
<!-- [7..9] -->
<g id="node46" class="node"><title>[7..9]</title>
<text text-anchor="middle" x="340" y="-121.854" font-family="Consolas" font-size="10.00" fill="#0000a0">[7..9]</text>
</g>
<!-- [2..11]&#45;&#45;[7..9] -->
<g id="edge54" class="edge"><title>[2..11]&#45;&#45;[7..9]</title>
<path fill="none" stroke="#d0d0d0" stroke-dasharray="5,2" d="M334.619,-161.973C335.494,-156.286 336.47,-149.946 337.347,-144.243"/>
</g>
<!-- [42..49]&#45;&#45;[42..49]… -->
<g id="edge48" class="edge"><title>[42..49]&#45;&#45;[42..49]…</title>
<path fill="none" stroke="#707070" stroke-dasharray="1,5" d="M439.789,-180C451.806,-180 463.822,-180 475.839,-180"/>
</g>
<!-- [42..49]&#45;&#45;⊥ -->
<g id="edge72" class="edge"><title>[42..49]&#45;&#45;⊥</title>
<path fill="none" stroke="#d0d0d0" stroke-dasharray="5,2" d="M434.708,-161.808C440.086,-156.747 445.047,-150.736 448,-144 464.063,-107.367 473.442,-84.8658 448,-54 428.966,-30.9084 340.813,-22.8569 295.325,-20.2087"/>
</g>
<!-- [2..5]&#45;&#45;⊥ -->
<g id="edge73" class="edge"><title>[2..5]&#45;&#45;⊥</title>
<path fill="none" stroke="#d0d0d0" stroke-dasharray="5,2" d="M244.943,-107.966C239.705,-102.832 234.85,-96.745 232,-90 225.773,-75.2614 225.773,-68.7386 232,-54 234.85,-47.255 239.705,-41.1682 244.943,-36.0337"/>
</g>
<!-- [2..5]&#45;&#45;[7..9] -->
<g id="edge58" class="edge"><title>[2..5]&#45;&#45;[7..9]</title>
<path fill="none" stroke="#707070" stroke-dasharray="1,5" d="M295.281,-126C301.104,-126 306.927,-126 312.75,-126"/>
</g>
<!-- [7..9]&#45;&#45;[7..9]… -->
<g id="edge59" class="edge"><title>[7..9]&#45;&#45;[7..9]…</title>
<path fill="none" stroke="#707070" stroke-dasharray="1,5" d="M367.281,-126C373.104,-126 378.927,-126 384.75,-126"/>
</g>
<!-- {7}ᵀ -->
<g id="node51" class="node"><title>{7}ᵀ</title>
<text text-anchor="middle" x="268" y="-67.8545" font-family="Consolas" font-size="10.00" fill="#0000a0">{7}ᵀ</text>
</g>
<!-- [7..9]&#45;&#45;{7}ᵀ -->
<g id="edge62" class="edge"><title>[7..9]&#45;&#45;{7}ᵀ</title>
<path fill="none" stroke="#d0d0d0" stroke-dasharray="5,2" d="M316.425,-107.973C308.55,-102.286 299.772,-95.9464 291.875,-90.243"/>
</g>
<!-- {8}ᵀ -->
<g id="node52" class="node"><title>{8}ᵀ</title>
<text text-anchor="middle" x="340" y="-67.8545" font-family="Consolas" font-size="10.00" fill="#0000a0">{8}ᵀ</text>
</g>
<!-- [7..9]&#45;&#45;{8}ᵀ -->
<g id="edge63" class="edge"><title>[7..9]&#45;&#45;{8}ᵀ</title>
<path fill="none" stroke="#d0d0d0" stroke-dasharray="5,2" d="M340,-107.973C340,-102.286 340,-95.9464 340,-90.243"/>
</g>
<!-- {9}ᵀ -->
<g id="node53" class="node"><title>{9}ᵀ</title>
<text text-anchor="middle" x="412" y="-67.8545" font-family="Consolas" font-size="10.00" fill="#0000a0">{9}ᵀ</text>
</g>
<!-- [7..9]&#45;&#45;{9}ᵀ -->
<g id="edge64" class="edge"><title>[7..9]&#45;&#45;{9}ᵀ</title>
<path fill="none" stroke="#d0d0d0" stroke-dasharray="5,2" d="M363.575,-107.973C371.45,-102.286 380.228,-95.9464 388.125,-90.243"/>
</g>
<!-- {7}ᵀ&#45;&#45;⊥ -->
<g id="edge78" class="edge"><title>{7}ᵀ&#45;&#45;⊥</title>
<path fill="none" stroke="black" d="M268,-53.9733C268,-48.2862 268,-41.9464 268,-36.243"/>
</g>
<!-- {7}ᵀ&#45;&#45;{8}ᵀ -->
<g id="edge66" class="edge"><title>{7}ᵀ&#45;&#45;{8}ᵀ</title>
<path fill="none" stroke="#707070" stroke-dasharray="1,5" d="M295.281,-72C301.104,-72 306.927,-72 312.75,-72"/>
</g>
<!-- {8}ᵀ&#45;&#45;⊥ -->
<g id="edge79" class="edge"><title>{8}ᵀ&#45;&#45;⊥</title>
<path fill="none" stroke="black" d="M316.425,-53.9733C308.55,-48.2862 299.772,-41.9464 291.875,-36.243"/>
</g>
<!-- {8}ᵀ&#45;&#45;{9}ᵀ -->
<g id="edge67" class="edge"><title>{8}ᵀ&#45;&#45;{9}ᵀ</title>
<path fill="none" stroke="#707070" stroke-dasharray="1,5" d="M367.281,-72C373.104,-72 378.927,-72 384.75,-72"/>
</g>
<!-- {9}ᵀ&#45;&#45;⊥ -->
<g id="edge80" class="edge"><title>{9}ᵀ&#45;&#45;⊥</title>
<path fill="none" stroke="black" d="M384.642,-57.639C381.746,-56.3578 378.827,-55.1204 376,-54 349.064,-43.3261 317.452,-33.37 295.415,-26.8269"/>
</g>
</g>
</svg>
