<?xml version="1.0" encoding="UTF-8" standalone="no"?>
<!DOCTYPE svg PUBLIC "-//W3C//DTD SVG 1.1//EN"
 "http://www.w3.org/Graphics/SVG/1.1/DTD/svg11.dtd">
<!-- Generated by graphviz version 2.36.0 (20140111.2315)
 -->
<!-- Title: An overview of the Avail type system. Pages: 1 -->
<svg width="1018pt" height="332pt"
 viewBox="0.00 0.00 1018.45 332.00" xmlns="http://www.w3.org/2000/svg" xmlns:xlink="http://www.w3.org/1999/xlink">
<g id="graph0" class="graph" transform="scale(1 1) rotate(0) translate(4 328)">
<title>An overview of the Avail type system.</title>
<polygon fill="white" stroke="none" points="-4,4 -4,-328 1014.45,-328 1014.45,4 -4,4"/>
<!-- ⊤ -->
<g id="node1" class="node"><title>⊤</title>
<g id="a_node1"><a xlink:href="/about-avail/documentation/type-system/types-top.html" xlink:title="⊤" target="_top">
<text text-anchor="middle" x="667" y="-303.6" font-family="Consolas" font-size="8.00" fill="#0000a0">⊤</text>
</a>
</g>
</g>
<!-- any -->
<g id="node2" class="node"><title>any</title>
<g id="a_node2"><a xlink:href="/about-avail/documentation/type-system/types-any.html" xlink:title="any" target="_top">
<text text-anchor="middle" x="667" y="-231.6" font-family="Consolas" font-size="8.00" fill="#0000a0">any</text>
</a>
</g>
</g>
<!-- ⊤&#45;&#45;any -->
<g id="edge1" class="edge"><title>⊤&#45;&#45;any</title>
<path fill="none" stroke="black" d="M667,-287.697C667,-276.846 667,-262.917 667,-252.104"/>
</g>
<!-- nontype -->
<g id="node3" class="node"><title>nontype</title>
<g id="a_node3"><a xlink:href="/about-avail/documentation/type-system/types-nontype.html" xlink:title="nontype" target="_top">
<text text-anchor="middle" x="536" y="-159.6" font-family="Consolas" font-size="8.00" fill="#0000a0">nontype</text>
</a>
</g>
</g>
<!-- any&#45;&#45;nontype -->
<g id="edge2" class="edge"><title>any&#45;&#45;nontype</title>
<path fill="none" stroke="black" d="M639.857,-218.496C617.374,-206.482 585.582,-189.494 563.109,-177.485"/>
</g>
<!-- type -->
<g id="node4" class="node"><title>type</title>
<g id="a_node4"><a xlink:href="/about-avail/documentation/type-system/types-type.html" xlink:title="type" target="_top">
<text text-anchor="middle" x="798" y="-159.6" font-family="Consolas" font-size="8.00" fill="#0000a0">type</text>
</a>
</g>
</g>
<!-- any&#45;&#45;type -->
<g id="edge3" class="edge"><title>any&#45;&#45;type</title>
<path fill="none" stroke="black" d="M694.143,-218.496C716.626,-206.482 748.418,-189.494 770.891,-177.485"/>
</g>
<!-- atom -->
<g id="node5" class="node"><title>atom</title>
<g id="a_node5"><a xlink:href="/about-avail/documentation/type-system/types-atom.html" xlink:title="atom" target="_top">
<text text-anchor="middle" x="27" y="-87.6" font-family="Consolas" font-size="8.00" fill="#0000a0">atom</text>
</a>
</g>
</g>
<!-- nontype&#45;&#45;atom -->
<g id="edge4" class="edge"><title>nontype&#45;&#45;atom</title>
<path fill="none" stroke="black" d="M508.819,-161.634C434.636,-162.597 223.202,-160.194 58,-108 56.7124,-107.593 55.4171,-107.131 54.125,-106.625"/>
</g>
<!-- character -->
<g id="node6" class="node"><title>character</title>
<g id="a_node6"><a xlink:href="/about-avail/documentation/type-system/types-character.html" xlink:title="character" target="_top">
<text text-anchor="middle" x="82" y="-87.6" font-family="Consolas" font-size="8.00" fill="#0000a0">character</text>
</a>
</g>
</g>
<!-- nontype&#45;&#45;character -->
<g id="edge5" class="edge"><title>nontype&#45;&#45;character</title>
<path fill="none" stroke="black" d="M508.512,-161.085C439.964,-160.549 256.642,-154.508 113,-108 111.715,-107.584 110.422,-107.114 109.132,-106.602"/>
</g>
<!-- continuation -->
<g id="node7" class="node"><title>continuation</title>
<g id="a_node7"><a xlink:href="/about-avail/documentation/type-system/types-continuation.html" xlink:title="continuation" target="_top">
<text text-anchor="middle" x="138" y="-87.6" font-family="Consolas" font-size="8.00" fill="#0000a0">continuation</text>
</a>
</g>
</g>
<!-- nontype&#45;&#45;continuation -->
<g id="edge6" class="edge"><title>nontype&#45;&#45;continuation</title>
<path fill="none" stroke="black" d="M508.993,-160.375C447.201,-158.249 291.42,-148.91 169,-108 167.952,-107.65 166.898,-107.265 165.845,-106.852"/>
</g>
<!-- fiber -->
<g id="node8" class="node"><title>fiber</title>
<g id="a_node8"><a xlink:href="/about-avail/documentation/type-system/types-fiber.html" xlink:title="fiber" target="_top">
<text text-anchor="middle" x="194" y="-87.6" font-family="Consolas" font-size="8.00" fill="#0000a0">fiber</text>
</a>
</g>
</g>
<!-- nontype&#45;&#45;fiber -->
<g id="edge7" class="edge"><title>nontype&#45;&#45;fiber</title>
<path fill="none" stroke="black" d="M508.621,-159.391C453.513,-155.495 325.86,-143.134 225,-108 223.725,-107.556 222.44,-107.062 221.156,-106.531"/>
</g>
<!-- function -->
<g id="node9" class="node"><title>function</title>
<g id="a_node9"><a xlink:href="/about-avail/documentation/type-system/types-function.html" xlink:title="function" target="_top">
<text text-anchor="middle" x="249" y="-87.6" font-family="Consolas" font-size="8.00" fill="#0000a0">function</text>
</a>
</g>
</g>
<!-- nontype&#45;&#45;function -->
<g id="edge8" class="edge"><title>nontype&#45;&#45;function</title>
<path fill="none" stroke="black" d="M508.736,-158.056C461.134,-152.328 360.283,-137.567 280,-108 278.733,-107.533 277.455,-107.021 276.176,-106.475"/>
</g>
<!-- function implementation -->
<g id="node10" class="node"><title>function implementation</title>
<g id="a_node10"><a xlink:href="/about-avail/documentation/type-system/types-function-implementation.html" xlink:title="function\nimplementation" target="_top">
<text text-anchor="middle" x="310" y="-92.4" font-family="Consolas" font-size="8.00" fill="#0000a0">function</text>
<text text-anchor="middle" x="310" y="-82.8" font-family="Consolas" font-size="8.00" fill="#0000a0">implementation</text>
</a>
</g>
</g>
<!-- nontype&#45;&#45;function implementation -->
<g id="edge9" class="edge"><title>nontype&#45;&#45;function implementation</title>
<path fill="none" stroke="black" d="M508.974,-154.841C471.907,-146.075 403.459,-128.74 347,-108 345.806,-107.561 344.596,-107.1 343.38,-106.622"/>
</g>
<!-- map -->
<g id="node11" class="node"><title>map</title>
<g id="a_node11"><a xlink:href="/about-avail/documentation/type-system/types-map.html" xlink:title="map" target="_top">
<text text-anchor="middle" x="371" y="-87.6" font-family="Consolas" font-size="8.00" fill="#0000a0">map</text>
</a>
</g>
</g>
<!-- nontype&#45;&#45;map -->
<g id="edge10" class="edge"><title>nontype&#45;&#45;map</title>
<path fill="none" stroke="black" d="M508.886,-151.41C481.516,-141.466 438.23,-125.018 402,-108 400.778,-107.426 399.537,-106.825 398.289,-106.206"/>
</g>
<!-- method -->
<g id="node12" class="node"><title>method</title>
<g id="a_node12"><a xlink:href="/about-avail/documentation/type-system/types-method.html" xlink:title="method" target="_top">
<text text-anchor="middle" x="426" y="-87.6" font-family="Consolas" font-size="8.00" fill="#0000a0">method</text>
</a>
</g>
</g>
<!-- nontype&#45;&#45;method -->
<g id="edge11" class="edge"><title>nontype&#45;&#45;method</title>
<path fill="none" stroke="black" d="M509.091,-143.876C492.045,-133.029 470.078,-119.05 453.012,-108.19"/>
</g>
<!-- method definition -->
<g id="node13" class="node"><title>method definition</title>
<g id="a_node13"><a xlink:href="/about-avail/documentation/type-system/types-method-definition.html" xlink:title="method\ndefinition" target="_top">
<text text-anchor="middle" x="481" y="-92.4" font-family="Consolas" font-size="8.00" fill="#0000a0">method</text>
<text text-anchor="middle" x="481" y="-82.8" font-family="Consolas" font-size="8.00" fill="#0000a0">definition</text>
</a>
</g>
</g>
<!-- nontype&#45;&#45;method definition -->
<g id="edge12" class="edge"><title>nontype&#45;&#45;method definition</title>
<path fill="none" stroke="black" d="M522.404,-143.697C513.879,-132.846 502.935,-118.917 494.439,-108.104"/>
</g>
<!-- module -->
<g id="node14" class="node"><title>module</title>
<g id="a_node14"><a xlink:href="/about-avail/documentation/type-system/types-module.html" xlink:title="module" target="_top">
<text text-anchor="middle" x="536" y="-87.6" font-family="Consolas" font-size="8.00" fill="#0000a0">module</text>
</a>
</g>
</g>
<!-- nontype&#45;&#45;module -->
<g id="edge13" class="edge"><title>nontype&#45;&#45;module</title>
<path fill="none" stroke="black" d="M536,-143.697C536,-132.846 536,-118.917 536,-108.104"/>
</g>
<!-- number -->
<g id="node15" class="node"><title>number</title>
<g id="a_node15"><a xlink:href="/about-avail/documentation/type-system/types-number.html" xlink:title="number" target="_top">
<text text-anchor="middle" x="591" y="-87.6" font-family="Consolas" font-size="8.00" fill="#0000a0">number</text>
</a>
</g>
</g>
<!-- nontype&#45;&#45;number -->
<g id="edge14" class="edge"><title>nontype&#45;&#45;number</title>
<path fill="none" stroke="black" d="M549.596,-143.697C558.121,-132.846 569.065,-118.917 577.561,-108.104"/>
</g>
<!-- object -->
<g id="node16" class="node"><title>object</title>
<g id="a_node16"><a xlink:href="/about-avail/documentation/type-system/types-object.html" xlink:title="object" target="_top">
<text text-anchor="middle" x="646" y="-87.6" font-family="Consolas" font-size="8.00" fill="#0000a0">object</text>
</a>
</g>
</g>
<!-- nontype&#45;&#45;object -->
<g id="edge15" class="edge"><title>nontype&#45;&#45;object</title>
<path fill="none" stroke="black" d="M562.909,-143.876C579.955,-133.029 601.922,-119.05 618.988,-108.19"/>
</g>
<!-- phrase -->
<g id="node17" class="node"><title>phrase</title>
<g id="a_node17"><a xlink:href="/about-avail/documentation/type-system/types-phrase.html" xlink:title="phrase" target="_top">
<text text-anchor="middle" x="701" y="-87.6" font-family="Consolas" font-size="8.00" fill="#0000a0">phrase</text>
</a>
</g>
</g>
<!-- nontype&#45;&#45;phrase -->
<g id="edge16" class="edge"><title>nontype&#45;&#45;phrase</title>
<path fill="none" stroke="black" d="M563.114,-151.41C590.484,-141.466 633.77,-125.018 670,-108 671.222,-107.426 672.463,-106.825 673.711,-106.206"/>
</g>
<!-- pojo -->
<g id="node18" class="node"><title>pojo</title>
<g id="a_node18"><a xlink:href="/about-avail/documentation/type-system/types-pojo.html" xlink:title="pojo" target="_top">
<text text-anchor="middle" x="756" y="-87.6" font-family="Consolas" font-size="8.00" fill="#0000a0">pojo</text>
</a>
</g>
</g>
<!-- nontype&#45;&#45;pojo -->
<g id="edge17" class="edge"><title>nontype&#45;&#45;pojo</title>
<path fill="none" stroke="black" d="M563.249,-155.417C600.572,-147.31 669.312,-130.729 725,-108 726.25,-107.49 727.515,-106.942 728.781,-106.366"/>
</g>
<!-- set -->
<g id="node19" class="node"><title>set</title>
<g id="a_node19"><a xlink:href="/about-avail/documentation/type-system/types-set.html" xlink:title="set" target="_top">
<text text-anchor="middle" x="811" y="-87.6" font-family="Consolas" font-size="8.00" fill="#0000a0">set</text>
</a>
</g>
</g>
<!-- nontype&#45;&#45;set -->
<g id="edge18" class="edge"><title>nontype&#45;&#45;set</title>
<path fill="none" stroke="black" d="M563.074,-157.711C608.874,-151.581 704.07,-136.385 780,-108 781.265,-107.527 782.541,-107.01 783.818,-106.46"/>
</g>
<!-- token -->
<g id="node20" class="node"><title>token</title>
<g id="a_node20"><a xlink:href="/about-avail/documentation/type-system/types-token.html" xlink:title="token" target="_top">
<text text-anchor="middle" x="866" y="-87.6" font-family="Consolas" font-size="8.00" fill="#0000a0">token</text>
</a>
</g>
</g>
<!-- nontype&#45;&#45;token -->
<g id="edge19" class="edge"><title>nontype&#45;&#45;token</title>
<path fill="none" stroke="black" d="M563.143,-159.156C616.563,-154.888 738.53,-141.965 835,-108 836.274,-107.552 837.557,-107.055 838.84,-106.521"/>
</g>
<!-- tuple -->
<g id="node21" class="node"><title>tuple</title>
<g id="a_node21"><a xlink:href="/about-avail/documentation/type-system/types-tuple.html" xlink:title="tuple" target="_top">
<text text-anchor="middle" x="921" y="-87.6" font-family="Consolas" font-size="8.00" fill="#0000a0">tuple</text>
</a>
</g>
</g>
<!-- nontype&#45;&#45;tuple -->
<g id="edge20" class="edge"><title>nontype&#45;&#45;tuple</title>
<path fill="none" stroke="black" d="M563.405,-160.162C623.906,-157.616 772.813,-147.5 890,-108 891.28,-107.569 892.568,-107.086 893.855,-106.564"/>
</g>
<!-- variable -->
<g id="node22" class="node"><title>variable</title>
<g id="a_node22"><a xlink:href="/about-avail/documentation/type-system/types-variable.html" xlink:title="variable" target="_top">
<text text-anchor="middle" x="976" y="-87.6" font-family="Consolas" font-size="8.00" fill="#0000a0">variable</text>
</a>
</g>
</g>
<!-- nontype&#45;&#45;variable -->
<g id="edge21" class="edge"><title>nontype&#45;&#45;variable</title>
<path fill="none" stroke="black" d="M563.095,-158.81C642.451,-152.189 873.269,-131.392 945,-108 946.284,-107.581 947.576,-107.109 948.865,-106.596"/>
</g>
<!-- ⊥ -->
<g id="node23" class="node"><title>⊥</title>
<g id="a_node23"><a xlink:href="/about-avail/documentation/type-system/types-bottom.html" xlink:title="⊥" target="_top">
<text text-anchor="middle" x="536" y="-15.6" font-family="Consolas" font-size="8.00" fill="#0000a0">⊥</text>
</a>
</g>
</g>
<!-- type&#45;&#45;⊥ -->
<g id="edge22" class="edge"><title>type&#45;&#45;⊥</title>
<path fill="none" stroke="#d0d0d0" stroke-dasharray="5,2" d="M825.084,-158.79C891.307,-152.427 1052.3,-130.619 1000,-72 970.749,-39.2179 658.404,-23.9538 563.314,-20.0438"/>
</g>
<!-- atom&#45;&#45;⊥ -->
<g id="edge23" class="edge"><title>atom&#45;&#45;⊥</title>
<path fill="none" stroke="#d0d0d0" stroke-dasharray="5,2" d="M54.125,-73.3748C55.4171,-72.8693 56.7124,-72.4068 58,-72 223.202,-19.8059 434.636,-17.4031 508.819,-18.366"/>
</g>
<!-- character&#45;&#45;⊥ -->
<g id="edge24" class="edge"><title>character&#45;&#45;⊥</title>
<path fill="none" stroke="#d0d0d0" stroke-dasharray="5,2" d="M109.132,-73.3977C110.422,-72.886 111.715,-72.416 113,-72 256.642,-25.492 439.964,-19.4506 508.512,-18.9152"/>
</g>
<!-- continuation&#45;&#45;⊥ -->
<g id="edge25" class="edge"><title>continuation&#45;&#45;⊥</title>
<path fill="none" stroke="#d0d0d0" stroke-dasharray="5,2" d="M165.845,-73.1483C166.898,-72.7352 167.952,-72.3502 169,-72 291.42,-31.0897 447.201,-21.751 508.993,-19.6246"/>
</g>
<!-- fiber&#45;&#45;⊥ -->
<g id="edge26" class="edge"><title>fiber&#45;&#45;⊥</title>
<path fill="none" stroke="#d0d0d0" stroke-dasharray="5,2" d="M221.156,-73.4685C222.44,-72.9376 223.725,-72.4442 225,-72 325.86,-36.8658 453.513,-24.5049 508.621,-20.6091"/>
</g>
<!-- function&#45;&#45;⊥ -->
<g id="edge27" class="edge"><title>function&#45;&#45;⊥</title>
<path fill="none" stroke="#d0d0d0" stroke-dasharray="5,2" d="M276.176,-73.5248C277.455,-72.9787 278.733,-72.4667 280,-72 360.283,-42.4326 461.134,-27.6723 508.736,-21.9442"/>
</g>
<!-- function implementation&#45;&#45;⊥ -->
<g id="edge28" class="edge"><title>function implementation&#45;&#45;⊥</title>
<path fill="none" stroke="#d0d0d0" stroke-dasharray="5,2" d="M343.38,-73.378C344.596,-72.8999 345.806,-72.4388 347,-72 403.459,-51.2598 471.907,-33.925 508.974,-25.1587"/>
</g>
<!-- map&#45;&#45;⊥ -->
<g id="edge29" class="edge"><title>map&#45;&#45;⊥</title>
<path fill="none" stroke="#d0d0d0" stroke-dasharray="5,2" d="M398.289,-73.7941C399.537,-73.1751 400.778,-72.5741 402,-72 438.23,-54.9823 481.516,-38.5336 508.886,-28.5902"/>
</g>
<!-- method&#45;&#45;⊥ -->
<g id="edge30" class="edge"><title>method&#45;&#45;⊥</title>
<path fill="none" stroke="#d0d0d0" stroke-dasharray="5,2" d="M452.909,-71.8761C469.955,-61.0287 491.922,-47.0498 508.988,-36.1898"/>
</g>
<!-- method definition&#45;&#45;⊥ -->
<g id="edge31" class="edge"><title>method definition&#45;&#45;⊥</title>
<path fill="none" stroke="#d0d0d0" stroke-dasharray="5,2" d="M494.596,-71.6966C503.121,-60.8463 514.065,-46.9167 522.561,-36.1043"/>
</g>
<!-- module&#45;&#45;⊥ -->
<g id="edge32" class="edge"><title>module&#45;&#45;⊥</title>
<path fill="none" stroke="#d0d0d0" stroke-dasharray="5,2" d="M536,-71.6966C536,-60.8463 536,-46.9167 536,-36.1043"/>
</g>
<!-- number&#45;&#45;⊥ -->
<g id="edge33" class="edge"><title>number&#45;&#45;⊥</title>
<path fill="none" stroke="#d0d0d0" stroke-dasharray="5,2" d="M577.404,-71.6966C568.879,-60.8463 557.935,-46.9167 549.439,-36.1043"/>
</g>
<!-- object&#45;&#45;⊥ -->
<g id="edge34" class="edge"><title>object&#45;&#45;⊥</title>
<path fill="none" stroke="#d0d0d0" stroke-dasharray="5,2" d="M619.091,-71.8761C602.045,-61.0287 580.078,-47.0498 563.012,-36.1898"/>
</g>
<!-- phrase&#45;&#45;⊥ -->
<g id="edge35" class="edge"><title>phrase&#45;&#45;⊥</title>
<path fill="none" stroke="#d0d0d0" stroke-dasharray="5,2" d="M673.711,-73.7941C672.463,-73.1751 671.222,-72.5741 670,-72 633.77,-54.9823 590.484,-38.5336 563.114,-28.5902"/>
</g>
<!-- pojo&#45;&#45;⊥ -->
<g id="edge36" class="edge"><title>pojo&#45;&#45;⊥</title>
<path fill="none" stroke="#d0d0d0" stroke-dasharray="5,2" d="M728.781,-73.6341C727.515,-73.0584 726.25,-72.5103 725,-72 669.312,-49.2714 600.572,-32.6901 563.249,-24.5835"/>
</g>
<!-- set&#45;&#45;⊥ -->
<g id="edge37" class="edge"><title>set&#45;&#45;⊥</title>
<path fill="none" stroke="#d0d0d0" stroke-dasharray="5,2" d="M783.818,-73.5403C782.541,-72.99 781.265,-72.4729 780,-72 704.07,-43.6148 608.874,-28.4186 563.074,-22.289"/>
</g>
<!-- token&#45;&#45;⊥ -->
<g id="edge38" class="edge"><title>token&#45;&#45;⊥</title>
<path fill="none" stroke="#d0d0d0" stroke-dasharray="5,2" d="M838.84,-73.4791C837.557,-72.9454 836.274,-72.4484 835,-72 738.53,-38.0355 616.563,-25.1116 563.143,-20.8438"/>
</g>
<!-- tuple&#45;&#45;⊥ -->
<g id="edge39" class="edge"><title>tuple&#45;&#45;⊥</title>
<path fill="none" stroke="#d0d0d0" stroke-dasharray="5,2" d="M893.855,-73.4362C892.568,-72.9141 891.28,-72.4313 890,-72 772.813,-32.4999 623.906,-22.3841 563.405,-19.8377"/>
</g>
<!-- variable&#45;&#45;⊥ -->
<g id="edge40" class="edge"><title>variable&#45;&#45;⊥</title>
<path fill="none" stroke="#d0d0d0" stroke-dasharray="5,2" d="M948.865,-73.4045C947.576,-72.8909 946.284,-72.4187 945,-72 806.473,-26.8249 629.735,-19.9804 563.071,-19.073"/>
</g>
</g>
</svg>
