<?xml version="1.0" encoding="UTF-8" standalone="no"?>
<!DOCTYPE svg PUBLIC "-//W3C//DTD SVG 1.1//EN"
 "http://www.w3.org/Graphics/SVG/1.1/DTD/svg11.dtd">
<!-- Generated by graphviz version 2.36.0 (20140111.2315)
 -->
<!-- Title: An overview of the Avail&#39;s metatypes. Pages: 1 -->
<svg width="1187pt" height="548pt"
 viewBox="0.00 0.00 1187.00 548.00" xmlns="http://www.w3.org/2000/svg" xmlns:xlink="http://www.w3.org/1999/xlink">
<g id="graph0" class="graph" transform="scale(1 1) rotate(0) translate(4 544)">
<title>An overview of the Avail&#39;s metatypes.</title>
<polygon fill="white" stroke="none" points="-4,4 -4,-544 1183,-544 1183,4 -4,4"/>
<!-- ⊤ -->
<g id="node1" class="node"><title>⊤</title>
<g id="a_node1"><a xlink:href="/about-avail/documentation/type-system/types-top.html" xlink:title="⊤" target="_top">
<text text-anchor="middle" x="54" y="-519.6" font-family="Consolas" font-size="8.00" fill="#0000a0">⊤</text>
</a>
</g>
</g>
<!-- any -->
<g id="node2" class="node"><title>any</title>
<g id="a_node2"><a xlink:href="/about-avail/documentation/type-system/types-any.html" xlink:title="any" target="_top">
<text text-anchor="middle" x="54" y="-447.6" font-family="Consolas" font-size="8.00" fill="#0000a0">any</text>
</a>
</g>
</g>
<!-- ⊤&#45;&#45;any -->
<g id="edge1" class="edge"><title>⊤&#45;&#45;any</title>
<path fill="none" stroke="black" d="M54,-503.697C54,-492.846 54,-478.917 54,-468.104"/>
</g>
<!-- nontype -->
<g id="node3" class="node"><title>nontype</title>
<g id="a_node3"><a xlink:href="/about-avail/documentation/type-system/types-nontype.html" xlink:title="nontype" target="_top">
<text text-anchor="middle" x="27" y="-303.6" font-family="Consolas" font-size="8.00" fill="#0000a0">nontype</text>
</a>
</g>
</g>
<!-- any&#45;&#45;nontype -->
<g id="edge2" class="edge"><title>any&#45;&#45;nontype</title>
<path fill="none" stroke="black" d="M49.4155,-431.897C46.7406,-421.554 43.4261,-408.075 41,-396 36.0086,-371.157 31.7281,-342.116 29.2576,-324.138"/>
</g>
<!-- type -->
<g id="node4" class="node"><title>type</title>
<g id="a_node4"><a xlink:href="/about-avail/documentation/type-system/types-type.html" xlink:title="type = {⊤}ᵀ" target="_top">
<ellipse fill="#e2e8ff" stroke="none" cx="77" cy="-378" rx="35.1613" ry="18"/>
<text text-anchor="middle" x="77" y="-375.6" font-family="Consolas" font-size="8.00" fill="#0000a0">type = {⊤}ᵀ</text>
</a>
</g>
</g>
<!-- any&#45;&#45;type -->
<g id="edge3" class="edge"><title>any&#45;&#45;type</title>
<path fill="none" stroke="black" d="M59.6854,-431.697C63.2505,-420.846 67.8274,-406.917 71.38,-396.104"/>
</g>
<!-- ⊥ -->
<g id="node27" class="node"><title>⊥</title>
<g id="a_node27"><a xlink:href="/about-avail/documentation/type-system/types-bottom.html" xlink:title="⊥" target="_top">
<text text-anchor="middle" x="271" y="-15.6" font-family="Consolas" font-size="8.00" fill="#0000a0">⊥</text>
</a>
</g>
</g>
<!-- nontype&#45;&#45;⊥ -->
<g id="edge42" class="edge"><title>nontype&#45;&#45;⊥</title>
<path fill="none" stroke="#e5e5e5" stroke-dasharray="5,2" d="M22.3162,-287.885C14.8095,-256.603 3.62884,-189.255 32,-144 80.1276,-67.2314 192.046,-35.0999 243.825,-23.9865"/>
</g>
<!-- any meta -->
<g id="node5" class="node"><title>any meta</title>
<text text-anchor="middle" x="82" y="-303.6" font-family="Consolas" font-size="8.00" fill="#0000a0">{any}ᵀ</text>
</g>
<!-- type&#45;&#45;any meta -->
<g id="edge4" class="edge"><title>type&#45;&#45;any meta</title>
<path fill="none" stroke="black" d="M78.236,-359.697C79.011,-348.846 80.0059,-334.917 80.7783,-324.104"/>
</g>
<!-- meta -->
<g id="node13" class="node"><title>meta</title>
<text text-anchor="middle" x="81" y="-231.6" font-family="Consolas" font-size="8.00" fill="#0000a0">{type}ᵀ = {{⊤}ᵀ}ᵀ</text>
</g>
<!-- any meta&#45;&#45;meta -->
<g id="edge5" class="edge"><title>any meta&#45;&#45;meta</title>
<path fill="none" stroke="black" d="M81.7528,-287.697C81.5978,-276.846 81.3988,-262.917 81.2443,-252.104"/>
</g>
<!-- nontype meta -->
<g id="node19" class="node"><title>nontype meta</title>
<text text-anchor="middle" x="620" y="-231.6" font-family="Consolas" font-size="8.00" fill="#0000a0">{nontype}ᵀ</text>
</g>
<!-- any meta&#45;&#45;nontype meta -->
<g id="edge6" class="edge"><title>any meta&#45;&#45;nontype meta</title>
<path fill="none" stroke="black" d="M109.048,-301.481C200.034,-289.642 494.64,-251.311 589.951,-238.91"/>
</g>
<!-- atom meta -->
<g id="node6" class="node"><title>atom meta</title>
<text text-anchor="middle" x="59" y="-159.6" font-family="Consolas" font-size="8.00" fill="#0000a0">{atom}ᵀ</text>
</g>
<!-- ⊥ meta -->
<g id="node26" class="node"><title>⊥ meta</title>
<text text-anchor="middle" x="515" y="-87.6" font-family="Consolas" font-size="8.00" fill="#0000a0">{⊥}ᵀ</text>
</g>
<!-- atom meta&#45;&#45;⊥ meta -->
<g id="edge25" class="edge"><title>atom meta&#45;&#45;⊥ meta</title>
<path fill="none" stroke="#d0d0d0" stroke-dasharray="5,2" d="M86.132,-145.397C87.4222,-144.885 88.7152,-144.416 90,-144 234.678,-97.2029 419.414,-91.3508 487.886,-90.8901"/>
</g>
<!-- character meta -->
<g id="node7" class="node"><title>character meta</title>
<text text-anchor="middle" x="119" y="-159.6" font-family="Consolas" font-size="8.00" fill="#0000a0">{character}ᵀ</text>
</g>
<!-- character meta&#45;&#45;⊥ meta -->
<g id="edge26" class="edge"><title>character meta&#45;&#45;⊥ meta</title>
<path fill="none" stroke="#d0d0d0" stroke-dasharray="5,2" d="M151.403,-145.174C152.608,-144.754 153.809,-144.36 155,-144 275.636,-107.517 426.879,-95.7092 487.762,-92.2741"/>
</g>
<!-- continuation meta -->
<g id="node8" class="node"><title>continuation meta</title>
<text text-anchor="middle" x="189" y="-159.6" font-family="Consolas" font-size="8.00" fill="#0000a0">{continuation}ᵀ</text>
</g>
<!-- continuation meta&#45;&#45;⊥ meta -->
<g id="edge27" class="edge"><title>continuation meta&#45;&#45;⊥ meta</title>
<path fill="none" stroke="#d0d0d0" stroke-dasharray="5,2" d="M226.423,-145.116C227.624,-144.724 228.818,-144.351 230,-144 322.636,-116.511 436.631,-100.443 487.838,-94.1271"/>
</g>
<!-- fiber meta -->
<g id="node9" class="node"><title>fiber meta</title>
<text text-anchor="middle" x="254" y="-159.6" font-family="Consolas" font-size="8.00" fill="#0000a0">{fiber}ᵀ</text>
</g>
<!-- fiber meta&#45;&#45;⊥ meta -->
<g id="edge28" class="edge"><title>fiber meta&#45;&#45;⊥ meta</title>
<path fill="none" stroke="#d0d0d0" stroke-dasharray="5,2" d="M281.19,-145.56C282.464,-145.005 283.738,-144.481 285,-144 355.648,-117.081 443.928,-101.435 487.73,-94.7941"/>
</g>
<!-- function meta -->
<g id="node10" class="node"><title>function meta</title>
<text text-anchor="middle" x="313" y="-159.6" font-family="Consolas" font-size="8.00" fill="#0000a0">{function}ᵀ</text>
</g>
<!-- function meta&#45;&#45;⊥ meta -->
<g id="edge29" class="edge"><title>function meta&#45;&#45;⊥ meta</title>
<path fill="none" stroke="#d0d0d0" stroke-dasharray="5,2" d="M343.664,-145.396C344.785,-144.913 345.899,-144.446 347,-144 395.477,-124.377 454.151,-107.322 487.769,-98.1589"/>
</g>
<!-- function implementation meta -->
<g id="node11" class="node"><title>function implementation meta</title>
<text text-anchor="middle" x="402" y="-159.6" font-family="Consolas" font-size="8.00" fill="#0000a0">{function implementation}ᵀ</text>
</g>
<!-- function implementation meta&#45;&#45;⊥ meta -->
<g id="edge30" class="edge"><title>function implementation meta&#45;&#45;⊥ meta</title>
<path fill="none" stroke="#d0d0d0" stroke-dasharray="5,2" d="M429.643,-143.876C447.284,-132.948 470.057,-118.841 487.642,-107.947"/>
</g>
<!-- map meta -->
<g id="node12" class="node"><title>map meta</title>
<text text-anchor="middle" x="487" y="-159.6" font-family="Consolas" font-size="8.00" fill="#0000a0">{map}ᵀ</text>
</g>
<!-- map meta&#45;&#45;⊥ meta -->
<g id="edge31" class="edge"><title>map meta&#45;&#45;⊥ meta</title>
<path fill="none" stroke="#d0d0d0" stroke-dasharray="5,2" d="M493.921,-143.697C498.261,-132.846 503.833,-118.917 508.158,-108.104"/>
</g>
<!-- meta&#45;&#45;⊥ meta -->
<g id="edge32" class="edge"><title>meta&#45;&#45;⊥ meta</title>
<path fill="none" stroke="#d0d0d0" stroke-dasharray="5,2" d="M60.7987,-215.709C40.7972,-196.544 15.7368,-165.507 35,-144 65.4152,-110.042 390.63,-95.5286 487.76,-91.9315"/>
</g>
<!-- method meta -->
<g id="node14" class="node"><title>method meta</title>
<text text-anchor="middle" x="544" y="-159.6" font-family="Consolas" font-size="8.00" fill="#0000a0">{method}ᵀ</text>
</g>
<!-- method meta&#45;&#45;⊥ meta -->
<g id="edge33" class="edge"><title>method meta&#45;&#45;⊥ meta</title>
<path fill="none" stroke="#d0d0d0" stroke-dasharray="5,2" d="M536.831,-143.697C532.336,-132.846 526.565,-118.917 522.086,-108.104"/>
</g>
<!-- method definition meta -->
<g id="node15" class="node"><title>method definition meta</title>
<text text-anchor="middle" x="620" y="-159.6" font-family="Consolas" font-size="8.00" fill="#0000a0">{method definition}ᵀ</text>
</g>
<!-- method definition meta&#45;&#45;⊥ meta -->
<g id="edge34" class="edge"><title>method definition meta&#45;&#45;⊥ meta</title>
<path fill="none" stroke="#d0d0d0" stroke-dasharray="5,2" d="M594.314,-143.876C578.043,-133.029 557.075,-119.05 540.785,-108.19"/>
</g>
<!-- module meta -->
<g id="node16" class="node"><title>module meta</title>
<text text-anchor="middle" x="696" y="-159.6" font-family="Consolas" font-size="8.00" fill="#0000a0">{module}ᵀ</text>
</g>
<!-- module meta&#45;&#45;⊥ meta -->
<g id="edge35" class="edge"><title>module meta&#45;&#45;⊥ meta</title>
<path fill="none" stroke="#d0d0d0" stroke-dasharray="5,2" d="M666.587,-145.604C665.381,-145.051 664.182,-144.514 663,-144 621.696,-126.058 572.153,-109.227 542.151,-99.5286"/>
</g>
<!-- number meta -->
<g id="node17" class="node"><title>number meta</title>
<text text-anchor="middle" x="756" y="-159.6" font-family="Consolas" font-size="8.00" fill="#0000a0">{number}ᵀ</text>
</g>
<!-- object meta -->
<g id="node18" class="node"><title>object meta</title>
<text text-anchor="middle" x="814" y="-159.6" font-family="Consolas" font-size="8.00" fill="#0000a0">{object}ᵀ</text>
</g>
<!-- object meta&#45;&#45;⊥ meta -->
<g id="edge36" class="edge"><title>object meta&#45;&#45;⊥ meta</title>
<path fill="none" stroke="#d0d0d0" stroke-dasharray="5,2" d="M786.829,-145.511C785.549,-144.968 784.269,-144.461 783,-144 698.3,-113.233 591.701,-98.9413 542.365,-93.6169"/>
</g>
<!-- nontype meta&#45;&#45;atom meta -->
<g id="edge7" class="edge"><title>nontype meta&#45;&#45;atom meta</title>
<path fill="none" stroke="black" d="M589.858,-231.572C492.087,-226.691 184.618,-209.335 90,-180 88.7102,-179.6 87.4131,-179.143 86.1196,-178.643"/>
</g>
<!-- nontype meta&#45;&#45;character meta -->
<g id="edge8" class="edge"><title>nontype meta&#45;&#45;character meta</title>
<path fill="none" stroke="black" d="M589.97,-232.945C515.044,-232.092 314.42,-225.382 155,-180 153.803,-179.659 152.597,-179.283 151.388,-178.876"/>
</g>
<!-- nontype meta&#45;&#45;continuation meta -->
<g id="edge9" class="edge"><title>nontype meta&#45;&#45;continuation meta</title>
<path fill="none" stroke="black" d="M589.629,-231.538C523.298,-227.768 360.935,-215.402 230,-180 228.81,-179.678 227.608,-179.33 226.401,-178.961"/>
</g>
<!-- nontype meta&#45;&#45;fiber meta -->
<g id="edge10" class="edge"><title>nontype meta&#45;&#45;fiber meta</title>
<path fill="none" stroke="black" d="M590.052,-231.705C530.448,-228.386 393.376,-217.031 285,-180 283.722,-179.563 282.435,-179.076 281.15,-178.551"/>
</g>
<!-- nontype meta&#45;&#45;function meta -->
<g id="edge11" class="edge"><title>nontype meta&#45;&#45;function meta</title>
<path fill="none" stroke="black" d="M589.823,-229.858C538.748,-223.945 432.48,-209.06 347,-180 345.875,-179.618 344.741,-179.205 343.603,-178.768"/>
</g>
<!-- nontype meta&#45;&#45;function implementation meta -->
<g id="edge12" class="edge"><title>nontype meta&#45;&#45;function implementation meta</title>
<path fill="none" stroke="black" d="M589.688,-223.267C554.941,-212.11 497.351,-193.617 455.111,-180.054"/>
</g>
<!-- nontype meta&#45;&#45;map meta -->
<g id="edge13" class="edge"><title>nontype meta&#45;&#45;map meta</title>
<path fill="none" stroke="black" d="M590.004,-217.638C569.634,-207.15 542.118,-192.877 518,-180 516.7,-179.306 515.372,-178.593 514.032,-177.87"/>
</g>
<!-- nontype meta&#45;&#45;method meta -->
<g id="edge14" class="edge"><title>nontype meta&#45;&#45;method meta</title>
<path fill="none" stroke="black" d="M601.213,-215.697C589.433,-204.846 574.31,-190.917 562.57,-180.104"/>
</g>
<!-- nontype meta&#45;&#45;method definition meta -->
<g id="edge15" class="edge"><title>nontype meta&#45;&#45;method definition meta</title>
<path fill="none" stroke="black" d="M620,-215.697C620,-204.846 620,-190.917 620,-180.104"/>
</g>
<!-- nontype meta&#45;&#45;module meta -->
<g id="edge16" class="edge"><title>nontype meta&#45;&#45;module meta</title>
<path fill="none" stroke="black" d="M638.787,-215.697C650.567,-204.846 665.69,-190.917 677.43,-180.104"/>
</g>
<!-- nontype meta&#45;&#45;number meta -->
<g id="edge17" class="edge"><title>nontype meta&#45;&#45;number meta</title>
<path fill="none" stroke="black" d="M650.183,-217.465C672.877,-205.784 703.811,-189.862 726.369,-178.251"/>
</g>
<!-- nontype meta&#45;&#45;object meta -->
<g id="edge18" class="edge"><title>nontype meta&#45;&#45;object meta</title>
<path fill="none" stroke="black" d="M650.062,-225.055C683.245,-215.867 737.931,-199.481 783,-180 784.24,-179.464 785.495,-178.895 786.754,-178.302"/>
</g>
<!-- phrase meta -->
<g id="node20" class="node"><title>phrase meta</title>
<text text-anchor="middle" x="870" y="-159.6" font-family="Consolas" font-size="8.00" fill="#0000a0">{phrase}ᵀ</text>
</g>
<!-- nontype meta&#45;&#45;phrase meta -->
<g id="edge19" class="edge"><title>nontype meta&#45;&#45;phrase meta</title>
<path fill="none" stroke="black" d="M649.974,-228.164C692.667,-220.731 773.016,-204.714 838,-180 839.529,-179.419 841.077,-178.78 842.625,-178.102"/>
</g>
<!-- pojo meta -->
<g id="node21" class="node"><title>pojo meta</title>
<text text-anchor="middle" x="926" y="-159.6" font-family="Consolas" font-size="8.00" fill="#0000a0">{pojo}ᵀ</text>
</g>
<!-- nontype meta&#45;&#45;pojo meta -->
<g id="edge20" class="edge"><title>nontype meta&#45;&#45;pojo meta</title>
<path fill="none" stroke="black" d="M650.11,-230.288C701.582,-224.977 809.237,-210.918 895,-180 896.27,-179.542 897.551,-179.037 898.832,-178.497"/>
</g>
<!-- token meta -->
<g id="node22" class="node"><title>token meta</title>
<text text-anchor="middle" x="981" y="-159.6" font-family="Consolas" font-size="8.00" fill="#0000a0">{token}ᵀ</text>
</g>
<!-- nontype meta&#45;&#45;token meta -->
<g id="edge21" class="edge"><title>nontype meta&#45;&#45;token meta</title>
<path fill="none" stroke="black" d="M649.956,-231.606C708.911,-228.128 843.519,-216.523 950,-180 951.277,-179.562 952.564,-179.074 953.849,-178.547"/>
</g>
<!-- tuple meta -->
<g id="node23" class="node"><title>tuple meta</title>
<text text-anchor="middle" x="1036" y="-159.6" font-family="Consolas" font-size="8.00" fill="#0000a0">{tuple}ᵀ</text>
</g>
<!-- nontype meta&#45;&#45;tuple meta -->
<g id="edge22" class="edge"><title>nontype meta&#45;&#45;tuple meta</title>
<path fill="none" stroke="black" d="M650.298,-232.541C716.402,-230.745 877.836,-222.028 1005,-180 1006.28,-179.576 1007.57,-179.1 1008.86,-178.583"/>
</g>
<!-- set meta -->
<g id="node24" class="node"><title>set meta</title>
<text text-anchor="middle" x="1091" y="-159.6" font-family="Consolas" font-size="8.00" fill="#0000a0">{set}ᵀ</text>
</g>
<!-- nontype meta&#45;&#45;set meta -->
<g id="edge23" class="edge"><title>nontype meta&#45;&#45;set meta</title>
<path fill="none" stroke="black" d="M650.182,-233.265C722.686,-233.074 911.656,-227.64 1060,-180 1061.29,-179.587 1062.58,-179.12 1063.87,-178.61"/>
</g>
<!-- variable meta -->
<g id="node25" class="node"><title>variable meta</title>
<text text-anchor="middle" x="1149" y="-159.6" font-family="Consolas" font-size="8.00" fill="#0000a0">{variable}ᵀ</text>
</g>
<!-- nontype meta&#45;&#45;variable meta -->
<g id="edge24" class="edge"><title>nontype meta&#45;&#45;variable meta</title>
<path fill="none" stroke="black" d="M650.004,-233.458C728.262,-233.874 944.354,-230.024 1115,-180 1116.27,-179.629 1117.54,-179.212 1118.82,-178.758"/>
</g>
<!-- phrase meta&#45;&#45;⊥ meta -->
<g id="edge37" class="edge"><title>phrase meta&#45;&#45;⊥ meta</title>
<path fill="none" stroke="#d0d0d0" stroke-dasharray="5,2" d="M842.676,-145.757C841.115,-145.115 839.55,-144.523 838,-144 732.199,-108.293 598.515,-96.1757 542.088,-92.4717"/>
</g>
<!-- pojo meta&#45;&#45;⊥ meta -->
<g id="edge38" class="edge"><title>pojo meta&#45;&#45;⊥ meta</title>
<path fill="none" stroke="#d0d0d0" stroke-dasharray="5,2" d="M898.86,-145.42C897.572,-144.902 896.282,-144.425 895,-144 767.597,-101.767 605.328,-93.1823 542.012,-91.4412"/>
</g>
<!-- token meta&#45;&#45;⊥ meta -->
<g id="edge39" class="edge"><title>token meta&#45;&#45;⊥ meta</title>
<path fill="none" stroke="#d0d0d0" stroke-dasharray="5,2" d="M953.869,-145.392C952.579,-144.882 951.285,-144.414 950,-144 801.539,-96.211 611.904,-90.9728 542.238,-90.7823"/>
</g>
<!-- set meta&#45;&#45;⊥ meta -->
<g id="edge40" class="edge"><title>set meta&#45;&#45;⊥ meta</title>
<path fill="none" stroke="#d0d0d0" stroke-dasharray="5,2" d="M1063.88,-145.353C1062.59,-144.853 1061.29,-144.398 1060,-144 961.44,-113.59 638.376,-96.6529 542.23,-92.1981"/>
</g>
<!-- variable meta&#45;&#45;⊥ meta -->
<g id="edge41" class="edge"><title>variable meta&#45;&#45;⊥ meta</title>
<path fill="none" stroke="#d0d0d0" stroke-dasharray="5,2" d="M1118.83,-145.212C1117.55,-144.767 1116.27,-144.36 1115,-144 1004.82,-112.81 644.056,-96.1972 542.073,-92.0467"/>
</g>
<!-- ⊥ meta&#45;&#45;⊥ -->
<g id="edge43" class="edge"><title>⊥ meta&#45;&#45;⊥</title>
<path fill="none" stroke="#e5e5e5" stroke-dasharray="5,2" d="M487.955,-81.2413C441.054,-67.7859 345.152,-40.273 298.166,-26.7934"/>
</g>
</g>
</svg>
