<svg xmlns="http://www.w3.org/2000/svg" width="512" height="52"><defs><style type="text/css">
    @namespace "http://www.w3.org/2000/svg";
    .line                 {fill: none; stroke: #332900;}
    .bold-line            {stroke: #141000; shape-rendering: crispEdges; stroke-width: 2; }
    .thin-line            {stroke: #1F1800; shape-rendering: crispEdges}
    .filled               {fill: #332900; stroke: none;}
    text.terminal         {font-family: Verdana, Sans-serif;
                            font-size: 12px;
                            fill: #141000;
                            font-weight: bold;
                          }
    text.nonterminal      {font-family: Verdana, Sans-serif;
                            font-size: 12px;
                            fill: #1A1400;
                          }
    text.regexp           {font-family: Verdana, Sans-serif;
                            font-size: 12px;
                            fill: #1F1800;
                          }
    rect, circle, polygon {fill: #332900; stroke: #332900;}
    rect.terminal         {fill: #FFDB4D; stroke: #332900;}
    rect.nonterminal      {fill: #FFEC9E; stroke: #332900;}
    rect.text             {fill: none; stroke: none;}    
    polygon.regexp        {fill: #FFF4C7; stroke: #332900;}
  </style></defs><polygon points="9 17 1 13 1 21"/><polygon points="17 17 9 13 9 21"/><a xmlns:xlink="http://www.w3.org/1999/xlink" xlink:href="#module" xlink:title="module"><rect x="31" y="3" width="66" height="32"/><rect x="29" y="1" width="66" height="32" class="nonterminal"/><text class="nonterminal" x="39" y="21">module</text></a><a xmlns:xlink="http://www.w3.org/1999/xlink" xlink:href="#VersionList" xlink:title="VersionList"><rect x="137" y="3" width="88" height="32"/><rect x="135" y="1" width="88" height="32" class="nonterminal"/><text class="nonterminal" x="145" y="21">VersionList</text></a><rect x="285" y="3" width="30" height="32" rx="10"/><rect x="283" y="1" width="30" height="32" class="terminal" rx="10"/><text class="terminal" x="293" y="21">=</text><a xmlns:xlink="http://www.w3.org/1999/xlink" xlink:href="#FilteredImportList" xlink:title="FilteredImportList"><rect x="335" y="3" width="130" height="32"/><rect x="333" y="1" width="130" height="32" class="nonterminal"/><text class="nonterminal" x="343" y="21">FilteredImportList</text></a><svg:path xmlns:svg="http://www.w3.org/2000/svg" class="line" d="m17 17 h2 m0 0 h10 m66 0 h10 m20 0 h10 m88 0 h10 m-128 0 h20 m108 0 h20 m-148 0 q10 0 10 10 m128 0 q0 -10 10 -10 m-138 10 v14 m128 0 v-14 m-128 14 q0 10 10 10 m108 0 q10 0 10 -10 m-118 10 h10 m0 0 h98 m40 -34 h10 m30 0 h10 m0 0 h10 m130 0 h10 m-220 0 h20 m200 0 h20 m-240 0 q10 0 10 10 m220 0 q0 -10 10 -10 m-230 10 v14 m220 0 v-14 m-220 14 q0 10 10 10 m200 0 q10 0 10 -10 m-210 10 h10 m0 0 h190 m23 -34 h-3"/><polygon points="503 17 511 13 511 21"/><polygon points="503 17 495 13 495 21"/></svg>
