<svg xmlns="http://www.w3.org/2000/svg" width="644" height="68"><defs><style type="text/css">
    @namespace "http://www.w3.org/2000/svg";
    .line                 {fill: none; stroke: #332900;}
    .bold-line            {stroke: #141000; shape-rendering: crispEdges; stroke-width: 2; }
    .thin-line            {stroke: #1F1800; shape-rendering: crispEdges}
    .filled               {fill: #332900; stroke: none;}
    text.terminal         {font-family: Verdana, Sans-serif;
                            font-size: 12px;
                            fill: #141000;
                            font-weight: bold;
                          }
    text.nonterminal      {font-family: Verdana, Sans-serif;
                            font-size: 12px;
                            fill: #1A1400;
                          }
    text.regexp           {font-family: Verdana, Sans-serif;
                            font-size: 12px;
                            fill: #1F1800;
                          }
    rect, circle, polygon {fill: #332900; stroke: #332900;}
    rect.terminal         {fill: #FFDB4D; stroke: #332900;}
    rect.nonterminal      {fill: #FFEC9E; stroke: #332900;}
    rect.text             {fill: none; stroke: none;}    
    polygon.regexp        {fill: #FFF4C7; stroke: #332900;}
  </style></defs><polygon points="9 33 1 29 1 37"/><polygon points="17 33 9 29 9 37"/><rect x="31" y="19" width="28" height="32" rx="10"/><rect x="29" y="17" width="28" height="32" class="terminal" rx="10"/><text class="terminal" x="39" y="37">/</text><a xmlns:xlink="http://www.w3.org/1999/xlink" xlink:href="#moduleRootName" xlink:title="moduleRootName"><rect x="79" y="19" width="130" height="32"/><rect x="77" y="17" width="130" height="32" class="nonterminal"/><text class="nonterminal" x="87" y="37">moduleRootName</text></a><rect x="269" y="19" width="28" height="32" rx="10"/><rect x="267" y="17" width="28" height="32" class="terminal" rx="10"/><text class="terminal" x="277" y="37">/</text><a xmlns:xlink="http://www.w3.org/1999/xlink" xlink:href="#packageName" xlink:title="packageName"><rect x="317" y="19" width="108" height="32"/><rect x="315" y="17" width="108" height="32" class="nonterminal"/><text class="nonterminal" x="325" y="37">packageName</text></a><rect x="485" y="19" width="28" height="32" rx="10"/><rect x="483" y="17" width="28" height="32" class="terminal" rx="10"/><text class="terminal" x="493" y="37">/</text><a xmlns:xlink="http://www.w3.org/1999/xlink" xlink:href="#localName" xlink:title="localName"><rect x="533" y="19" width="84" height="32"/><rect x="531" y="17" width="84" height="32" class="nonterminal"/><text class="nonterminal" x="541" y="37">localName</text></a><svg:path xmlns:svg="http://www.w3.org/2000/svg" class="line" d="m17 33 h2 m0 0 h10 m28 0 h10 m0 0 h10 m130 0 h10 m40 0 h10 m28 0 h10 m0 0 h10 m108 0 h10 m-196 0 l20 0 m-1 0 q-9 0 -9 -10 l0 -12 q0 -10 10 -10 m176 32 l20 0 m-20 0 q10 0 10 -10 l0 -12 q0 -10 -10 -10 m-176 0 h10 m0 0 h166 m-216 32 h20 m216 0 h20 m-256 0 q10 0 10 10 m236 0 q0 -10 10 -10 m-246 10 v14 m236 0 v-14 m-236 14 q0 10 10 10 m216 0 q10 0 10 -10 m-226 10 h10 m0 0 h206 m20 -34 h10 m28 0 h10 m0 0 h10 m84 0 h10 m3 0 h-3"/><polygon points="635 33 643 29 643 37"/><polygon points="635 33 627 29 627 37"/></svg>
