<?xml version="1.0" encoding="UTF-8" standalone="no"?>
<!DOCTYPE svg PUBLIC "-//W3C//DTD SVG 1.1//EN"
 "http://www.w3.org/Graphics/SVG/1.1/DTD/svg11.dtd">
<!-- Generated by graphviz version 2.36.0 (20140111.2315)
 -->
<!-- Title: Feature Visibility: The Module Quartet Pages: 1 -->
<svg width="140pt" height="278pt"
 viewBox="0.00 0.00 140.00 277.60" xmlns="http://www.w3.org/2000/svg" xmlns:xlink="http://www.w3.org/1999/xlink">
<g id="graph0" class="graph" transform="scale(1 1) rotate(0) translate(4 273.6)">
<title>Feature Visibility: The Module Quartet</title>
<polygon fill="white" stroke="none" points="-4,4 -4,-273.6 136,-273.6 136,4 -4,4"/>
<text text-anchor="middle" x="54.9072" y="-54.4" font-family="Helvetica,sans-Serif" font-size="8.00">The dependency graph for</text>
<text text-anchor="middle" x="54.9072" y="-44.8" font-family="Helvetica,sans-Serif" font-size="8.00">Passive Number Adder,</text>
<text text-anchor="middle" x="54.9072" y="-35.2" font-family="Helvetica,sans-Serif" font-size="8.00">Passive Integer Adder,</text>
<text text-anchor="middle" x="54.9072" y="-25.6" font-family="Helvetica,sans-Serif" font-size="8.00">Passive String Adder,</text>
<text text-anchor="middle" x="54.9072" y="-16" font-family="Helvetica,sans-Serif" font-size="8.00">Adder User,</text>
<text text-anchor="middle" x="54.9072" y="-6.4" font-family="Helvetica,sans-Serif" font-size="8.00">and Bad Adder User.</text>
<!-- Passive Number Adder -->
<g id="node1" class="node"><title>Passive Number Adder</title>
<polygon fill="#e8e8e8" stroke="black" points="110.267,-269.6 61.7334,-269.6 61.7334,-225.6 110.267,-225.6 110.267,-269.6"/>
<text text-anchor="middle" x="86" y="-256.6" font-family="Consolas" font-size="10.00" fill="#000000">Passive</text>
<text text-anchor="middle" x="86" y="-244.6" font-family="Consolas" font-size="10.00" fill="#000000">Number</text>
<text text-anchor="middle" x="86" y="-232.6" font-family="Consolas" font-size="10.00" fill="#000000">Adder</text>
</g>
<!-- Passive Integer Adder -->
<g id="node2" class="node"><title>Passive Integer Adder</title>
<polygon fill="#e8e8e8" stroke="black" points="44.994,-189.6 -0.994,-189.6 -0.994,-145.6 44.994,-145.6 44.994,-189.6"/>
<text text-anchor="middle" x="22" y="-176.6" font-family="Consolas" font-size="10.00" fill="#000000">Passive</text>
<text text-anchor="middle" x="22" y="-164.6" font-family="Consolas" font-size="10.00" fill="#000000">Integer</text>
<text text-anchor="middle" x="22" y="-152.6" font-family="Consolas" font-size="10.00" fill="#000000">Adder</text>
</g>
<!-- Passive Integer Adder&#45;&gt;Passive Number Adder -->
<g id="edge1" class="edge"><title>Passive Integer Adder&#45;&gt;Passive Number Adder</title>
<path fill="none" stroke="black" d="M39.4883,-189.914C46.53,-198.496 54.7613,-208.528 62.3255,-217.747"/>
<polygon fill="black" stroke="black" points="59.7055,-220.071 68.7545,-225.582 65.117,-215.631 59.7055,-220.071"/>
</g>
<!-- Passive String Adder -->
<g id="node3" class="node"><title>Passive String Adder</title>
<polygon fill="#e8e8e8" stroke="black" points="108.994,-189.6 63.006,-189.6 63.006,-145.6 108.994,-145.6 108.994,-189.6"/>
<text text-anchor="middle" x="86" y="-176.6" font-family="Consolas" font-size="10.00" fill="#000000">Passive</text>
<text text-anchor="middle" x="86" y="-164.6" font-family="Consolas" font-size="10.00" fill="#000000">String</text>
<text text-anchor="middle" x="86" y="-152.6" font-family="Consolas" font-size="10.00" fill="#000000">Adder</text>
</g>
<!-- Passive String Adder&#45;&gt;Passive Number Adder -->
<g id="edge2" class="edge"><title>Passive String Adder&#45;&gt;Passive Number Adder</title>
<path fill="none" stroke="black" stroke-dasharray="5,2" d="M86,-189.914C86,-197.802 86,-206.916 86,-215.497"/>
<polygon fill="black" stroke="black" points="82.5001,-215.582 86,-225.582 89.5001,-215.582 82.5001,-215.582"/>
</g>
<!-- Adder User -->
<g id="node4" class="node"><title>Adder User</title>
<polygon fill="#e8e8e8" stroke="black" points="70.487,-103.6 29.513,-103.6 29.513,-71.6 70.487,-71.6 70.487,-103.6"/>
<text text-anchor="middle" x="50" y="-90.6" font-family="Consolas" font-size="10.00" fill="#000000">Adder</text>
<text text-anchor="middle" x="50" y="-78.6" font-family="Consolas" font-size="10.00" fill="#000000">User</text>
</g>
<!-- Adder User&#45;&gt;Passive Integer Adder -->
<g id="edge3" class="edge"><title>Adder User&#45;&gt;Passive Integer Adder</title>
<path fill="none" stroke="black" stroke-dasharray="5,2" d="M44.6013,-103.639C41.3073,-112.815 36.9761,-124.881 32.9873,-135.992"/>
<polygon fill="black" stroke="black" points="29.6894,-134.82 29.6049,-145.415 36.2778,-137.186 29.6894,-134.82"/>
</g>
<!-- Adder User&#45;&gt;Passive String Adder -->
<g id="edge4" class="edge"><title>Adder User&#45;&gt;Passive String Adder</title>
<path fill="none" stroke="black" stroke-dasharray="5,2" d="M56.9412,-103.639C61.2191,-112.908 66.8577,-125.125 72.0287,-136.329"/>
<polygon fill="black" stroke="black" points="68.8538,-137.802 76.2223,-145.415 75.2095,-134.869 68.8538,-137.802"/>
</g>
<!-- Bad Adder User -->
<g id="node5" class="node"><title>Bad Adder User</title>
<polygon fill="#ff3366" stroke="black" points="131.487,-109.6 90.513,-109.6 90.513,-65.6 131.487,-65.6 131.487,-109.6"/>
<text text-anchor="middle" x="111" y="-96.6" font-family="Consolas" font-size="10.00" fill="#ffffff">Bad</text>
<text text-anchor="middle" x="111" y="-84.6" font-family="Consolas" font-size="10.00" fill="#ffffff">Adder</text>
<text text-anchor="middle" x="111" y="-72.6" font-family="Consolas" font-size="10.00" fill="#ffffff">User</text>
</g>
<!-- Bad Adder User&#45;&gt;Passive Number Adder -->
<g id="edge5" class="edge"><title>Bad Adder User&#45;&gt;Passive Number Adder</title>
<path fill="none" stroke="black" stroke-dasharray="5,2" d="M115.972,-109.846C119.952,-130.534 123.841,-162.703 117,-189.6 114.635,-198.9 110.411,-208.322 105.827,-216.756"/>
<polygon fill="black" stroke="black" points="102.766,-215.058 100.783,-225.466 108.823,-218.566 102.766,-215.058"/>
</g>
<!-- Bad Adder User&#45;&gt;Passive String Adder -->
<g id="edge6" class="edge"><title>Bad Adder User&#45;&gt;Passive String Adder</title>
<path fill="none" stroke="black" stroke-dasharray="5,2" d="M104.169,-109.914C101.612,-117.889 98.655,-127.116 95.8783,-135.78"/>
<polygon fill="black" stroke="black" points="92.4558,-134.991 92.7365,-145.582 99.1218,-137.127 92.4558,-134.991"/>
</g>
</g>
</svg>
