<?xml version="1.0" encoding="UTF-8" standalone="no"?>
<!DOCTYPE svg PUBLIC "-//W3C//DTD SVG 1.1//EN"
 "http://www.w3.org/Graphics/SVG/1.1/DTD/svg11.dtd">
<!-- Generated by graphviz version 2.36.0 (20140111.2315)
 -->
<!-- Title: Module Life Cycle Pages: 1 -->
<svg width="352pt" height="1958pt"
 viewBox="0.00 0.00 352.00 1958.00" xmlns="http://www.w3.org/2000/svg" xmlns:xlink="http://www.w3.org/1999/xlink">
<g id="graph0" class="graph" transform="scale(1 1) rotate(0) translate(4 1954)">
<title>Module Life Cycle</title>
<polygon fill="white" stroke="none" points="-4,4 -4,-1954 348,-1954 348,4 -4,4"/>
<text text-anchor="middle" x="172" y="-7" font-family="Helvetica,sans-Serif" font-size="10.00" fill="#000000">The module life cycle.</text>
<g id="clust1" class="cluster"><title>cluster_programmer</title>
<polygon fill="#e8e8e8" stroke="#e8e8e8" points="176,-28 176,-208 336,-208 336,-28 176,-28"/>
<text text-anchor="middle" x="256" y="-35" font-family="Helvetica,sans-Serif" font-size="10.00" fill="#000000">Programmer Actions</text>
</g>
<!-- edit -->
<g id="node1" class="node"><title>edit</title>
<g id="a_node1"><a xlink:href="/about-avail/documentation/modules/module-life-cycle.html#edit" xlink:title="The programmer edits the source module, to fix a bug, enhance or add a feature, extend an API, etc." target="_top">
<polygon fill="#ffffff" stroke="black" points="238,-200 184,-200 184,-164 238,-164 238,-200"/>
<text text-anchor="middle" x="211" y="-185" font-family="Helvetica,sans-Serif" font-size="10.00" fill="#0000a0">Edit</text>
<text text-anchor="middle" x="211" y="-173" font-family="Helvetica,sans-Serif" font-size="10.00" fill="#0000a0">Module</text>
</a>
</g>
</g>
<!-- activate -->
<g id="node3" class="node"><title>activate</title>
<g id="a_node3"><a xlink:href="/about-avail/documentation/modules/module-life-cycle.html#activate" xlink:title="The programmer activate the module by double&#45;clicking it in the Avail workbench. The process begins by unloading any modules that have changed (and their descendents) since the last activation." target="_top">
<polygon fill="#ffffff" stroke="black" points="328,-200 274,-200 274,-164 328,-164 328,-200"/>
<text text-anchor="middle" x="301" y="-185" font-family="Helvetica,sans-Serif" font-size="10.00" fill="#0000a0">Activate</text>
<text text-anchor="middle" x="301" y="-173" font-family="Helvetica,sans-Serif" font-size="10.00" fill="#0000a0">Module</text>
</a>
</g>
</g>
<!-- edit&#45;&gt;activate -->
<g id="edge1" class="edge"><title>edit&#45;&gt;activate</title>
<path fill="none" stroke="black" d="M238.07,-182C246.669,-182 255.267,-182 263.866,-182"/>
<polygon fill="black" stroke="black" points="263.96,-185.5 273.96,-182 263.96,-178.5 263.96,-185.5"/>
</g>
<!-- workbench -->
<g id="node2" class="node"><title>workbench</title>
<g id="a_node2"><a xlink:href="/about-avail/documentation/modules/module-life-cycle.html#workbench" xlink:title="The programmer launches the Avail workbench in order to develop and test the module." target="_top">
<ellipse fill="#ffffff" stroke="black" cx="281" cy="-79" rx="47.1008" ry="22.7556"/>
<text text-anchor="middle" x="281" y="-82" font-family="Helvetica,sans-Serif" font-size="10.00" fill="#0000a0">Launch</text>
<text text-anchor="middle" x="281" y="-70" font-family="Helvetica,sans-Serif" font-size="10.00" fill="#0000a0">Workbench</text>
</a>
</g>
</g>
<!-- workbench&#45;&gt;activate -->
<g id="edge2" class="edge"><title>workbench&#45;&gt;activate</title>
<path fill="none" stroke="black" d="M285.318,-101.807C288.338,-117.058 292.393,-137.536 295.623,-153.847"/>
<polygon fill="black" stroke="black" points="292.231,-154.737 297.607,-163.867 299.098,-153.377 292.231,-154.737"/>
</g>
<!-- anyLoaded -->
<g id="node4" class="node"><title>anyLoaded</title>
<g id="a_node4"><a xlink:href="/about-avail/documentation/modules/module-life-cycle.html#anyLoaded" xlink:title="Are there any modules loaded already? If so, then scan through these (in parallel), determining which ones need to be unloaded." target="_top">
<polygon fill="none" stroke="black" points="181,-1950 121.985,-1906 181,-1862 240.015,-1906 181,-1950"/>
<text text-anchor="middle" x="181" y="-1915" font-family="Helvetica,sans-Serif" font-size="10.00" fill="#0000a0">Any</text>
<text text-anchor="middle" x="181" y="-1903" font-family="Helvetica,sans-Serif" font-size="10.00" fill="#0000a0">Loaded</text>
<text text-anchor="middle" x="181" y="-1891" font-family="Helvetica,sans-Serif" font-size="10.00" fill="#0000a0">Modules?</text>
</a>
</g>
</g>
<!-- activate&#45;&gt;anyLoaded -->
<g id="edge3" class="edge"><title>activate&#45;&gt;anyLoaded</title>
<path fill="none" stroke="black" d="M301,-200.133C301,-217.49 301,-245.111 301,-269 301,-1797 301,-1797 301,-1797 301,-1838.12 261.59,-1867.58 227.94,-1885.24"/>
<polygon fill="black" stroke="black" points="226.007,-1882.29 218.64,-1889.91 229.147,-1888.55 226.007,-1882.29"/>
</g>
<!-- nextLoaded -->
<g id="node6" class="node"><title>nextLoaded</title>
<g id="a_node6"><a xlink:href="/about-avail/documentation/modules/module-life-cycle.html#nextLoaded" xlink:title="Proceed to the next loaded module." target="_top">
<polygon fill="none" stroke="black" points="208,-1814 154,-1814 154,-1778 208,-1778 208,-1814"/>
<text text-anchor="middle" x="181" y="-1799" font-family="Helvetica,sans-Serif" font-size="10.00" fill="#0000a0">Next</text>
<text text-anchor="middle" x="181" y="-1787" font-family="Helvetica,sans-Serif" font-size="10.00" fill="#0000a0">Loaded</text>
</a>
</g>
</g>
<!-- anyLoaded&#45;&gt;nextLoaded -->
<g id="edge4" class="edge"><title>anyLoaded&#45;&gt;nextLoaded</title>
<path fill="none" stroke="black" d="M181,-1861.69C181,-1849.06 181,-1835.62 181,-1824.28"/>
<polygon fill="black" stroke="black" points="184.5,-1824.15 181,-1814.15 177.5,-1824.15 184.5,-1824.15"/>
<text text-anchor="middle" x="189.252" y="-1835.3" font-family="Helvetica,sans-Serif" font-size="9.00" fill="#808080"> yes</text>
</g>
<!-- trace -->
<g id="node17" class="node"><title>trace</title>
<g id="a_node17"><a xlink:href="/about-avail/documentation/modules/module-life-cycle.html#trace" xlink:title="The system traces the activated module to determine its ancestry, i.e., all upstream modules. These will be explored in reverse topological order, starting at the activating module and working upstream. Then they are sorted into topological order, starting at modules without ancestors and working downstream toward the activated module. The process is aborted if any ancestral module headers contain errors." target="_top">
<polygon fill="#87cefa" stroke="black" points="203.341,-726 142.659,-726 142.659,-690 203.341,-690 203.341,-726"/>
<text text-anchor="middle" x="173" y="-711" font-family="Helvetica,sans-Serif" font-size="10.00" fill="#0000a0">Trace</text>
<text text-anchor="middle" x="173" y="-699" font-family="Helvetica,sans-Serif" font-size="10.00" fill="#0000a0">Ancestors</text>
</a>
</g>
</g>
<!-- anyLoaded&#45;&gt;trace -->
<g id="edge21" class="edge"><title>anyLoaded&#45;&gt;trace</title>
<path fill="none" stroke="black" d="M149.522,-1885.13C123.569,-1866.03 91,-1834.59 91,-1797 91,-1797 91,-1797 91,-805 91,-774.874 114.636,-749.425 136.528,-732.315"/>
<polygon fill="black" stroke="black" points="138.848,-734.951 144.78,-726.173 134.669,-729.336 138.848,-734.951"/>
<text text-anchor="middle" x="97.2536" y="-1267.3" font-family="Helvetica,sans-Serif" font-size="9.00" fill="#808080"> no</text>
</g>
<!-- moreLoaded -->
<g id="node5" class="node"><title>moreLoaded</title>
<g id="a_node5"><a xlink:href="/about-avail/documentation/modules/module-life-cycle.html#moreLoaded" xlink:title="Are there any more loaded modules that have not yet been checked?" target="_top">
<polygon fill="none" stroke="black" points="195,-1554 120.636,-1522 195,-1490 269.364,-1522 195,-1554"/>
<text text-anchor="middle" x="195" y="-1525" font-family="Helvetica,sans-Serif" font-size="10.00" fill="#0000a0">More Loaded</text>
<text text-anchor="middle" x="195" y="-1513" font-family="Helvetica,sans-Serif" font-size="10.00" fill="#0000a0">Modules?</text>
</a>
</g>
</g>
<!-- moreLoaded&#45;&gt;nextLoaded -->
<g id="edge5" class="edge"><title>moreLoaded&#45;&gt;nextLoaded</title>
<path fill="none" stroke="black" d="M175.755,-1545.96C166.346,-1558.67 155.993,-1575.25 151,-1592 149.018,-1598.65 147.216,-1729.39 150,-1740 152.643,-1750.07 157.593,-1760.24 162.775,-1769.05"/>
<polygon fill="black" stroke="black" points="159.9,-1771.06 168.171,-1777.68 165.835,-1767.34 159.9,-1771.06"/>
<text text-anchor="middle" x="157.252" y="-1649.3" font-family="Helvetica,sans-Serif" font-size="9.00" fill="#808080"> yes</text>
</g>
<!-- anyDirty -->
<g id="node9" class="node"><title>anyDirty</title>
<g id="a_node9"><a xlink:href="/about-avail/documentation/modules/module-life-cycle.html#anyDirty" xlink:title="Are there any modules in the dirty queue?" target="_top">
<polygon fill="none" stroke="black" points="198,-1442 155.842,-1410 198,-1378 240.158,-1410 198,-1442"/>
<text text-anchor="middle" x="198" y="-1413" font-family="Helvetica,sans-Serif" font-size="10.00" fill="#0000a0">Any</text>
<text text-anchor="middle" x="198" y="-1401" font-family="Helvetica,sans-Serif" font-size="10.00" fill="#0000a0">Dirty?</text>
</a>
</g>
</g>
<!-- moreLoaded&#45;&gt;anyDirty -->
<g id="edge6" class="edge"><title>moreLoaded&#45;&gt;anyDirty</title>
<path fill="none" stroke="black" d="M195.836,-1490.36C196.164,-1478.32 196.546,-1464.33 196.896,-1451.48"/>
<polygon fill="black" stroke="black" points="200.395,-1451.57 197.169,-1441.48 193.397,-1451.38 200.395,-1451.57"/>
<text text-anchor="middle" x="203.254" y="-1463.3" font-family="Helvetica,sans-Serif" font-size="9.00" fill="#808080"> no</text>
</g>
<!-- modified -->
<g id="node7" class="node"><title>modified</title>
<g id="a_node7"><a xlink:href="/about-avail/documentation/modules/module-life-cycle.html#modified" xlink:title="Use the module&#39;s timestamp and content hash to determine if it has changed since it was loaded." target="_top">
<polygon fill="none" stroke="black" points="216,-1740 159.642,-1708 216,-1676 272.358,-1708 216,-1740"/>
<text text-anchor="middle" x="216" y="-1711" font-family="Helvetica,sans-Serif" font-size="10.00" fill="#0000a0">Modified</text>
<text text-anchor="middle" x="216" y="-1699" font-family="Helvetica,sans-Serif" font-size="10.00" fill="#0000a0">Content?</text>
</a>
</g>
</g>
<!-- nextLoaded&#45;&gt;modified -->
<g id="edge7" class="edge"><title>nextLoaded&#45;&gt;modified</title>
<path fill="none" stroke="black" d="M188.083,-1777.6C192.047,-1767.86 197.131,-1755.36 201.873,-1743.71"/>
<polygon fill="black" stroke="black" points="205.215,-1744.79 205.743,-1734.2 198.731,-1742.15 205.215,-1744.79"/>
</g>
<!-- modified&#45;&gt;moreLoaded -->
<g id="edge9" class="edge"><title>modified&#45;&gt;moreLoaded</title>
<path fill="none" stroke="black" d="M221.638,-1678.85C225.401,-1655.41 228.709,-1621.25 223,-1592 220.763,-1580.54 216.617,-1568.57 212.189,-1557.88"/>
<polygon fill="black" stroke="black" points="215.295,-1556.25 208.09,-1548.48 208.878,-1559.05 215.295,-1556.25"/>
<text text-anchor="middle" x="233.254" y="-1607.3" font-family="Helvetica,sans-Serif" font-size="9.00" fill="#808080"> no</text>
</g>
<!-- dirty -->
<g id="node8" class="node"><title>dirty</title>
<g id="a_node8"><a xlink:href="/about-avail/documentation/modules/module-life-cycle.html#dirty" xlink:title="Mark the module as dirty and place it into the dirty queue." target="_top">
<polygon fill="none" stroke="black" points="214,-1628 160,-1628 160,-1592 214,-1592 214,-1628"/>
<text text-anchor="middle" x="187" y="-1613" font-family="Helvetica,sans-Serif" font-size="10.00" fill="#0000a0">Mark</text>
<text text-anchor="middle" x="187" y="-1601" font-family="Helvetica,sans-Serif" font-size="10.00" fill="#0000a0">Dirty</text>
</a>
</g>
</g>
<!-- modified&#45;&gt;dirty -->
<g id="edge8" class="edge"><title>modified&#45;&gt;dirty</title>
<path fill="none" stroke="black" d="M207.999,-1680.51C203.964,-1667.16 199.083,-1651 195.043,-1637.62"/>
<polygon fill="black" stroke="black" points="198.387,-1636.59 192.145,-1628.03 191.686,-1638.62 198.387,-1636.59"/>
<text text-anchor="middle" x="209.252" y="-1649.3" font-family="Helvetica,sans-Serif" font-size="9.00" fill="#808080"> yes</text>
</g>
<!-- dirty&#45;&gt;moreLoaded -->
<g id="edge10" class="edge"><title>dirty&#45;&gt;moreLoaded</title>
<path fill="none" stroke="black" d="M188.619,-1591.6C189.385,-1583.36 190.334,-1573.16 191.263,-1563.17"/>
<polygon fill="black" stroke="black" points="194.776,-1563.2 192.217,-1552.92 187.806,-1562.55 194.776,-1563.2"/>
</g>
<!-- nextDirty -->
<g id="node11" class="node"><title>nextDirty</title>
<g id="a_node11"><a xlink:href="/about-avail/documentation/modules/module-life-cycle.html#nextDirty" xlink:title="Extract a module from the dirty queue." target="_top">
<polygon fill="none" stroke="black" points="225,-1330 171,-1330 171,-1294 225,-1294 225,-1330"/>
<text text-anchor="middle" x="198" y="-1315" font-family="Helvetica,sans-Serif" font-size="10.00" fill="#0000a0">Next</text>
<text text-anchor="middle" x="198" y="-1303" font-family="Helvetica,sans-Serif" font-size="10.00" fill="#0000a0">Dirty</text>
</a>
</g>
</g>
<!-- anyDirty&#45;&gt;nextDirty -->
<g id="edge11" class="edge"><title>anyDirty&#45;&gt;nextDirty</title>
<path fill="none" stroke="black" d="M198,-1377.83C198,-1365.68 198,-1351.87 198,-1340.13"/>
<polygon fill="black" stroke="black" points="201.5,-1340.04 198,-1330.04 194.5,-1340.04 201.5,-1340.04"/>
<text text-anchor="middle" x="206.252" y="-1351.3" font-family="Helvetica,sans-Serif" font-size="9.00" fill="#808080"> yes</text>
</g>
<!-- anyDirty&#45;&gt;trace -->
<g id="edge20" class="edge"><title>anyDirty&#45;&gt;trace</title>
<path fill="none" stroke="black" d="M216.027,-1391.31C232.398,-1373.28 254,-1343.68 254,-1313 254,-1313 254,-1313 254,-805 254,-775.029 230.653,-749.568 209.027,-732.414"/>
<polygon fill="black" stroke="black" points="210.964,-729.491 200.876,-726.254 206.744,-735.076 210.964,-729.491"/>
<text text-anchor="middle" x="260.254" y="-1039.3" font-family="Helvetica,sans-Serif" font-size="9.00" fill="#808080"> no</text>
</g>
<!-- moreDirty -->
<g id="node10" class="node"><title>moreDirty</title>
<g id="a_node10"><a xlink:href="/about-avail/documentation/modules/module-life-cycle.html#moreDirty" xlink:title="Are there more dirty modules in the dirty queue?" target="_top">
<polygon fill="none" stroke="black" points="175,-1172 132.842,-1140 175,-1108 217.158,-1140 175,-1172"/>
<text text-anchor="middle" x="175" y="-1143" font-family="Helvetica,sans-Serif" font-size="10.00" fill="#0000a0">More</text>
<text text-anchor="middle" x="175" y="-1131" font-family="Helvetica,sans-Serif" font-size="10.00" fill="#0000a0">Dirty?</text>
</a>
</g>
</g>
<!-- moreDirty&#45;&gt;nextDirty -->
<g id="edge12" class="edge"><title>moreDirty&#45;&gt;nextDirty</title>
<path fill="none" stroke="black" d="M178.821,-1169.24C183.114,-1200.98 190.036,-1252.14 194.285,-1283.54"/>
<polygon fill="black" stroke="black" points="190.859,-1284.32 195.668,-1293.76 197.796,-1283.38 190.859,-1284.32"/>
<text text-anchor="middle" x="198.252" y="-1225.3" font-family="Helvetica,sans-Serif" font-size="9.00" fill="#808080"> yes</text>
</g>
<!-- sortUnload -->
<g id="node13" class="node"><title>sortUnload</title>
<g id="a_node13"><a xlink:href="/about-avail/documentation/modules/module-life-cycle.html#sortUnload" xlink:title="Sort all dirty modules into reverse topological order, i.e. modules are processed from downstream to upstream." target="_top">
<polygon fill="none" stroke="black" points="202,-1060 148,-1060 148,-1024 202,-1024 202,-1060"/>
<text text-anchor="middle" x="175" y="-1045" font-family="Helvetica,sans-Serif" font-size="10.00" fill="#0000a0">Sort</text>
<text text-anchor="middle" x="175" y="-1033" font-family="Helvetica,sans-Serif" font-size="10.00" fill="#0000a0">Dirty</text>
</a>
</g>
</g>
<!-- moreDirty&#45;&gt;sortUnload -->
<g id="edge13" class="edge"><title>moreDirty&#45;&gt;sortUnload</title>
<path fill="none" stroke="black" d="M175,-1107.83C175,-1095.68 175,-1081.87 175,-1070.13"/>
<polygon fill="black" stroke="black" points="178.5,-1070.04 175,-1060.04 171.5,-1070.04 178.5,-1070.04"/>
<text text-anchor="middle" x="181.254" y="-1081.3" font-family="Helvetica,sans-Serif" font-size="9.00" fill="#808080"> no</text>
</g>
<!-- dirtyChildren -->
<g id="node12" class="node"><title>dirtyChildren</title>
<g id="a_node12"><a xlink:href="/about-avail/documentation/modules/module-life-cycle.html#dirtyChildren" xlink:title="Mark every immediate dependent (direct importer) of the module as dirty. Place onto the dirty queue those that have never been placed there before." target="_top">
<polygon fill="none" stroke="black" points="173,-1246 119,-1246 119,-1210 173,-1210 173,-1246"/>
<text text-anchor="middle" x="146" y="-1231" font-family="Helvetica,sans-Serif" font-size="10.00" fill="#0000a0">Dirty</text>
<text text-anchor="middle" x="146" y="-1219" font-family="Helvetica,sans-Serif" font-size="10.00" fill="#0000a0">Children</text>
</a>
</g>
</g>
<!-- nextDirty&#45;&gt;dirtyChildren -->
<g id="edge14" class="edge"><title>nextDirty&#45;&gt;dirtyChildren</title>
<path fill="none" stroke="black" d="M186.972,-1293.61C179.823,-1282.34 170.383,-1267.45 162.366,-1254.81"/>
<polygon fill="black" stroke="black" points="165.145,-1252.65 156.834,-1246.08 159.233,-1256.4 165.145,-1252.65"/>
</g>
<!-- dirtyChildren&#45;&gt;moreDirty -->
<g id="edge15" class="edge"><title>dirtyChildren&#45;&gt;moreDirty</title>
<path fill="none" stroke="black" d="M151.869,-1209.6C155.179,-1199.78 159.432,-1187.17 163.387,-1175.44"/>
<polygon fill="black" stroke="black" points="166.733,-1176.47 166.612,-1165.87 160.1,-1174.23 166.733,-1176.47"/>
</g>
<!-- nextUnload -->
<g id="node15" class="node"><title>nextUnload</title>
<g id="a_node15"><a xlink:href="/about-avail/documentation/modules/module-life-cycle.html#nextUnload" xlink:title="Proceed to the next dirty module in the established topological order." target="_top">
<polygon fill="none" stroke="black" points="202,-986 148,-986 148,-950 202,-950 202,-986"/>
<text text-anchor="middle" x="175" y="-971" font-family="Helvetica,sans-Serif" font-size="10.00" fill="#0000a0">Next</text>
<text text-anchor="middle" x="175" y="-959" font-family="Helvetica,sans-Serif" font-size="10.00" fill="#0000a0">Dirty</text>
</a>
</g>
</g>
<!-- sortUnload&#45;&gt;nextUnload -->
<g id="edge16" class="edge"><title>sortUnload&#45;&gt;nextUnload</title>
<path fill="none" stroke="black" d="M175,-1023.94C175,-1015.81 175,-1005.88 175,-996.705"/>
<polygon fill="black" stroke="black" points="178.5,-996.441 175,-986.441 171.5,-996.441 178.5,-996.441"/>
</g>
<!-- moreUnload -->
<g id="node14" class="node"><title>moreUnload</title>
<g id="a_node14"><a xlink:href="/about-avail/documentation/modules/module-life-cycle.html#moreUnload" xlink:title="Are there more dirty modules to unload?" target="_top">
<polygon fill="none" stroke="black" points="173,-838 130.842,-806 173,-774 215.158,-806 173,-838"/>
<text text-anchor="middle" x="173" y="-809" font-family="Helvetica,sans-Serif" font-size="10.00" fill="#0000a0">More</text>
<text text-anchor="middle" x="173" y="-797" font-family="Helvetica,sans-Serif" font-size="10.00" fill="#0000a0">Dirty?</text>
</a>
</g>
</g>
<!-- moreUnload&#45;&gt;nextUnload -->
<g id="edge17" class="edge"><title>moreUnload&#45;&gt;nextUnload</title>
<path fill="none" stroke="black" d="M177.459,-834.785C179.258,-847.337 181.115,-862.378 182,-876 183.037,-891.966 183.012,-896.032 182,-912 181.429,-921.015 180.336,-930.811 179.18,-939.605"/>
<polygon fill="black" stroke="black" points="175.685,-939.326 177.77,-949.714 182.618,-940.293 175.685,-939.326"/>
<text text-anchor="middle" x="191.252" y="-891.3" font-family="Helvetica,sans-Serif" font-size="9.00" fill="#808080"> yes</text>
</g>
<!-- moreUnload&#45;&gt;trace -->
<g id="edge22" class="edge"><title>moreUnload&#45;&gt;trace</title>
<path fill="none" stroke="black" d="M173,-773.832C173,-761.676 173,-747.871 173,-736.133"/>
<polygon fill="black" stroke="black" points="176.5,-736.041 173,-726.041 169.5,-736.041 176.5,-736.041"/>
<text text-anchor="middle" x="179.254" y="-747.3" font-family="Helvetica,sans-Serif" font-size="9.00" fill="#808080"> no</text>
</g>
<!-- unload -->
<g id="node16" class="node"><title>unload</title>
<g id="a_node16"><a xlink:href="/about-avail/documentation/modules/module-life-cycle.html#unload" xlink:title="Since the dirty module has no dependents loaded anymore, it is safe to unload it." target="_top">
<polygon fill="none" stroke="black" points="173,-912 119,-912 119,-876 173,-876 173,-912"/>
<text text-anchor="middle" x="146" y="-891" font-family="Helvetica,sans-Serif" font-size="10.00" fill="#0000a0">Unload</text>
</a>
</g>
</g>
<!-- nextUnload&#45;&gt;unload -->
<g id="edge18" class="edge"><title>nextUnload&#45;&gt;unload</title>
<path fill="none" stroke="black" d="M168.127,-949.937C164.746,-941.542 160.591,-931.227 156.798,-921.81"/>
<polygon fill="black" stroke="black" points="160.007,-920.409 153.025,-912.441 153.514,-923.024 160.007,-920.409"/>
</g>
<!-- unload&#45;&gt;moreUnload -->
<g id="edge19" class="edge"><title>unload&#45;&gt;moreUnload</title>
<path fill="none" stroke="black" d="M151.464,-875.597C154.491,-865.955 158.366,-853.613 161.992,-842.062"/>
<polygon fill="black" stroke="black" points="165.431,-842.793 165.087,-832.204 158.752,-840.696 165.431,-842.793"/>
</g>
<!-- nextAncestor -->
<g id="node19" class="node"><title>nextAncestor</title>
<g id="a_node19"><a xlink:href="/about-avail/documentation/modules/module-life-cycle.html#nextAncestor" xlink:title="Proceed using the next ancestor in the established topological order." target="_top">
<polygon fill="none" stroke="black" points="117.589,-642 62.4106,-642 62.4106,-606 117.589,-606 117.589,-642"/>
<text text-anchor="middle" x="90" y="-627" font-family="Helvetica,sans-Serif" font-size="10.00" fill="#0000a0">Next</text>
<text text-anchor="middle" x="90" y="-615" font-family="Helvetica,sans-Serif" font-size="10.00" fill="#0000a0">Ancestor</text>
</a>
</g>
</g>
<!-- trace&#45;&gt;nextAncestor -->
<g id="edge23" class="edge"><title>trace&#45;&gt;nextAncestor</title>
<path fill="none" stroke="black" d="M155.398,-689.61C143.544,-677.899 127.744,-662.289 114.643,-649.346"/>
<polygon fill="black" stroke="black" points="116.866,-646.622 107.292,-642.084 111.946,-651.602 116.866,-646.622"/>
<text text-anchor="middle" x="141.752" y="-663.3" font-family="Helvetica,sans-Serif" font-size="9.00" fill="#808080">ok</text>
</g>
<!-- failure -->
<g id="node25" class="node"><title>failure</title>
<g id="a_node25"><a xlink:href="/about-avail/documentation/modules/module-life-cycle.html#failure" xlink:title="Activation failed." target="_top">
<ellipse fill="#e41e1e" stroke="black" cx="220" cy="-270" rx="27.4912" ry="18"/>
<text text-anchor="middle" x="220" y="-267" font-family="Helvetica,sans-Serif" font-size="10.00" fill="#ffffff">Failure</text>
</a>
</g>
</g>
<!-- trace&#45;&gt;failure -->
<g id="edge33" class="edge"><title>trace&#45;&gt;failure</title>
<path fill="none" stroke="black" d="M196.44,-689.936C213.997,-675.008 235,-651.593 235,-625 235,-625 235,-625 235,-353 235,-334.242 231.155,-313.46 227.359,-297.51"/>
<polygon fill="black" stroke="black" points="230.749,-296.639 224.912,-287.797 223.961,-298.349 230.749,-296.639"/>
<text text-anchor="middle" x="244.497" y="-477.3" font-family="Helvetica,sans-Serif" font-size="9.00" fill="#808080">error</text>
</g>
<!-- moreAncestors -->
<g id="node18" class="node"><title>moreAncestors</title>
<g id="a_node18"><a xlink:href="/about-avail/documentation/modules/module-life-cycle.html#moreAncestors" xlink:title="Are there more ancestors in the established topological order? This includes the activated module itself, which is processed last." target="_top">
<polygon fill="none" stroke="black" points="92,-214 25.9805,-182 92,-150 158.02,-182 92,-214"/>
<text text-anchor="middle" x="92" y="-185" font-family="Helvetica,sans-Serif" font-size="10.00" fill="#0000a0">More</text>
<text text-anchor="middle" x="92" y="-173" font-family="Helvetica,sans-Serif" font-size="10.00" fill="#0000a0">Ancestors?</text>
</a>
</g>
</g>
<!-- moreAncestors&#45;&gt;nextAncestor -->
<g id="edge24" class="edge"><title>moreAncestors&#45;&gt;nextAncestor</title>
<path fill="none" stroke="black" d="M58.265,-197.873C32.0082,-211.997 0,-235.985 0,-269 0,-537 0,-537 0,-537 0,-568.182 28.5879,-591.533 53.5395,-605.975"/>
<polygon fill="black" stroke="black" points="52.0566,-609.154 62.508,-610.891 55.4212,-603.015 52.0566,-609.154"/>
<text text-anchor="middle" x="8.2521" y="-393.3" font-family="Helvetica,sans-Serif" font-size="9.00" fill="#808080"> yes</text>
</g>
<!-- success -->
<g id="node26" class="node"><title>success</title>
<g id="a_node26"><a xlink:href="/about-avail/documentation/modules/module-life-cycle.html#success" xlink:title="Activation succeeded." target="_top">
<ellipse fill="#33ff99" stroke="black" cx="125" cy="-79" rx="32.0178" ry="18"/>
<text text-anchor="middle" x="125" y="-76" font-family="Helvetica,sans-Serif" font-size="10.00" fill="#0000a0">Success</text>
</a>
</g>
</g>
<!-- moreAncestors&#45;&gt;success -->
<g id="edge36" class="edge"><title>moreAncestors&#45;&gt;success</title>
<path fill="none" stroke="black" d="M100.757,-154.199C105.597,-139.384 111.588,-121.05 116.402,-106.314"/>
<polygon fill="black" stroke="black" points="119.741,-107.366 119.519,-96.7737 113.087,-105.192 119.741,-107.366"/>
<text text-anchor="middle" x="118.254" y="-123.3" font-family="Helvetica,sans-Serif" font-size="9.00" fill="#808080"> no</text>
</g>
<!-- isLoaded -->
<g id="node20" class="node"><title>isLoaded</title>
<g id="a_node20"><a xlink:href="/about-avail/documentation/modules/module-life-cycle.html#isLoaded" xlink:title="Is the ancestor loaded? If so, then nothing in its own ancestry could have changed." target="_top">
<polygon fill="none" stroke="black" points="90,-568 35.6296,-536 90,-504 144.37,-536 90,-568"/>
<text text-anchor="middle" x="90" y="-539" font-family="Helvetica,sans-Serif" font-size="10.00" fill="#0000a0">Is</text>
<text text-anchor="middle" x="90" y="-527" font-family="Helvetica,sans-Serif" font-size="10.00" fill="#0000a0">Loaded?</text>
</a>
</g>
</g>
<!-- nextAncestor&#45;&gt;isLoaded -->
<g id="edge25" class="edge"><title>nextAncestor&#45;&gt;isLoaded</title>
<path fill="none" stroke="black" d="M90,-605.597C90,-597.739 90,-588.089 90,-578.535"/>
<polygon fill="black" stroke="black" points="93.5001,-578.295 90,-568.295 86.5001,-578.295 93.5001,-578.295"/>
</g>
<!-- isLoaded&#45;&gt;moreAncestors -->
<g id="edge26" class="edge"><title>isLoaded&#45;&gt;moreAncestors</title>
<path fill="none" stroke="black" d="M73.616,-513.398C61.1062,-494.733 46,-466.501 46,-439 46,-439 46,-439 46,-269 46,-248.856 55.9344,-228.862 66.5698,-213.228"/>
<polygon fill="black" stroke="black" points="69.4802,-215.176 72.4919,-205.018 63.8031,-211.081 69.4802,-215.176"/>
<text text-anchor="middle" x="54.2521" y="-351.3" font-family="Helvetica,sans-Serif" font-size="9.00" fill="#808080"> yes</text>
</g>
<!-- isCompiled -->
<g id="node21" class="node"><title>isCompiled</title>
<g id="a_node21"><a xlink:href="/about-avail/documentation/modules/module-life-cycle.html#isCompiled" xlink:title="Use the source module&#39;s timestamp and content hash to determine if the binary module repository contains a suitable compiled binary." target="_top">
<polygon fill="none" stroke="black" points="139.338,-456 76.6624,-456 76.6624,-420 139.338,-420 139.338,-456"/>
<text text-anchor="middle" x="108" y="-441" font-family="Helvetica,sans-Serif" font-size="10.00" fill="#0000a0">Is</text>
<text text-anchor="middle" x="108" y="-429" font-family="Helvetica,sans-Serif" font-size="10.00" fill="#0000a0">Compiled?</text>
</a>
</g>
</g>
<!-- isLoaded&#45;&gt;isCompiled -->
<g id="edge27" class="edge"><title>isLoaded&#45;&gt;isCompiled</title>
<path fill="none" stroke="black" d="M95.2547,-506.975C97.6706,-494.09 100.525,-478.868 102.919,-466.099"/>
<polygon fill="black" stroke="black" points="106.399,-466.529 104.802,-456.055 99.5192,-465.239 106.399,-466.529"/>
<text text-anchor="middle" x="108.254" y="-477.3" font-family="Helvetica,sans-Serif" font-size="9.00" fill="#808080"> no</text>
</g>
<!-- load -->
<g id="node22" class="node"><title>load</title>
<g id="a_node22"><a xlink:href="/about-avail/documentation/modules/module-life-cycle.html#load" xlink:title="Load the appropriate compilation of the module from a binary module repository. The process is aborted if this fails." target="_top">
<polygon fill="#87cefa" stroke="black" points="135,-372 81,-372 81,-336 135,-336 135,-372"/>
<text text-anchor="middle" x="108" y="-357" font-family="Helvetica,sans-Serif" font-size="10.00" fill="#0000a0">Load</text>
<text text-anchor="middle" x="108" y="-345" font-family="Helvetica,sans-Serif" font-size="10.00" fill="#0000a0">Binary</text>
</a>
</g>
</g>
<!-- isCompiled&#45;&gt;load -->
<g id="edge28" class="edge"><title>isCompiled&#45;&gt;load</title>
<path fill="none" stroke="black" d="M108,-419.61C108,-408.774 108,-394.601 108,-382.291"/>
<polygon fill="black" stroke="black" points="111.5,-382.084 108,-372.084 104.5,-382.084 111.5,-382.084"/>
<text text-anchor="middle" x="116.252" y="-393.3" font-family="Helvetica,sans-Serif" font-size="9.00" fill="#808080"> yes</text>
</g>
<!-- compile -->
<g id="node23" class="node"><title>compile</title>
<g id="a_node23"><a xlink:href="/about-avail/documentation/modules/module-life-cycle.html#compile" xlink:title="Compile the source module. The process is aborted if this fails." target="_top">
<polygon fill="#87cefa" stroke="black" points="207,-372 153,-372 153,-336 207,-336 207,-372"/>
<text text-anchor="middle" x="180" y="-357" font-family="Helvetica,sans-Serif" font-size="10.00" fill="#0000a0">Compile</text>
<text text-anchor="middle" x="180" y="-345" font-family="Helvetica,sans-Serif" font-size="10.00" fill="#0000a0">Source</text>
</a>
</g>
</g>
<!-- isCompiled&#45;&gt;compile -->
<g id="edge29" class="edge"><title>isCompiled&#45;&gt;compile</title>
<path fill="none" stroke="black" d="M123.269,-419.61C133.456,-408.008 147.003,-392.58 158.304,-379.71"/>
<polygon fill="black" stroke="black" points="161.032,-381.908 165,-372.084 155.771,-377.289 161.032,-381.908"/>
<text text-anchor="middle" x="155.254" y="-393.3" font-family="Helvetica,sans-Serif" font-size="9.00" fill="#808080"> no</text>
</g>
<!-- load&#45;&gt;moreAncestors -->
<g id="edge30" class="edge"><title>load&#45;&gt;moreAncestors</title>
<path fill="none" stroke="black" d="M106.244,-335.897C104.909,-322.792 103.045,-304.258 101.497,-288 99.4521,-266.531 97.2778,-242.582 95.5264,-222.984"/>
<polygon fill="black" stroke="black" points="98.9997,-222.528 94.6262,-212.878 92.0273,-223.149 98.9997,-222.528"/>
<text text-anchor="middle" x="106.752" y="-267.3" font-family="Helvetica,sans-Serif" font-size="9.00" fill="#808080">ok</text>
</g>
<!-- load&#45;&gt;failure -->
<g id="edge34" class="edge"><title>load&#45;&gt;failure</title>
<path fill="none" stroke="black" d="M116.005,-335.915C121.346,-326.063 129.188,-314.069 139.006,-306 155.326,-292.585 163.621,-296.412 183,-288 184.848,-287.198 186.743,-286.363 188.652,-285.514"/>
<polygon fill="black" stroke="black" points="190.483,-288.528 198.156,-281.222 187.602,-282.148 190.483,-288.528"/>
<text text-anchor="middle" x="149.497" y="-309.3" font-family="Helvetica,sans-Serif" font-size="9.00" fill="#808080">error</text>
</g>
<!-- persist -->
<g id="node24" class="node"><title>persist</title>
<g id="a_node24"><a xlink:href="/about-avail/documentation/modules/module-life-cycle.html#persist" xlink:title="Write the new compiled binary into the appropriate binary module repository." target="_top">
<polygon fill="none" stroke="black" points="174,-288 120,-288 120,-252 174,-252 174,-288"/>
<text text-anchor="middle" x="147" y="-273" font-family="Helvetica,sans-Serif" font-size="10.00" fill="#0000a0">Persist</text>
<text text-anchor="middle" x="147" y="-261" font-family="Helvetica,sans-Serif" font-size="10.00" fill="#0000a0">Binary</text>
</a>
</g>
</g>
<!-- compile&#45;&gt;persist -->
<g id="edge31" class="edge"><title>compile&#45;&gt;persist</title>
<path fill="none" stroke="black" d="M173.002,-335.61C168.553,-324.555 162.706,-310.027 157.684,-297.548"/>
<polygon fill="black" stroke="black" points="160.856,-296.054 153.875,-288.084 154.362,-298.668 160.856,-296.054"/>
<text text-anchor="middle" x="170.752" y="-309.3" font-family="Helvetica,sans-Serif" font-size="9.00" fill="#808080">ok</text>
</g>
<!-- compile&#45;&gt;failure -->
<g id="edge35" class="edge"><title>compile&#45;&gt;failure</title>
<path fill="none" stroke="black" d="M187.794,-335.959C191.936,-327.004 197.161,-315.867 202.006,-306 203.558,-302.838 205.215,-299.529 206.872,-296.262"/>
<polygon fill="black" stroke="black" points="210.009,-297.814 211.452,-287.318 203.779,-294.624 210.009,-297.814"/>
<text text-anchor="middle" x="212.497" y="-309.3" font-family="Helvetica,sans-Serif" font-size="9.00" fill="#808080">error</text>
</g>
<!-- persist&#45;&gt;moreAncestors -->
<g id="edge32" class="edge"><title>persist&#45;&gt;moreAncestors</title>
<path fill="none" stroke="black" d="M135.87,-251.597C129.252,-241.249 120.646,-227.792 112.811,-215.541"/>
<polygon fill="black" stroke="black" points="115.618,-213.434 107.282,-206.895 109.721,-217.205 115.618,-213.434"/>
</g>
<!-- failure&#45;&gt;edit -->
<g id="edge37" class="edge"><title>failure&#45;&gt;edit</title>
<path fill="none" stroke="black" d="M218.222,-252.009C216.985,-240.19 215.309,-224.171 213.882,-210.542"/>
<polygon fill="black" stroke="black" points="217.327,-209.831 212.805,-200.25 210.365,-210.56 217.327,-209.831"/>
</g>
<!-- success&#45;&gt;edit -->
<g id="edge38" class="edge"><title>success&#45;&gt;edit</title>
<path fill="none" stroke="black" d="M138.246,-95.5565C152.007,-111.718 173.744,-137.246 189.879,-156.195"/>
<polygon fill="black" stroke="black" points="187.263,-158.522 196.411,-163.867 192.593,-153.984 187.263,-158.522"/>
</g>
</g>
</svg>
