<svg xmlns="http://www.w3.org/2000/svg" width="310" height="96"><defs><style type="text/css">
    @namespace "http://www.w3.org/2000/svg";
    .line                 {fill: none; stroke: #332900;}
    .bold-line            {stroke: #141000; shape-rendering: crispEdges; stroke-width: 2; }
    .thin-line            {stroke: #1F1800; shape-rendering: crispEdges}
    .filled               {fill: #332900; stroke: none;}
    text.terminal         {font-family: Verdana, Sans-serif;
                            font-size: 12px;
                            fill: #141000;
                            font-weight: bold;
                          }
    text.nonterminal      {font-family: Verdana, Sans-serif;
                            font-size: 12px;
                            fill: #1A1400;
                          }
    text.regexp           {font-family: Verdana, Sans-serif;
                            font-size: 12px;
                            fill: #1F1800;
                          }
    rect, circle, polygon {fill: #332900; stroke: #332900;}
    rect.terminal         {fill: #FFDB4D; stroke: #332900;}
    rect.nonterminal      {fill: #FFEC9E; stroke: #332900;}
    rect.text             {fill: none; stroke: none;}    
    polygon.regexp        {fill: #FFF4C7; stroke: #332900;}
  </style></defs><polygon points="9 61 1 57 1 65"/><polygon points="17 61 9 57 9 65"/><a xmlns:xlink="http://www.w3.org/1999/xlink" xlink:href="#ModuleRootSpecification" xlink:title="ModuleRootSpecification"><rect x="71" y="47" width="172" height="32"/><rect x="69" y="45" width="172" height="32" class="nonterminal"/><text class="nonterminal" x="79" y="65">ModuleRootSpecification</text></a><rect x="71" y="3" width="24" height="32" rx="10"/><rect x="69" y="1" width="24" height="32" class="terminal" rx="10"/><text class="terminal" x="79" y="21">;</text><svg:path xmlns:svg="http://www.w3.org/2000/svg" class="line" d="m17 61 h2 m40 0 h10 m172 0 h10 m-212 0 l20 0 m-1 0 q-9 0 -9 -10 l0 -24 q0 -10 10 -10 m192 44 l20 0 m-20 0 q10 0 10 -10 l0 -24 q0 -10 -10 -10 m-192 0 h10 m24 0 h10 m0 0 h148 m-232 44 h20 m232 0 h20 m-272 0 q10 0 10 10 m252 0 q0 -10 10 -10 m-262 10 v14 m252 0 v-14 m-252 14 q0 10 10 10 m232 0 q10 0 10 -10 m-242 10 h10 m0 0 h222 m23 -34 h-3"/><polygon points="301 61 309 57 309 65"/><polygon points="301 61 293 57 293 65"/></svg>
