<?xml version="1.0" encoding="UTF-8" standalone="no"?>
<!DOCTYPE svg PUBLIC "-//W3C//DTD SVG 1.1//EN"
 "http://www.w3.org/Graphics/SVG/1.1/DTD/svg11.dtd">
<!-- Generated by graphviz version 2.36.0 (20140111.2315)
 -->
<!-- Title: Name resolution Pages: 1 -->
<svg width="326pt" height="514pt"
 viewBox="0.00 0.00 326.00 514.00" xmlns="http://www.w3.org/2000/svg" xmlns:xlink="http://www.w3.org/1999/xlink">
<g id="graph0" class="graph" transform="scale(1 1) rotate(0) translate(4 510)">
<title>Name resolution</title>
<polygon fill="white" stroke="none" points="-4,4 -4,-510 322,-510 322,4 -4,4"/>
<text text-anchor="middle" x="159" y="-7" font-family="Helvetica,sans-Serif" font-size="10.00" fill="#000000">The name resolution process.</text>
<!-- stringProvided -->
<g id="node1" class="node"><title>stringProvided</title>
<g id="a_node1"><a xlink:title="The name is provided as a string to a method that performs name resolution." target="_top">
<path fill="none" stroke="black" d="M58,-447C58,-447 128,-447 128,-447 134,-447 140,-453 140,-459 140,-459 140,-493 140,-493 140,-499 134,-505 128,-505 128,-505 58,-505 58,-505 52,-505 46,-499 46,-493 46,-493 46,-459 46,-459 46,-453 52,-447 58,-447"/>
<text text-anchor="middle" x="92.949" y="-479" font-family="Helvetica,sans-Serif" font-size="10.00" fill="#0000a0">Name Provided</text>
<text text-anchor="middle" x="92.949" y="-467" font-family="Helvetica,sans-Serif" font-size="10.00" fill="#0000a0">As String</text>
</a>
</g>
</g>
<!-- lookup -->
<g id="node3" class="node"><title>lookup</title>
<g id="a_node3"><a xlink:title="Use the name to look up the set of candidate atoms in the module&#39;s internal directory of visible names." target="_top">
<polygon fill="#87cefa" stroke="black" points="149,-408 102,-379 149,-350 196,-379 149,-408"/>
<text text-anchor="middle" x="149" y="-376" font-family="Helvetica,sans-Serif" font-size="10.00" fill="#0000a0">Look Up Atom</text>
</a>
</g>
</g>
<!-- stringProvided&#45;&gt;lookup -->
<g id="edge1" class="edge"><title>stringProvided&#45;&gt;lookup</title>
<path fill="none" stroke="black" d="M109.65,-446.754C116.587,-434.986 124.643,-421.321 131.652,-409.43"/>
<polygon fill="black" stroke="black" points="134.709,-411.137 136.772,-400.745 128.678,-407.582 134.709,-411.137"/>
</g>
<!-- parse -->
<g id="node2" class="node"><title>parse</title>
<g id="a_node2"><a xlink:title="The compiler parses the name from a lexical expression in the module body." target="_top">
<path fill="none" stroke="black" d="M170,-447C170,-447 240,-447 240,-447 246,-447 252,-453 252,-459 252,-459 252,-493 252,-493 252,-499 246,-505 240,-505 240,-505 170,-505 170,-505 164,-505 158,-499 158,-493 158,-493 158,-459 158,-459 158,-453 164,-447 170,-447"/>
<text text-anchor="middle" x="204.507" y="-479" font-family="Helvetica,sans-Serif" font-size="10.00" fill="#0000a0">Name Sent</text>
<text text-anchor="middle" x="204.507" y="-467" font-family="Helvetica,sans-Serif" font-size="10.00" fill="#0000a0">As Message</text>
</a>
</g>
</g>
<!-- parse&#45;&gt;lookup -->
<g id="edge2" class="edge"><title>parse&#45;&gt;lookup</title>
<path fill="none" stroke="black" d="M188.35,-446.754C181.413,-434.986 173.357,-421.321 166.348,-409.43"/>
<polygon fill="black" stroke="black" points="169.322,-407.582 161.228,-400.745 163.291,-411.137 169.322,-407.582"/>
</g>
<!-- typeInfo -->
<g id="node4" class="node"><title>typeInfo</title>
<g id="a_node4"><a xlink:title="Is type information available? This will be true at the call site of a name, or during the reflective lookup of a method definition using &quot;method definition of_for&quot;." target="_top">
<polygon fill="none" stroke="black" points="149,-302 102,-273 149,-244 196,-273 149,-302"/>
<text text-anchor="middle" x="149" y="-276" font-family="Helvetica,sans-Serif" font-size="10.00" fill="#0000a0">Types</text>
<text text-anchor="middle" x="149" y="-264" font-family="Helvetica,sans-Serif" font-size="10.00" fill="#0000a0">Available?</text>
</a>
</g>
</g>
<!-- lookup&#45;&gt;typeInfo -->
<g id="edge5" class="edge"><title>lookup&#45;&gt;typeInfo</title>
<path fill="none" stroke="black" d="M149,-349.856C149,-338.295 149,-324.725 149,-312.283"/>
<polygon fill="black" stroke="black" points="152.5,-312.166 149,-302.166 145.5,-312.166 152.5,-312.166"/>
<text text-anchor="middle" x="159.005" y="-323.3" font-family="Helvetica,sans-Serif" font-size="9.00" fill="#808080"> ≥ 2</text>
</g>
<!-- resolved -->
<g id="node6" class="node"><title>resolved</title>
<g id="a_node6"><a xlink:title="Name resolution succeeded. Proceed using the resolved atom." target="_top">
<ellipse fill="#33ff99" stroke="black" cx="47" cy="-61" rx="47" ry="29"/>
<text text-anchor="middle" x="47" y="-58" font-family="Helvetica,sans-Serif" font-size="10.00" fill="#0000a0">Resolved</text>
</a>
</g>
</g>
<!-- lookup&#45;&gt;resolved -->
<g id="edge4" class="edge"><title>lookup&#45;&gt;resolved</title>
<path fill="none" stroke="black" d="M132.177,-360.107C119.453,-345.561 102.586,-323.924 93,-302 63.6267,-234.822 52.9484,-148.97 49.1102,-100.272"/>
<polygon fill="black" stroke="black" points="52.5918,-99.8917 48.3711,-90.1739 45.6105,-100.403 52.5918,-99.8917"/>
<text text-anchor="middle" x="71.7521" y="-217.3" font-family="Helvetica,sans-Serif" font-size="9.00" fill="#808080"> 1</text>
</g>
<!-- unresolvable -->
<g id="node7" class="node"><title>unresolvable</title>
<g id="a_node7"><a xlink:title="The name does not occur in the module&#39;s internal directory of visible names. Report failure." target="_top">
<ellipse fill="#e41e1e" stroke="black" cx="271" cy="-61" rx="47" ry="29"/>
<text text-anchor="middle" x="271" y="-58" font-family="Helvetica,sans-Serif" font-size="10.00" fill="#ffffff">Unresolvable</text>
</a>
</g>
</g>
<!-- lookup&#45;&gt;unresolvable -->
<g id="edge3" class="edge"><title>lookup&#45;&gt;unresolvable</title>
<path fill="none" stroke="black" d="M165.347,-359.887C177.81,-345.221 194.555,-323.529 205,-302 237.598,-234.809 256.262,-148.961 264.949,-100.267"/>
<polygon fill="black" stroke="black" points="268.439,-100.622 266.701,-90.1706 261.543,-99.4246 268.439,-100.622"/>
<text text-anchor="middle" x="241.752" y="-217.3" font-family="Helvetica,sans-Serif" font-size="9.00" fill="#808080"> 0</text>
</g>
<!-- filter -->
<g id="node5" class="node"><title>filter</title>
<g id="a_node5"><a xlink:title="Filter the candidate atoms by using available argument type information. This is only possible for atoms with attached methods." target="_top">
<polygon fill="#87cefa" stroke="black" points="175,-196 128,-167 175,-138 222,-167 175,-196"/>
<text text-anchor="middle" x="175" y="-170" font-family="Helvetica,sans-Serif" font-size="10.00" fill="#0000a0">Filter by</text>
<text text-anchor="middle" x="175" y="-158" font-family="Helvetica,sans-Serif" font-size="10.00" fill="#0000a0">Argument Type</text>
</a>
</g>
</g>
<!-- typeInfo&#45;&gt;filter -->
<g id="edge6" class="edge"><title>typeInfo&#45;&gt;filter</title>
<path fill="none" stroke="black" d="M155.096,-247.617C158.462,-234.153 162.697,-217.21 166.395,-202.419"/>
<polygon fill="black" stroke="black" points="169.822,-203.141 168.852,-192.591 163.031,-201.443 169.822,-203.141"/>
<text text-anchor="middle" x="171.252" y="-217.3" font-family="Helvetica,sans-Serif" font-size="9.00" fill="#808080"> yes</text>
</g>
<!-- ambiguous -->
<g id="node8" class="node"><title>ambiguous</title>
<g id="a_node8"><a xlink:title="Even after considering available type information, the name corresponds to more than one visible atom. Report failure." target="_top">
<ellipse fill="#e41e1e" stroke="black" cx="159" cy="-61" rx="47" ry="29"/>
<text text-anchor="middle" x="159" y="-58" font-family="Helvetica,sans-Serif" font-size="10.00" fill="#ffffff">Ambiguous</text>
</a>
</g>
</g>
<!-- typeInfo&#45;&gt;ambiguous -->
<g id="edge7" class="edge"><title>typeInfo&#45;&gt;ambiguous</title>
<path fill="none" stroke="black" d="M134.441,-252.568C124.394,-237.885 111.907,-216.773 106.493,-196 99.9909,-171.056 104.572,-163.706 106.493,-138 107.497,-124.554 104.799,-119.972 111,-108 113.996,-102.216 118.004,-96.7461 122.432,-91.7336"/>
<polygon fill="black" stroke="black" points="125.225,-93.8795 129.651,-84.2534 120.188,-89.0184 125.225,-93.8795"/>
<text text-anchor="middle" x="113.254" y="-164.3" font-family="Helvetica,sans-Serif" font-size="9.00" fill="#808080"> no</text>
</g>
<!-- filter&#45;&gt;resolved -->
<g id="edge9" class="edge"><title>filter&#45;&gt;resolved</title>
<path fill="none" stroke="black" d="M155.281,-149.978C136.085,-134.381 106.465,-110.316 83.0539,-91.2938"/>
<polygon fill="black" stroke="black" points="85.0275,-88.3877 75.0592,-84.7981 80.6133,-93.8205 85.0275,-88.3877"/>
<text text-anchor="middle" x="118.752" y="-111.3" font-family="Helvetica,sans-Serif" font-size="9.00" fill="#808080"> 1</text>
</g>
<!-- filter&#45;&gt;unresolvable -->
<g id="edge8" class="edge"><title>filter&#45;&gt;unresolvable</title>
<path fill="none" stroke="black" d="M191.722,-147.885C205.325,-133.148 224.864,-111.981 241.14,-94.3482"/>
<polygon fill="black" stroke="black" points="244.145,-96.2534 248.356,-86.5313 239.001,-91.5054 244.145,-96.2534"/>
<text text-anchor="middle" x="229.752" y="-111.3" font-family="Helvetica,sans-Serif" font-size="9.00" fill="#808080"> 0</text>
</g>
<!-- filter&#45;&gt;ambiguous -->
<g id="edge10" class="edge"><title>filter&#45;&gt;ambiguous</title>
<path fill="none" stroke="black" d="M171.045,-140.292C169.172,-128.117 166.897,-113.333 164.831,-99.9047"/>
<polygon fill="black" stroke="black" points="168.282,-99.3178 163.303,-89.9663 161.364,-100.382 168.282,-99.3178"/>
<text text-anchor="middle" x="178.005" y="-111.3" font-family="Helvetica,sans-Serif" font-size="9.00" fill="#808080"> ≥ 2</text>
</g>
</g>
</svg>
