<?xml version="1.0" standalone="no"?>
<!DOCTYPE svg PUBLIC "-//W3C//DTD SVG 20010904//EN"
 "http://www.w3.org/TR/2001/REC-SVG-20010904/DTD/svg10.dtd">
<svg version="1.0" xmlns="http://www.w3.org/2000/svg"
 width="768.000000pt" height="768.000000pt" viewBox="0 0 768.000000 768.000000"
 preserveAspectRatio="xMidYMid meet">
<metadata>
Created by potrace 1.14, written by Peter Selinger 2001-2017
</metadata>
<g transform="translate(0.000000,768.000000) scale(0.100000,-0.100000)"
fill="#000000" stroke="none">
<path d="M3784 7577 c-29 -16 -50 -46 -69 -99 -9 -26 -21 -48 -26 -48 -5 0 -9
-5 -9 -11 0 -5 -157 -328 -350 -716 -192 -387 -350 -709 -350 -714 0 -5 -5 -9
-10 -9 -6 0 -9 -3 -8 -7 1 -5 -91 -196 -205 -426 -114 -229 -207 -420 -207
-423 0 -3 -8 -18 -18 -32 -10 -15 -29 -52 -42 -82 -13 -30 -31 -63 -40 -74 -8
-10 -14 -20 -13 -22 4 -6 -150 -318 -160 -325 -5 -3 -8 -8 -7 -10 4 -7 -44
-104 -52 -107 -4 -2 -8 -9 -8 -16 0 -13 -228 -477 -239 -486 -3 -3 -8 -14 -9
-25 -2 -11 -7 -22 -10 -25 -4 -3 -36 -66 -72 -140 -36 -74 -68 -137 -72 -138
-5 -2 -8 -12 -8 -23 0 -10 -4 -19 -10 -19 -5 0 -9 -3 -8 -7 2 -7 -530 -1089
-552 -1123 -5 -8 -16 -28 -24 -45 -20 -44 -156 -318 -166 -335 -28 -48 -284
-576 -282 -582 1 -5 -3 -8 -8 -8 -6 0 -10 -4 -10 -10 0 -5 -96 -203 -214 -440
-118 -236 -211 -430 -208 -430 4 0 2 -4 -4 -8 -17 -12 -196 -381 -189 -392 14
-23 32 -13 175 95 19 14 78 57 130 95 52 38 102 76 111 85 9 8 21 15 27 15 5
0 12 4 14 8 2 7 175 137 326 246 24 17 54 40 67 51 13 11 33 27 45 35 37 25
539 395 570 420 10 8 29 22 42 32 63 45 264 194 274 203 6 5 22 17 34 25 12 8
41 29 64 46 107 81 284 211 306 225 14 10 35 26 47 38 12 12 24 21 27 21 3 0
163 118 288 212 9 7 26 20 38 28 12 8 34 25 48 37 15 13 33 23 40 23 6 0 12 4
12 8 0 4 34 32 76 62 42 30 84 61 94 70 10 8 71 53 136 100 65 47 126 93 136
102 10 10 23 18 28 18 6 0 10 4 10 8 0 4 14 16 32 26 17 11 39 25 47 32 23 19
165 125 206 154 20 14 44 32 55 41 10 8 29 23 42 32 13 9 50 37 83 61 33 24
69 46 80 48 21 4 71 -21 121 -60 16 -12 171 -128 344 -258 173 -129 325 -244
338 -255 12 -10 27 -19 32 -19 6 0 13 -7 16 -15 4 -8 10 -15 16 -15 5 0 40
-25 78 -55 38 -30 73 -55 79 -55 5 0 11 -4 13 -8 2 -5 116 -92 253 -195 138
-103 255 -190 260 -195 6 -4 26 -19 45 -32 19 -14 46 -35 60 -47 13 -13 28
-23 32 -23 3 0 13 -6 20 -13 7 -7 67 -53 133 -102 66 -50 124 -94 130 -98 5
-4 35 -26 65 -48 30 -23 66 -50 80 -60 14 -10 57 -42 95 -71 39 -28 72 -54 75
-57 3 -3 12 -10 21 -16 16 -10 328 -242 359 -268 8 -6 76 -57 150 -112 74 -55
142 -106 150 -112 8 -7 101 -76 205 -153 105 -77 202 -152 218 -165 15 -14 29
-25 32 -25 2 0 58 -41 123 -90 120 -90 152 -106 152 -72 0 10 -234 486 -520
1057 -286 572 -520 1045 -520 1052 0 6 -3 13 -7 15 -9 4 -74 134 -72 144 0 4
-3 10 -8 13 -12 9 -73 131 -73 147 0 7 -3 14 -7 16 -7 2 -666 1314 -668 1328
0 3 -6 14 -13 25 -19 31 -552 1103 -552 1110 0 3 -5 11 -10 18 -15 17 -350
694 -350 707 0 5 -4 10 -9 10 -5 0 -15 17 -22 37 -6 20 -16 42 -21 47 -12 16
-262 521 -257 522 2 0 -1 7 -8 15 -11 13 -146 277 -148 289 0 3 -7 16 -15 30
-15 27 -62 122 -65 130 0 3 -39 79 -85 170 -82 162 -151 301 -193 390 -20 41
-51 79 -66 81 -3 0 -13 2 -22 4 -8 1 -24 -2 -35 -8z m86 -2432 c9 -5 140 -221
140 -230 0 -2 18 -33 41 -70 42 -69 63 -105 107 -185 13 -25 30 -52 36 -60 7
-8 18 -28 26 -45 8 -16 33 -59 54 -95 34 -57 180 -308 238 -410 11 -19 51 -87
88 -150 107 -182 250 -430 283 -490 16 -30 35 -61 41 -69 12 -15 18 -27 64
-110 37 -69 38 -74 17 -95 -14 -14 -27 -11 -128 25 -62 22 -132 47 -157 55
-25 8 -54 19 -65 24 -11 5 -85 32 -165 60 -80 28 -152 53 -160 57 -8 3 -19 7
-25 9 -17 4 -299 105 -320 114 -106 45 -205 62 -205 36 0 -5 -3 -7 -6 -4 -3 4
-56 -12 -117 -33 -62 -22 -119 -41 -128 -43 -9 -2 -112 -36 -230 -76 -118 -39
-218 -72 -224 -74 -5 -2 -14 -5 -20 -6 -5 -1 -32 -11 -60 -22 -27 -11 -51 -19
-52 -19 -2 0 -8 -2 -15 -4 -110 -38 -327 -107 -338 -107 -53 -2 -58 21 -18 89
18 30 38 62 43 72 9 14 89 143 219 351 23 36 46 74 53 85 13 21 103 167 234
375 43 69 83 130 89 137 5 7 10 15 10 18 0 3 18 33 40 66 22 33 40 65 40 70 0
5 5 9 10 9 6 0 10 5 10 12 0 6 15 34 34 62 18 28 60 94 92 146 32 52 61 97 64
100 3 3 11 16 18 30 6 14 52 88 102 165 49 77 99 157 110 177 11 20 29 43 41
51 20 14 68 15 89 2z"/>
</g>
</svg>
