<?xml version="1.0" encoding="UTF-8" standalone="no"?><!DOCTYPE svg PUBLIC "-//W3C//DTD SVG 1.1//EN" "http://www.w3.org/Graphics/SVG/1.1/DTD/svg11.dtd"><svg width="100%" height="100%" viewBox="0 0 1182 1182" version="1.1" xmlns="http://www.w3.org/2000/svg" xmlns:xlink="http://www.w3.org/1999/xlink" xml:space="preserve" xmlns:serif="http://www.serif.com/" style="fill-rule:evenodd;clip-rule:evenodd;stroke-linejoin:round;stroke-miterlimit:2;"><path d="M148.749,378.173l147.638,288.784l-295.276,-0l147.638,-288.784Z" style="fill:#e9e3cb;fill-opacity:0.06;"/><path d="M148.749,378.173l147.638,288.784l-147.638,-0l-0,-288.784Z" style="fill:#e9e3cb;fill-opacity:0.06;"/><path d="M444.024,378.173l147.638,288.784l-295.275,-0l147.637,-288.784Z" style="fill:#e9e3cb;fill-opacity:0.06;"/><path d="M444.024,378.173l147.638,288.784l-147.638,-0l0,-288.784Z" style="fill:#e9e3cb;fill-opacity:0.06;"/><path d="M739.3,378.173l147.638,288.784l-295.276,-0l147.638,-288.784Z" style="fill:#e9e3cb;fill-opacity:0.06;"/><path d="M739.3,378.173l147.638,288.784l-147.638,-0l-0,-288.784Z" style="fill:#e9e3cb;fill-opacity:0.06;"/><path d="M1034.58,378.173l147.637,288.784l-295.275,-0l147.638,-288.784Z" style="fill:#e9e3cb;fill-opacity:0.06;"/><path d="M1034.58,378.173l147.637,288.784l-147.637,-0l-0,-288.784Z" style="fill:#e9e3cb;fill-opacity:0.06;"/><path d="M295.276,666.957l147.637,288.783l-295.275,0l147.638,-288.783Z" style="fill:#e9e3cb;fill-opacity:0.06;"/><path d="M295.276,666.957l147.637,288.783l-147.637,0l-0,-288.783Z" style="fill:#e9e3cb;fill-opacity:0.06;"/><path d="M590.551,666.957l147.638,288.783l-295.276,0l147.638,-288.783Z" style="fill:#e9e3cb;fill-opacity:0.06;"/><path d="M590.551,666.957l147.638,288.783l-147.638,0l0,-288.783Z" style="fill:#e9e3cb;fill-opacity:0.06;"/><path d="M885.827,666.957l147.638,288.783l-295.276,0l147.638,-288.783Z" style="fill:#e9e3cb;fill-opacity:0.06;"/><path d="M885.827,666.957l147.638,288.783l-147.638,0l-0,-288.783Z" style="fill:#e9e3cb;fill-opacity:0.06;"/><path d="M1181.1,666.957l1.111,288.783l-148.748,0l147.637,-288.783Z" style="fill:#e9e3cb;fill-opacity:0.06;"/><path d="M0,666.957l147.638,288.783l-147.638,0l0,-288.783Z" style="fill:#e9e3cb;fill-opacity:0.06;"/><path d="M295.276,76.406l147.637,288.783l-295.275,0l147.638,-288.783Z" style="fill:#e9e3cb;fill-opacity:0.06;"/><path d="M295.276,76.406l147.637,288.783l-147.637,0l-0,-288.783Z" style="fill:#e9e3cb;fill-opacity:0.06;"/><path d="M590.551,76.406l147.638,288.783l-295.276,0l147.638,-288.783Z" style="fill:#e9e3cb;fill-opacity:0.06;"/><path d="M590.551,76.406l147.638,288.783l-147.638,0l0,-288.783Z" style="fill:#e9e3cb;fill-opacity:0.06;"/><path d="M885.827,76.406l147.638,288.783l-295.276,0l147.638,-288.783Z" style="fill:#e9e3cb;fill-opacity:0.06;"/><path d="M885.827,76.406l147.638,288.783l-147.638,0l-0,-288.783Z" style="fill:#e9e3cb;fill-opacity:0.06;"/><path d="M1181.1,76.406l1.111,288.783l-148.748,0l147.637,-288.783Z" style="fill:#e9e3cb;fill-opacity:0.06;"/><path d="M0,76.406l147.638,288.783l-147.638,0l0,-288.783Z" style="fill:#e9e3cb;fill-opacity:0.06;"/><path d="M148.749,522.222l147.638,288.783l-295.276,0l147.638,-288.783Z" style="fill:#e9e3cb;fill-opacity:0.06;"/><path d="M148.749,522.222l147.638,288.783l-147.638,0l-0,-288.783Z" style="fill:#e9e3cb;fill-opacity:0.06;"/><path d="M444.024,522.222l147.638,288.783l-295.275,0l147.637,-288.783Z" style="fill:#e9e3cb;fill-opacity:0.06;"/><path d="M444.024,522.222l147.638,288.783l-147.638,0l0,-288.783Z" style="fill:#e9e3cb;fill-opacity:0.06;"/><path d="M739.3,522.222l147.638,288.783l-295.276,0l147.638,-288.783Z" style="fill:#e9e3cb;fill-opacity:0.06;"/><path d="M739.3,522.222l147.638,288.783l-147.638,0l-0,-288.783Z" style="fill:#e9e3cb;fill-opacity:0.06;"/><path d="M1034.58,522.222l147.637,288.783l-295.275,0l147.638,-288.783Z" style="fill:#e9e3cb;fill-opacity:0.06;"/><path d="M1034.58,522.222l147.637,288.783l-147.637,0l-0,-288.783Z" style="fill:#e9e3cb;fill-opacity:0.06;"/><path d="M295.276,811.005l147.637,288.784l-295.275,-0l147.638,-288.784Z" style="fill:#e9e3cb;fill-opacity:0.06;"/><path d="M295.276,811.005l147.637,288.784l-147.637,-0l-0,-288.784Z" style="fill:#e9e3cb;fill-opacity:0.06;"/><path d="M590.551,811.005l147.638,288.784l-295.276,-0l147.638,-288.784Z" style="fill:#e9e3cb;fill-opacity:0.06;"/><path d="M590.551,811.005l147.638,288.784l-147.638,-0l0,-288.784Z" style="fill:#e9e3cb;fill-opacity:0.06;"/><path d="M885.827,811.005l147.638,288.784l-295.276,-0l147.638,-288.784Z" style="fill:#e9e3cb;fill-opacity:0.06;"/><path d="M885.827,811.005l147.638,288.784l-147.638,-0l-0,-288.784Z" style="fill:#e9e3cb;fill-opacity:0.06;"/><path d="M1181.1,811.005l1.111,288.784l-148.748,-0l147.637,-288.784Z" style="fill:#e9e3cb;fill-opacity:0.06;"/><path d="M0,811.005l147.638,288.784l-147.638,-0l0,-288.784Z" style="fill:#e9e3cb;fill-opacity:0.06;"/><path d="M295.276,220.454l147.637,288.784l-295.275,-0l147.638,-288.784Z" style="fill:#e9e3cb;fill-opacity:0.06;"/><path d="M295.276,220.454l147.637,288.784l-147.637,-0l-0,-288.784Z" style="fill:#e9e3cb;fill-opacity:0.06;"/><path d="M590.551,220.454l147.638,288.784l-295.276,-0l147.638,-288.784Z" style="fill:#e9e3cb;fill-opacity:0.06;"/><path d="M590.551,220.454l147.638,288.784l-147.638,-0l0,-288.784Z" style="fill:#e9e3cb;fill-opacity:0.06;"/><path d="M885.827,220.454l147.638,288.784l-295.276,-0l147.638,-288.784Z" style="fill:#e9e3cb;fill-opacity:0.06;"/><path d="M885.827,220.454l147.638,288.784l-147.638,-0l-0,-288.784Z" style="fill:#e9e3cb;fill-opacity:0.06;"/><path d="M1181.1,220.454l1.111,288.784l-148.748,-0l147.637,-288.784Z" style="fill:#e9e3cb;fill-opacity:0.06;"/><path d="M0,220.454l147.638,288.784l-147.638,-0l0,-288.784Z" style="fill:#e9e3cb;fill-opacity:0.06;"/><rect x="0" y="666.957" width="1181.1" height="514.146" style="fill:url(#_Linear1);"/><defs><linearGradient id="_Linear1" x1="0" y1="0" x2="1" y2="0" gradientUnits="userSpaceOnUse" gradientTransform="matrix(1.74725,-365.19,365.19,1.74725,566.138,1059.9)"><stop offset="0" style="stop-color:#fff;stop-opacity:1"/><stop offset="1" style="stop-color:#fff;stop-opacity:0"/></linearGradient></defs></svg>