<?xml version="1.0" encoding="UTF-8" standalone="no"?><!DOCTYPE svg PUBLIC "-//W3C//DTD SVG 1.1//EN" "http://www.w3.org/Graphics/SVG/1.1/DTD/svg11.dtd"><svg width="100%" height="100%" viewBox="0 0 47 48" version="1.1" xmlns="http://www.w3.org/2000/svg" xmlns:xlink="http://www.w3.org/1999/xlink" xml:space="preserve" xmlns:serif="http://www.serif.com/" style="fill-rule:evenodd;clip-rule:evenodd;stroke-linejoin:round;stroke-miterlimit:2;"><path d="M0.508,46.677c-0.057,0.042 -0.135,0.039 -0.188,-0.006c-0.054,-0.045 -0.07,-0.121 -0.039,-0.184c2.417,-4.874 19.698,-39.71 22.636,-45.632c0.08,-0.162 0.245,-0.264 0.425,-0.264c0.18,-0 0.345,0.101 0.426,0.263c2.956,5.915 20.346,40.716 22.799,45.624c0.031,0.063 0.015,0.139 -0.039,0.185c-0.054,0.045 -0.132,0.047 -0.189,0.005c-3.163,-2.368 -19.911,-14.905 -22.465,-16.817c-0.193,-0.145 -0.46,-0.146 -0.654,-0.001c-2.576,1.908 -19.547,14.482 -22.712,16.827Zm15.203,-18.208c-0.097,0.032 -0.204,-0 -0.268,-0.08c-0.063,-0.081 -0.069,-0.192 -0.015,-0.279c1.346,-2.157 6.112,-9.791 7.567,-12.122c0.09,-0.144 0.249,-0.231 0.418,-0.228c0.17,0.003 0.326,0.094 0.411,0.241c1.362,2.346 5.777,9.95 7.029,12.106c0.052,0.088 0.042,0.199 -0.023,0.277c-0.065,0.078 -0.172,0.108 -0.268,0.073c-1.621,-0.581 -5.902,-2.116 -6.917,-2.48c-0.141,-0.051 -0.295,-0.053 -0.438,-0.005c-1.072,0.357 -5.77,1.922 -7.496,2.497Z" style="fill:#fff;"/></svg>