<?xml version="1.0" encoding="UTF-8" standalone="no"?><!DOCTYPE svg PUBLIC "-//W3C//DTD SVG 1.1//EN" "http://www.w3.org/Graphics/SVG/1.1/DTD/svg11.dtd"><svg width="100%" height="100%" viewBox="0 0 1500 305" version="1.1" xmlns="http://www.w3.org/2000/svg" xmlns:xlink="http://www.w3.org/1999/xlink" xml:space="preserve" xmlns:serif="http://www.serif.com/" style="fill-rule:evenodd;clip-rule:evenodd;stroke-linejoin:round;stroke-miterlimit:2;"><path d="M591.216,130.284l-94.584,0c-2.441,0 -4.422,1.982 -4.422,4.422l-0,46.244c-0,2.441 1.981,4.425 4.422,4.425l36.897,0l-0,57.456c-0,0 -8.285,2.822 -31.191,2.822c-27.022,0 -64.772,-9.872 -64.772,-92.884c0,-83.028 39.31,-93.953 76.213,-93.953c31.943,-0 45.706,5.625 54.462,8.334c2.753,0.841 5.297,-1.897 5.297,-4.337l10.553,-44.682c0,-1.143 -0.387,-2.519 -1.687,-3.453c-3.557,-2.537 -25.253,-14.678 -80.066,-14.678c-63.141,0 -127.912,26.866 -127.912,156.006c-0,129.144 74.156,148.388 136.646,148.388c51.741,-0 83.129,-22.11 83.129,-22.11c1.293,-0.712 1.434,-2.521 1.434,-3.35l-0,-144.228c-0,-2.44 -1.978,-4.422 -4.419,-4.422Zm-435.182,-130.284c-86.169,0 -156.034,69.865 -156.034,156.053c0,68.945 44.708,127.43 106.718,148.074c7.807,1.427 10.653,-3.391 10.653,-7.53c-0,-3.698 -0.135,-13.517 -0.211,-26.536c-43.406,9.427 -52.564,-20.922 -52.564,-20.922c-7.099,-18.019 -17.33,-22.819 -17.33,-22.819c-14.168,-9.685 1.073,-9.493 1.073,-9.493c15.663,1.111 23.902,16.084 23.902,16.084c13.919,23.844 36.527,16.956 45.417,12.971c1.418,-10.087 5.441,-16.965 9.905,-20.864c-34.649,-3.938 -71.081,-17.33 -71.081,-77.127c-0,-17.032 6.083,-30.961 16.065,-41.872c-1.609,-3.947 -6.964,-19.811 1.523,-41.299c0,0 13.105,-4.195 42.917,15.999c12.444,-3.459 25.798,-5.193 39.066,-5.25c13.249,0.057 26.603,1.791 39.066,5.25c29.793,-20.194 42.87,-15.999 42.87,-15.999c8.516,21.488 3.161,37.352 1.551,41.299c10.002,10.911 16.046,24.84 16.046,41.872c0,59.95 -36.489,73.141 -71.253,77.002c5.604,4.819 10.595,14.341 10.595,28.902c-0,20.855 -0.192,37.687 -0.192,42.802c0,4.177 2.807,9.034 10.729,7.511c61.962,-20.683 106.632,-79.129 106.632,-148.055c0,-86.188 -69.874,-156.053 -156.063,-156.053Zm1125.03,102.709l-52.847,-0c-2.425,-0 -4.397,1.997 -4.397,4.456l0,136.644c0,-0 -13.428,9.825 -32.484,9.825c-19.056,-0 -24.113,-8.647 -24.113,-27.306l0,-119.163c0,-2.459 -1.968,-4.456 -4.393,-4.456l-53.638,-0c-2.419,-0 -4.403,1.997 -4.403,4.456l0,128.184c0,55.422 30.888,68.982 73.378,68.982c34.863,-0 62.969,-19.26 62.969,-19.26c-0,0 1.334,10.15 1.944,11.353c0.603,1.2 2.181,2.413 3.887,2.413l34.122,-0.15c2.419,-0 4.403,-2 4.403,-4.45l-0.019,-187.072c0,-2.459 -1.975,-4.456 -4.409,-4.456Zm144.443,-6.261c-30.015,0 -50.431,13.394 -50.431,13.394l0,-94.369c0,-2.459 -1.969,-4.446 -4.394,-4.446l-53.409,-0c-2.428,-0 -4.4,1.987 -4.4,4.446l-0,278.682c-0,2.459 1.972,4.459 4.406,4.459l37.056,0c1.669,0 2.932,-0.862 3.866,-2.369c0.922,-1.497 2.25,-12.847 2.25,-12.847c0,0 21.838,20.694 63.178,20.694c48.538,0 76.372,-24.619 76.372,-110.519c0,-85.9 -44.456,-97.125 -74.494,-97.125Zm-584.538,5.817l-39.95,-0c-0,-0 -0.06,-52.766 -0.06,-52.778c0,-1.997 -1.028,-2.997 -3.34,-2.997l-54.438,-0c-2.115,-0 -3.253,0.934 -3.253,2.968l0,54.538c0,-0 -27.281,6.584 -29.125,7.119c-1.837,0.531 -3.19,2.225 -3.19,4.247l-0,34.271c-0,2.463 1.968,4.454 4.403,4.454l27.912,-0l0,82.45c0,61.237 42.956,67.253 71.941,67.253c13.247,-0 29.09,-4.253 31.706,-5.219c1.581,-0.581 2.503,-2.219 2.503,-3.994l0.044,-37.703c-0,-2.459 -2.078,-4.45 -4.416,-4.45c-2.328,0 -8.284,0.947 -14.415,0.947c-19.622,-0 -26.272,-9.122 -26.272,-20.931c-0,-11.803 -0.003,-78.353 -0.003,-78.353l39.953,-0c2.434,-0 4.409,-1.991 4.409,-4.454l0,-42.928c0,-2.459 -1.975,-4.44 -4.409,-4.44Zm237.696,-86.791c0,-2.459 -1.95,-4.447 -4.39,-4.447l-53.256,0c-2.435,0 -4.41,1.988 -4.41,4.447c0,0.013 0.013,102.922 0.013,102.922l-83.013,-0l0,-102.922c0,-2.459 -1.959,-4.447 -4.397,-4.447l-53.253,0c-2.422,0 -4.397,1.988 -4.397,4.447l0,278.681c0,2.457 1.975,4.457 4.397,4.457l53.253,-0c2.438,-0 4.397,-2 4.397,-4.457l0,-119.203l83.013,0c-0,0 -0.144,119.194 -0.144,119.203c-0,2.457 1.972,4.457 4.412,4.457l53.382,-0c2.437,-0 4.387,-2 4.393,-4.457l0,-278.681Zm-390.759,275.985l0,-184.731c0,-2.441 -1.968,-4.438 -4.406,-4.438l-53.087,0c-2.438,0 -4.616,2.51 -4.616,4.953l-0,184.304c-0,5.412 3.375,7.025 7.744,7.025l47.831,-0c5.247,-0 6.534,-2.579 6.534,-7.113Zm716.758,-37.995c-18.332,-0.559 -30.766,-8.875 -30.766,-8.875l-0,-88.253c-0,-0 12.265,-7.519 27.316,-8.863c19.031,-1.703 37.368,4.044 37.368,49.444c0,47.872 -8.275,57.322 -33.918,56.547Zm-712.949,-201.421c-0,-19.175 -15.375,-34.671 -34.344,-34.671c-18.95,-0 -34.334,15.496 -34.334,34.671c-0,19.157 15.384,34.697 34.334,34.697c18.969,0 34.344,-15.54 34.344,-34.697Z" style="fill:#201218;fill-rule:nonzero;"/></svg>