<?xml version="1.0" encoding="UTF-8" standalone="no"?><!DOCTYPE svg PUBLIC "-//W3C//DTD SVG 1.1//EN" "http://www.w3.org/Graphics/SVG/1.1/DTD/svg11.dtd"><svg width="100%" height="100%" viewBox="0 0 136 48" version="1.1" xmlns="http://www.w3.org/2000/svg" xmlns:xlink="http://www.w3.org/1999/xlink" xml:space="preserve" xmlns:serif="http://www.serif.com/" style="fill-rule:evenodd;clip-rule:evenodd;stroke-linejoin:round;stroke-miterlimit:2;"><path d="M105.357,0c-0.109,0 -0.212,0.047 -0.283,0.129c-0.072,0.082 -0.105,0.19 -0.09,0.298c0.596,4.43 5.642,41.925 6.221,46.225c0.031,0.23 0.227,0.401 0.459,0.401c2.872,0 20.148,0 23.207,0c0.256,0 0.463,-0.207 0.463,-0.463c-0,-0.709 -0,-2.053 -0,-2.719c-0,-0.228 -0.166,-0.422 -0.391,-0.457c-2.828,-0.448 -20.059,-3.178 -20.059,-3.178l-0.056,-40.236l-9.471,0Zm-17.197,0c-0.124,-0 -0.24,0.061 -0.31,0.163c-0.07,0.103 -0.086,0.233 -0.041,0.349c1.859,4.834 16.294,42.355 17.781,46.22c0.074,0.193 0.26,0.321 0.468,0.321c0.646,0 2.041,0 2.781,0c0.117,0 0.227,-0.054 0.298,-0.146c0.071,-0.091 0.096,-0.211 0.067,-0.324c-1.185,-4.633 -10.752,-42.038 -11.818,-46.206c-0.056,-0.222 -0.256,-0.377 -0.485,-0.377c-1.51,0 -6.982,0 -8.741,0Zm-31.099,46.677c-0.057,0.042 -0.135,0.039 -0.189,-0.006c-0.054,-0.045 -0.07,-0.121 -0.038,-0.184c2.417,-4.874 19.698,-39.71 22.636,-45.632c0.08,-0.162 0.245,-0.264 0.425,-0.264c0.18,-0 0.345,0.101 0.426,0.263c2.955,5.915 20.346,40.716 22.799,45.624c0.031,0.063 0.015,0.139 -0.039,0.185c-0.054,0.045 -0.132,0.047 -0.189,0.005c-3.163,-2.368 -19.911,-14.905 -22.465,-16.817c-0.194,-0.145 -0.46,-0.146 -0.654,-0.001c-2.577,1.908 -19.547,14.482 -22.712,16.827Zm-56.818,-0c-0.057,0.042 -0.135,0.039 -0.188,-0.006c-0.054,-0.045 -0.07,-0.121 -0.039,-0.184c2.417,-4.874 19.698,-39.71 22.636,-45.632c0.08,-0.162 0.245,-0.264 0.425,-0.264c0.18,-0 0.345,0.101 0.426,0.263c2.956,5.915 20.346,40.716 22.799,45.624c0.031,0.063 0.015,0.139 -0.039,0.185c-0.054,0.045 -0.132,0.047 -0.189,0.005c-3.162,-2.368 -19.911,-14.905 -22.465,-16.817c-0.193,-0.145 -0.46,-0.146 -0.654,-0.001c-2.576,1.908 -19.547,14.482 -22.712,16.827Zm28.835,-45.33c-0.047,-0.063 -0.134,-0.08 -0.201,-0.038c-0.067,0.041 -0.092,0.127 -0.056,0.197c3.667,7.318 19.565,39.037 22.396,44.685c0.081,0.162 0.247,0.264 0.428,0.262c0.18,-0.001 0.345,-0.105 0.424,-0.268c2.741,-5.659 18.075,-37.315 21.634,-44.662c0.034,-0.071 0.009,-0.156 -0.059,-0.197c-0.067,-0.04 -0.155,-0.023 -0.201,0.041c-4.011,5.496 -18.873,25.859 -21.459,29.402c-0.09,0.124 -0.234,0.197 -0.387,0.198c-0.153,0.002 -0.298,-0.07 -0.39,-0.192c-2.655,-3.532 -18.016,-23.959 -22.129,-29.428Zm-13.632,27.122c-0.097,0.032 -0.204,-0 -0.268,-0.08c-0.063,-0.081 -0.069,-0.192 -0.015,-0.279c1.346,-2.157 6.112,-9.791 7.567,-12.122c0.09,-0.144 0.249,-0.231 0.418,-0.228c0.17,0.003 0.326,0.094 0.411,0.241c1.362,2.346 5.777,9.95 7.029,12.106c0.052,0.088 0.042,0.199 -0.023,0.277c-0.065,0.078 -0.172,0.108 -0.268,0.073c-1.621,-0.581 -5.902,-2.116 -6.917,-2.48c-0.141,-0.051 -0.295,-0.053 -0.438,-0.005c-1.072,0.357 -5.77,1.922 -7.496,2.497Zm56.818,-0c-0.098,0.032 -0.204,-0 -0.268,-0.08c-0.063,-0.081 -0.069,-0.192 -0.015,-0.279c1.346,-2.157 6.112,-9.791 7.567,-12.122c0.09,-0.144 0.249,-0.231 0.418,-0.228c0.17,0.003 0.325,0.094 0.411,0.241c1.362,2.346 5.777,9.95 7.029,12.106c0.051,0.088 0.042,0.199 -0.023,0.277c-0.065,0.078 -0.173,0.108 -0.269,0.073c-1.62,-0.581 -5.901,-2.116 -6.916,-2.48c-0.141,-0.051 -0.295,-0.053 -0.438,-0.005c-1.072,0.357 -5.77,1.922 -7.496,2.497Z" style="fill:#333333;"/></svg>