<?xml version="1.0" encoding="UTF-8" standalone="no"?><!DOCTYPE svg PUBLIC "-//W3C//DTD SVG 1.1//EN" "http://www.w3.org/Graphics/SVG/1.1/DTD/svg11.dtd"><svg width="100%" height="100%" viewBox="0 0 144 144" version="1.1" xmlns="http://www.w3.org/2000/svg" xmlns:xlink="http://www.w3.org/1999/xlink" xml:space="preserve" xmlns:serif="http://www.serif.com/" style="fill-rule:evenodd;clip-rule:evenodd;stroke-linejoin:round;stroke-miterlimit:2;"><circle cx="123.421" cy="7.689" r="1.405" style="fill:#fff;"/><circle cx="134.492" cy="4.879" r="0.603" style="fill:#bababa;"/><circle cx="125.73" cy="22.347" r="0.603" style="fill:#fff;"/><path d="M124.225,129.078c0.588,-0.505 1.476,-0.439 1.982,0.149c0.505,0.587 0.439,1.475 -0.149,1.981c-0.587,0.506 -1.475,0.439 -1.981,-0.148c-0.506,-0.588 -0.439,-1.476 0.148,-1.982Z" style="fill:#cdcdcd;"/><path d="M131.306,120.334c0.252,-0.217 0.633,-0.188 0.85,0.064c0.218,0.252 0.189,0.634 -0.063,0.851c-0.253,0.217 -0.634,0.188 -0.851,-0.064c-0.217,-0.252 -0.188,-0.633 0.064,-0.851Z" style="fill:#cdcdcd;"/><path d="M136.06,139.29c0.253,-0.217 0.634,-0.188 0.851,0.064c0.217,0.252 0.189,0.633 -0.064,0.851c-0.252,0.217 -0.633,0.188 -0.85,-0.064c-0.218,-0.252 -0.189,-0.634 0.063,-0.851Z" style="fill:#cdcdcd;"/><circle cx="112.871" cy="137.716" r="2.634" style="fill:#fff;"/><circle cx="138.577" cy="19.318" r="4.463" style="fill:#ececec;"/><circle cx="10.323" cy="10.323" r="2.634" style="fill:#d8d8d8;"/><circle cx="24.152" cy="5.055" r="2.634" style="fill:#fff;"/><circle cx="6.284" cy="34.576" r="1.405" style="fill:#e2e2e2;"/><circle cx="72" cy="72" r="71.216" style="fill:#fff;"/><circle cx="72" cy="72" r="65.716" style="fill:#e4e0e8;"/><circle cx="96.259" cy="123.218" r="2.899" style="fill:#d6d0db;"/><path d="M13.97,41.177c8.262,-15.535 22.693,-27.734 41.009,-32.641c35.034,-9.388 71.098,11.434 80.485,46.468c5.466,20.4 0.69,41.15 -11.173,56.78c5.442,-13.079 6.77,-27.987 2.824,-42.716c-9.503,-35.464 -46.01,-56.541 -81.474,-47.038c-12.625,3.383 -23.427,10.188 -31.671,19.147Z" style="fill:#d4cfdb;"/><circle cx="80.991" cy="14.855" r="5.149" style="fill:#cdc5d3;"/><circle cx="36.102" cy="70.122" r="11.088" style="fill:#d2cbd7;"/><path d="M26.821,64.069c1.974,-3.032 5.395,-5.035 9.281,-5.035c6.12,-0 11.088,4.968 11.088,11.088c-0,0.882 -0.103,1.74 -0.309,2.56c-1.301,-6.042 -6.68,-10.573 -13.108,-10.573c-2.548,-0 -4.93,0.711 -6.952,1.96Z" style="fill:#c2b8ca;"/><circle cx="64.755" cy="106.624" r="15.427" style="fill:#d2cbd7;"/><circle cx="100.622" cy="88.541" r="6.995" style="fill:#d2cbd7;"/><circle cx="93.135" cy="44.951" r="6.995" style="fill:#d2cbd7;"/><circle cx="52.066" cy="35.307" r="2.995" style="fill:#d6d0db;"/><circle cx="28.751" cy="106.175" r="4.169" style="fill:#d6d0db;"/><circle cx="16.053" cy="57.293" r="1.865" style="fill:#eceaef;"/><circle cx="73.865" cy="83.075" r="1.865" style="fill:#ebe8ee;"/><circle cx="123.431" cy="79.345" r="1.865" style="fill:#e4e0e8;"/><path d="M51.887,98.146c2.742,-4.185 7.495,-6.949 12.892,-6.949c8.501,-0 15.403,6.857 15.403,15.303c0,1.217 -0.143,2.401 -0.43,3.532c-1.807,-8.338 -9.278,-14.591 -18.208,-14.591c-3.539,-0 -6.849,0.982 -9.657,2.705Z" style="fill:#c2b8ca;"/><path d="M87.444,40.891c1.229,-1.768 3.36,-2.935 5.78,-2.935c3.812,0 6.907,2.896 6.907,6.463c-0,0.514 -0.065,1.014 -0.193,1.492c-0.81,-3.522 -4.16,-6.163 -8.164,-6.163c-1.587,0 -3.071,0.415 -4.33,1.143Z" style="fill:#c2b8ca;"/><path d="M94.93,84.48c1.23,-1.767 3.361,-2.935 5.781,-2.935c3.812,0 6.907,2.896 6.907,6.463c-0,0.514 -0.065,1.015 -0.193,1.492c-0.81,-3.521 -4.16,-6.162 -8.164,-6.162c-1.587,-0 -3.071,0.414 -4.331,1.142Z" style="fill:#c2b8ca;"/></svg>