<?xml version="1.0" encoding="UTF-8" standalone="no"?><!DOCTYPE svg PUBLIC "-//W3C//DTD SVG 1.1//EN" "http://www.w3.org/Graphics/SVG/1.1/DTD/svg11.dtd"><svg width="100%" height="100%" viewBox="0 0 144 144" version="1.1" xmlns="http://www.w3.org/2000/svg" xmlns:xlink="http://www.w3.org/1999/xlink" xml:space="preserve" xmlns:serif="http://www.serif.com/" style="fill-rule:evenodd;clip-rule:evenodd;stroke-linejoin:round;stroke-miterlimit:2;"><path d="M80.614,1.908c0.148,-0.208 0.398,-0.318 0.651,-0.284c0.253,0.033 0.467,0.204 0.556,0.443c1.16,3.09 3.743,5.595 7.172,6.514c3.429,0.919 6.919,0.041 9.469,-2.055c0.196,-0.163 0.466,-0.204 0.702,-0.106c0.236,0.097 0.398,0.317 0.422,0.572c0.321,3.285 2.168,6.373 5.242,8.148c3.074,1.775 6.673,1.83 9.678,0.465c0.232,-0.106 0.504,-0.076 0.706,0.08c0.203,0.155 0.302,0.41 0.259,0.661c-0.54,3.257 0.445,6.718 2.955,9.228c2.51,2.51 5.971,3.495 9.228,2.954c0.251,-0.043 0.506,0.057 0.661,0.26c0.156,0.202 0.186,0.474 0.079,0.706c-1.364,3.005 -1.309,6.604 0.466,9.678c1.775,3.074 4.863,4.921 8.148,5.242c0.255,0.024 0.475,0.186 0.572,0.422c0.098,0.235 0.057,0.506 -0.106,0.702c-2.096,2.55 -2.974,6.04 -2.055,9.469c0.919,3.429 3.424,6.012 6.514,7.172c0.24,0.089 0.41,0.303 0.443,0.556c0.034,0.253 -0.076,0.503 -0.284,0.651c-2.685,1.92 -4.436,5.064 -4.436,8.614c-0,3.55 1.751,6.694 4.436,8.614c0.208,0.148 0.318,0.398 0.284,0.651c-0.033,0.253 -0.204,0.467 -0.443,0.556c-3.09,1.16 -5.595,3.743 -6.514,7.172c-0.919,3.429 -0.041,6.919 2.055,9.469c0.163,0.196 0.204,0.466 0.106,0.702c-0.097,0.236 -0.317,0.398 -0.572,0.422c-3.285,0.321 -6.373,2.168 -8.148,5.242c-1.775,3.074 -1.83,6.673 -0.465,9.678c0.106,0.232 0.076,0.504 -0.08,0.706c-0.155,0.203 -0.41,0.302 -0.661,0.259c-3.257,-0.54 -6.718,0.445 -9.228,2.955c-2.51,2.51 -3.495,5.971 -2.954,9.228c0.043,0.251 -0.057,0.506 -0.26,0.661c-0.202,0.156 -0.474,0.186 -0.706,0.079c-3.005,-1.364 -6.604,-1.309 -9.678,0.466c-3.074,1.775 -4.921,4.863 -5.242,8.148c-0.024,0.255 -0.186,0.475 -0.422,0.572c-0.235,0.098 -0.506,0.057 -0.702,-0.106c-2.55,-2.096 -6.04,-2.974 -9.469,-2.055c-3.429,0.919 -6.012,3.424 -7.172,6.514c-0.089,0.24 -0.303,0.41 -0.556,0.443c-0.253,0.034 -0.503,-0.076 -0.651,-0.284c-1.92,-2.685 -5.064,-4.436 -8.614,-4.436c-3.55,-0 -6.694,1.751 -8.614,4.436c-0.148,0.208 -0.398,0.318 -0.651,0.284c-0.253,-0.033 -0.467,-0.204 -0.556,-0.443c-1.16,-3.09 -3.743,-5.595 -7.172,-6.514c-3.429,-0.919 -6.919,-0.041 -9.469,2.055c-0.196,0.163 -0.466,0.204 -0.702,0.106c-0.236,-0.097 -0.398,-0.317 -0.422,-0.572c-0.321,-3.285 -2.168,-6.373 -5.242,-8.148c-3.074,-1.775 -6.673,-1.83 -9.678,-0.465c-0.232,0.106 -0.504,0.076 -0.706,-0.08c-0.203,-0.155 -0.302,-0.41 -0.259,-0.661c0.54,-3.257 -0.445,-6.718 -2.955,-9.228c-2.51,-2.51 -5.971,-3.495 -9.228,-2.954c-0.251,0.043 -0.506,-0.057 -0.661,-0.26c-0.156,-0.202 -0.186,-0.474 -0.079,-0.706c1.364,-3.005 1.309,-6.604 -0.466,-9.678c-1.775,-3.074 -4.863,-4.921 -8.148,-5.242c-0.255,-0.024 -0.475,-0.186 -0.572,-0.422c-0.098,-0.235 -0.057,-0.506 0.106,-0.702c2.096,-2.55 2.974,-6.04 2.055,-9.469c-0.919,-3.429 -3.424,-6.012 -6.514,-7.172c-0.24,-0.089 -0.41,-0.303 -0.443,-0.556c-0.034,-0.253 0.076,-0.503 0.284,-0.651c2.685,-1.92 4.436,-5.064 4.436,-8.614c0,-3.55 -1.751,-6.694 -4.436,-8.614c-0.208,-0.148 -0.318,-0.398 -0.284,-0.651c0.033,-0.253 0.204,-0.467 0.443,-0.556c3.09,-1.16 5.595,-3.743 6.514,-7.172c0.919,-3.429 0.041,-6.919 -2.055,-9.469c-0.163,-0.196 -0.204,-0.466 -0.106,-0.702c0.097,-0.236 0.317,-0.398 0.572,-0.422c3.285,-0.321 6.373,-2.168 8.148,-5.242c1.775,-3.074 1.83,-6.673 0.465,-9.678c-0.106,-0.232 -0.076,-0.504 0.08,-0.706c0.155,-0.203 0.41,-0.302 0.661,-0.259c3.257,0.54 6.718,-0.445 9.228,-2.955c2.51,-2.51 3.495,-5.971 2.954,-9.228c-0.043,-0.251 0.057,-0.506 0.26,-0.661c0.202,-0.156 0.474,-0.186 0.706,-0.079c3.005,1.364 6.604,1.309 9.678,-0.466c3.074,-1.775 4.921,-4.863 5.242,-8.148c0.024,-0.255 0.186,-0.475 0.422,-0.572c0.235,-0.098 0.506,-0.057 0.702,0.106c2.55,2.096 6.04,2.974 9.469,2.055c3.429,-0.919 6.012,-3.424 7.172,-6.514c0.089,-0.24 0.303,-0.41 0.556,-0.443c0.253,-0.034 0.503,0.076 0.651,0.284c1.92,2.685 5.064,4.436 8.614,4.436c3.55,0 6.694,-1.751 8.614,-4.436Z" style="fill:#ffdb28;"/><circle cx="72" cy="72" r="60.052" style="fill:#ffc01f;"/><path d="M71.399,11.951c0.197,-0.002 0.399,-0.003 0.601,-0.003c33.143,0 60.052,26.909 60.052,60.052c-0,21.709 -11.545,40.743 -28.827,51.294c12.106,-11.973 19.609,-28.586 19.609,-46.938c-0,-31.426 -22.004,-57.754 -51.435,-64.405Z" style="fill:#ffb702;"/></svg>