<?xml version="1.0" encoding="UTF-8" standalone="no"?><!DOCTYPE svg PUBLIC "-//W3C//DTD SVG 1.1//EN" "http://www.w3.org/Graphics/SVG/1.1/DTD/svg11.dtd"><svg width="100%" height="100%" viewBox="0 0 144 144" version="1.1" xmlns="http://www.w3.org/2000/svg" xmlns:xlink="http://www.w3.org/1999/xlink" xml:space="preserve" xmlns:serif="http://www.serif.com/" style="fill-rule:evenodd;clip-rule:evenodd;stroke-linejoin:round;stroke-miterlimit:2;"><path d="M80.57,3.541c0.142,-0.245 0.419,-0.379 0.699,-0.338c0.28,0.041 0.507,0.249 0.572,0.525c0.873,3.728 2.342,8.606 5.715,9.51c3.363,0.901 8.041,-4.154 10.947,-7.412c0.198,-0.218 0.512,-0.288 0.783,-0.174c0.271,0.115 0.441,0.389 0.422,0.682c-0.309,4.245 -0.772,10.709 2.235,12.446c3.048,1.759 8.663,-0.278 12.221,-2.19c0.247,-0.135 0.552,-0.107 0.77,0.071c0.218,0.178 0.306,0.471 0.223,0.74c-1.228,3.907 -2.835,9.774 -0.346,12.263c2.468,2.469 9.496,-0.251 13.762,-1.812c0.278,-0.097 0.588,-0.008 0.771,0.222c0.184,0.231 0.202,0.553 0.044,0.802c-2.465,3.862 -6.42,10.468 -4.672,13.495c1.739,3.013 6.314,3.358 9.992,3.291c0.283,-0.005 0.54,0.164 0.649,0.425c0.109,0.262 0.048,0.563 -0.155,0.761c-2.653,2.585 -5.66,6.171 -4.76,9.533c0.903,3.369 6.968,4.92 11.044,5.816c0.283,0.063 0.496,0.297 0.534,0.585c0.038,0.288 -0.107,0.569 -0.364,0.703c-3.716,1.929 -9.213,5.026 -9.213,8.515c0,3.499 5.529,6.604 9.245,8.532c0.255,0.133 0.401,0.411 0.366,0.697c-0.035,0.286 -0.244,0.521 -0.524,0.588c-4.083,0.987 -10.214,2.862 -11.121,6.244c-0.896,3.344 3.518,7.417 6.6,10.152c0.219,0.197 0.289,0.511 0.175,0.783c-0.114,0.272 -0.387,0.441 -0.681,0.423c-4.012,-0.284 -9.658,-0.644 -11.385,2.347c-1.748,3.027 2.059,9.832 4.481,13.752c0.155,0.251 0.134,0.574 -0.053,0.802c-0.187,0.229 -0.499,0.313 -0.776,0.211c-4.186,-1.624 -10.91,-4.538 -13.373,-2.075c-2.476,2.476 -0.69,9.522 0.595,13.78c0.083,0.279 -0.017,0.581 -0.252,0.755c-0.234,0.174 -0.553,0.182 -0.795,0.02c-3.718,-2.53 -9.853,-6.738 -12.886,-4.986c-3.023,1.745 -2.595,7.887 -2.302,12.02c0.018,0.289 -0.145,0.558 -0.41,0.675c-0.264,0.118 -0.573,0.059 -0.775,-0.147c-2.91,-2.96 -7.63,-7.028 -11.005,-6.124c-3.36,0.901 -3.817,7.393 -4.39,11.604c-0.044,0.289 -0.266,0.519 -0.553,0.574c-0.288,0.055 -0.579,-0.077 -0.727,-0.329c-2.236,-3.745 -6.403,-9.357 -9.897,-9.357c-3.494,-0 -6.504,4.51 -8.405,7.936c-0.139,0.249 -0.415,0.388 -0.697,0.35c-0.283,-0.038 -0.513,-0.245 -0.58,-0.522c-0.938,-3.862 -2.639,-9.214 -6.017,-10.119c-3.358,-0.9 -7.363,3.409 -10.073,6.45c-0.195,0.216 -0.504,0.286 -0.774,0.177c-0.269,-0.109 -0.442,-0.375 -0.432,-0.666c0.156,-3.96 0.106,-9.466 -2.898,-11.2c-3.032,-1.751 -10.614,2.561 -14.748,5.123c-0.254,0.157 -0.579,0.134 -0.808,-0.057c-0.229,-0.19 -0.31,-0.506 -0.202,-0.783c1.737,-4.203 5.001,-10.949 2.543,-13.406c-2.485,-2.485 -8.261,-2.854 -12.146,-2.176c-0.277,0.053 -0.557,-0.067 -0.71,-0.303c-0.152,-0.236 -0.146,-0.541 0.016,-0.771c2.098,-2.912 4.771,-6.238 3.032,-9.249c-1.761,-3.052 -9.144,-3.654 -13.59,-3.655c-0.287,0.002 -0.546,-0.174 -0.649,-0.443c-0.104,-0.268 -0.03,-0.572 0.184,-0.764c3.203,-2.831 8.169,-7.311 7.261,-10.701c-0.913,-3.409 -5.142,-5.623 -8.683,-6.694c-0.259,-0.078 -0.45,-0.3 -0.487,-0.568c-0.037,-0.268 0.086,-0.534 0.315,-0.679c2.915,-1.853 5.625,-4.709 5.625,-8.221c-0,-3.482 -4.132,-6.133 -7.452,-7.932c-0.25,-0.137 -0.39,-0.412 -0.354,-0.695c0.036,-0.283 0.241,-0.514 0.517,-0.584c3.952,-0.994 9.633,-2.897 10.54,-6.283c0.907,-3.384 -2.297,-7.881 -5.006,-10.722c-0.197,-0.203 -0.249,-0.506 -0.133,-0.764c0.116,-0.257 0.378,-0.418 0.66,-0.406c3.773,0.184 8.676,0.241 10.42,-2.78c1.748,-3.027 -1.593,-8.941 -3.882,-12.605c-0.153,-0.247 -0.136,-0.564 0.044,-0.793c0.181,-0.229 0.485,-0.321 0.761,-0.23c4.094,1.387 10.538,3.514 13.008,1.043c2.479,-2.478 0.96,-8.945 -0.247,-13.034c-0.082,-0.277 0.017,-0.575 0.247,-0.748c0.23,-0.174 0.544,-0.186 0.788,-0.032c3.614,2.318 9.394,5.789 12.431,4.036c3.038,-1.754 3.116,-8.062 2.971,-12.226c-0.009,-0.286 0.158,-0.549 0.422,-0.66c0.263,-0.112 0.568,-0.05 0.767,0.156c2.923,3.013 7.731,7.303 11.123,6.395c3.361,-0.901 4.68,-6.633 5.508,-10.618c0.06,-0.283 0.292,-0.499 0.579,-0.54c0.287,-0.041 0.57,0.102 0.707,0.358c1.929,3.609 5.021,8.723 8.504,8.723c3.495,0 6.632,-4.186 8.57,-7.518Z" style="fill:#ffdb28;"/><path d="M94.222,21.309c-2.587,-2.763 1.176,-11.393 4.019,-14.402c0.2,-0.211 0.51,-0.275 0.776,-0.16c0.267,0.115 0.433,0.384 0.418,0.673c-0.247,3.994 -0.501,9.623 2.508,11.36c3.043,1.756 8.697,-0.198 12.28,-2.273c0.246,-0.143 0.555,-0.121 0.778,0.056c0.223,0.176 0.316,0.472 0.233,0.744c-1.253,4.072 -2.913,9.868 -0.423,12.357c2.471,2.471 8.511,0.47 12.487,-0.88c0.274,-0.091 0.576,-0.002 0.757,0.224c0.181,0.226 0.203,0.54 0.054,0.788c-2.177,3.652 -5.144,9.544 -3.393,12.575c1.734,3.003 6.206,3.512 10.308,3.198c0.292,-0.02 0.566,0.147 0.682,0.416c0.116,0.269 0.05,0.583 -0.165,0.782c-3.076,2.831 -5.998,6.258 -5.099,9.614c0.903,3.369 6.968,4.92 11.044,5.816c0.283,0.063 0.496,0.297 0.534,0.585c0.038,0.288 -0.107,0.569 -0.364,0.703c-3.716,1.929 -9.213,5.026 -9.213,8.515c0,3.499 5.529,6.604 9.245,8.532c0.255,0.133 0.401,0.411 0.366,0.697c-0.035,0.286 -0.244,0.521 -0.524,0.588c-4.083,0.987 -10.214,2.862 -11.121,6.244c-0.896,3.344 3.518,7.417 6.6,10.152c0.219,0.197 0.289,0.511 0.175,0.783c-0.114,0.272 -0.387,0.441 -0.681,0.423c-4.012,-0.284 -9.658,-0.644 -11.385,2.347c-1.75,3.032 0.921,8.824 3.014,12.447c0.145,0.249 0.121,0.561 -0.061,0.785c-0.182,0.223 -0.483,0.311 -0.756,0.219c-3.852,-1.324 -9.451,-3.228 -11.918,-0.761c-2.479,2.479 -1.239,8.808 -0.111,12.857c0.078,0.277 -0.024,0.573 -0.255,0.744c-0.231,0.171 -0.544,0.181 -0.786,0.025c-1.556,-1.015 -5.707,-11.293 -4.419,-14.888c1.086,-3.032 8.33,-18.719 8.648,-24.289c1.487,-26.018 -7.81,-50.038 -24.252,-67.596Z" style="fill:#ffd501;"/><circle cx="72" cy="72" r="49.705" style="fill:#ffc01f;"/><path d="M71.502,22.297c0.164,-0.001 0.331,-0.002 0.498,-0.002c27.433,-0 49.705,22.272 49.705,49.705c0,17.969 -9.555,33.723 -23.86,42.456c10.02,-9.91 16.23,-23.66 16.23,-38.85c0,-26.012 -18.212,-47.803 -42.573,-53.309Z" style="fill:#ffb702;"/></svg>