<?xml version="1.0" encoding="UTF-8" standalone="no"?>
<!DOCTYPE svg PUBLIC "-//W3C//DTD SVG 1.1//EN"
 "http://www.w3.org/Graphics/SVG/1.1/DTD/svg11.dtd">
<!-- Generated by graphviz version 2.36.0 (20140111.2315)
 -->
<!-- Title: Type lattice: focus on character. Pages: 1 -->
<svg width="424pt" height="314pt"
 viewBox="0.00 0.00 424.00 314.00" xmlns="http://www.w3.org/2000/svg" xmlns:xlink="http://www.w3.org/1999/xlink">
<g id="graph0" class="graph" transform="scale(1 1) rotate(0) translate(4 310)">
<title>Type lattice: focus on character.</title>
<polygon fill="white" stroke="none" points="-4,4 -4,-310 420,-310 420,4 -4,4"/>
<!-- ⊤ -->
<g id="node1" class="node"><title>⊤</title>
<g id="a_node1"><a xlink:href="/about-avail/documentation/type-system/types-top.html" xlink:title="⊤" target="_top">
<text text-anchor="middle" x="207" y="-285" font-family="Consolas" font-size="10.00" fill="#0000a0">⊤</text>
</a>
</g>
</g>
<!-- any -->
<g id="node2" class="node"><title>any</title>
<g id="a_node2"><a xlink:href="/about-avail/documentation/type-system/types-any.html" xlink:title="any" target="_top">
<text text-anchor="middle" x="207" y="-231" font-family="Consolas" font-size="10.00" fill="#0000a0">any</text>
</a>
</g>
</g>
<!-- ⊤&#45;&#45;any -->
<g id="edge1" class="edge"><title>⊤&#45;&#45;any</title>
<path fill="none" stroke="black" d="M207,-269.973C207,-264.286 207,-257.946 207,-252.243"/>
</g>
<!-- nontype -->
<g id="node3" class="node"><title>nontype</title>
<g id="a_node3"><a xlink:href="/about-avail/documentation/type-system/types-nontype.html" xlink:title="nontype" target="_top">
<text text-anchor="middle" x="207" y="-177" font-family="Consolas" font-size="10.00" fill="#0000a0">nontype</text>
</a>
</g>
</g>
<!-- any&#45;&#45;nontype -->
<g id="edge2" class="edge"><title>any&#45;&#45;nontype</title>
<path fill="none" stroke="black" d="M207,-215.973C207,-210.286 207,-203.946 207,-198.243"/>
</g>
<!-- character -->
<g id="node4" class="node"><title>character</title>
<g id="a_node4"><a xlink:href="/about-avail/documentation/type-system/types-character.html" xlink:title="character" target="_top">
<ellipse fill="#e2e8ff" stroke="none" cx="207" cy="-126" rx="31.4736" ry="18"/>
<text text-anchor="middle" x="207" y="-123" font-family="Consolas" font-size="10.00" fill="#0000a0">character</text>
</a>
</g>
</g>
<!-- nontype&#45;&#45;character -->
<g id="edge3" class="edge"><title>nontype&#45;&#45;character</title>
<path fill="none" stroke="black" d="M207,-161.973C207,-156.286 207,-149.946 207,-144.243"/>
</g>
<!-- ¢+ type -->
<g id="node6" class="node"><title>¢+ type</title>
<text text-anchor="middle" x="99" y="-69" font-family="Consolas" font-size="10.00" fill="#0000a0">{¢+}ᵀ</text>
</g>
<!-- character&#45;&#45;¢+ type -->
<g id="edge4" class="edge"><title>character&#45;&#45;¢+ type</title>
<path fill="none" stroke="black" d="M183.831,-113.845C166.973,-105.728 144.085,-94.7074 126.331,-86.1596"/>
</g>
<!-- ¢3 type -->
<g id="node7" class="node"><title>¢3 type</title>
<text text-anchor="middle" x="171" y="-69" font-family="Consolas" font-size="10.00" fill="#0000a0">{¢3}ᵀ</text>
</g>
<!-- character&#45;&#45;¢3 type -->
<g id="edge5" class="edge"><title>character&#45;&#45;¢3 type</title>
<path fill="none" stroke="black" d="M196.003,-109.116C191.868,-103.142 187.148,-96.3247 182.931,-90.234"/>
</g>
<!-- ¢a type -->
<g id="node8" class="node"><title>¢a type</title>
<text text-anchor="middle" x="243" y="-69" font-family="Consolas" font-size="10.00" fill="#0000a0">{¢a}ᵀ</text>
</g>
<!-- character&#45;&#45;¢a type -->
<g id="edge6" class="edge"><title>character&#45;&#45;¢a type</title>
<path fill="none" stroke="black" d="M217.997,-109.116C222.132,-103.142 226.852,-96.3247 231.069,-90.234"/>
</g>
<!-- ¢A type -->
<g id="node9" class="node"><title>¢A type</title>
<text text-anchor="middle" x="316" y="-69" font-family="Consolas" font-size="10.00" fill="#0000a0">{¢A}ᵀ</text>
</g>
<!-- character&#45;&#45;¢A type -->
<g id="edge7" class="edge"><title>character&#45;&#45;¢A type</title>
<path fill="none" stroke="black" d="M230.383,-113.845C247.398,-105.728 270.498,-94.7074 288.415,-86.1596"/>
</g>
<!-- …1 -->
<g id="node5" class="node"><title>…1</title>
</g>
<!-- …1&#45;&#45;¢+ type -->
<g id="edge8" class="edge"><title>…1&#45;&#45;¢+ type</title>
<path fill="none" stroke="#707070" stroke-dasharray="1,5" d="M54.2812,-72C60.104,-72 65.9268,-72 71.7495,-72"/>
</g>
<!-- ¢+ type&#45;&#45;¢3 type -->
<g id="edge9" class="edge"><title>¢+ type&#45;&#45;¢3 type</title>
<path fill="none" stroke="#707070" stroke-dasharray="1,5" d="M126.281,-72C132.104,-72 137.927,-72 143.75,-72"/>
</g>
<!-- ⊥ -->
<g id="node11" class="node"><title>⊥</title>
<g id="a_node11"><a xlink:href="/about-avail/documentation/type-system/types-bottom.html" xlink:title="⊥" target="_top">
<text text-anchor="middle" x="207" y="-15" font-family="Consolas" font-size="10.00" fill="#0000a0">⊥</text>
</a>
</g>
</g>
<!-- ¢+ type&#45;&#45;⊥ -->
<g id="edge13" class="edge"><title>¢+ type&#45;&#45;⊥</title>
<path fill="none" stroke="#000000" d="M126.253,-57.8782C142.625,-49.9954 163.385,-39.9997 179.756,-32.1176"/>
</g>
<!-- ¢3 type&#45;&#45;¢a type -->
<g id="edge10" class="edge"><title>¢3 type&#45;&#45;¢a type</title>
<path fill="none" stroke="#707070" stroke-dasharray="1,5" d="M198.281,-72C204.104,-72 209.927,-72 215.75,-72"/>
</g>
<!-- ¢3 type&#45;&#45;⊥ -->
<g id="edge14" class="edge"><title>¢3 type&#45;&#45;⊥</title>
<path fill="none" stroke="#000000" d="M182.788,-53.9733C186.725,-48.2862 191.114,-41.9464 195.063,-36.243"/>
</g>
<!-- ¢a type&#45;&#45;¢A type -->
<g id="edge11" class="edge"><title>¢a type&#45;&#45;¢A type</title>
<path fill="none" stroke="#707070" stroke-dasharray="1,5" d="M270.09,-72C276.307,-72 282.524,-72 288.741,-72"/>
</g>
<!-- ¢a type&#45;&#45;⊥ -->
<g id="edge15" class="edge"><title>¢a type&#45;&#45;⊥</title>
<path fill="none" stroke="#000000" d="M231.212,-53.9733C227.275,-48.2862 222.886,-41.9464 218.937,-36.243"/>
</g>
<!-- …2 -->
<g id="node10" class="node"><title>…2</title>
</g>
<!-- ¢A type&#45;&#45;…2 -->
<g id="edge12" class="edge"><title>¢A type&#45;&#45;…2</title>
<path fill="none" stroke="#707070" stroke-dasharray="1,5" d="M343.375,-72C349.553,-72 355.732,-72 361.91,-72"/>
</g>
<!-- ¢A type&#45;&#45;⊥ -->
<g id="edge16" class="edge"><title>¢A type&#45;&#45;⊥</title>
<path fill="none" stroke="#000000" d="M288.495,-57.8782C271.845,-49.9352 250.698,-39.8469 234.119,-31.9375"/>
</g>
</g>
</svg>
