<?xml version="1.0" encoding="UTF-8" standalone="no"?>
<!DOCTYPE svg PUBLIC "-//W3C//DTD SVG 1.1//EN"
 "http://www.w3.org/Graphics/SVG/1.1/DTD/svg11.dtd">
<!-- Generated by graphviz version 2.36.0 (20140111.2315)
 -->
<!-- Title: Type lattice: focus on set. Pages: 1 -->
<svg width="488pt" height="476pt"
 viewBox="0.00 0.00 488.00 476.00" xmlns="http://www.w3.org/2000/svg" xmlns:xlink="http://www.w3.org/1999/xlink">
<g id="graph0" class="graph" transform="scale(1 1) rotate(0) translate(4 472)">
<title>Type lattice: focus on set.</title>
<polygon fill="white" stroke="none" points="-4,4 -4,-472 484,-472 484,4 -4,4"/>
<!-- ⊤ -->
<g id="node1" class="node"><title>⊤</title>
<g id="a_node1"><a xlink:href="/about-avail/documentation/type-system/types-top.html" xlink:title="⊤" target="_top">
<text text-anchor="middle" x="344" y="-447" font-family="Consolas" font-size="10.00" fill="#0000a0">⊤</text>
</a>
</g>
</g>
<!-- any -->
<g id="node2" class="node"><title>any</title>
<g id="a_node2"><a xlink:href="/about-avail/documentation/type-system/types-any.html" xlink:title="any" target="_top">
<text text-anchor="middle" x="344" y="-393" font-family="Consolas" font-size="10.00" fill="#0000a0">any</text>
</a>
</g>
</g>
<!-- ⊤&#45;&#45;any -->
<g id="edge1" class="edge"><title>⊤&#45;&#45;any</title>
<path fill="none" stroke="black" d="M344,-431.973C344,-426.286 344,-419.946 344,-414.243"/>
</g>
<!-- nontype -->
<g id="node3" class="node"><title>nontype</title>
<g id="a_node3"><a xlink:href="/about-avail/documentation/type-system/types-nontype.html" xlink:title="nontype" target="_top">
<text text-anchor="middle" x="344" y="-339" font-family="Consolas" font-size="10.00" fill="#0000a0">nontype</text>
</a>
</g>
</g>
<!-- any&#45;&#45;nontype -->
<g id="edge2" class="edge"><title>any&#45;&#45;nontype</title>
<path fill="none" stroke="black" d="M344,-377.973C344,-372.286 344,-365.946 344,-360.243"/>
</g>
<!-- set -->
<g id="node4" class="node"><title>set</title>
<g id="a_node4"><a xlink:href="/about-avail/documentation/type-system/types-set.html" xlink:title="set = {any|}" target="_top">
<ellipse fill="#e2e8ff" stroke="none" cx="344" cy="-288" rx="38.033" ry="18"/>
<text text-anchor="middle" x="344" y="-285" font-family="Consolas" font-size="10.00" fill="#0000a0">set = {any|}</text>
</a>
</g>
</g>
<!-- nontype&#45;&#45;set -->
<g id="edge3" class="edge"><title>nontype&#45;&#45;set</title>
<path fill="none" stroke="black" d="M344,-323.973C344,-318.286 344,-311.946 344,-306.243"/>
</g>
<!-- numbers -->
<g id="node6" class="node"><title>numbers</title>
<text text-anchor="middle" x="307" y="-231" font-family="Consolas" font-size="10.00" fill="#0000a0">{number|}</text>
</g>
<!-- set&#45;&#45;numbers -->
<g id="edge4" class="edge"><title>set&#45;&#45;numbers</title>
<path fill="none" stroke="#d0d0d0" stroke-dasharray="5,2" d="M332.496,-270.832C328.253,-264.869 323.435,-258.097 319.138,-252.058"/>
</g>
<!-- tuples -->
<g id="node7" class="node"><title>tuples</title>
<text text-anchor="middle" x="381" y="-231" font-family="Consolas" font-size="10.00" fill="#0000a0">{tuple|}</text>
</g>
<!-- set&#45;&#45;tuples -->
<g id="edge5" class="edge"><title>set&#45;&#45;tuples</title>
<path fill="none" stroke="#d0d0d0" stroke-dasharray="5,2" d="M355.504,-270.832C359.747,-264.869 364.565,-258.097 368.862,-252.058"/>
</g>
<!-- …numbers -->
<g id="node5" class="node"><title>…numbers</title>
</g>
<!-- …numbers&#45;&#45;numbers -->
<g id="edge6" class="edge"><title>…numbers&#45;&#45;numbers</title>
<path fill="none" stroke="#707070" stroke-dasharray="1,5" d="M260.172,-234C266.025,-234 271.879,-234 277.732,-234"/>
</g>
<!-- numbers&#45;&#45;tuples -->
<g id="edge7" class="edge"><title>numbers&#45;&#45;tuples</title>
<path fill="none" stroke="#707070" stroke-dasharray="1,5" d="M336.195,-234C342.029,-234 347.863,-234 353.697,-234"/>
</g>
<!-- integers -->
<g id="node10" class="node"><title>integers</title>
<text text-anchor="middle" x="195" y="-177" font-family="Consolas" font-size="10.00" fill="#0000a0">{integer|1..}</text>
</g>
<!-- numbers&#45;&#45;integers -->
<g id="edge9" class="edge"><title>numbers&#45;&#45;integers</title>
<path fill="none" stroke="#d0d0d0" stroke-dasharray="5,2" d="M277.866,-219.473C262.44,-212.311 243.45,-203.494 227.542,-196.109"/>
</g>
<!-- {⊥|0} -->
<g id="node14" class="node"><title>{⊥|0}</title>
<text text-anchor="middle" x="381" y="-177" font-family="Consolas" font-size="10.00" fill="#0000a0">{⊥|0}</text>
</g>
<!-- numbers&#45;&#45;{⊥|0} -->
<g id="edge10" class="edge"><title>numbers&#45;&#45;{⊥|0}</title>
<path fill="none" stroke="#d0d0d0" stroke-dasharray="5,2" d="M331.23,-215.973C339.408,-210.227 348.534,-203.814 356.715,-198.065"/>
</g>
<!-- tuples… -->
<g id="node8" class="node"><title>tuples…</title>
</g>
<!-- tuples&#45;&#45;tuples… -->
<g id="edge8" class="edge"><title>tuples&#45;&#45;tuples…</title>
<path fill="none" stroke="#707070" stroke-dasharray="1,5" d="M408.281,-234C414.104,-234 419.927,-234 425.75,-234"/>
</g>
<!-- tuples&#45;&#45;{⊥|0} -->
<g id="edge11" class="edge"><title>tuples&#45;&#45;{⊥|0}</title>
<path fill="none" stroke="#d0d0d0" stroke-dasharray="5,2" d="M381,-215.973C381,-210.286 381,-203.946 381,-198.243"/>
</g>
<!-- empty -->
<g id="node9" class="node"><title>empty</title>
<text text-anchor="middle" x="401" y="-69" font-family="Consolas" font-size="10.00" fill="#0000a0">{∅}ᵀ</text>
</g>
<!-- ⊥ -->
<g id="node13" class="node"><title>⊥</title>
<g id="a_node13"><a xlink:href="/about-avail/documentation/type-system/types-bottom.html" xlink:title="⊥" target="_top">
<text text-anchor="middle" x="234" y="-15" font-family="Consolas" font-size="10.00" fill="#0000a0">⊥</text>
</a>
</g>
</g>
<!-- empty&#45;&#45;⊥ -->
<g id="edge24" class="edge"><title>empty&#45;&#45;⊥</title>
<path fill="none" stroke="black" d="M373.7,-57.4861C370.793,-56.2347 367.856,-55.046 365,-54 329.854,-41.1257 287.832,-30.7422 261.033,-24.7218"/>
</g>
<!-- integers… -->
<g id="node12" class="node"><title>integers…</title>
</g>
<!-- integers&#45;&#45;integers… -->
<g id="edge14" class="edge"><title>integers&#45;&#45;integers…</title>
<path fill="none" stroke="#707070" stroke-dasharray="1,5" d="M227.672,-180C241.754,-180 255.836,-180 269.919,-180"/>
</g>
<!-- {[1..10]|2..3} -->
<g id="node15" class="node"><title>{[1..10]|2..3}</title>
<text text-anchor="middle" x="234" y="-123" font-family="Consolas" font-size="10.00" fill="#0000a0">{[1..10]|2..3}</text>
</g>
<!-- integers&#45;&#45;{[1..10]|2..3} -->
<g id="edge15" class="edge"><title>integers&#45;&#45;{[1..10]|2..3}</title>
<path fill="none" stroke="#d0d0d0" stroke-dasharray="5,2" d="M207.77,-161.973C212.035,-156.286 216.79,-149.946 221.068,-144.243"/>
</g>
<!-- {{1, 2, 3, 4}}ᵀ -->
<g id="node18" class="node"><title>{{1, 2, 3, 4}}ᵀ</title>
<text text-anchor="middle" x="42" y="-69" font-family="Consolas" font-size="10.00" fill="#0000a0">{{1, 2, 3, 4}}ᵀ</text>
</g>
<!-- integers&#45;&#45;{{1, 2, 3, 4}}ᵀ -->
<g id="edge16" class="edge"><title>integers&#45;&#45;{{1, 2, 3, 4}}ᵀ</title>
<path fill="none" stroke="#d0d0d0" stroke-dasharray="5,2" d="M170.418,-161.969C141.951,-142.247 95.3234,-109.943 66.7748,-90.1642"/>
</g>
<!-- {{20, 10}}ᵀ -->
<g id="node19" class="node"><title>{{20, 10}}ᵀ</title>
<text text-anchor="middle" x="139" y="-69" font-family="Consolas" font-size="10.00" fill="#0000a0">{{20, 10}}ᵀ</text>
</g>
<!-- integers&#45;&#45;{{20, 10}}ᵀ -->
<g id="edge17" class="edge"><title>integers&#45;&#45;{{20, 10}}ᵀ</title>
<path fill="none" stroke="#d0d0d0" stroke-dasharray="5,2" d="M186.003,-161.969C175.614,-142.306 158.618,-110.135 148.161,-90.3406"/>
</g>
<!-- …integers -->
<g id="node11" class="node"><title>…integers</title>
</g>
<!-- …integers&#45;&#45;integers -->
<g id="edge13" class="edge"><title>…integers&#45;&#45;integers</title>
<path fill="none" stroke="#707070" stroke-dasharray="1,5" d="M144.117,-180C150.213,-180 156.308,-180 162.403,-180"/>
</g>
<!-- {⊥|0}&#45;&#45;empty -->
<g id="edge12" class="edge"><title>{⊥|0}&#45;&#45;empty</title>
<path fill="none" stroke="black" d="M384.213,-161.969C387.923,-142.306 393.993,-110.135 397.728,-90.3406"/>
</g>
<!-- {{1, 2}}ᵀ -->
<g id="node16" class="node"><title>{{1, 2}}ᵀ</title>
<text text-anchor="middle" x="324" y="-69" font-family="Consolas" font-size="10.00" fill="#0000a0">{{1, 2}}ᵀ</text>
</g>
<!-- {[1..10]|2..3}&#45;&#45;{{1, 2}}ᵀ -->
<g id="edge18" class="edge"><title>{[1..10]|2..3}&#45;&#45;{{1, 2}}ᵀ</title>
<path fill="none" stroke="#d0d0d0" stroke-dasharray="5,2" d="M263.469,-107.973C273.415,-102.227 284.514,-95.8142 294.464,-90.065"/>
</g>
<!-- {{10, 8, 3}}ᵀ -->
<g id="node17" class="node"><title>{{10, 8, 3}}ᵀ</title>
<text text-anchor="middle" x="234" y="-69" font-family="Consolas" font-size="10.00" fill="#0000a0">{{10, 8, 3}}ᵀ</text>
</g>
<!-- {[1..10]|2..3}&#45;&#45;{{10, 8, 3}}ᵀ -->
<g id="edge19" class="edge"><title>{[1..10]|2..3}&#45;&#45;{{10, 8, 3}}ᵀ</title>
<path fill="none" stroke="#d0d0d0" stroke-dasharray="5,2" d="M234,-107.973C234,-102.286 234,-95.9464 234,-90.243"/>
</g>
<!-- {{1, 2}}ᵀ&#45;&#45;⊥ -->
<g id="edge20" class="edge"><title>{{1, 2}}ᵀ&#45;&#45;⊥</title>
<path fill="none" stroke="black" d="M294.531,-53.9733C283.765,-47.7531 271.648,-40.7519 261.098,-34.6568"/>
</g>
<!-- {{10, 8, 3}}ᵀ&#45;&#45;⊥ -->
<g id="edge21" class="edge"><title>{{10, 8, 3}}ᵀ&#45;&#45;⊥</title>
<path fill="none" stroke="black" d="M234,-53.9733C234,-48.2862 234,-41.9464 234,-36.243"/>
</g>
<!-- {{1, 2, 3, 4}}ᵀ&#45;&#45;⊥ -->
<g id="edge22" class="edge"><title>{{1, 2, 3, 4}}ᵀ&#45;&#45;⊥</title>
<path fill="none" stroke="black" d="M84.2207,-56.6429C87.1838,-55.7227 90.1318,-54.8326 93,-54 132.24,-42.6089 178.28,-31.6188 206.801,-25.0839"/>
</g>
<!-- {{20, 10}}ᵀ&#45;&#45;⊥ -->
<g id="edge23" class="edge"><title>{{20, 10}}ᵀ&#45;&#45;⊥</title>
<path fill="none" stroke="black" d="M170.107,-53.9733C182.011,-47.4569 195.482,-40.0833 206.975,-33.7924"/>
</g>
</g>
</svg>
