<svg xmlns="http://www.w3.org/2000/svg" width="308" height="96"><defs><style type="text/css" xml:space="preserve" xmlns:xml="http://www.w3.org/XML/1998/namespace">
    @namespace "http://www.w3.org/2000/svg";
    .line                 {fill: none; stroke: #332900;}
    .bold-line            {stroke: #141000; shape-rendering: crispEdges; stroke-width: 2; }
    .thin-line            {stroke: #1F1800; shape-rendering: crispEdges}
    .filled               {fill: #332900; stroke: none;}
    text.terminal         {font-family: Verdana, Sans-serif;
                            font-size: 12px;
                            fill: #141000;
                            font-weight: bold;
                          }
    text.nonterminal      {font-family: Verdana, Sans-serif;
                            font-size: 12px;
                            fill: #1A1400;
                          }
    text.regexp           {font-family: Verdana, Sans-serif;
                            font-size: 12px;
                            fill: #1F1800;
                          }
    rect, circle, polygon {fill: #332900; stroke: #332900;}
    rect.terminal         {fill: #FFDB4D; stroke: #332900;}
    rect.nonterminal      {fill: #FFEC9E; stroke: #332900;}
    rect.text             {fill: none; stroke: none;}    
    polygon.regexp        {fill: #FFF4C7; stroke: #332900;}
  </style></defs><polygon points="9 61 1 57 1 65"/><polygon points="17 61 9 57 9 65"/><rect x="31" y="47" width="30" height="32" rx="10"/><rect x="29" y="45" width="30" height="32" class="terminal" rx="10"/><text class="terminal" x="39" y="65">&lt;</text><a xmlns:xlink="http://www.w3.org/1999/xlink" xlink:title="element" shape="rect"><rect x="121" y="47" width="70" height="32"/><rect x="119" y="45" width="70" height="32" class="nonterminal"/><text class="nonterminal" x="129" y="65">element</text></a><rect x="121" y="3" width="24" height="32" rx="10"/><rect x="119" y="1" width="24" height="32" class="terminal" rx="10"/><text class="terminal" x="129" y="21">,</text><rect x="251" y="47" width="30" height="32" rx="10"/><rect x="249" y="45" width="30" height="32" class="terminal" rx="10"/><text class="terminal" x="259" y="65">&gt;</text><svg:path xmlns:svg="http://www.w3.org/2000/svg" class="line" d="m17 61 h2 m0 0 h10 m30 0 h10 m40 0 h10 m70 0 h10 m-110 0 l20 0 m-1 0 q-9 0 -9 -10 l0 -24 q0 -10 10 -10 m90 44 l20 0 m-20 0 q10 0 10 -10 l0 -24 q0 -10 -10 -10 m-90 0 h10 m24 0 h10 m0 0 h46 m-130 44 h20 m130 0 h20 m-170 0 q10 0 10 10 m150 0 q0 -10 10 -10 m-160 10 v14 m150 0 v-14 m-150 14 q0 10 10 10 m130 0 q10 0 10 -10 m-140 10 h10 m0 0 h120 m20 -34 h10 m30 0 h10 m3 0 h-3"/><polygon points="299 61 307 57 307 65"/><polygon points="299 61 291 57 291 65"/></svg>
