<?xml version="1.0" encoding="UTF-8" standalone="no"?>
<!DOCTYPE svg PUBLIC "-//W3C//DTD SVG 1.1//EN"
 "http://www.w3.org/Graphics/SVG/1.1/DTD/svg11.dtd">
<!-- Generated by graphviz version 2.36.0 (20140111.2315)
 -->
<!-- Title: &lt;«_‡,»&gt; Pages: 1 -->
<svg width="244pt" height="136pt"
 viewBox="0.00 0.00 244.00 136.00" xmlns="http://www.w3.org/2000/svg" xmlns:xlink="http://www.w3.org/1999/xlink">
<g id="graph0" class="graph" transform="scale(1 1) rotate(0) translate(4 132)">
<title>&lt;«_‡,»&gt;</title>
<polygon fill="white" stroke="none" points="-4,4 -4,-132 240,-132 240,4 -4,4"/>
<text text-anchor="middle" x="118" y="-115" font-family="Consolas" font-size="10.00" fill="#0000a0">&quot;&lt;«_‡,»&gt;&quot;</text>
<!-- start -->
<g id="node1" class="node"><title>start</title>
</g>
<!-- &lt; -->
<g id="node2" class="node"><title>&lt;</title>
<ellipse fill="none" stroke="black" cx="46" cy="-90" rx="27" ry="18"/>
<text text-anchor="middle" x="46" y="-87" font-family="Consolas" font-size="10.00" fill="#0000a0">&lt;</text>
</g>
<!-- start&#45;&gt;&lt; -->
<g id="edge1" class="edge"><title>start&#45;&gt;&lt;</title>
<path fill="none" stroke="black" d="M0.359375,-90C3.15991,-90 5.96045,-90 8.76099,-90"/>
<polygon fill="black" stroke="black" points="8.90091,-93.5001 18.9009,-90 8.90084,-86.5001 8.90091,-93.5001"/>
</g>
<!-- _ -->
<g id="node3" class="node"><title>_</title>
<ellipse fill="none" stroke="black" cx="118" cy="-90" rx="27" ry="18"/>
<text text-anchor="middle" x="118" y="-87" font-family="Consolas" font-size="10.00" fill="#0000a0">_</text>
</g>
<!-- &lt;&#45;&gt;_ -->
<g id="edge2" class="edge"><title>&lt;&#45;&gt;_</title>
<path fill="none" stroke="black" d="M73,-90C75.6147,-90 78.2295,-90 80.8442,-90"/>
<polygon fill="black" stroke="black" points="80.9297,-93.5001 90.9297,-90 80.9297,-86.5001 80.9297,-93.5001"/>
</g>
<!-- , -->
<g id="node4" class="node"><title>,</title>
<ellipse fill="none" stroke="black" cx="118" cy="-18" rx="27" ry="18"/>
<text text-anchor="middle" x="118" y="-15" font-family="Consolas" font-size="10.00" fill="#0000a0">,</text>
</g>
<!-- _&#45;&gt;, -->
<g id="edge5" class="edge"><title>_&#45;&gt;,</title>
<path fill="none" stroke="black" d="M112.16,-72.411C111.297,-64.507 111.048,-54.8518 111.412,-45.9352"/>
<polygon fill="black" stroke="black" points="114.903,-46.1791 112.121,-35.9562 107.921,-45.6831 114.903,-46.1791"/>
</g>
<!-- &gt; -->
<g id="node5" class="node"><title>&gt;</title>
<ellipse fill="none" stroke="black" cx="190" cy="-90" rx="27" ry="18"/>
<text text-anchor="middle" x="190" y="-87" font-family="Consolas" font-size="10.00" fill="#0000a0">&gt;</text>
</g>
<!-- _&#45;&gt;&gt; -->
<g id="edge3" class="edge"><title>_&#45;&gt;&gt;</title>
<path fill="none" stroke="black" d="M145,-90C147.615,-90 150.229,-90 152.844,-90"/>
<polygon fill="black" stroke="black" points="152.93,-93.5001 162.93,-90 152.93,-86.5001 152.93,-93.5001"/>
</g>
<!-- ,&#45;&gt;_ -->
<g id="edge6" class="edge"><title>,&#45;&gt;_</title>
<path fill="none" stroke="black" d="M123.879,-35.9562C124.714,-43.8272 124.948,-53.3739 124.583,-62.1869"/>
<polygon fill="black" stroke="black" points="121.074,-62.1835 123.84,-72.411 128.056,-62.6911 121.074,-62.1835"/>
</g>
<!-- exit -->
<g id="node6" class="node"><title>exit</title>
</g>
<!-- &gt;&#45;&gt;exit -->
<g id="edge4" class="edge"><title>&gt;&#45;&gt;exit</title>
<path fill="none" stroke="black" d="M217.312,-90C220.091,-90 222.869,-90 225.648,-90"/>
<polygon fill="black" stroke="black" points="225.708,-93.5001 235.708,-90 225.708,-86.5001 225.708,-93.5001"/>
</g>
</g>
</svg>
