<?xml version="1.0" encoding="UTF-8" standalone="no"?>
<!DOCTYPE svg PUBLIC "-//W3C//DTD SVG 1.1//EN"
 "http://www.w3.org/Graphics/SVG/1.1/DTD/svg11.dtd">
<!-- Generated by graphviz version 2.36.0 (20140111.2315)
 -->
<!-- Title: Do_until_alternate with_ Pages: 1 -->
<svg width="216pt" height="272pt"
 viewBox="0.00 0.00 216.00 272.00" xmlns="http://www.w3.org/2000/svg" xmlns:xlink="http://www.w3.org/1999/xlink">
<g id="graph0" class="graph" transform="scale(1 1) rotate(0) translate(4 268)">
<title>Do_until_alternate with_</title>
<polygon fill="white" stroke="none" points="-4,4 -4,-268 212,-268 212,4 -4,4"/>
<text text-anchor="middle" x="104" y="-251" font-family="Consolas" font-size="10.00" fill="#0000a0">&quot;Do_until_alternate with_&quot;</text>
<!-- start -->
<g id="node1" class="node"><title>start</title>
</g>
<!-- body -->
<g id="node2" class="node"><title>body</title>
<ellipse fill="none" stroke="black" cx="111" cy="-176" rx="27" ry="18"/>
<text text-anchor="middle" x="111" y="-173" font-family="Consolas" font-size="10.00" fill="#0000a0">body()</text>
</g>
<!-- start&#45;&gt;body -->
<g id="edge1" class="edge"><title>start&#45;&gt;body</title>
<path fill="none" stroke="black" d="M111,-241.953C111,-240.883 111,-221.793 111,-204.584"/>
<polygon fill="black" stroke="black" points="114.5,-204.291 111,-194.291 107.5,-204.291 114.5,-204.291"/>
<text text-anchor="middle" x="122.499" y="-215.3" font-family="Helvetica,sans-Serif" font-size="9.00" fill="#808080"> start</text>
</g>
<!-- predicate -->
<g id="node3" class="node"><title>predicate</title>
<polygon fill="none" stroke="black" points="50,-120 -0.146531,-102 50,-84 100.147,-102 50,-120"/>
<text text-anchor="middle" x="50" y="-99" font-family="Consolas" font-size="10.00" fill="#0000a0">predicate()</text>
</g>
<!-- body&#45;&gt;predicate -->
<g id="edge2" class="edge"><title>body&#45;&gt;predicate</title>
<path fill="none" stroke="black" d="M98.3608,-160.082C89.5994,-149.74 77.8021,-135.816 68.0529,-124.308"/>
<polygon fill="black" stroke="black" points="70.5233,-121.81 61.3887,-116.442 65.1824,-126.335 70.5233,-121.81"/>
</g>
<!-- interstice -->
<g id="node4" class="node"><title>interstice</title>
<ellipse fill="none" stroke="black" cx="173" cy="-102" rx="35.4963" ry="18"/>
<text text-anchor="middle" x="173" y="-99" font-family="Consolas" font-size="10.00" fill="#0000a0">interstice()</text>
</g>
<!-- predicate&#45;&gt;interstice -->
<g id="edge3" class="edge"><title>predicate&#45;&gt;interstice</title>
<path fill="none" stroke="black" d="M100.384,-102C109.348,-102 118.639,-102 127.459,-102"/>
<polygon fill="black" stroke="black" points="127.55,-105.5 137.55,-102 127.55,-98.5001 127.55,-105.5"/>
<text text-anchor="middle" x="118.668" y="-107.7" font-family="Helvetica,sans-Serif" font-size="9.00" fill="#808080">false</text>
</g>
<!-- exit -->
<g id="node5" class="node"><title>exit</title>
<ellipse fill="#dda0dd" stroke="black" cx="50" cy="-18" rx="27" ry="18"/>
<text text-anchor="middle" x="50" y="-15" font-family="Consolas" font-size="10.00" fill="#0000a0">exit</text>
</g>
<!-- predicate&#45;&gt;exit -->
<g id="edge4" class="edge"><title>predicate&#45;&gt;exit</title>
<path fill="none" stroke="black" d="M50,-83.6099C50,-72.7743 50,-58.6012 50,-46.2913"/>
<polygon fill="black" stroke="black" points="53.5001,-46.0838 50,-36.0838 46.5001,-46.0839 53.5001,-46.0838"/>
<text text-anchor="middle" x="60.5003" y="-57.3" font-family="Helvetica,sans-Serif" font-size="9.00" fill="#808080"> true</text>
</g>
<!-- interstice&#45;&gt;body -->
<g id="edge5" class="edge"><title>interstice&#45;&gt;body</title>
<path fill="none" stroke="black" d="M159.527,-118.647C151.003,-128.545 139.846,-141.502 130.379,-152.495"/>
<polygon fill="black" stroke="black" points="127.72,-150.22 123.846,-160.082 133.024,-154.788 127.72,-150.22"/>
</g>
</g>
</svg>
