<svg xmlns="http://www.w3.org/2000/svg" width="668" height="206"><defs><style type="text/css">
    @namespace "http://www.w3.org/2000/svg";
    .line                 {fill: none; stroke: #332900;}
    .bold-line            {stroke: #141000; shape-rendering: crispEdges; stroke-width: 2; }
    .thin-line            {stroke: #1F1800; shape-rendering: crispEdges}
    .filled               {fill: #332900; stroke: none;}
    text.terminal         {font-family: Verdana, Sans-serif;
                            font-size: 12px;
                            fill: #141000;
                            font-weight: bold;
                          }
    text.nonterminal      {font-family: Verdana, Sans-serif;
                            font-size: 12px;
                            fill: #1A1400;
                          }
    text.regexp           {font-family: Verdana, Sans-serif;
                            font-size: 12px;
                            fill: #1F1800;
                          }
    rect, circle, polygon {fill: #332900; stroke: #332900;}
    rect.terminal         {fill: #FFDB4D; stroke: #332900;}
    rect.nonterminal      {fill: #FFEC9E; stroke: #332900;}
    rect.text             {fill: none; stroke: none;}    
    polygon.regexp        {fill: #FFF4C7; stroke: #332900;}
  </style></defs><polygon points="9 61 1 57 1 65"/><polygon points="17 61 9 57 9 65"/><rect x="31" y="47" width="26" height="32" rx="10"/><rect x="29" y="45" width="26" height="32" class="terminal" rx="10"/><text class="terminal" x="39" y="65">(</text><a xmlns:xlink="http://www.w3.org/1999/xlink" xlink:href="#name" xlink:title="name"><rect x="137" y="47" width="54" height="32"/><rect x="135" y="45" width="54" height="32" class="nonterminal"/><text class="nonterminal" x="145" y="65">name</text></a><rect x="231" y="47" width="26" height="32" rx="10"/><rect x="229" y="45" width="26" height="32" class="terminal" rx="10"/><text class="terminal" x="239" y="65">→</text><a xmlns:xlink="http://www.w3.org/1999/xlink" xlink:href="#rename" xlink:title="rename"><rect x="277" y="47" width="68" height="32"/><rect x="275" y="45" width="68" height="32" class="nonterminal"/><text class="nonterminal" x="285" y="65">rename</text></a><rect x="137" y="113" width="26" height="32" rx="10"/><rect x="135" y="111" width="26" height="32" class="terminal" rx="10"/><text class="terminal" x="145" y="131">-</text><a xmlns:xlink="http://www.w3.org/1999/xlink" xlink:href="#excludedName" xlink:title="excludedName"><rect x="183" y="113" width="112" height="32"/><rect x="181" y="111" width="112" height="32" class="nonterminal"/><text class="nonterminal" x="191" y="131">excludedName</text></a><rect x="117" y="3" width="24" height="32" rx="10"/><rect x="115" y="1" width="24" height="32" class="terminal" rx="10"/><text class="terminal" x="125" y="21">,</text><rect x="465" y="47" width="24" height="32" rx="10"/><rect x="463" y="45" width="24" height="32" class="terminal" rx="10"/><text class="terminal" x="473" y="65">,</text><rect x="529" y="47" width="26" height="32" rx="10"/><rect x="527" y="45" width="26" height="32" class="terminal" rx="10"/><text class="terminal" x="537" y="65">…</text><rect x="97" y="157" width="26" height="32" rx="10"/><rect x="95" y="155" width="26" height="32" class="terminal" rx="10"/><text class="terminal" x="105" y="175">…</text><rect x="615" y="47" width="26" height="32" rx="10"/><rect x="613" y="45" width="26" height="32" class="terminal" rx="10"/><text class="terminal" x="623" y="65">)</text><svg:path xmlns:svg="http://www.w3.org/2000/svg" class="line" d="m17 61 h2 m0 0 h10 m26 0 h10 m60 0 h10 m54 0 h10 m20 0 h10 m26 0 h10 m0 0 h10 m68 0 h10 m-154 0 h20 m134 0 h20 m-174 0 q10 0 10 10 m154 0 q0 -10 10 -10 m-164 10 v14 m154 0 v-14 m-154 14 q0 10 10 10 m134 0 q10 0 10 -10 m-144 10 h10 m0 0 h124 m-248 -34 h20 m248 0 h20 m-288 0 q10 0 10 10 m268 0 q0 -10 10 -10 m-278 10 v46 m268 0 v-46 m-268 46 q0 10 10 10 m248 0 q10 0 10 -10 m-258 10 h10 m26 0 h10 m0 0 h10 m112 0 h10 m0 0 h70 m-288 -66 l20 0 m-1 0 q-9 0 -9 -10 l0 -24 q0 -10 10 -10 m288 44 l20 0 m-20 0 q10 0 10 -10 l0 -24 q0 -10 -10 -10 m-288 0 h10 m24 0 h10 m0 0 h244 m60 44 h10 m24 0 h10 m-64 0 h20 m44 0 h20 m-84 0 q10 0 10 10 m64 0 q0 -10 10 -10 m-74 10 v14 m64 0 v-14 m-64 14 q0 10 10 10 m44 0 q10 0 10 -10 m-54 10 h10 m0 0 h34 m20 -34 h10 m26 0 h10 m-150 0 h20 m130 0 h20 m-170 0 q10 0 10 10 m150 0 q0 -10 10 -10 m-160 10 v30 m150 0 v-30 m-150 30 q0 10 10 10 m130 0 q10 0 10 -10 m-140 10 h10 m0 0 h120 m-498 -50 h20 m498 0 h20 m-538 0 q10 0 10 10 m518 0 q0 -10 10 -10 m-528 10 v90 m518 0 v-90 m-518 90 q0 10 10 10 m498 0 q10 0 10 -10 m-508 10 h10 m26 0 h10 m0 0 h452 m-508 -10 v20 m518 0 v-20 m-518 20 v14 m518 0 v-14 m-518 14 q0 10 10 10 m498 0 q10 0 10 -10 m-508 10 h10 m0 0 h488 m20 -144 h10 m26 0 h10 m3 0 h-3"/><polygon points="659 61 667 57 667 65"/><polygon points="659 61 651 57 651 65"/></svg>
