<?xml version="1.0" encoding="UTF-8" standalone="no"?>
<!DOCTYPE svg PUBLIC "-//W3C//DTD SVG 1.1//EN"
 "http://www.w3.org/Graphics/SVG/1.1/DTD/svg11.dtd">
<!-- Generated by graphviz version 2.36.0 (20140111.2315)
 -->
<!-- Title: Module Life Cycle Pages: 1 -->
<svg width="351pt" height="2032pt"
 viewBox="0.00 0.00 351.00 2032.00" xmlns="http://www.w3.org/2000/svg" xmlns:xlink="http://www.w3.org/1999/xlink">
<g id="graph0" class="graph" transform="scale(1 1) rotate(0) translate(4 2028)">
<title>Module Life Cycle</title>
<polygon fill="white" stroke="none" points="-4,4 -4,-2028 347,-2028 347,4 -4,4"/>
<text text-anchor="middle" x="171.5" y="-7" font-family="Helvetica,sans-Serif" font-size="10.00" fill="#000000">The module life cycle.</text>
<g id="clust1" class="cluster"><title>cluster_programmer</title>
<polygon fill="#e8e8e8" stroke="#e8e8e8" points="175,-28 175,-208 335,-208 335,-28 175,-28"/>
<text text-anchor="middle" x="255" y="-35" font-family="Helvetica,sans-Serif" font-size="10.00" fill="#000000">Programmer Actions</text>
</g>
<!-- edit -->
<g id="node1" class="node"><title>edit</title>
<g id="a_node1"><a xlink:href="/about-avail/documentation/modules/module-life-cycle.html#edit" xlink:title="The programmer edits the source module, to fix a bug, enhance or add a feature, extend an API, etc." target="_top">
<polygon fill="#ffffff" stroke="black" points="237,-200 183,-200 183,-164 237,-164 237,-200"/>
<text text-anchor="middle" x="210" y="-185" font-family="Helvetica,sans-Serif" font-size="10.00" fill="#0000a0">Edit</text>
<text text-anchor="middle" x="210" y="-173" font-family="Helvetica,sans-Serif" font-size="10.00" fill="#0000a0">Module</text>
</a>
</g>
</g>
<!-- activate -->
<g id="node3" class="node"><title>activate</title>
<g id="a_node3"><a xlink:href="/about-avail/documentation/modules/module-life-cycle.html#activate" xlink:title="The programmer activate the module by double&#45;clicking it in the Avail workbench. The process begins by unloading any modules that have changed (and their descendents) since the last activation." target="_top">
<polygon fill="#ffffff" stroke="black" points="327,-200 273,-200 273,-164 327,-164 327,-200"/>
<text text-anchor="middle" x="300" y="-185" font-family="Helvetica,sans-Serif" font-size="10.00" fill="#0000a0">Activate</text>
<text text-anchor="middle" x="300" y="-173" font-family="Helvetica,sans-Serif" font-size="10.00" fill="#0000a0">Module</text>
</a>
</g>
</g>
<!-- edit&#45;&gt;activate -->
<g id="edge1" class="edge"><title>edit&#45;&gt;activate</title>
<path fill="none" stroke="black" d="M237.07,-182C245.669,-182 254.267,-182 262.866,-182"/>
<polygon fill="black" stroke="black" points="262.96,-185.5 272.96,-182 262.96,-178.5 262.96,-185.5"/>
</g>
<!-- workbench -->
<g id="node2" class="node"><title>workbench</title>
<g id="a_node2"><a xlink:href="/about-avail/documentation/modules/module-life-cycle.html#workbench" xlink:title="The programmer launches the Avail workbench in order to develop and test the module." target="_top">
<ellipse fill="#ffffff" stroke="black" cx="280" cy="-79" rx="47.1008" ry="22.7556"/>
<text text-anchor="middle" x="280" y="-82" font-family="Helvetica,sans-Serif" font-size="10.00" fill="#0000a0">Launch</text>
<text text-anchor="middle" x="280" y="-70" font-family="Helvetica,sans-Serif" font-size="10.00" fill="#0000a0">Workbench</text>
</a>
</g>
</g>
<!-- workbench&#45;&gt;activate -->
<g id="edge2" class="edge"><title>workbench&#45;&gt;activate</title>
<path fill="none" stroke="black" d="M284.318,-101.807C287.338,-117.058 291.393,-137.536 294.623,-153.847"/>
<polygon fill="black" stroke="black" points="291.231,-154.737 296.607,-163.867 298.098,-153.377 291.231,-154.737"/>
</g>
<!-- anyLoaded -->
<g id="node4" class="node"><title>anyLoaded</title>
<g id="a_node4"><a xlink:href="/about-avail/documentation/modules/module-life-cycle.html#anyLoaded" xlink:title="Are there any modules loaded already? If so, then scan through these (in parallel), determining which ones need to be unloaded." target="_top">
<polygon fill="none" stroke="black" points="180,-2024 120.985,-1980 180,-1936 239.015,-1980 180,-2024"/>
<text text-anchor="middle" x="180" y="-1989" font-family="Helvetica,sans-Serif" font-size="10.00" fill="#0000a0">Any</text>
<text text-anchor="middle" x="180" y="-1977" font-family="Helvetica,sans-Serif" font-size="10.00" fill="#0000a0">Loaded</text>
<text text-anchor="middle" x="180" y="-1965" font-family="Helvetica,sans-Serif" font-size="10.00" fill="#0000a0">Modules?</text>
</a>
</g>
</g>
<!-- activate&#45;&gt;anyLoaded -->
<g id="edge3" class="edge"><title>activate&#45;&gt;anyLoaded</title>
<path fill="none" stroke="black" d="M300,-200.133C300,-217.49 300,-245.111 300,-269 300,-1871 300,-1871 300,-1871 300,-1912.12 260.59,-1941.58 226.94,-1959.24"/>
<polygon fill="black" stroke="black" points="225.007,-1956.29 217.64,-1963.91 228.147,-1962.55 225.007,-1956.29"/>
</g>
<!-- nextLoaded -->
<g id="node6" class="node"><title>nextLoaded</title>
<g id="a_node6"><a xlink:href="/about-avail/documentation/modules/module-life-cycle.html#nextLoaded" xlink:title="Proceed to the next loaded module." target="_top">
<polygon fill="none" stroke="black" points="207,-1888 153,-1888 153,-1852 207,-1852 207,-1888"/>
<text text-anchor="middle" x="180" y="-1873" font-family="Helvetica,sans-Serif" font-size="10.00" fill="#0000a0">Next</text>
<text text-anchor="middle" x="180" y="-1861" font-family="Helvetica,sans-Serif" font-size="10.00" fill="#0000a0">Loaded</text>
</a>
</g>
</g>
<!-- anyLoaded&#45;&gt;nextLoaded -->
<g id="edge4" class="edge"><title>anyLoaded&#45;&gt;nextLoaded</title>
<path fill="none" stroke="black" d="M180,-1935.69C180,-1923.06 180,-1909.62 180,-1898.28"/>
<polygon fill="black" stroke="black" points="183.5,-1898.15 180,-1888.15 176.5,-1898.15 183.5,-1898.15"/>
<text text-anchor="middle" x="188.252" y="-1909.3" font-family="Helvetica,sans-Serif" font-size="9.00" fill="#808080"> yes</text>
</g>
<!-- trace -->
<g id="node17" class="node"><title>trace</title>
<g id="a_node17"><a xlink:href="/about-avail/documentation/modules/module-life-cycle.html#trace" xlink:title="The system traces the activated module to determine its ancestry, i.e., all upstream modules. These will be explored in reverse topological order, starting at the activating module and working upstream. Then they are sorted into topological order, starting at modules without ancestors and working downstream toward the activated module. The process is aborted if any ancestral module headers contain errors." target="_top">
<polygon fill="#87cefa" stroke="black" points="207.341,-800 146.659,-800 146.659,-764 207.341,-764 207.341,-800"/>
<text text-anchor="middle" x="177" y="-785" font-family="Helvetica,sans-Serif" font-size="10.00" fill="#0000a0">Trace</text>
<text text-anchor="middle" x="177" y="-773" font-family="Helvetica,sans-Serif" font-size="10.00" fill="#0000a0">Ancestors</text>
</a>
</g>
</g>
<!-- anyLoaded&#45;&gt;trace -->
<g id="edge21" class="edge"><title>anyLoaded&#45;&gt;trace</title>
<path fill="none" stroke="black" d="M148.522,-1959.13C122.569,-1940.03 90,-1908.59 90,-1871 90,-1871 90,-1871 90,-879 90,-848.15 114.973,-822.8 138.16,-805.913"/>
<polygon fill="black" stroke="black" points="140.349,-808.654 146.572,-800.079 136.36,-802.902 140.349,-808.654"/>
<text text-anchor="middle" x="96.2536" y="-1341.3" font-family="Helvetica,sans-Serif" font-size="9.00" fill="#808080"> no</text>
</g>
<!-- moreLoaded -->
<g id="node5" class="node"><title>moreLoaded</title>
<g id="a_node5"><a xlink:href="/about-avail/documentation/modules/module-life-cycle.html#moreLoaded" xlink:title="Are there any more loaded modules that have not yet been checked?" target="_top">
<polygon fill="none" stroke="black" points="194,-1628 119.636,-1596 194,-1564 268.364,-1596 194,-1628"/>
<text text-anchor="middle" x="194" y="-1599" font-family="Helvetica,sans-Serif" font-size="10.00" fill="#0000a0">More Loaded</text>
<text text-anchor="middle" x="194" y="-1587" font-family="Helvetica,sans-Serif" font-size="10.00" fill="#0000a0">Modules?</text>
</a>
</g>
</g>
<!-- moreLoaded&#45;&gt;nextLoaded -->
<g id="edge5" class="edge"><title>moreLoaded&#45;&gt;nextLoaded</title>
<path fill="none" stroke="black" d="M174.755,-1619.96C165.346,-1632.67 154.993,-1649.25 150,-1666 148.018,-1672.65 146.216,-1803.39 149,-1814 151.643,-1824.07 156.593,-1834.24 161.775,-1843.05"/>
<polygon fill="black" stroke="black" points="158.9,-1845.06 167.171,-1851.68 164.835,-1841.34 158.9,-1845.06"/>
<text text-anchor="middle" x="156.252" y="-1723.3" font-family="Helvetica,sans-Serif" font-size="9.00" fill="#808080"> yes</text>
</g>
<!-- anyDirty -->
<g id="node9" class="node"><title>anyDirty</title>
<g id="a_node9"><a xlink:href="/about-avail/documentation/modules/module-life-cycle.html#anyDirty" xlink:title="Are there any modules in the dirty queue?" target="_top">
<polygon fill="none" stroke="black" points="197,-1516 154.842,-1484 197,-1452 239.158,-1484 197,-1516"/>
<text text-anchor="middle" x="197" y="-1487" font-family="Helvetica,sans-Serif" font-size="10.00" fill="#0000a0">Any</text>
<text text-anchor="middle" x="197" y="-1475" font-family="Helvetica,sans-Serif" font-size="10.00" fill="#0000a0">Dirty?</text>
</a>
</g>
</g>
<!-- moreLoaded&#45;&gt;anyDirty -->
<g id="edge6" class="edge"><title>moreLoaded&#45;&gt;anyDirty</title>
<path fill="none" stroke="black" d="M194.836,-1564.36C195.164,-1552.32 195.546,-1538.33 195.896,-1525.48"/>
<polygon fill="black" stroke="black" points="199.395,-1525.57 196.169,-1515.48 192.397,-1525.38 199.395,-1525.57"/>
<text text-anchor="middle" x="202.254" y="-1537.3" font-family="Helvetica,sans-Serif" font-size="9.00" fill="#808080"> no</text>
</g>
<!-- modified -->
<g id="node7" class="node"><title>modified</title>
<g id="a_node7"><a xlink:href="/about-avail/documentation/modules/module-life-cycle.html#modified" xlink:title="Use the module&#39;s timestamp and content hash to determine if it has changed since it was loaded." target="_top">
<polygon fill="none" stroke="black" points="215,-1814 158.642,-1782 215,-1750 271.358,-1782 215,-1814"/>
<text text-anchor="middle" x="215" y="-1785" font-family="Helvetica,sans-Serif" font-size="10.00" fill="#0000a0">Modified</text>
<text text-anchor="middle" x="215" y="-1773" font-family="Helvetica,sans-Serif" font-size="10.00" fill="#0000a0">Content?</text>
</a>
</g>
</g>
<!-- nextLoaded&#45;&gt;modified -->
<g id="edge7" class="edge"><title>nextLoaded&#45;&gt;modified</title>
<path fill="none" stroke="black" d="M187.083,-1851.6C191.047,-1841.86 196.131,-1829.36 200.873,-1817.71"/>
<polygon fill="black" stroke="black" points="204.215,-1818.79 204.743,-1808.2 197.731,-1816.15 204.215,-1818.79"/>
</g>
<!-- modified&#45;&gt;moreLoaded -->
<g id="edge9" class="edge"><title>modified&#45;&gt;moreLoaded</title>
<path fill="none" stroke="black" d="M220.638,-1752.85C224.401,-1729.41 227.709,-1695.25 222,-1666 219.763,-1654.54 215.617,-1642.57 211.189,-1631.88"/>
<polygon fill="black" stroke="black" points="214.295,-1630.25 207.09,-1622.48 207.878,-1633.05 214.295,-1630.25"/>
<text text-anchor="middle" x="232.254" y="-1681.3" font-family="Helvetica,sans-Serif" font-size="9.00" fill="#808080"> no</text>
</g>
<!-- dirty -->
<g id="node8" class="node"><title>dirty</title>
<g id="a_node8"><a xlink:href="/about-avail/documentation/modules/module-life-cycle.html#dirty" xlink:title="Mark the module as dirty and place it into the dirty queue." target="_top">
<polygon fill="none" stroke="black" points="213,-1702 159,-1702 159,-1666 213,-1666 213,-1702"/>
<text text-anchor="middle" x="186" y="-1687" font-family="Helvetica,sans-Serif" font-size="10.00" fill="#0000a0">Mark</text>
<text text-anchor="middle" x="186" y="-1675" font-family="Helvetica,sans-Serif" font-size="10.00" fill="#0000a0">Dirty</text>
</a>
</g>
</g>
<!-- modified&#45;&gt;dirty -->
<g id="edge8" class="edge"><title>modified&#45;&gt;dirty</title>
<path fill="none" stroke="black" d="M206.999,-1754.51C202.964,-1741.16 198.083,-1725 194.043,-1711.62"/>
<polygon fill="black" stroke="black" points="197.387,-1710.59 191.145,-1702.03 190.686,-1712.62 197.387,-1710.59"/>
<text text-anchor="middle" x="208.252" y="-1723.3" font-family="Helvetica,sans-Serif" font-size="9.00" fill="#808080"> yes</text>
</g>
<!-- dirty&#45;&gt;moreLoaded -->
<g id="edge10" class="edge"><title>dirty&#45;&gt;moreLoaded</title>
<path fill="none" stroke="black" d="M187.619,-1665.6C188.385,-1657.36 189.334,-1647.16 190.263,-1637.17"/>
<polygon fill="black" stroke="black" points="193.776,-1637.2 191.217,-1626.92 186.806,-1636.55 193.776,-1637.2"/>
</g>
<!-- nextDirty -->
<g id="node11" class="node"><title>nextDirty</title>
<g id="a_node11"><a xlink:href="/about-avail/documentation/modules/module-life-cycle.html#nextDirty" xlink:title="Extract a module from the dirty queue." target="_top">
<polygon fill="none" stroke="black" points="224,-1404 170,-1404 170,-1368 224,-1368 224,-1404"/>
<text text-anchor="middle" x="197" y="-1389" font-family="Helvetica,sans-Serif" font-size="10.00" fill="#0000a0">Next</text>
<text text-anchor="middle" x="197" y="-1377" font-family="Helvetica,sans-Serif" font-size="10.00" fill="#0000a0">Dirty</text>
</a>
</g>
</g>
<!-- anyDirty&#45;&gt;nextDirty -->
<g id="edge11" class="edge"><title>anyDirty&#45;&gt;nextDirty</title>
<path fill="none" stroke="black" d="M197,-1451.83C197,-1439.68 197,-1425.87 197,-1414.13"/>
<polygon fill="black" stroke="black" points="200.5,-1414.04 197,-1404.04 193.5,-1414.04 200.5,-1414.04"/>
<text text-anchor="middle" x="205.252" y="-1425.3" font-family="Helvetica,sans-Serif" font-size="9.00" fill="#808080"> yes</text>
</g>
<!-- anyDirty&#45;&gt;trace -->
<g id="edge20" class="edge"><title>anyDirty&#45;&gt;trace</title>
<path fill="none" stroke="black" d="M215.027,-1465.31C231.398,-1447.28 253,-1417.68 253,-1387 253,-1387 253,-1387 253,-879 253,-849.725 231.005,-824.165 210.68,-806.795"/>
<polygon fill="black" stroke="black" points="212.695,-803.921 202.73,-800.321 208.275,-809.349 212.695,-803.921"/>
<text text-anchor="middle" x="259.254" y="-1113.3" font-family="Helvetica,sans-Serif" font-size="9.00" fill="#808080"> no</text>
</g>
<!-- moreDirty -->
<g id="node10" class="node"><title>moreDirty</title>
<g id="a_node10"><a xlink:href="/about-avail/documentation/modules/module-life-cycle.html#moreDirty" xlink:title="Are there more dirty modules in the dirty queue?" target="_top">
<polygon fill="none" stroke="black" points="183,-1246 140.842,-1214 183,-1182 225.158,-1214 183,-1246"/>
<text text-anchor="middle" x="183" y="-1217" font-family="Helvetica,sans-Serif" font-size="10.00" fill="#0000a0">More</text>
<text text-anchor="middle" x="183" y="-1205" font-family="Helvetica,sans-Serif" font-size="10.00" fill="#0000a0">Dirty?</text>
</a>
</g>
</g>
<!-- moreDirty&#45;&gt;nextDirty -->
<g id="edge12" class="edge"><title>moreDirty&#45;&gt;nextDirty</title>
<path fill="none" stroke="black" d="M185.428,-1244.48C188.051,-1276.33 192.197,-1326.68 194.749,-1357.67"/>
<polygon fill="black" stroke="black" points="191.272,-1358.08 195.581,-1367.76 198.248,-1357.51 191.272,-1358.08"/>
<text text-anchor="middle" x="200.252" y="-1299.3" font-family="Helvetica,sans-Serif" font-size="9.00" fill="#808080"> yes</text>
</g>
<!-- sortUnload -->
<g id="node13" class="node"><title>sortUnload</title>
<g id="a_node13"><a xlink:href="/about-avail/documentation/modules/module-life-cycle.html#sortUnload" xlink:title="Sort all dirty modules into reverse topological order, i.e. modules are processed from downstream to upstream." target="_top">
<polygon fill="none" stroke="black" points="210,-1134 156,-1134 156,-1098 210,-1098 210,-1134"/>
<text text-anchor="middle" x="183" y="-1119" font-family="Helvetica,sans-Serif" font-size="10.00" fill="#0000a0">Sort</text>
<text text-anchor="middle" x="183" y="-1107" font-family="Helvetica,sans-Serif" font-size="10.00" fill="#0000a0">Dirty</text>
</a>
</g>
</g>
<!-- moreDirty&#45;&gt;sortUnload -->
<g id="edge13" class="edge"><title>moreDirty&#45;&gt;sortUnload</title>
<path fill="none" stroke="black" d="M183,-1181.83C183,-1169.68 183,-1155.87 183,-1144.13"/>
<polygon fill="black" stroke="black" points="186.5,-1144.04 183,-1134.04 179.5,-1144.04 186.5,-1144.04"/>
<text text-anchor="middle" x="189.254" y="-1155.3" font-family="Helvetica,sans-Serif" font-size="9.00" fill="#808080"> no</text>
</g>
<!-- dirtyChildren -->
<g id="node12" class="node"><title>dirtyChildren</title>
<g id="a_node12"><a xlink:href="/about-avail/documentation/modules/module-life-cycle.html#dirtyChildren" xlink:title="Mark every immediate dependent (direct importer) of the module as dirty. Place onto the dirty queue those that have never been placed there before." target="_top">
<polygon fill="none" stroke="black" points="172,-1320 118,-1320 118,-1284 172,-1284 172,-1320"/>
<text text-anchor="middle" x="145" y="-1305" font-family="Helvetica,sans-Serif" font-size="10.00" fill="#0000a0">Dirty</text>
<text text-anchor="middle" x="145" y="-1293" font-family="Helvetica,sans-Serif" font-size="10.00" fill="#0000a0">Children</text>
</a>
</g>
</g>
<!-- nextDirty&#45;&gt;dirtyChildren -->
<g id="edge14" class="edge"><title>nextDirty&#45;&gt;dirtyChildren</title>
<path fill="none" stroke="black" d="M185.972,-1367.61C178.823,-1356.34 169.383,-1341.45 161.366,-1328.81"/>
<polygon fill="black" stroke="black" points="164.145,-1326.65 155.834,-1320.08 158.233,-1330.4 164.145,-1326.65"/>
</g>
<!-- dirtyChildren&#45;&gt;moreDirty -->
<g id="edge15" class="edge"><title>dirtyChildren&#45;&gt;moreDirty</title>
<path fill="none" stroke="black" d="M152.69,-1283.6C157.242,-1273.29 163.155,-1259.91 168.549,-1247.7"/>
<polygon fill="black" stroke="black" points="171.887,-1248.81 172.728,-1238.25 165.485,-1245.98 171.887,-1248.81"/>
</g>
<!-- nextUnload -->
<g id="node15" class="node"><title>nextUnload</title>
<g id="a_node15"><a xlink:href="/about-avail/documentation/modules/module-life-cycle.html#nextUnload" xlink:title="Proceed to the next dirty module in the established topological order." target="_top">
<polygon fill="none" stroke="black" points="210,-1060 156,-1060 156,-1024 210,-1024 210,-1060"/>
<text text-anchor="middle" x="183" y="-1045" font-family="Helvetica,sans-Serif" font-size="10.00" fill="#0000a0">Next</text>
<text text-anchor="middle" x="183" y="-1033" font-family="Helvetica,sans-Serif" font-size="10.00" fill="#0000a0">Dirty</text>
</a>
</g>
</g>
<!-- sortUnload&#45;&gt;nextUnload -->
<g id="edge16" class="edge"><title>sortUnload&#45;&gt;nextUnload</title>
<path fill="none" stroke="black" d="M183,-1097.94C183,-1089.81 183,-1079.88 183,-1070.7"/>
<polygon fill="black" stroke="black" points="186.5,-1070.44 183,-1060.44 179.5,-1070.44 186.5,-1070.44"/>
</g>
<!-- moreUnload -->
<g id="node14" class="node"><title>moreUnload</title>
<g id="a_node14"><a xlink:href="/about-avail/documentation/modules/module-life-cycle.html#moreUnload" xlink:title="Are there more dirty modules to unload?" target="_top">
<polygon fill="none" stroke="black" points="177,-912 134.842,-880 177,-848 219.158,-880 177,-912"/>
<text text-anchor="middle" x="177" y="-883" font-family="Helvetica,sans-Serif" font-size="10.00" fill="#0000a0">More</text>
<text text-anchor="middle" x="177" y="-871" font-family="Helvetica,sans-Serif" font-size="10.00" fill="#0000a0">Dirty?</text>
</a>
</g>
</g>
<!-- moreUnload&#45;&gt;nextUnload -->
<g id="edge17" class="edge"><title>moreUnload&#45;&gt;nextUnload</title>
<path fill="none" stroke="black" d="M178.946,-910.536C179.69,-922.747 180.483,-937.051 181,-950 181.856,-971.414 182.366,-995.679 182.657,-1013.76"/>
<polygon fill="black" stroke="black" points="179.159,-1013.94 182.807,-1023.89 186.158,-1013.84 179.159,-1013.94"/>
<text text-anchor="middle" x="191.252" y="-965.3" font-family="Helvetica,sans-Serif" font-size="9.00" fill="#808080"> yes</text>
</g>
<!-- moreUnload&#45;&gt;trace -->
<g id="edge22" class="edge"><title>moreUnload&#45;&gt;trace</title>
<path fill="none" stroke="black" d="M177,-847.832C177,-835.676 177,-821.871 177,-810.133"/>
<polygon fill="black" stroke="black" points="180.5,-810.041 177,-800.041 173.5,-810.041 180.5,-810.041"/>
<text text-anchor="middle" x="183.254" y="-821.3" font-family="Helvetica,sans-Serif" font-size="9.00" fill="#808080"> no</text>
</g>
<!-- unload -->
<g id="node16" class="node"><title>unload</title>
<g id="a_node16"><a xlink:href="/about-avail/documentation/modules/module-life-cycle.html#unload" xlink:title="Since the dirty module has no dependents loaded anymore, it is safe to unload it." target="_top">
<polygon fill="none" stroke="black" points="172,-986 118,-986 118,-950 172,-950 172,-986"/>
<text text-anchor="middle" x="145" y="-965" font-family="Helvetica,sans-Serif" font-size="10.00" fill="#0000a0">Unload</text>
</a>
</g>
</g>
<!-- nextUnload&#45;&gt;unload -->
<g id="edge18" class="edge"><title>nextUnload&#45;&gt;unload</title>
<path fill="none" stroke="black" d="M173.995,-1023.94C169.517,-1015.45 164.005,-1005.01 158.993,-995.513"/>
<polygon fill="black" stroke="black" points="161.968,-993.651 154.205,-986.441 155.777,-996.918 161.968,-993.651"/>
</g>
<!-- unload&#45;&gt;moreUnload -->
<g id="edge19" class="edge"><title>unload&#45;&gt;moreUnload</title>
<path fill="none" stroke="black" d="M151.476,-949.597C155.185,-939.627 159.969,-926.771 164.39,-914.888"/>
<polygon fill="black" stroke="black" points="167.781,-915.813 167.988,-905.22 161.22,-913.372 167.781,-915.813"/>
</g>
<!-- sortAncestors -->
<g id="node18" class="node"><title>sortAncestors</title>
<g id="a_node18"><a xlink:href="/about-avail/documentation/modules/module-life-cycle.html#sortAncestors" xlink:title="Topologically sort the ancestors such that the furthest ancestors will be processed first and the activated module will be processed last." target="_top">
<polygon fill="none" stroke="black" points="177.341,-716 116.659,-716 116.659,-680 177.341,-680 177.341,-716"/>
<text text-anchor="middle" x="147" y="-701" font-family="Helvetica,sans-Serif" font-size="10.00" fill="#0000a0">Sort</text>
<text text-anchor="middle" x="147" y="-689" font-family="Helvetica,sans-Serif" font-size="10.00" fill="#0000a0">Ancestors</text>
</a>
</g>
</g>
<!-- trace&#45;&gt;sortAncestors -->
<g id="edge23" class="edge"><title>trace&#45;&gt;sortAncestors</title>
<path fill="none" stroke="black" d="M170.638,-763.61C166.593,-752.555 161.278,-738.027 156.713,-725.548"/>
<polygon fill="black" stroke="black" points="159.973,-724.273 153.25,-716.084 153.399,-726.678 159.973,-724.273"/>
<text text-anchor="middle" x="168.752" y="-737.3" font-family="Helvetica,sans-Serif" font-size="9.00" fill="#808080">ok</text>
</g>
<!-- failure -->
<g id="node26" class="node"><title>failure</title>
<g id="a_node26"><a xlink:href="/about-avail/documentation/modules/module-life-cycle.html#failure" xlink:title="Activation failed." target="_top">
<ellipse fill="#e41e1e" stroke="black" cx="220" cy="-270" rx="27.4912" ry="18"/>
<text text-anchor="middle" x="220" y="-267" font-family="Helvetica,sans-Serif" font-size="10.00" fill="#ffffff">Failure</text>
</a>
</g>
</g>
<!-- trace&#45;&gt;failure -->
<g id="edge34" class="edge"><title>trace&#45;&gt;failure</title>
<path fill="none" stroke="black" d="M198.597,-763.919C215.087,-748.813 235,-725.156 235,-699 235,-699 235,-699 235,-353 235,-334.242 231.155,-313.46 227.359,-297.51"/>
<polygon fill="black" stroke="black" points="230.749,-296.639 224.912,-287.797 223.961,-298.349 230.749,-296.639"/>
<text text-anchor="middle" x="244.497" y="-533.3" font-family="Helvetica,sans-Serif" font-size="9.00" fill="#808080">error</text>
</g>
<!-- nextAncestor -->
<g id="node20" class="node"><title>nextAncestor</title>
<g id="a_node20"><a xlink:href="/about-avail/documentation/modules/module-life-cycle.html#nextAncestor" xlink:title="Proceed using the next ancestor in the established topological order." target="_top">
<polygon fill="none" stroke="black" points="117.589,-642 62.4106,-642 62.4106,-606 117.589,-606 117.589,-642"/>
<text text-anchor="middle" x="90" y="-627" font-family="Helvetica,sans-Serif" font-size="10.00" fill="#0000a0">Next</text>
<text text-anchor="middle" x="90" y="-615" font-family="Helvetica,sans-Serif" font-size="10.00" fill="#0000a0">Ancestor</text>
</a>
</g>
</g>
<!-- sortAncestors&#45;&gt;nextAncestor -->
<g id="edge24" class="edge"><title>sortAncestors&#45;&gt;nextAncestor</title>
<path fill="none" stroke="black" d="M133.492,-679.937C126.496,-671.1 117.816,-660.135 110.054,-650.331"/>
<polygon fill="black" stroke="black" points="112.758,-648.109 103.807,-642.441 107.27,-652.454 112.758,-648.109"/>
</g>
<!-- moreAncestors -->
<g id="node19" class="node"><title>moreAncestors</title>
<g id="a_node19"><a xlink:href="/about-avail/documentation/modules/module-life-cycle.html#moreAncestors" xlink:title="Are there more ancestors in the established topological order? This includes the activated module itself, which is processed last." target="_top">
<polygon fill="none" stroke="black" points="92,-214 25.9805,-182 92,-150 158.02,-182 92,-214"/>
<text text-anchor="middle" x="92" y="-185" font-family="Helvetica,sans-Serif" font-size="10.00" fill="#0000a0">More</text>
<text text-anchor="middle" x="92" y="-173" font-family="Helvetica,sans-Serif" font-size="10.00" fill="#0000a0">Ancestors?</text>
</a>
</g>
</g>
<!-- moreAncestors&#45;&gt;nextAncestor -->
<g id="edge25" class="edge"><title>moreAncestors&#45;&gt;nextAncestor</title>
<path fill="none" stroke="black" d="M58.265,-197.873C32.0082,-211.997 0,-235.985 0,-269 0,-537 0,-537 0,-537 0,-568.182 28.5879,-591.533 53.5395,-605.975"/>
<polygon fill="black" stroke="black" points="52.0566,-609.154 62.508,-610.891 55.4212,-603.015 52.0566,-609.154"/>
<text text-anchor="middle" x="8.2521" y="-393.3" font-family="Helvetica,sans-Serif" font-size="9.00" fill="#808080"> yes</text>
</g>
<!-- success -->
<g id="node27" class="node"><title>success</title>
<g id="a_node27"><a xlink:href="/about-avail/documentation/modules/module-life-cycle.html#success" xlink:title="Activation succeeded." target="_top">
<ellipse fill="#33ff99" stroke="black" cx="124" cy="-79" rx="32.0178" ry="18"/>
<text text-anchor="middle" x="124" y="-76" font-family="Helvetica,sans-Serif" font-size="10.00" fill="#0000a0">Success</text>
</a>
</g>
</g>
<!-- moreAncestors&#45;&gt;success -->
<g id="edge37" class="edge"><title>moreAncestors&#45;&gt;success</title>
<path fill="none" stroke="black" d="M100.575,-153.934C105.194,-139.358 110.872,-121.435 115.482,-106.886"/>
<polygon fill="black" stroke="black" points="118.935,-107.575 118.619,-96.9852 112.262,-105.461 118.935,-107.575"/>
<text text-anchor="middle" x="117.254" y="-123.3" font-family="Helvetica,sans-Serif" font-size="9.00" fill="#808080"> no</text>
</g>
<!-- isLoaded -->
<g id="node21" class="node"><title>isLoaded</title>
<g id="a_node21"><a xlink:href="/about-avail/documentation/modules/module-life-cycle.html#isLoaded" xlink:title="Is the ancestor loaded? If so, then nothing in its own ancestry could have changed." target="_top">
<polygon fill="none" stroke="black" points="90,-568 35.6296,-536 90,-504 144.37,-536 90,-568"/>
<text text-anchor="middle" x="90" y="-539" font-family="Helvetica,sans-Serif" font-size="10.00" fill="#0000a0">Is</text>
<text text-anchor="middle" x="90" y="-527" font-family="Helvetica,sans-Serif" font-size="10.00" fill="#0000a0">Loaded?</text>
</a>
</g>
</g>
<!-- nextAncestor&#45;&gt;isLoaded -->
<g id="edge26" class="edge"><title>nextAncestor&#45;&gt;isLoaded</title>
<path fill="none" stroke="black" d="M90,-605.597C90,-597.739 90,-588.089 90,-578.535"/>
<polygon fill="black" stroke="black" points="93.5001,-578.295 90,-568.295 86.5001,-578.295 93.5001,-578.295"/>
</g>
<!-- isLoaded&#45;&gt;moreAncestors -->
<g id="edge27" class="edge"><title>isLoaded&#45;&gt;moreAncestors</title>
<path fill="none" stroke="black" d="M73.616,-513.398C61.1062,-494.733 46,-466.501 46,-439 46,-439 46,-439 46,-269 46,-248.856 55.9344,-228.862 66.5698,-213.228"/>
<polygon fill="black" stroke="black" points="69.4802,-215.176 72.4919,-205.018 63.8031,-211.081 69.4802,-215.176"/>
<text text-anchor="middle" x="54.2521" y="-351.3" font-family="Helvetica,sans-Serif" font-size="9.00" fill="#808080"> yes</text>
</g>
<!-- isCompiled -->
<g id="node22" class="node"><title>isCompiled</title>
<g id="a_node22"><a xlink:href="/about-avail/documentation/modules/module-life-cycle.html#isCompiled" xlink:title="Use the source module&#39;s timestamp and content hash to determine if the binary module repository contains a suitable compiled binary." target="_top">
<polygon fill="none" stroke="black" points="139.338,-456 76.6624,-456 76.6624,-420 139.338,-420 139.338,-456"/>
<text text-anchor="middle" x="108" y="-441" font-family="Helvetica,sans-Serif" font-size="10.00" fill="#0000a0">Is</text>
<text text-anchor="middle" x="108" y="-429" font-family="Helvetica,sans-Serif" font-size="10.00" fill="#0000a0">Compiled?</text>
</a>
</g>
</g>
<!-- isLoaded&#45;&gt;isCompiled -->
<g id="edge28" class="edge"><title>isLoaded&#45;&gt;isCompiled</title>
<path fill="none" stroke="black" d="M95.2547,-506.975C97.6706,-494.09 100.525,-478.868 102.919,-466.099"/>
<polygon fill="black" stroke="black" points="106.399,-466.529 104.802,-456.055 99.5192,-465.239 106.399,-466.529"/>
<text text-anchor="middle" x="108.254" y="-477.3" font-family="Helvetica,sans-Serif" font-size="9.00" fill="#808080"> no</text>
</g>
<!-- load -->
<g id="node23" class="node"><title>load</title>
<g id="a_node23"><a xlink:href="/about-avail/documentation/modules/module-life-cycle.html#load" xlink:title="Load the appropriate compilation of the module from a binary module repository. The process is aborted if this fails." target="_top">
<polygon fill="#87cefa" stroke="black" points="135,-372 81,-372 81,-336 135,-336 135,-372"/>
<text text-anchor="middle" x="108" y="-357" font-family="Helvetica,sans-Serif" font-size="10.00" fill="#0000a0">Load</text>
<text text-anchor="middle" x="108" y="-345" font-family="Helvetica,sans-Serif" font-size="10.00" fill="#0000a0">Binary</text>
</a>
</g>
</g>
<!-- isCompiled&#45;&gt;load -->
<g id="edge29" class="edge"><title>isCompiled&#45;&gt;load</title>
<path fill="none" stroke="black" d="M108,-419.61C108,-408.774 108,-394.601 108,-382.291"/>
<polygon fill="black" stroke="black" points="111.5,-382.084 108,-372.084 104.5,-382.084 111.5,-382.084"/>
<text text-anchor="middle" x="116.252" y="-393.3" font-family="Helvetica,sans-Serif" font-size="9.00" fill="#808080"> yes</text>
</g>
<!-- compile -->
<g id="node24" class="node"><title>compile</title>
<g id="a_node24"><a xlink:href="/about-avail/documentation/modules/module-life-cycle.html#compile" xlink:title="Compile the source module. The process is aborted if this fails." target="_top">
<polygon fill="#87cefa" stroke="black" points="207,-372 153,-372 153,-336 207,-336 207,-372"/>
<text text-anchor="middle" x="180" y="-357" font-family="Helvetica,sans-Serif" font-size="10.00" fill="#0000a0">Compile</text>
<text text-anchor="middle" x="180" y="-345" font-family="Helvetica,sans-Serif" font-size="10.00" fill="#0000a0">Source</text>
</a>
</g>
</g>
<!-- isCompiled&#45;&gt;compile -->
<g id="edge30" class="edge"><title>isCompiled&#45;&gt;compile</title>
<path fill="none" stroke="black" d="M123.269,-419.61C133.456,-408.008 147.003,-392.58 158.304,-379.71"/>
<polygon fill="black" stroke="black" points="161.032,-381.908 165,-372.084 155.771,-377.289 161.032,-381.908"/>
<text text-anchor="middle" x="155.254" y="-393.3" font-family="Helvetica,sans-Serif" font-size="9.00" fill="#808080"> no</text>
</g>
<!-- load&#45;&gt;moreAncestors -->
<g id="edge31" class="edge"><title>load&#45;&gt;moreAncestors</title>
<path fill="none" stroke="black" d="M106.244,-335.897C104.909,-322.792 103.045,-304.258 101.497,-288 99.4521,-266.531 97.2778,-242.582 95.5264,-222.984"/>
<polygon fill="black" stroke="black" points="98.9997,-222.528 94.6262,-212.878 92.0273,-223.149 98.9997,-222.528"/>
<text text-anchor="middle" x="106.752" y="-267.3" font-family="Helvetica,sans-Serif" font-size="9.00" fill="#808080">ok</text>
</g>
<!-- load&#45;&gt;failure -->
<g id="edge35" class="edge"><title>load&#45;&gt;failure</title>
<path fill="none" stroke="black" d="M116.005,-335.915C121.346,-326.063 129.188,-314.069 139.006,-306 155.326,-292.585 163.621,-296.412 183,-288 184.848,-287.198 186.743,-286.363 188.652,-285.514"/>
<polygon fill="black" stroke="black" points="190.483,-288.528 198.156,-281.222 187.602,-282.148 190.483,-288.528"/>
<text text-anchor="middle" x="149.497" y="-309.3" font-family="Helvetica,sans-Serif" font-size="9.00" fill="#808080">error</text>
</g>
<!-- persist -->
<g id="node25" class="node"><title>persist</title>
<g id="a_node25"><a xlink:href="/about-avail/documentation/modules/module-life-cycle.html#persist" xlink:title="Write the new compiled binary into the appropriate binary module repository." target="_top">
<polygon fill="none" stroke="black" points="174,-288 120,-288 120,-252 174,-252 174,-288"/>
<text text-anchor="middle" x="147" y="-273" font-family="Helvetica,sans-Serif" font-size="10.00" fill="#0000a0">Persist</text>
<text text-anchor="middle" x="147" y="-261" font-family="Helvetica,sans-Serif" font-size="10.00" fill="#0000a0">Binary</text>
</a>
</g>
</g>
<!-- compile&#45;&gt;persist -->
<g id="edge32" class="edge"><title>compile&#45;&gt;persist</title>
<path fill="none" stroke="black" d="M173.002,-335.61C168.553,-324.555 162.706,-310.027 157.684,-297.548"/>
<polygon fill="black" stroke="black" points="160.856,-296.054 153.875,-288.084 154.362,-298.668 160.856,-296.054"/>
<text text-anchor="middle" x="170.752" y="-309.3" font-family="Helvetica,sans-Serif" font-size="9.00" fill="#808080">ok</text>
</g>
<!-- compile&#45;&gt;failure -->
<g id="edge36" class="edge"><title>compile&#45;&gt;failure</title>
<path fill="none" stroke="black" d="M187.794,-335.959C191.936,-327.004 197.161,-315.867 202.006,-306 203.558,-302.838 205.215,-299.529 206.872,-296.262"/>
<polygon fill="black" stroke="black" points="210.009,-297.814 211.452,-287.318 203.779,-294.624 210.009,-297.814"/>
<text text-anchor="middle" x="212.497" y="-309.3" font-family="Helvetica,sans-Serif" font-size="9.00" fill="#808080">error</text>
</g>
<!-- persist&#45;&gt;moreAncestors -->
<g id="edge33" class="edge"><title>persist&#45;&gt;moreAncestors</title>
<path fill="none" stroke="black" d="M135.87,-251.597C129.252,-241.249 120.646,-227.792 112.811,-215.541"/>
<polygon fill="black" stroke="black" points="115.618,-213.434 107.282,-206.895 109.721,-217.205 115.618,-213.434"/>
</g>
<!-- failure&#45;&gt;edit -->
<g id="edge38" class="edge"><title>failure&#45;&gt;edit</title>
<path fill="none" stroke="black" d="M218.024,-252.009C216.65,-240.19 214.787,-224.171 213.203,-210.542"/>
<polygon fill="black" stroke="black" points="216.637,-209.779 212.006,-200.25 209.684,-210.587 216.637,-209.779"/>
</g>
<!-- success&#45;&gt;edit -->
<g id="edge39" class="edge"><title>success&#45;&gt;edit</title>
<path fill="none" stroke="black" d="M137.246,-95.5565C151.007,-111.718 172.744,-137.246 188.879,-156.195"/>
<polygon fill="black" stroke="black" points="186.263,-158.522 195.411,-163.867 191.593,-153.984 186.263,-158.522"/>
</g>
</g>
</svg>
