<svg xmlns="http://www.w3.org/2000/svg" width="396" height="68"><defs><style type="text/css">
    @namespace "http://www.w3.org/2000/svg";
    .line                 {fill: none; stroke: #332900;}
    .bold-line            {stroke: #141000; shape-rendering: crispEdges; stroke-width: 2; }
    .thin-line            {stroke: #1F1800; shape-rendering: crispEdges}
    .filled               {fill: #332900; stroke: none;}
    text.terminal         {font-family: Verdana, Sans-serif;
                            font-size: 12px;
                            fill: #141000;
                            font-weight: bold;
                          }
    text.nonterminal      {font-family: Verdana, Sans-serif;
                            font-size: 12px;
                            fill: #1A1400;
                          }
    text.regexp           {font-family: Verdana, Sans-serif;
                            font-size: 12px;
                            fill: #1F1800;
                          }
    rect, circle, polygon {fill: #332900; stroke: #332900;}
    rect.terminal         {fill: #FFDB4D; stroke: #332900;}
    rect.nonterminal      {fill: #FFEC9E; stroke: #332900;}
    rect.text             {fill: none; stroke: none;}    
    polygon.regexp        {fill: #FFF4C7; stroke: #332900;}
  </style></defs><polygon points="9 33 1 29 1 37"/><polygon points="17 33 9 29 9 37"/><a xmlns:xlink="http://www.w3.org/1999/xlink" xlink:href="#sourceName" xlink:title="sourceName"><rect x="71" y="19" width="98" height="32"/><rect x="69" y="17" width="98" height="32" class="nonterminal"/><text class="nonterminal" x="79" y="37">sourceName</text></a><rect x="189" y="19" width="26" height="32" rx="10"/><rect x="187" y="17" width="26" height="32" class="terminal" rx="10"/><text class="terminal" x="197" y="37">→</text><a xmlns:xlink="http://www.w3.org/1999/xlink" xlink:href="#targetName" xlink:title="targetName"><rect x="235" y="19" width="94" height="32"/><rect x="233" y="17" width="94" height="32" class="nonterminal"/><text class="nonterminal" x="243" y="37">targetName</text></a><svg:path xmlns:svg="http://www.w3.org/2000/svg" class="line" d="m17 33 h2 m40 0 h10 m98 0 h10 m0 0 h10 m26 0 h10 m0 0 h10 m94 0 h10 m-298 0 l20 0 m-1 0 q-9 0 -9 -10 l0 -12 q0 -10 10 -10 m278 32 l20 0 m-20 0 q10 0 10 -10 l0 -12 q0 -10 -10 -10 m-278 0 h10 m0 0 h268 m-318 32 h20 m318 0 h20 m-358 0 q10 0 10 10 m338 0 q0 -10 10 -10 m-348 10 v14 m338 0 v-14 m-338 14 q0 10 10 10 m318 0 q10 0 10 -10 m-328 10 h10 m0 0 h308 m23 -34 h-3"/><polygon points="387 33 395 29 395 37"/><polygon points="387 33 379 29 379 37"/></svg>
