<?xml version="1.0" encoding="UTF-8" standalone="no"?>
<!DOCTYPE svg PUBLIC "-//W3C//DTD SVG 1.1//EN"
 "http://www.w3.org/Graphics/SVG/1.1/DTD/svg11.dtd">
<!-- Generated by graphviz version 2.36.0 (20140111.2315)
 -->
<!-- Title: Module resolution Pages: 1 -->
<svg width="401pt" height="918pt"
 viewBox="0.00 0.00 401.00 918.00" xmlns="http://www.w3.org/2000/svg" xmlns:xlink="http://www.w3.org/1999/xlink">
<g id="graph0" class="graph" transform="scale(1 1) rotate(0) translate(4 914)">
<title>Module resolution</title>
<polygon fill="white" stroke="none" points="-4,4 -4,-914 397,-914 397,4 -4,4"/>
<text text-anchor="middle" x="196.5" y="-7" font-family="Helvetica,sans-Serif" font-size="10.00" fill="#000000">The module resolution process.</text>
<!-- canonize -->
<g id="node1" class="node"><title>canonize</title>
<g id="a_node1"><a xlink:href="/about-avail/documentation/modules/module-resolution.html#canonize" xlink:title="Naively canonize the import target by appending its local name to the canonical name of the dependent module&#39;s enclosing container." target="_top">
<path fill="none" stroke="black" d="M109,-851C109,-851 179,-851 179,-851 185,-851 191,-857 191,-863 191,-863 191,-897 191,-897 191,-903 185,-909 179,-909 179,-909 109,-909 109,-909 103,-909 97,-903 97,-897 97,-897 97,-863 97,-863 97,-857 103,-851 109,-851"/>
<text text-anchor="middle" x="143.673" y="-883" font-family="Helvetica,sans-Serif" font-size="10.00" fill="#0000a0">Canonize Import</text>
<text text-anchor="middle" x="143.673" y="-871" font-family="Helvetica,sans-Serif" font-size="10.00" fill="#0000a0">Target</text>
</a>
</g>
</g>
<!-- canRename -->
<g id="node2" class="node"><title>canRename</title>
<g id="a_node2"><a xlink:href="/about-avail/documentation/modules/module-resolution.html#canRename" xlink:title="Does a module rename rule exist for the naively canonized import target?" target="_top">
<polygon fill="none" stroke="black" points="144,-812 97,-783 144,-754 191,-783 144,-812"/>
<text text-anchor="middle" x="144" y="-786" font-family="Helvetica,sans-Serif" font-size="10.00" fill="#0000a0">Rename Rule</text>
<text text-anchor="middle" x="144" y="-774" font-family="Helvetica,sans-Serif" font-size="10.00" fill="#0000a0">Exists?</text>
</a>
</g>
</g>
<!-- canonize&#45;&gt;canRename -->
<g id="edge1" class="edge"><title>canonize&#45;&gt;canRename</title>
<path fill="none" stroke="black" d="M144,-850.754C144,-841.837 144,-831.831 144,-822.333"/>
<polygon fill="black" stroke="black" points="147.5,-822.301 144,-812.301 140.5,-822.301 147.5,-822.301"/>
</g>
<!-- rename -->
<g id="node3" class="node"><title>rename</title>
<g id="a_node3"><a xlink:href="/about-avail/documentation/modules/module-resolution.html#rename" xlink:title="Apply the module rename rule to transform the naively canonized import target." target="_top">
<polygon fill="none" stroke="black" points="242,-706 148,-706 148,-648 242,-648 242,-706"/>
<text text-anchor="middle" x="195" y="-680" font-family="Helvetica,sans-Serif" font-size="10.00" fill="#0000a0">Apply Rename</text>
<text text-anchor="middle" x="195" y="-668" font-family="Helvetica,sans-Serif" font-size="10.00" fill="#0000a0">Rule</text>
</a>
</g>
</g>
<!-- canRename&#45;&gt;rename -->
<g id="edge2" class="edge"><title>canRename&#45;&gt;rename</title>
<path fill="none" stroke="black" d="M154.567,-760.451C160.946,-747.444 169.249,-730.511 176.671,-715.378"/>
<polygon fill="black" stroke="black" points="179.892,-716.758 181.152,-706.238 173.607,-713.676 179.892,-716.758"/>
<text text-anchor="middle" x="180.252" y="-727.3" font-family="Helvetica,sans-Serif" font-size="9.00" fill="#808080"> yes</text>
</g>
<!-- translate -->
<g id="node4" class="node"><title>translate</title>
<g id="a_node4"><a xlink:href="/about-avail/documentation/modules/module-resolution.html#translate" xlink:title="Translate the naively canonized import target to a file path by 1) substituting the module root name for its source path and 2) appending .avail to each local name." target="_top">
<polygon fill="none" stroke="black" points="189,-610 95,-610 95,-552 189,-552 189,-610"/>
<text text-anchor="middle" x="142" y="-584" font-family="Helvetica,sans-Serif" font-size="10.00" fill="#0000a0">Translate to</text>
<text text-anchor="middle" x="142" y="-572" font-family="Helvetica,sans-Serif" font-size="10.00" fill="#0000a0">File Path</text>
</a>
</g>
</g>
<!-- canRename&#45;&gt;translate -->
<g id="edge3" class="edge"><title>canRename&#45;&gt;translate</title>
<path fill="none" stroke="black" d="M136.987,-757.941C133.034,-743.112 128.496,-723.624 126.493,-706 123.581,-680.387 123.525,-673.606 126.493,-648 127.556,-638.825 129.425,-629.074 131.505,-619.962"/>
<polygon fill="black" stroke="black" points="134.963,-620.553 133.911,-610.01 128.159,-618.907 134.963,-620.553"/>
<text text-anchor="middle" x="133.254" y="-674.3" font-family="Helvetica,sans-Serif" font-size="9.00" fill="#808080"> no</text>
</g>
<!-- rename&#45;&gt;translate -->
<g id="edge4" class="edge"><title>rename&#45;&gt;translate</title>
<path fill="none" stroke="black" d="M179.098,-647.797C174.015,-638.781 168.308,-628.66 162.924,-619.11"/>
<polygon fill="black" stroke="black" points="165.851,-617.175 157.891,-610.183 159.753,-620.613 165.851,-617.175"/>
</g>
<!-- morePackages -->
<g id="node5" class="node"><title>morePackages</title>
<g id="a_node5"><a xlink:href="/about-avail/documentation/modules/module-resolution.html#morePackages" xlink:title="Are there still components of the file path that refer to packages?" target="_top">
<polygon fill="none" stroke="black" points="142,-514 95,-485 142,-456 189,-485 142,-514"/>
<text text-anchor="middle" x="142" y="-482" font-family="Helvetica,sans-Serif" font-size="10.00" fill="#0000a0">More Packages?</text>
</a>
</g>
</g>
<!-- translate&#45;&gt;morePackages -->
<g id="edge5" class="edge"><title>translate&#45;&gt;morePackages</title>
<path fill="none" stroke="black" d="M142,-551.797C142,-543.153 142,-533.493 142,-524.294"/>
<polygon fill="black" stroke="black" points="145.5,-524.183 142,-514.183 138.5,-524.183 145.5,-524.183"/>
</g>
<!-- inPackage -->
<g id="node6" class="node"><title>inPackage</title>
<g id="a_node6"><a xlink:href="/about-avail/documentation/modules/module-resolution.html#inPackage" xlink:title="Does the file path refer to an existing file?" target="_top">
<polygon fill="none" stroke="black" points="142,-408 95,-379 142,-350 189,-379 142,-408"/>
<text text-anchor="middle" x="142" y="-382" font-family="Helvetica,sans-Serif" font-size="10.00" fill="#0000a0">File Exists</text>
<text text-anchor="middle" x="142" y="-370" font-family="Helvetica,sans-Serif" font-size="10.00" fill="#0000a0">In Package?</text>
</a>
</g>
</g>
<!-- morePackages&#45;&gt;inPackage -->
<g id="edge6" class="edge"><title>morePackages&#45;&gt;inPackage</title>
<path fill="none" stroke="black" d="M142,-455.856C142,-444.295 142,-430.725 142,-418.283"/>
<polygon fill="black" stroke="black" points="145.5,-418.166 142,-408.166 138.5,-418.166 145.5,-418.166"/>
<text text-anchor="middle" x="150.252" y="-429.3" font-family="Helvetica,sans-Serif" font-size="9.00" fill="#808080"> yes</text>
</g>
<!-- inRoot -->
<g id="node11" class="node"><title>inRoot</title>
<g id="a_node11"><a xlink:href="/about-avail/documentation/modules/module-resolution.html#inRoot" xlink:title="Does the file path refer to an existing file?" target="_top">
<polygon fill="none" stroke="black" points="257,-408 210,-379 257,-350 304,-379 257,-408"/>
<text text-anchor="middle" x="257" y="-382" font-family="Helvetica,sans-Serif" font-size="10.00" fill="#0000a0">File Exists</text>
<text text-anchor="middle" x="257" y="-370" font-family="Helvetica,sans-Serif" font-size="10.00" fill="#0000a0">In Root?</text>
</a>
</g>
</g>
<!-- morePackages&#45;&gt;inRoot -->
<g id="edge14" class="edge"><title>morePackages&#45;&gt;inRoot</title>
<path fill="none" stroke="black" d="M160.477,-467.291C179.59,-450.006 209.595,-422.871 231.076,-403.444"/>
<polygon fill="black" stroke="black" points="233.5,-405.971 238.569,-396.668 228.805,-400.779 233.5,-405.971"/>
<text text-anchor="middle" x="209.254" y="-429.3" font-family="Helvetica,sans-Serif" font-size="9.00" fill="#808080"> no</text>
</g>
<!-- isPackage -->
<g id="node7" class="node"><title>isPackage</title>
<g id="a_node7"><a xlink:href="/about-avail/documentation/modules/module-resolution.html#isPackage" xlink:title="Does the file path refer to a package?" target="_top">
<polygon fill="none" stroke="black" points="159,-302 112,-273 159,-244 206,-273 159,-302"/>
<text text-anchor="middle" x="159" y="-270" font-family="Helvetica,sans-Serif" font-size="10.00" fill="#0000a0">File is Package?</text>
</a>
</g>
</g>
<!-- inPackage&#45;&gt;isPackage -->
<g id="edge7" class="edge"><title>inPackage&#45;&gt;isPackage</title>
<path fill="none" stroke="black" d="M146.159,-352.559C148.279,-339.59 150.891,-323.609 153.205,-309.454"/>
<polygon fill="black" stroke="black" points="156.666,-309.973 154.825,-299.539 149.758,-308.843 156.666,-309.973"/>
<text text-anchor="middle" x="160.252" y="-323.3" font-family="Helvetica,sans-Serif" font-size="9.00" fill="#808080"> yes</text>
</g>
<!-- truncate -->
<g id="node10" class="node"><title>truncate</title>
<g id="a_node10"><a xlink:href="/about-avail/documentation/modules/module-resolution.html#truncate" xlink:title="Drop the rightmost file path component that corresponds to a package. Proceed with the new file path." target="_top">
<polygon fill="none" stroke="black" points="94,-302 -7.10543e-15,-302 -7.10543e-15,-244 94,-244 94,-302"/>
<text text-anchor="middle" x="47" y="-276" font-family="Helvetica,sans-Serif" font-size="10.00" fill="#0000a0">Drop Last</text>
<text text-anchor="middle" x="47" y="-264" font-family="Helvetica,sans-Serif" font-size="10.00" fill="#0000a0">Package</text>
</a>
</g>
</g>
<!-- inPackage&#45;&gt;truncate -->
<g id="edge12" class="edge"><title>inPackage&#45;&gt;truncate</title>
<path fill="none" stroke="black" d="M125.452,-359.885C112.821,-346.057 95.0171,-326.566 79.5622,-309.647"/>
<polygon fill="black" stroke="black" points="81.9822,-307.107 72.6536,-302.084 76.8138,-311.828 81.9822,-307.107"/>
<text text-anchor="middle" x="104.254" y="-323.3" font-family="Helvetica,sans-Serif" font-size="9.00" fill="#808080"> no</text>
</g>
<!-- isRepresented -->
<g id="node8" class="node"><title>isRepresented</title>
<g id="a_node8"><a xlink:href="/about-avail/documentation/modules/module-resolution.html#isRepresented" xlink:title="Append the package representative to the file path. Does the representative exist?" target="_top">
<polygon fill="none" stroke="black" points="185,-196 138,-167 185,-138 232,-167 185,-196"/>
<text text-anchor="middle" x="185" y="-170" font-family="Helvetica,sans-Serif" font-size="10.00" fill="#0000a0">Representative</text>
<text text-anchor="middle" x="185" y="-158" font-family="Helvetica,sans-Serif" font-size="10.00" fill="#0000a0">Exists?</text>
</a>
</g>
</g>
<!-- isPackage&#45;&gt;isRepresented -->
<g id="edge8" class="edge"><title>isPackage&#45;&gt;isRepresented</title>
<path fill="none" stroke="black" d="M165.096,-247.617C168.462,-234.153 172.697,-217.21 176.395,-202.419"/>
<polygon fill="black" stroke="black" points="179.822,-203.141 178.852,-192.591 173.031,-201.443 179.822,-203.141"/>
<text text-anchor="middle" x="181.252" y="-217.3" font-family="Helvetica,sans-Serif" font-size="9.00" fill="#808080"> yes</text>
</g>
<!-- resolved -->
<g id="node9" class="node"><title>resolved</title>
<g id="a_node9"><a xlink:title="Module resolution succeeded. Proceed using the resolved file path." target="_top">
<ellipse fill="#33ff99" stroke="black" cx="131" cy="-61" rx="47" ry="29"/>
<text text-anchor="middle" x="131" y="-58" font-family="Helvetica,sans-Serif" font-size="10.00" fill="#0000a0">Resolved</text>
</a>
</g>
</g>
<!-- isPackage&#45;&gt;resolved -->
<g id="edge9" class="edge"><title>isPackage&#45;&gt;resolved</title>
<path fill="none" stroke="black" d="M144.441,-252.568C134.394,-237.885 121.907,-216.773 116.493,-196 108.172,-164.076 113.416,-126.672 119.808,-99.5065"/>
<polygon fill="black" stroke="black" points="123.247,-100.181 122.288,-89.6293 116.458,-98.4758 123.247,-100.181"/>
<text text-anchor="middle" x="123.254" y="-164.3" font-family="Helvetica,sans-Serif" font-size="9.00" fill="#808080"> no</text>
</g>
<!-- isRepresented&#45;&gt;resolved -->
<g id="edge10" class="edge"><title>isRepresented&#45;&gt;resolved</title>
<path fill="none" stroke="black" d="M173.942,-144.703C166.926,-131.191 157.673,-113.37 149.553,-97.7311"/>
<polygon fill="black" stroke="black" points="152.643,-96.0869 144.928,-88.8248 146.43,-99.3127 152.643,-96.0869"/>
<text text-anchor="middle" x="168.252" y="-111.3" font-family="Helvetica,sans-Serif" font-size="9.00" fill="#808080"> yes</text>
</g>
<!-- unresolvable -->
<g id="node14" class="node"><title>unresolvable</title>
<g id="a_node14"><a xlink:title="It is not possible to resolve the import target using the supplied module roots, module renames file, and file system. Report failure." target="_top">
<ellipse fill="#e41e1e" stroke="black" cx="255" cy="-61" rx="47" ry="29"/>
<text text-anchor="middle" x="255" y="-58" font-family="Helvetica,sans-Serif" font-size="10.00" fill="#ffffff">Unresolvable</text>
</a>
</g>
</g>
<!-- isRepresented&#45;&gt;unresolvable -->
<g id="edge11" class="edge"><title>isRepresented&#45;&gt;unresolvable</title>
<path fill="none" stroke="black" d="M198.497,-145.948C207.816,-132.103 220.455,-113.324 231.417,-97.0381"/>
<polygon fill="black" stroke="black" points="234.622,-98.5442 237.302,-88.294 228.815,-94.6355 234.622,-98.5442"/>
<text text-anchor="middle" x="229.254" y="-111.3" font-family="Helvetica,sans-Serif" font-size="9.00" fill="#808080"> no</text>
</g>
<!-- truncate&#45;&gt;morePackages -->
<g id="edge13" class="edge"><title>truncate&#45;&gt;morePackages</title>
<path fill="none" stroke="black" d="M52.2012,-302.262C58.0176,-330.138 68.9274,-373.465 86,-408 94.8645,-425.931 108.005,-444.039 119.329,-458.079"/>
<polygon fill="black" stroke="black" points="116.675,-460.362 125.741,-465.844 122.072,-455.905 116.675,-460.362"/>
</g>
<!-- inRoot&#45;&gt;isPackage -->
<g id="edge15" class="edge"><title>inRoot&#45;&gt;isPackage</title>
<path fill="none" stroke="black" d="M239.93,-359.885C224.191,-343.182 200.668,-318.219 183.032,-299.504"/>
<polygon fill="black" stroke="black" points="185.28,-296.785 175.875,-291.908 180.185,-301.586 185.28,-296.785"/>
<text text-anchor="middle" x="219.252" y="-323.3" font-family="Helvetica,sans-Serif" font-size="9.00" fill="#808080"> yes</text>
</g>
<!-- moreRoots -->
<g id="node12" class="node"><title>moreRoots</title>
<g id="a_node12"><a xlink:href="/about-avail/documentation/modules/module-resolution.html#moreRoots" xlink:title="Are there still module roots that haven&#39;t been searched yet?" target="_top">
<polygon fill="none" stroke="black" points="271,-302 224,-273 271,-244 318,-273 271,-302"/>
<text text-anchor="middle" x="271" y="-270" font-family="Helvetica,sans-Serif" font-size="10.00" fill="#0000a0">More Roots?</text>
</a>
</g>
</g>
<!-- inRoot&#45;&gt;moreRoots -->
<g id="edge16" class="edge"><title>inRoot&#45;&gt;moreRoots</title>
<path fill="none" stroke="black" d="M260.497,-352.025C262.201,-339.368 264.277,-323.939 266.133,-310.153"/>
<polygon fill="black" stroke="black" points="269.634,-310.382 267.499,-300.005 262.696,-309.448 269.634,-310.382"/>
<text text-anchor="middle" x="271.254" y="-323.3" font-family="Helvetica,sans-Serif" font-size="9.00" fill="#808080"> no</text>
</g>
<!-- nextRoot -->
<g id="node13" class="node"><title>nextRoot</title>
<g id="a_node13"><a xlink:href="/about-avail/documentation/modules/module-resolution.html#nextRoot" xlink:title="Rewrite the prefix of the file path that corresponds to the module root. It should now refer to a root that hasn&#39;t been searched yet. Proceed with the new file path." target="_top">
<polygon fill="none" stroke="black" points="393,-196 299,-196 299,-138 393,-138 393,-196"/>
<text text-anchor="middle" x="346" y="-170" font-family="Helvetica,sans-Serif" font-size="10.00" fill="#0000a0">Translate to</text>
<text text-anchor="middle" x="346" y="-158" font-family="Helvetica,sans-Serif" font-size="10.00" fill="#0000a0">Next Root</text>
</a>
</g>
</g>
<!-- moreRoots&#45;&gt;nextRoot -->
<g id="edge17" class="edge"><title>moreRoots&#45;&gt;nextRoot</title>
<path fill="none" stroke="black" d="M285.107,-252.438C294.863,-238.91 308.137,-220.504 319.801,-204.329"/>
<polygon fill="black" stroke="black" points="322.717,-206.27 325.727,-196.112 317.039,-202.175 322.717,-206.27"/>
<text text-anchor="middle" x="319.252" y="-217.3" font-family="Helvetica,sans-Serif" font-size="9.00" fill="#808080"> yes</text>
</g>
<!-- moreRoots&#45;&gt;unresolvable -->
<g id="edge19" class="edge"><title>moreRoots&#45;&gt;unresolvable</title>
<path fill="none" stroke="black" d="M268.941,-244.976C266.14,-208.212 261.113,-142.23 257.922,-100.355"/>
<polygon fill="black" stroke="black" points="261.403,-99.9654 257.153,-90.2602 254.423,-100.497 261.403,-99.9654"/>
<text text-anchor="middle" x="272.254" y="-164.3" font-family="Helvetica,sans-Serif" font-size="9.00" fill="#808080"> no</text>
</g>
<!-- nextRoot&#45;&gt;inRoot -->
<g id="edge18" class="edge"><title>nextRoot&#45;&gt;inRoot</title>
<path fill="none" stroke="black" d="M346.781,-196.066C346.498,-224.177 343.101,-268.028 327,-302 317.187,-322.706 299.739,-341.67 284.718,-355.475"/>
<polygon fill="black" stroke="black" points="282.292,-352.95 277.138,-362.207 286.94,-358.184 282.292,-352.95"/>
</g>
</g>
</svg>
