<?xml version="1.0" encoding="UTF-8" standalone="no"?>
<!DOCTYPE svg PUBLIC "-//W3C//DTD SVG 1.1//EN"
 "http://www.w3.org/Graphics/SVG/1.1/DTD/svg11.dtd">
<!-- Generated by graphviz version 2.36.0 (20140111.2315)
 -->
<!-- Title: Name resolution Pages: 1 -->
<svg width="429pt" height="772pt"
 viewBox="0.00 0.00 429.00 772.00" xmlns="http://www.w3.org/2000/svg" xmlns:xlink="http://www.w3.org/1999/xlink">
<g id="graph0" class="graph" transform="scale(1 1) rotate(0) translate(4 768)">
<title>Name resolution</title>
<polygon fill="white" stroke="none" points="-4,4 -4,-768 425,-768 425,4 -4,4"/>
<text text-anchor="middle" x="210.5" y="-7" font-family="Helvetica,sans-Serif" font-size="10.00" fill="#000000">The name resolution process.</text>
<!-- stringProvided -->
<g id="node1" class="node"><title>stringProvided</title>
<g id="a_node1"><a xlink:href="/about-avail/documentation/modules/name-resolution.html#stringProvided" xlink:title="The name is provided as a string to a method that performs name resolution." target="_top">
<path fill="none" stroke="black" d="M12,-705C12,-705 82,-705 82,-705 88,-705 94,-711 94,-717 94,-717 94,-751 94,-751 94,-757 88,-763 82,-763 82,-763 12,-763 12,-763 6,-763 0,-757 0,-751 0,-751 0,-717 0,-717 0,-711 6,-705 12,-705"/>
<text text-anchor="middle" x="46.949" y="-737" font-family="Helvetica,sans-Serif" font-size="10.00" fill="#0000a0">Name Provided</text>
<text text-anchor="middle" x="46.949" y="-725" font-family="Helvetica,sans-Serif" font-size="10.00" fill="#0000a0">As String</text>
</a>
</g>
</g>
<!-- lookup -->
<g id="node3" class="node"><title>lookup</title>
<g id="a_node3"><a xlink:href="/about-avail/documentation/modules/name-resolution.html#lookup" xlink:title="Use the name to look up the set of candidate atoms in the module&#39;s internal directory of visible names." target="_top">
<polygon fill="#87cefa" stroke="black" points="103,-666 56,-637 103,-608 150,-637 103,-666"/>
<text text-anchor="middle" x="103" y="-634" font-family="Helvetica,sans-Serif" font-size="10.00" fill="#0000a0">Look Up Atom</text>
</a>
</g>
</g>
<!-- stringProvided&#45;&gt;lookup -->
<g id="edge1" class="edge"><title>stringProvided&#45;&gt;lookup</title>
<path fill="none" stroke="black" d="M63.6502,-704.754C70.587,-692.986 78.6426,-679.321 85.6516,-667.43"/>
<polygon fill="black" stroke="black" points="88.7086,-669.137 90.7717,-658.745 82.6783,-665.582 88.7086,-669.137"/>
</g>
<!-- parse -->
<g id="node2" class="node"><title>parse</title>
<g id="a_node2"><a xlink:href="/about-avail/documentation/modules/name-resolution.html#parse" xlink:title="The compiler parses the name from a lexical expression in the module body." target="_top">
<path fill="none" stroke="black" d="M124,-705C124,-705 194,-705 194,-705 200,-705 206,-711 206,-717 206,-717 206,-751 206,-751 206,-757 200,-763 194,-763 194,-763 124,-763 124,-763 118,-763 112,-757 112,-751 112,-751 112,-717 112,-717 112,-711 118,-705 124,-705"/>
<text text-anchor="middle" x="158.507" y="-737" font-family="Helvetica,sans-Serif" font-size="10.00" fill="#0000a0">Name Sent</text>
<text text-anchor="middle" x="158.507" y="-725" font-family="Helvetica,sans-Serif" font-size="10.00" fill="#0000a0">As Message</text>
</a>
</g>
</g>
<!-- parse&#45;&gt;lookup -->
<g id="edge2" class="edge"><title>parse&#45;&gt;lookup</title>
<path fill="none" stroke="black" d="M142.35,-704.754C135.413,-692.986 127.357,-679.321 120.348,-667.43"/>
<polygon fill="black" stroke="black" points="123.322,-665.582 115.228,-658.745 117.291,-669.137 123.322,-665.582"/>
</g>
<!-- create -->
<g id="node4" class="node"><title>create</title>
<g id="a_node4"><a xlink:href="/about-avail/documentation/modules/name-resolution.html#create" xlink:title="Create a new atom and associate it with the name." target="_top">
<polygon fill="none" stroke="black" points="135,-484 41,-484 41,-426 135,-426 135,-484"/>
<text text-anchor="middle" x="88" y="-458" font-family="Helvetica,sans-Serif" font-size="10.00" fill="#0000a0">Create a</text>
<text text-anchor="middle" x="88" y="-446" font-family="Helvetica,sans-Serif" font-size="10.00" fill="#0000a0">New Atom</text>
</a>
</g>
</g>
<!-- lookup&#45;&gt;create -->
<g id="edge3" class="edge"><title>lookup&#45;&gt;create</title>
<path fill="none" stroke="black" d="M100.754,-609.052C98.2139,-578.566 94.057,-528.684 91.1828,-494.194"/>
<polygon fill="black" stroke="black" points="94.6536,-493.697 90.3352,-484.022 87.6778,-494.278 94.6536,-493.697"/>
<text text-anchor="middle" x="102.752" y="-581.3" font-family="Helvetica,sans-Serif" font-size="9.00" fill="#808080"> 0</text>
</g>
<!-- isNew -->
<g id="node5" class="node"><title>isNew</title>
<g id="a_node5"><a xlink:href="/about-avail/documentation/modules/name-resolution.html#isNew" xlink:title="Is the name mentioned in the introduced names section of the resolving module?" target="_top">
<polygon fill="none" stroke="black" points="163,-560 116,-531 163,-502 210,-531 163,-560"/>
<text text-anchor="middle" x="163" y="-534" font-family="Helvetica,sans-Serif" font-size="10.00" fill="#0000a0">Created</text>
<text text-anchor="middle" x="163" y="-522" font-family="Helvetica,sans-Serif" font-size="10.00" fill="#0000a0">Locally?</text>
</a>
</g>
</g>
<!-- lookup&#45;&gt;isNew -->
<g id="edge4" class="edge"><title>lookup&#45;&gt;isNew</title>
<path fill="none" stroke="black" d="M115.142,-614.954C123.983,-599.63 136.077,-578.666 145.896,-561.648"/>
<polygon fill="black" stroke="black" points="149.115,-563.071 151.081,-552.66 143.052,-559.573 149.115,-563.071"/>
<text text-anchor="middle" x="145.005" y="-581.3" font-family="Helvetica,sans-Serif" font-size="9.00" fill="#808080"> ≥ 1</text>
</g>
<!-- resolved -->
<g id="node9" class="node"><title>resolved</title>
<g id="a_node9"><a xlink:title="Name resolution succeeded. Proceed using the resolved atom." target="_top">
<ellipse fill="#33ff99" stroke="black" cx="150" cy="-61" rx="47" ry="29"/>
<text text-anchor="middle" x="150" y="-58" font-family="Helvetica,sans-Serif" font-size="10.00" fill="#0000a0">Resolved</text>
</a>
</g>
</g>
<!-- create&#45;&gt;resolved -->
<g id="edge5" class="edge"><title>create&#45;&gt;resolved</title>
<path fill="none" stroke="black" d="M90.798,-425.785C93.105,-400.07 96,-361.022 96,-327 96,-327 96,-327 96,-166 96,-140.303 109.146,-114.646 122.465,-95.2454"/>
<polygon fill="black" stroke="black" points="125.352,-97.2261 128.347,-87.0636 119.668,-93.1398 125.352,-97.2261"/>
</g>
<!-- howMany -->
<g id="node6" class="node"><title>howMany</title>
<g id="a_node6"><a xlink:href="/about-avail/documentation/modules/name-resolution.html#howMany" xlink:title="How many atoms are associated with the name?" target="_top">
<polygon fill="#87cefa" stroke="black" points="225,-408 178,-379 225,-350 272,-379 225,-408"/>
<text text-anchor="middle" x="225" y="-382" font-family="Helvetica,sans-Serif" font-size="10.00" fill="#0000a0">Count</text>
<text text-anchor="middle" x="225" y="-370" font-family="Helvetica,sans-Serif" font-size="10.00" fill="#0000a0">Atoms</text>
</a>
</g>
</g>
<!-- isNew&#45;&gt;howMany -->
<g id="edge7" class="edge"><title>isNew&#45;&gt;howMany</title>
<path fill="none" stroke="black" d="M172.282,-507.543C182.738,-482.248 199.817,-440.927 211.691,-412.199"/>
<polygon fill="black" stroke="black" points="215.069,-413.189 215.655,-402.61 208.6,-410.515 215.069,-413.189"/>
<text text-anchor="middle" x="211.254" y="-452.3" font-family="Helvetica,sans-Serif" font-size="9.00" fill="#808080"> no</text>
</g>
<!-- isNew&#45;&gt;resolved -->
<g id="edge6" class="edge"><title>isNew&#45;&gt;resolved</title>
<path fill="none" stroke="black" d="M159.379,-504.045C155.532,-474.185 150,-423.653 150,-380 150,-380 150,-380 150,-166 150,-144.267 150,-119.979 150,-100.344"/>
<polygon fill="black" stroke="black" points="153.5,-100.25 150,-90.2499 146.5,-100.25 153.5,-100.25"/>
<text text-anchor="middle" x="158.252" y="-270.3" font-family="Helvetica,sans-Serif" font-size="9.00" fill="#808080"> yes</text>
</g>
<!-- typeInfo -->
<g id="node7" class="node"><title>typeInfo</title>
<g id="a_node7"><a xlink:href="/about-avail/documentation/modules/name-resolution.html#typeInfo" xlink:title="Is type information available? This will be true at the call site of a name, or during the reflective lookup of a method definition using &quot;method definition of_for&quot;." target="_top">
<polygon fill="none" stroke="black" points="270,-302 223,-273 270,-244 317,-273 270,-302"/>
<text text-anchor="middle" x="270" y="-276" font-family="Helvetica,sans-Serif" font-size="10.00" fill="#0000a0">Types</text>
<text text-anchor="middle" x="270" y="-264" font-family="Helvetica,sans-Serif" font-size="10.00" fill="#0000a0">Available?</text>
</a>
</g>
</g>
<!-- howMany&#45;&gt;typeInfo -->
<g id="edge9" class="edge"><title>howMany&#45;&gt;typeInfo</title>
<path fill="none" stroke="black" d="M234.654,-355.689C240.941,-341.158 249.242,-321.975 256.219,-305.85"/>
<polygon fill="black" stroke="black" points="259.603,-306.841 260.362,-296.274 253.179,-304.062 259.603,-306.841"/>
<text text-anchor="middle" x="259.005" y="-323.3" font-family="Helvetica,sans-Serif" font-size="9.00" fill="#808080"> ≥ 2</text>
</g>
<!-- howMany&#45;&gt;resolved -->
<g id="edge8" class="edge"><title>howMany&#45;&gt;resolved</title>
<path fill="none" stroke="black" d="M219.973,-352.911C210.237,-305.031 187.676,-197.427 164,-108 163.259,-105.201 162.462,-102.316 161.637,-99.4192"/>
<polygon fill="black" stroke="black" points="164.941,-98.2483 158.77,-89.6365 158.224,-100.217 164.941,-98.2483"/>
<text text-anchor="middle" x="196.752" y="-217.3" font-family="Helvetica,sans-Serif" font-size="9.00" fill="#808080"> 1</text>
</g>
<!-- filter -->
<g id="node8" class="node"><title>filter</title>
<g id="a_node8"><a xlink:href="/about-avail/documentation/modules/name-resolution.html#filter" xlink:title="Filter the candidate atoms by using available argument type information. This is only possible for atoms with attached methods." target="_top">
<polygon fill="#87cefa" stroke="black" points="270,-196 223,-167 270,-138 317,-167 270,-196"/>
<text text-anchor="middle" x="270" y="-170" font-family="Helvetica,sans-Serif" font-size="10.00" fill="#0000a0">Filter by</text>
<text text-anchor="middle" x="270" y="-158" font-family="Helvetica,sans-Serif" font-size="10.00" fill="#0000a0">Argument Type</text>
</a>
</g>
</g>
<!-- typeInfo&#45;&gt;filter -->
<g id="edge10" class="edge"><title>typeInfo&#45;&gt;filter</title>
<path fill="none" stroke="black" d="M270,-243.856C270,-232.295 270,-218.725 270,-206.283"/>
<polygon fill="black" stroke="black" points="273.5,-206.166 270,-196.166 266.5,-206.166 273.5,-206.166"/>
<text text-anchor="middle" x="278.252" y="-217.3" font-family="Helvetica,sans-Serif" font-size="9.00" fill="#808080"> yes</text>
</g>
<!-- ambiguous -->
<g id="node11" class="node"><title>ambiguous</title>
<g id="a_node11"><a xlink:title="Even after considering available type information, the name corresponds to more than one visible atom. Report failure." target="_top">
<ellipse fill="#e41e1e" stroke="black" cx="374" cy="-61" rx="47" ry="29"/>
<text text-anchor="middle" x="374" y="-58" font-family="Helvetica,sans-Serif" font-size="10.00" fill="#ffffff">Ambiguous</text>
</a>
</g>
</g>
<!-- typeInfo&#45;&gt;ambiguous -->
<g id="edge11" class="edge"><title>typeInfo&#45;&gt;ambiguous</title>
<path fill="none" stroke="black" d="M285.901,-253.66C298.117,-238.868 314.749,-217.119 326,-196 342.557,-164.921 355.554,-126.922 363.824,-99.3368"/>
<polygon fill="black" stroke="black" points="367.202,-100.258 366.655,-89.677 360.484,-98.2891 367.202,-100.258"/>
<text text-anchor="middle" x="356.254" y="-164.3" font-family="Helvetica,sans-Serif" font-size="9.00" fill="#808080"> no</text>
</g>
<!-- filter&#45;&gt;resolved -->
<g id="edge13" class="edge"><title>filter&#45;&gt;resolved</title>
<path fill="none" stroke="black" d="M252.18,-148.599C239.977,-136.866 223.297,-121.183 208,-108 201.282,-102.211 193.973,-96.2008 186.878,-90.5092"/>
<polygon fill="black" stroke="black" points="188.702,-87.4886 178.696,-84.0066 184.347,-92.9686 188.702,-87.4886"/>
<text text-anchor="middle" x="224.752" y="-111.3" font-family="Helvetica,sans-Serif" font-size="9.00" fill="#808080"> 1</text>
</g>
<!-- unresolvable -->
<g id="node10" class="node"><title>unresolvable</title>
<g id="a_node10"><a xlink:title="The name does not occur in the module&#39;s internal directory of visible names. Report failure." target="_top">
<ellipse fill="#e41e1e" stroke="black" cx="262" cy="-61" rx="47" ry="29"/>
<text text-anchor="middle" x="262" y="-58" font-family="Helvetica,sans-Serif" font-size="10.00" fill="#ffffff">Unresolvable</text>
</a>
</g>
</g>
<!-- filter&#45;&gt;unresolvable -->
<g id="edge12" class="edge"><title>filter&#45;&gt;unresolvable</title>
<path fill="none" stroke="black" d="M267.94,-139.217C267.027,-127.345 265.935,-113.159 264.939,-100.204"/>
<polygon fill="black" stroke="black" points="268.422,-99.8481 264.165,-90.146 261.442,-100.385 268.422,-99.8481"/>
<text text-anchor="middle" x="270.752" y="-111.3" font-family="Helvetica,sans-Serif" font-size="9.00" fill="#808080"> 0</text>
</g>
<!-- filter&#45;&gt;ambiguous -->
<g id="edge14" class="edge"><title>filter&#45;&gt;ambiguous</title>
<path fill="none" stroke="black" d="M287.642,-148.358C302.652,-133.348 324.574,-111.426 342.575,-93.425"/>
<polygon fill="black" stroke="black" points="345.422,-95.5281 350.018,-85.9821 340.472,-90.5783 345.422,-95.5281"/>
<text text-anchor="middle" x="335.005" y="-111.3" font-family="Helvetica,sans-Serif" font-size="9.00" fill="#808080"> ≥ 2</text>
</g>
</g>
</svg>
