<?xml version="1.0" encoding="UTF-8" standalone="no"?>
<!DOCTYPE svg PUBLIC "-//W3C//DTD SVG 1.1//EN"
 "http://www.w3.org/Graphics/SVG/1.1/DTD/svg11.dtd">
<!-- Generated by graphviz version 2.36.0 (20140111.2315)
 -->
<!-- Title: Module dependencies: upstream vs. downstream Pages: 1 -->
<svg width="248pt" height="289pt"
 viewBox="0.00 0.00 248.04 288.80" xmlns="http://www.w3.org/2000/svg" xmlns:xlink="http://www.w3.org/1999/xlink">
<g id="graph0" class="graph" transform="scale(1 1) rotate(0) translate(4 284.8)">
<title>Module dependencies: upstream vs. downstream</title>
<polygon fill="white" stroke="none" points="-4,4 -4,-284.8 244.043,-284.8 244.043,4 -4,4"/>
<text text-anchor="middle" x="120.022" y="-25.6" font-family="Helvetica,sans-Serif" font-size="8.00">Module dependencies.</text>
<text text-anchor="middle" x="120.022" y="-16" font-family="Helvetica,sans-Serif" font-size="8.00">Red is upstream of M, blue is downstream.</text>
<text text-anchor="middle" x="120.022" y="-6.4" font-family="Helvetica,sans-Serif" font-size="8.00">Arrows point against the flow (because they represent imports).</text>
<!-- A -->
<g id="node1" class="node"><title>A</title>
<polygon fill="#ff3366" stroke="black" points="70.2416,-280.8 46.8016,-280.8 46.8016,-260.8 70.2416,-260.8 70.2416,-280.8"/>
<text text-anchor="middle" x="58.5216" y="-267.8" font-family="Consolas" font-size="10.00" fill="#ffffff">A</text>
</g>
<!-- B -->
<g id="node2" class="node"><title>B</title>
<polygon fill="#ff3366" stroke="black" points="110.693,-280.8 88.3502,-280.8 88.3502,-260.8 110.693,-260.8 110.693,-280.8"/>
<text text-anchor="middle" x="99.5216" y="-267.8" font-family="Consolas" font-size="10.00" fill="#ffffff">B</text>
</g>
<!-- C -->
<g id="node3" class="node"><title>C</title>
<polygon fill="#ff3366" stroke="black" points="151.693,-280.8 129.35,-280.8 129.35,-260.8 151.693,-260.8 151.693,-280.8"/>
<text text-anchor="middle" x="140.522" y="-267.8" font-family="Consolas" font-size="10.00" fill="#ffffff">C</text>
</g>
<!-- D -->
<g id="node4" class="node"><title>D</title>
<polygon fill="#ff3366" stroke="black" points="111.242,-224.8 87.8016,-224.8 87.8016,-204.8 111.242,-204.8 111.242,-224.8"/>
<text text-anchor="middle" x="99.5216" y="-211.8" font-family="Consolas" font-size="10.00" fill="#ffffff">D</text>
</g>
<!-- D&#45;&gt;A -->
<g id="edge1" class="edge"><title>D&#45;&gt;A</title>
<path fill="none" stroke="black" d="M92.3799,-225.206C86.6772,-232.717 78.5316,-243.445 71.6591,-252.497"/>
<polygon fill="black" stroke="black" points="68.841,-250.421 65.5814,-260.502 74.4161,-254.654 68.841,-250.421"/>
</g>
<!-- D&#45;&gt;B -->
<g id="edge2" class="edge"><title>D&#45;&gt;B</title>
<path fill="none" stroke="black" d="M99.5216,-225.206C99.5216,-232.098 99.5216,-241.698 99.5216,-250.226"/>
<polygon fill="black" stroke="black" points="96.0217,-250.502 99.5216,-260.502 103.022,-250.502 96.0217,-250.502"/>
</g>
<!-- E -->
<g id="node5" class="node"><title>E</title>
<polygon fill="#ff3366" stroke="black" points="151.631,-224.8 129.412,-224.8 129.412,-204.8 151.631,-204.8 151.631,-224.8"/>
<text text-anchor="middle" x="140.522" y="-211.8" font-family="Consolas" font-size="10.00" fill="#ffffff">E</text>
</g>
<!-- E&#45;&gt;C -->
<g id="edge3" class="edge"><title>E&#45;&gt;C</title>
<path fill="none" stroke="black" d="M140.522,-225.206C140.522,-232.098 140.522,-241.698 140.522,-250.226"/>
<polygon fill="black" stroke="black" points="137.022,-250.502 140.522,-260.502 144.022,-250.502 137.022,-250.502"/>
</g>
<!-- M -->
<g id="node6" class="node"><title>M</title>
<polygon fill="#e8e8e8" stroke="black" points="131.911,-168.8 107.132,-168.8 107.132,-148.8 131.911,-148.8 131.911,-168.8"/>
<text text-anchor="middle" x="119.522" y="-155.8" font-family="Consolas" font-size="10.00" fill="#000000">M</text>
</g>
<!-- M&#45;&gt;D -->
<g id="edge4" class="edge"><title>M&#45;&gt;D</title>
<path fill="none" stroke="black" d="M116.038,-169.206C113.399,-176.33 109.689,-186.348 106.453,-195.084"/>
<polygon fill="black" stroke="black" points="103.156,-193.909 102.965,-204.502 109.721,-196.34 103.156,-193.909"/>
</g>
<!-- M&#45;&gt;E -->
<g id="edge5" class="edge"><title>M&#45;&gt;E</title>
<path fill="none" stroke="black" d="M123.18,-169.206C125.95,-176.33 129.846,-186.348 133.243,-195.084"/>
<polygon fill="black" stroke="black" points="130.019,-196.45 136.906,-204.502 136.543,-193.913 130.019,-196.45"/>
</g>
<!-- U -->
<g id="node7" class="node"><title>U</title>
<polygon fill="#3366ff" stroke="black" points="70.2416,-112.8 46.8016,-112.8 46.8016,-92.8 70.2416,-92.8 70.2416,-112.8"/>
<text text-anchor="middle" x="58.5216" y="-99.8" font-family="Consolas" font-size="10.00" fill="#ffffff">U</text>
</g>
<!-- U&#45;&gt;M -->
<g id="edge6" class="edge"><title>U&#45;&gt;M</title>
<path fill="none" stroke="black" d="M68.8694,-112.96C77.8623,-120.921 91.0858,-132.627 101.767,-142.083"/>
<polygon fill="black" stroke="black" points="99.519,-144.767 109.327,-148.775 104.159,-139.526 99.519,-144.767"/>
</g>
<!-- V -->
<g id="node8" class="node"><title>V</title>
<polygon fill="#3366ff" stroke="black" points="152.242,-112.8 128.802,-112.8 128.802,-92.8 152.242,-92.8 152.242,-112.8"/>
<text text-anchor="middle" x="140.522" y="-99.8" font-family="Consolas" font-size="10.00" fill="#ffffff">V</text>
</g>
<!-- V&#45;&gt;M -->
<g id="edge7" class="edge"><title>V&#45;&gt;M</title>
<path fill="none" stroke="black" d="M136.864,-113.206C134.093,-120.33 130.197,-130.348 126.8,-139.084"/>
<polygon fill="black" stroke="black" points="123.5,-137.913 123.138,-148.502 130.024,-140.45 123.5,-137.913"/>
</g>
<!-- X -->
<g id="node9" class="node"><title>X</title>
<polygon fill="#3366ff" stroke="black" points="193.242,-112.8 169.802,-112.8 169.802,-92.8 193.242,-92.8 193.242,-112.8"/>
<text text-anchor="middle" x="181.522" y="-99.8" font-family="Consolas" font-size="10.00" fill="#ffffff">X</text>
</g>
<!-- X&#45;&gt;M -->
<g id="edge8" class="edge"><title>X&#45;&gt;M</title>
<path fill="none" stroke="black" d="M171.004,-112.96C161.864,-120.921 148.424,-132.627 137.568,-142.083"/>
<polygon fill="black" stroke="black" points="135.126,-139.568 129.884,-148.775 139.723,-144.846 135.126,-139.568"/>
</g>
<!-- Y -->
<g id="node10" class="node"><title>Y</title>
<polygon fill="#3366ff" stroke="black" points="111.242,-112.8 87.8016,-112.8 87.8016,-92.8 111.242,-92.8 111.242,-112.8"/>
<text text-anchor="middle" x="99.5216" y="-99.8" font-family="Consolas" font-size="10.00" fill="#ffffff">Y</text>
</g>
<!-- Y&#45;&gt;M -->
<g id="edge9" class="edge"><title>Y&#45;&gt;M</title>
<path fill="none" stroke="black" d="M103.005,-113.206C105.644,-120.33 109.354,-130.348 112.59,-139.084"/>
<polygon fill="black" stroke="black" points="109.322,-140.34 116.078,-148.502 115.887,-137.909 109.322,-140.34"/>
</g>
<!-- Z -->
<g id="node11" class="node"><title>Z</title>
<polygon fill="#3366ff" stroke="black" points="89.6309,-56.8 67.4123,-56.8 67.4123,-36.8 89.6309,-36.8 89.6309,-56.8"/>
<text text-anchor="middle" x="78.5216" y="-43.8" font-family="Consolas" font-size="10.00" fill="#ffffff">Z</text>
</g>
<!-- Z&#45;&gt;U -->
<g id="edge10" class="edge"><title>Z&#45;&gt;U</title>
<path fill="none" stroke="black" d="M75.0379,-57.2061C72.3994,-64.3299 68.6891,-74.3479 65.4533,-83.0845"/>
<polygon fill="black" stroke="black" points="62.1565,-81.9086 61.9654,-92.5017 68.7207,-84.3398 62.1565,-81.9086"/>
</g>
<!-- Z&#45;&gt;Y -->
<g id="edge11" class="edge"><title>Z&#45;&gt;Y</title>
<path fill="none" stroke="black" d="M82.1795,-57.2061C84.9499,-64.3299 88.8458,-74.3479 92.2433,-83.0845"/>
<polygon fill="black" stroke="black" points="89.0191,-84.4502 95.9056,-92.5017 95.5431,-81.9131 89.0191,-84.4502"/>
</g>
</g>
</svg>
