<?xml version="1.0" encoding="UTF-8" standalone="no"?>
<!DOCTYPE svg PUBLIC "-//W3C//DTD SVG 1.1//EN"
 "http://www.w3.org/Graphics/SVG/1.1/DTD/svg11.dtd">
<!-- Generated by graphviz version 2.36.0 (20140111.2315)
 -->
<!-- Title: Until_do_ Pages: 1 -->
<svg width="134pt" height="198pt"
 viewBox="0.00 0.00 134.00 198.00" xmlns="http://www.w3.org/2000/svg" xmlns:xlink="http://www.w3.org/1999/xlink">
<g id="graph0" class="graph" transform="scale(1 1) rotate(0) translate(4 194)">
<title>Until_do_</title>
<polygon fill="white" stroke="none" points="-4,4 -4,-194 130,-194 130,4 -4,4"/>
<text text-anchor="middle" x="63" y="-177" font-family="Consolas" font-size="10.00" fill="#0000a0">&quot;Until_do_&quot;</text>
<!-- start -->
<g id="node1" class="node"><title>start</title>
</g>
<!-- predicate -->
<g id="node2" class="node"><title>predicate</title>
<polygon fill="none" stroke="black" points="61,-120 10.8535,-102 61,-84 111.147,-102 61,-120"/>
<text text-anchor="middle" x="61" y="-99" font-family="Consolas" font-size="10.00" fill="#0000a0">predicate()</text>
</g>
<!-- start&#45;&gt;predicate -->
<g id="edge1" class="edge"><title>start&#45;&gt;predicate</title>
<path fill="none" stroke="black" d="M61,-167.953C61,-166.883 61,-147.793 61,-130.584"/>
<polygon fill="black" stroke="black" points="64.5001,-130.291 61,-120.291 57.5001,-130.291 64.5001,-130.291"/>
<text text-anchor="middle" x="72.4993" y="-141.3" font-family="Helvetica,sans-Serif" font-size="9.00" fill="#808080"> start</text>
</g>
<!-- body -->
<g id="node3" class="node"><title>body</title>
<ellipse fill="none" stroke="black" cx="27" cy="-18" rx="27" ry="18"/>
<text text-anchor="middle" x="27" y="-15" font-family="Consolas" font-size="10.00" fill="#0000a0">body()</text>
</g>
<!-- predicate&#45;&gt;body -->
<g id="edge3" class="edge"><title>predicate&#45;&gt;body</title>
<path fill="none" stroke="black" d="M45.8233,-89.4042C39.0338,-83.2691 31.7299,-75.1204 27.9956,-66 25.4791,-59.8538 24.4618,-52.866 24.2449,-46.1927"/>
<polygon fill="black" stroke="black" points="27.7454,-46.2044 24.4625,-36.1311 20.747,-46.053 27.7454,-46.2044"/>
<text text-anchor="middle" x="37.5022" y="-57.3" font-family="Helvetica,sans-Serif" font-size="9.00" fill="#808080">false</text>
</g>
<!-- exit -->
<g id="node4" class="node"><title>exit</title>
<ellipse fill="#dda0dd" stroke="black" cx="99" cy="-18" rx="27" ry="18"/>
<text text-anchor="middle" x="99" y="-15" font-family="Consolas" font-size="10.00" fill="#0000a0">exit</text>
</g>
<!-- predicate&#45;&gt;exit -->
<g id="edge2" class="edge"><title>predicate&#45;&gt;exit</title>
<path fill="none" stroke="black" d="M67.7936,-86.34C73.1189,-74.8486 80.6628,-58.5697 86.9993,-44.8963"/>
<polygon fill="black" stroke="black" points="90.3218,-46.0508 91.3508,-35.5061 83.9706,-43.1075 90.3218,-46.0508"/>
<text text-anchor="middle" x="89.7517" y="-57.3" font-family="Helvetica,sans-Serif" font-size="9.00" fill="#808080">true</text>
</g>
<!-- body&#45;&gt;predicate -->
<g id="edge4" class="edge"><title>body&#45;&gt;predicate</title>
<path fill="none" stroke="black" d="M37.1618,-34.9828C40.5928,-40.8178 44.2468,-47.5658 47,-54 49.8805,-60.7317 52.4056,-68.2446 54.489,-75.2543"/>
<polygon fill="black" stroke="black" points="51.154,-76.3248 57.2154,-85.0144 57.8959,-74.4415 51.154,-76.3248"/>
</g>
</g>
</svg>
